<svg viewBox="0 0 126 125" fill="none" xmlns="http://www.w3.org/2000/svg">
<path fill-rule="evenodd" clip-rule="evenodd" d="M94.395 72.0684L92.5175 77.018V104.753C92.5175 109.446 76.0473 106.545 71.3538 106.63L26.8928 107.484C22.2846 107.569 9.91064 109.446 9.91064 104.753V77.018L8.0332 72.0684C35.5119 71.727 66.7456 70.8737 94.395 72.0684Z" fill="#C3EFFA"/>
<path fill-rule="evenodd" clip-rule="evenodd" d="M92.5175 91.5254H9.91064V104.753C9.91064 118.919 92.5175 118.919 92.5175 104.753V91.5254Z" fill="#24C2E9"/>
<path d="M51.2141 78.6393C75.0622 78.6393 94.395 75.6974 94.395 72.0683C94.395 68.4392 75.0622 65.4973 51.2141 65.4973C27.3659 65.4973 8.0332 68.4392 8.0332 72.0683C8.0332 75.6974 27.3659 78.6393 51.2141 78.6393Z" fill="#78D4EB"/>
<path d="M51.2141 98.0964C74.0253 98.0964 92.5175 95.1544 92.5175 91.5253C92.5175 87.8963 74.0253 84.9543 51.2141 84.9543C28.4028 84.9543 9.91064 87.8963 9.91064 91.5253C9.91064 95.1544 28.4028 98.0964 51.2141 98.0964Z" fill="#8CE4FA"/>
<path fill-rule="evenodd" clip-rule="evenodd" d="M77.4981 89.5626C78.1808 89.5626 78.8635 89.6479 79.4609 89.7333C79.1196 89.6479 78.7782 89.648 78.3515 89.648C75.3647 89.648 72.8899 90.3307 72.8899 91.0987C72.8899 91.7814 74.3406 92.2934 76.3887 92.4641C73.9139 92.3787 72.0365 91.7814 72.0365 91.0987C72.0365 90.2453 74.4259 89.5626 77.4981 89.5626Z" fill="#00A859"/>
<path fill-rule="evenodd" clip-rule="evenodd" d="M80.8263 90.0746C81.253 90.2453 81.509 90.4159 81.509 90.6719C81.509 91.2693 79.7169 91.696 77.5835 91.696C75.8767 91.696 74.426 91.44 73.8286 91.0133C74.5967 91.3547 75.7914 91.5253 77.1568 91.5253C79.3756 91.5253 81.0823 91.0133 81.0823 90.5013C81.0823 90.3306 80.997 90.1599 80.8263 90.0746Z" fill="#00A859"/>
<path fill-rule="evenodd" clip-rule="evenodd" d="M75.8766 93.1468C74.6819 93.1468 73.5725 93.0615 72.5485 92.9762C73.1458 93.0615 73.7432 93.0615 74.4259 93.0615C79.4608 93.0615 83.557 91.9521 83.557 90.5867C83.557 89.5626 81.1676 88.7093 77.6687 88.3679C81.8503 88.5386 85.0931 89.5626 85.0931 90.7574C85.0931 92.0374 80.9115 93.1468 75.8766 93.1468Z" fill="#24C2E9"/>
<path fill-rule="evenodd" clip-rule="evenodd" d="M71.0125 91.6107C70.4151 91.3547 70.0737 91.0133 70.0737 90.5866C70.0737 89.6479 72.4632 88.8799 75.3647 88.8799C77.5835 88.8799 79.5463 89.3065 80.3143 89.9892C79.2902 89.4772 77.7541 89.2212 75.8767 89.2212C72.9752 89.2212 70.5858 89.9893 70.5858 90.928C70.5858 91.184 70.7564 91.44 71.0125 91.6107Z" fill="#24C2E9"/>
<path d="M51.2141 77.8713C74.2139 77.8713 92.8589 75.2732 92.8589 72.0683C92.8589 68.8635 74.2139 66.2654 51.2141 66.2654C28.2143 66.2654 9.56934 68.8635 9.56934 72.0683C9.56934 75.2732 28.2143 77.8713 51.2141 77.8713Z" fill="#D6F7FF"/>
<path fill-rule="evenodd" clip-rule="evenodd" d="M104.123 33.3251L103.27 28.8022L90.2987 28.6316C86.3732 28.6316 84.8371 32.5571 82.4477 38.3601C80.0582 44.0777 76.5593 60.9745 75.8766 76.25C75.1086 91.5254 75.194 91.4401 75.194 91.4401L77.9248 91.5254L79.9729 91.4401C79.9729 91.4401 78.4368 77.53 80.7409 57.9877C82.277 44.5044 85.0078 38.1041 86.9706 34.6906C88.848 31.2771 92.0908 28.2902 93.2855 34.6906L104.123 33.3251Z" fill="#00A859"/>
<path fill-rule="evenodd" clip-rule="evenodd" d="M86.7999 34.9465C88.6774 35.4585 88.9333 34.3491 89.616 32.813C89.616 32.813 103.697 51.0753 106.598 53.3795C109.585 55.6836 112.572 55.2568 113.767 54.0621C114.876 52.8674 115.132 52.3554 115.132 52.3554C118.375 45.443 121.618 38.5307 124.861 31.7037C124.861 31.7037 125.117 31.1916 125.373 29.5702C125.543 27.9488 124.007 25.3033 120.338 24.4499C116.753 23.6819 93.7123 24.2793 93.7123 24.2793C94.5656 22.4872 95.0776 21.8898 93.5415 20.7804C91.3228 25.474 89.0187 30.2529 86.7999 34.9465Z" fill="#BADEF0"/>
<path fill-rule="evenodd" clip-rule="evenodd" d="M89.616 32.813L93.7123 24.2793C94.5656 22.4872 95.0776 21.8898 93.5415 20.7804C91.3228 25.474 89.0187 30.2529 86.7999 34.9465C88.08 35.2878 88.592 34.8612 89.0187 34.1785L89.616 32.813Z" fill="#73C5EE"/>
<path fill-rule="evenodd" clip-rule="evenodd" d="M89.7867 28.6316L88.5066 31.4477C91.3227 34.8612 104.635 51.8435 106.598 53.3795C108.646 54.9156 112.572 55.2569 113.767 54.0622C114.876 52.8675 115.132 52.3555 115.132 52.3555C118.375 45.4431 121.618 38.5308 124.86 31.7038C124.86 31.7038 125.116 31.1917 125.372 29.5703C125.372 29.229 125.372 28.9729 125.202 28.6316H89.7867Z" fill="#00A859"/>
<path fill-rule="evenodd" clip-rule="evenodd" d="M29.0262 52.3554C28.7702 55.4275 26.2954 57.9876 21.9432 58.6703C17.591 59.353 12.2147 55.4275 11.7027 53.2941C11.1907 51.0753 11.532 52.014 11.6173 51.4166C6.49706 50.99 2.2302 48.4298 1.03547 43.7362C-0.0739187 39.128 3.93692 33.8371 10.3372 32.7277C8.54516 27.2661 14.0068 20.3537 19.9804 20.0977C21.5165 20.0124 23.0526 20.8657 24.3326 21.1217C24.1619 15.5748 28.6849 10.7105 36.1946 9.51581C43.7043 8.40642 51.8114 12.4173 53.3475 18.6469C55.6516 18.0496 60.0892 17.2816 63.588 19.159C67.1722 21.0364 69.8177 25.6447 68.7936 29.5702C72.5485 29.9116 75.7913 32.3863 76.474 35.1171C77.1567 37.8479 76.0473 39.8107 73.9992 41.3468C75.1939 42.5415 75.6206 42.2002 76.474 45.5283C77.242 48.7712 73.1458 55.4275 67.0868 56.3662C61.0278 57.305 55.9076 54.7448 53.8595 50.6486C53.8595 50.6486 53.8595 50.5632 53.7742 50.6486C53.3475 51.1606 52.1528 51.8434 51.0434 51.8434C49.934 51.8434 48.6539 51.5873 47.6298 50.5633C43.1923 62.6812 45.0697 80.0047 49.6779 91.5253C42.5949 93.3174 35.6825 93.3174 28.9409 91.5253C33.1224 81.2848 35.5119 64.644 31.9277 53.2941C30.989 54.6595 29.2822 53.3794 29.0262 52.3554Z" fill="#00AFEF"/>
<path d="M31.4158 77.1886L32.2691 77.274C34.9146 77.4446 43.107 77.8713 47.2032 77.8713V78.6394C43.107 78.6394 34.8293 78.1273 32.2691 77.9567C31.7571 77.9567 31.4158 77.8713 31.4158 77.8713V77.1886Z" fill="#78D4EB"/>
<path d="M64.9534 55.4275C70.5148 55.4275 75.0232 52.0271 75.0232 47.8325C75.0232 43.6378 70.5148 40.2374 64.9534 40.2374C59.392 40.2374 54.8835 43.6378 54.8835 47.8325C54.8835 52.0271 59.392 55.4275 64.9534 55.4275Z" fill="url(#paint0_radial)"/>
<path fill-rule="evenodd" clip-rule="evenodd" d="M44.6431 115.249C51.8114 115.505 59.1505 115.335 65.9775 114.737V78.2126C61.3693 78.4687 56.4196 78.6394 51.214 78.6394C48.9953 78.6394 46.8618 78.6393 44.6431 78.554V115.249ZM72.2071 114.054C74.5112 113.713 76.73 113.372 78.6928 112.945V77.1033C76.73 77.3593 74.5112 77.6152 72.2071 77.7859V114.054Z" fill="#FEFEFE" fill-opacity="0.278431"/>
<defs>
<radialGradient id="paint0_radial" cx="0" cy="0" r="1" gradientUnits="userSpaceOnUse" gradientTransform="translate(64.9666 47.8325) scale(47.6194 47.6184)">
<stop stop-color="#FEFEFE"/>
<stop offset="1" stop-color="#00AFEF"/>
</radialGradient>
</defs>
</svg>