<svg viewBox="0 0 86 125" fill="none" xmlns="http://www.w3.org/2000/svg">
<path fill-rule="evenodd" clip-rule="evenodd" d="M85.678 36.0558V106.033C85.678 116.188 77.4002 124.551 67.1597 124.551H26.1976C16.0424 124.551 7.6793 116.188 7.6793 106.033V55.0008C7.6793 48.8565 0.766968 44.5043 0.766968 35.9705H11.4342L67.0744 34.6904L85.678 36.0558Z" fill="#C3EFFA"/>
<path d="M43.1798 44.9309C66.6509 44.9309 85.678 40.9574 85.678 36.0558C85.678 31.1542 66.6509 27.1807 43.1798 27.1807C19.7087 27.1807 0.681641 31.1542 0.681641 36.0558C0.681641 40.9574 19.7087 44.9309 43.1798 44.9309Z" fill="#B4EAF7"/>
<path d="M46.6786 85.6371C68.2174 85.6371 85.678 81.6636 85.678 76.762C85.678 71.8604 68.2174 67.8868 46.6786 67.8868C25.1399 67.8868 7.67932 71.8604 7.67932 76.762C7.67932 81.6636 25.1399 85.6371 46.6786 85.6371Z" fill="#918BC2"/>
<path fill-rule="evenodd" clip-rule="evenodd" d="M46.6786 85.6371C25.1735 85.6371 7.67932 81.6262 7.67932 76.762V106.033C7.67932 116.188 16.0425 124.551 26.1976 124.551H67.1597C77.4002 124.551 85.678 116.188 85.678 106.033V76.762C85.678 81.6262 68.2691 85.6371 46.6786 85.6371Z" fill="#7A75B5"/>
<path d="M43.1798 44.1629C65.9439 44.1629 84.3979 40.5332 84.3979 36.0558C84.3979 31.5784 65.9439 27.9487 43.1798 27.9487C20.4157 27.9487 1.96167 31.5784 1.96167 36.0558C1.96167 40.5332 20.4157 44.1629 43.1798 44.1629Z" fill="#D4F6FF"/>
<path d="M47.788 44.0776H38.4009V44.8457H47.788V44.0776Z" fill="#B4EAF7"/>
<path fill-rule="evenodd" clip-rule="evenodd" d="M36.2676 0.128662C37.4623 0.128662 38.7423 0.299335 39.8517 0.726023C42.7532 1.83541 43.7772 5.5903 43.9479 8.49178C44.2893 15.3188 42.5825 18.8176 41.9852 19.3296C40.2784 20.439 38.3157 21.0364 36.2676 21.0364C30.4646 21.0364 25.771 16.3428 25.771 10.5399C25.771 4.82225 30.4646 0.128662 36.2676 0.128662Z" fill="url(#paint0_radial)"/>
<path d="M59.0527 115.847C64.8498 115.847 69.5492 111.147 69.5492 105.35C69.5492 99.553 64.8498 94.8535 59.0527 94.8535C53.2556 94.8535 48.5562 99.553 48.5562 105.35C48.5562 111.147 53.2556 115.847 59.0527 115.847Z" fill="url(#paint1_radial)"/>
<path d="M34.9874 113.03C39.182 113.03 42.5824 109.63 42.5824 105.435C42.5824 101.241 39.182 97.8403 34.9874 97.8403C30.7928 97.8403 27.3923 101.241 27.3923 105.435C27.3923 109.63 30.7928 113.03 34.9874 113.03Z" fill="url(#paint2_radial)"/>
<path fill-rule="evenodd" clip-rule="evenodd" d="M79.2777 120.028C78.1683 121.052 76.9736 121.82 75.6082 122.503V41.8587C76.9736 41.5174 78.1683 41.1761 79.2777 40.8347V120.028ZM71.6826 124.039C70.2319 124.38 68.6958 124.636 67.1597 124.636H54.9564V44.6749C61.2714 44.2482 66.989 43.6509 71.6826 42.7122V124.039Z" fill="#FEFEFE" fill-opacity="0.321569"/>
<path d="M31.3179 43.8217L38.4862 44.0777L38.6569 44.163C38.6569 44.163 45.0573 46.0404 47.4467 49.4539C48.5561 51.0753 49.9215 52.8674 51.543 54.3182C53.1644 55.6836 54.9564 56.7076 57.0899 56.793C59.138 56.793 60.7594 55.769 62.1248 54.2329C63.4902 52.6115 64.5996 50.5633 65.3676 48.6859C66.1357 46.8938 67.0744 45.4431 67.9278 44.3337C69.0372 42.8829 70.1465 42.2002 70.8292 42.1149C71.7679 41.8589 72.8774 41.6882 72.8774 41.6882L73.048 42.3709C73.048 42.3709 72.0239 42.6269 71.0852 42.7976C70.6585 42.8829 69.8052 43.8217 68.8665 45.1018C68.0985 46.1258 67.2451 47.4912 66.4771 49.1979C65.6237 51.1607 64.5143 53.2941 62.9782 55.0009C61.4421 56.793 59.4794 57.9877 57.0046 57.9877C54.6151 57.9024 52.567 56.793 50.7749 55.2569C48.9828 53.7208 47.6174 51.8434 46.4226 50.1366C44.4599 47.2352 39.0836 45.1017 38.4009 44.931L31.2325 44.5897L31.3179 43.8217Z" fill="#B4EAF7"/>
<path d="M42.8385 57.2195V24.0232H41.3024V57.2195H38.2302L42.0705 64.2172L45.9106 57.2195H42.8385Z" fill="#373435"/>
<defs>
<radialGradient id="paint0_radial" cx="0" cy="0" r="1" gradientUnits="userSpaceOnUse" gradientTransform="translate(36.2105 10.5062) scale(156.857 180.062)">
<stop stop-color="#FEFEFE"/>
<stop offset="1" stop-color="#309FD8"/>
</radialGradient>
<radialGradient id="paint1_radial" cx="0" cy="0" r="1" gradientUnits="userSpaceOnUse" gradientTransform="translate(59.0817 105.315) scale(146.098 146.097)">
<stop stop-color="#FEFEFE"/>
<stop offset="1" stop-color="#00A859"/>
</radialGradient>
<radialGradient id="paint2_radial" cx="0" cy="0" r="1" gradientUnits="userSpaceOnUse" gradientTransform="translate(35.0522 105.373) scale(146.104 146.093)">
<stop stop-color="#FEFEFE"/>
<stop offset="1" stop-color="#43A2DA"/>
</radialGradient>
</defs>
</svg>