<svg viewBox="0 0 126 57" fill="none" xmlns="http://www.w3.org/2000/svg">
<path d="M82.4964 13.4912H54.591C46.2488 13.4912 39.4862 20.2538 39.4862 28.596V32.2655C39.4862 40.6076 46.2488 47.3703 54.591 47.3703H82.4964C90.8385 47.3703 97.6012 40.6076 97.6012 32.2655V28.596C97.6012 20.2538 90.8385 13.4912 82.4964 13.4912Z" fill="#C97F30"/>
<path d="M82.7524 14.6006H54.847C46.5048 14.6006 39.7422 21.3633 39.7422 29.7054V33.3749C39.7422 41.7171 46.5048 48.4797 54.847 48.4797H82.7524C91.0945 48.4797 97.8572 41.7171 97.8572 33.3749V29.7054C97.8572 21.3633 91.0945 14.6006 82.7524 14.6006Z" fill="#FFD159"/>
<path d="M68.8424 43.018C79.3054 43.018 87.7874 37.8982 87.7874 31.5827C87.7874 25.2672 79.3054 20.1475 68.8424 20.1475C58.3794 20.1475 49.8975 25.2672 49.8975 31.5827C49.8975 37.8982 58.3794 43.018 68.8424 43.018Z" fill="#FFBB4E"/>
<path d="M53.5821 31.6173L54.5963 31.5286C54.6443 31.935 54.7552 32.2694 54.9288 32.5317C55.1062 32.7903 55.3796 33.0009 55.749 33.1635C56.1185 33.3224 56.5341 33.4018 56.996 33.4018C57.4061 33.4018 57.7681 33.3408 58.0822 33.2189C58.3962 33.097 58.629 32.9307 58.7805 32.7201C58.9356 32.5058 59.0132 32.2731 59.0132 32.0218C59.0132 31.7669 58.9393 31.5452 58.7916 31.3568C58.6438 31.1647 58.3999 31.004 58.06 30.8747C57.842 30.7897 57.3599 30.6585 56.6136 30.4812C55.8673 30.3001 55.3445 30.1302 55.0452 29.9713C54.6573 29.7681 54.3672 29.5169 54.1751 29.2176C53.9867 28.9147 53.8925 28.5766 53.8925 28.2034C53.8925 27.7933 54.0089 27.4109 54.2416 27.0563C54.4744 26.6979 54.8143 26.4263 55.2613 26.2416C55.7084 26.0569 56.2053 25.9645 56.7521 25.9645C57.3543 25.9645 57.8845 26.0624 58.3427 26.2582C58.8045 26.4503 59.1592 26.7348 59.4067 27.1117C59.6543 27.4885 59.7873 27.9153 59.8057 28.3919L58.7749 28.4695C58.7195 27.9559 58.5311 27.568 58.2097 27.3056C57.8919 27.0433 57.4208 26.9122 56.7965 26.9122C56.1462 26.9122 55.6714 27.0322 55.3722 27.2724C55.0766 27.5088 54.9288 27.7952 54.9288 28.1314C54.9288 28.4233 55.0341 28.6634 55.2447 28.8518C55.4516 29.0403 55.991 29.2342 56.863 29.4338C57.7386 29.6296 58.339 29.8014 58.6641 29.9492C59.137 30.1671 59.4861 30.4442 59.7115 30.7804C59.9369 31.113 60.0496 31.4972 60.0496 31.9332C60.0496 32.3654 59.9258 32.7737 59.6783 33.1579C59.4307 33.5385 59.0742 33.8359 58.6087 34.0502C58.1468 34.2608 57.6259 34.3661 57.0458 34.3661C56.3106 34.3661 55.6936 34.2589 55.1948 34.0447C54.6998 33.8304 54.31 33.5089 54.0255 33.0804C53.7447 32.6481 53.5969 32.1604 53.5821 31.6173ZM61.1912 30.2706C61.1912 28.922 61.5533 27.8672 62.2774 27.1061C63.0016 26.3413 63.9363 25.959 65.0817 25.959C65.8317 25.959 66.5078 26.1381 67.11 26.4965C67.7122 26.8549 68.1704 27.3555 68.4844 27.9984C68.8022 28.6376 68.961 29.3636 68.961 30.1764C68.961 31.0003 68.7948 31.7374 68.4623 32.3876C68.1297 33.0379 67.6587 33.5311 67.0491 33.8673C66.4394 34.1998 65.7818 34.3661 65.0761 34.3661C64.3113 34.3661 63.6278 34.1814 63.0256 33.8119C62.4234 33.4424 61.9671 32.9381 61.6567 32.2989C61.3464 31.6598 61.1912 30.9837 61.1912 30.2706ZM62.2996 30.2872C62.2996 31.2663 62.5619 32.0385 63.0866 32.6037C63.6149 33.1653 64.2762 33.4461 65.0706 33.4461C65.8797 33.4461 66.5447 33.1616 67.0657 32.5927C67.5903 32.0237 67.8526 31.2164 67.8526 30.1708C67.8526 29.5095 67.74 28.9331 67.5146 28.4417C67.2929 27.9467 66.9659 27.5643 66.5337 27.2946C66.1051 27.0212 65.6229 26.8845 65.0872 26.8845C64.3261 26.8845 63.6703 27.1468 63.1198 27.6714C62.573 28.1924 62.2996 29.0643 62.2996 30.2872ZM69.4598 34.2275L72.5799 26.103H73.7382L77.0634 34.2275H75.8386L74.8909 31.7669H71.4937L70.6015 34.2275H69.4598ZM71.8041 30.8913H74.5584L73.7105 28.6413C73.4519 27.9577 73.2597 27.3962 73.1341 26.9565C73.0307 27.4774 72.8847 27.9947 72.6963 28.5082L71.8041 30.8913ZM77.9224 34.2275V26.103H80.9871C81.5265 26.103 81.9384 26.1289 82.2229 26.1806C82.6219 26.2471 82.9563 26.3746 83.226 26.563C83.4957 26.7478 83.7119 27.0082 83.8744 27.3444C84.0407 27.6806 84.1238 28.0501 84.1238 28.4528C84.1238 29.1437 83.904 29.7293 83.4643 30.2096C83.0247 30.6862 82.2303 30.9245 81.0813 30.9245H78.9975V34.2275H77.9224ZM78.9975 29.9658H81.0979C81.7925 29.9658 82.2857 29.8365 82.5776 29.5778C82.8695 29.3192 83.0154 28.9553 83.0154 28.4861C83.0154 28.1462 82.9286 27.8561 82.7549 27.616C82.585 27.3721 82.3596 27.2114 82.0788 27.1338C81.8978 27.0858 81.5634 27.0618 81.0757 27.0618H78.9975V29.9658Z" fill="#C97F30"/>
<path d="M53.0723 35.8458H84.617V36.6771H53.0723V35.8458Z" fill="#C97F30"/>
<path fill-rule="evenodd" clip-rule="evenodd" d="M87.2753 30.0466C87.2753 36.447 78.7416 41.5672 68.3304 41.5672C59.6259 41.5672 52.3722 38.0684 50.0681 33.2894C51.4335 38.8364 59.3699 43.0179 68.8424 43.0179C79.3389 43.0179 87.7874 37.8976 87.7874 31.5827C87.7874 30.4733 87.5314 29.3639 87.0193 28.3398C87.19 28.9372 87.2753 29.5346 87.2753 30.0466Z" fill="#DEA03C"/>
<path d="M19.0052 54.2825C28.9969 54.2825 37.0968 46.1826 37.0968 36.1909C37.0968 26.1992 28.9969 18.0994 19.0052 18.0994C9.01344 18.0994 0.913574 26.1992 0.913574 36.1909C0.913574 46.1826 9.01344 54.2825 19.0052 54.2825Z" fill="url(#paint0_radial)"/>
<path fill-rule="evenodd" clip-rule="evenodd" d="M49.1294 45.2368L49.0441 45.5782C46.5693 53.5999 37.9502 58.1228 29.8431 55.5627C21.6507 53.0879 17.0425 44.5542 19.5172 36.4471L19.6879 36.1057L49.1294 45.2368Z" fill="#E4CB50"/>
<path fill-rule="evenodd" clip-rule="evenodd" d="M37.3528 31.2414C45.4599 33.8015 50.7508 40.2018 49.1294 45.5781C47.4226 50.9544 39.4862 53.2584 31.2938 50.7837C23.1867 48.2235 17.8958 41.8233 19.5172 36.447C21.224 31.0707 29.1604 28.7666 37.3528 31.2414Z" fill="#EDD764"/>
<path fill-rule="evenodd" clip-rule="evenodd" d="M37.0114 32.2654C44.3504 34.4842 49.1294 40.2872 47.5933 45.0661C46.1425 49.9303 38.9742 52.0638 31.6351 49.7597C24.2961 47.5409 19.5172 41.738 21.0532 36.959C22.504 32.0948 29.6724 29.9613 37.0114 32.2654Z" fill="#F4E386"/>
<path fill-rule="evenodd" clip-rule="evenodd" d="M34.7073 39.7752C35.7314 40.1165 36.4141 40.8845 36.1581 41.5672C35.9874 42.2499 34.9634 42.5912 33.9393 42.2499C32.9152 41.9085 32.2325 41.1405 32.4886 40.4578C32.6592 39.7751 33.6833 39.4338 34.7073 39.7752Z" fill="#FAEFB0"/>
<path fill-rule="evenodd" clip-rule="evenodd" d="M33.0006 48.9063C33.0859 48.0529 33.8539 44.042 34.1099 42.5913H34.1953H34.2806C34.366 44.1273 34.7073 48.3089 34.7073 49.2477C34.7926 50.6131 32.7445 50.1864 33.0006 48.9063ZM37.6088 33.7161C37.2674 34.4842 35.646 38.2391 35.0487 39.6045L35.134 39.6898C36.1581 38.4951 38.8035 35.1669 39.3155 34.4842C40.0836 33.3748 38.2061 32.5214 37.6088 33.7161ZM41.2783 35.5936C40.5103 36.1909 37.0114 39.0071 35.7314 40.0312H35.8167V40.1165C37.4381 39.2631 41.705 37.1297 42.6437 36.6177C44.0091 35.935 42.473 34.7402 41.2783 35.5936ZM44.0944 38.1537C43.0704 38.4097 38.0355 39.9458 36.2434 40.4578L36.3287 40.5432V40.6285C38.2915 40.2872 43.8384 39.6045 45.0332 39.3485C46.7399 39.0924 45.8012 37.727 44.0944 38.1537ZM45.8012 41.1405C44.5211 41.0552 38.6328 41.0552 36.5847 41.0552V41.1405V41.2259C38.7182 41.4819 44.7771 42.2499 46.0572 42.4206C48.02 42.5913 47.6786 41.1405 45.8012 41.1405ZM45.9719 43.9567C44.6918 43.6154 38.7182 42.1646 36.5847 41.6525V41.7379C38.6328 42.5059 44.4358 44.6394 45.6305 45.0661C47.508 45.7488 47.9346 44.4687 45.9719 43.9567ZM43.8384 47.3702C42.8144 46.6875 37.9501 43.4446 36.2434 42.2499V42.1646H36.3287C38.2062 43.1033 43.6678 45.8341 44.7772 46.5168C46.4839 47.3702 45.4598 48.3943 43.8384 47.3702ZM40.8516 48.9063C40.0836 48.0529 36.8407 43.9567 35.646 42.506H35.7314C37.2674 43.8714 41.3637 47.5409 42.217 48.3942C43.4971 49.589 41.961 50.1864 40.8516 48.9063ZM37.0114 49.4183C36.6701 48.4796 35.39 44.2127 34.878 42.6766H35.0487C35.902 44.1274 38.2915 48.3942 38.7182 49.333C39.4009 50.6984 37.5234 50.7837 37.0114 49.4183Z" fill="#FAEFB0"/>
<path fill-rule="evenodd" clip-rule="evenodd" d="M31.0377 48.3089C31.3791 47.5409 33.0005 43.786 33.5979 42.4206L33.5125 42.3353C32.4885 43.53 29.843 46.8582 29.331 47.5409C28.5629 48.6502 30.4404 49.5037 31.0377 48.3089ZM35.646 33.1188C35.5606 33.9721 34.7926 37.9831 34.5366 39.4338H34.3659C34.2806 37.8977 33.9392 33.7162 33.8539 32.7775C33.8539 31.4121 35.8166 31.8387 35.646 33.1188ZM31.6351 32.6068C31.9764 33.5455 33.2565 37.8124 33.7685 39.3484H33.5979C32.7445 37.8977 30.355 33.6308 29.9283 32.6921C29.2456 31.3267 31.1231 31.2414 31.6351 32.6068ZM27.7949 33.1188C28.5629 33.9721 31.8058 38.0684 33.0005 39.5191H32.9152C31.3791 38.1537 27.2829 34.4842 26.4295 33.6308C25.1494 32.4361 26.6855 31.8387 27.7949 33.1188ZM24.8081 34.6549C25.8321 35.3376 30.6964 38.5804 32.4031 39.7752V39.8605H32.3178C30.355 38.9217 24.9787 36.1909 23.8693 35.5936C22.1626 34.6549 23.1867 33.6308 24.8081 34.6549ZM23.016 36.8736C24.2107 37.3003 30.0137 39.4338 32.0618 40.2872V40.3725C29.9283 39.8605 23.9547 38.3244 22.6746 37.983C20.7119 37.471 21.1386 36.1909 23.016 36.8736ZM22.8453 40.8845C24.1254 40.9699 29.9283 40.9699 32.0618 40.9699V40.8845C29.843 40.5432 23.8694 39.7751 22.5893 39.6045C20.6265 39.4338 20.9679 40.8845 22.8453 40.8845ZM24.5521 43.8713C25.5761 43.6153 30.611 42.0793 32.4031 41.5672L32.3178 41.4819V41.3965C30.355 41.7379 24.8081 42.4206 23.6133 42.6766C21.9066 42.9326 22.8453 44.298 24.5521 43.8713ZM27.3682 46.4315C28.1362 45.8341 31.6351 43.0179 32.9152 41.9939H32.8298V41.9086C31.2084 42.762 26.8562 44.8954 26.0028 45.4074C24.6374 46.0901 26.1735 47.2849 27.3682 46.4315Z" fill="#FAEFB0"/>
<path fill-rule="evenodd" clip-rule="evenodd" d="M91.7981 30.7292C91.1154 39.007 90.4327 48.7355 90.4327 48.7355C90.4327 48.7355 90.262 51.2103 91.9688 52.7464C93.6756 54.2825 95.7237 55.1358 97.6864 55.3918C99.7345 55.7332 106.391 56.0746 106.391 56.0746L117.314 55.2212C117.57 55.3919 117.826 55.4772 118.082 55.3918H118.167C119.618 55.2212 121.154 54.6238 122.52 53.7705C123.032 53.4291 123.458 53.0877 123.885 52.7464C125.507 51.2103 125.421 48.7355 125.421 48.7355C125.421 48.7355 124.653 38.3243 123.97 29.7905L119.106 32.436L96.7477 32.7774L91.7981 30.7292Z" fill="#91D8F7"/>
<path fill-rule="evenodd" clip-rule="evenodd" d="M117.997 9.65088L119.874 11.8697C119.874 11.8697 120.045 13.3204 121.41 15.0272C122.69 16.8193 122.946 17.1606 123.202 19.2941C123.373 21.4275 125.421 48.7356 125.421 48.7356C125.421 48.7356 125.507 51.2104 123.885 52.7464C123.458 53.0878 123.032 53.4292 122.52 53.7705C121.154 54.6239 119.618 55.2212 118.082 55.3919C117.826 55.4772 117.57 55.3919 117.314 55.2212L106.391 56.0746C106.391 56.0746 99.7345 55.7332 97.6864 55.3919C95.7237 55.1359 93.6756 54.2825 91.9688 52.7464C90.262 51.2104 90.4327 48.7356 90.4327 48.7356C90.4327 48.7356 92.4808 21.4275 92.6515 19.2941C92.9075 17.1606 93.0782 16.8193 94.4436 15.0272C95.809 13.3204 95.9797 11.8697 95.9797 11.8697L97.7718 9.65088L103.66 10.5043L112.365 10.419L117.997 9.65088Z" fill="#E6E7E8" fill-opacity="0.45098"/>
<path fill-rule="evenodd" clip-rule="evenodd" d="M114.157 10.4189L115.266 13.5765C115.266 13.5765 115.266 15.1978 116.29 16.3926C117.314 17.6726 117.911 17.3313 118.168 20.7448C118.338 24.073 120.557 50.2716 120.557 50.2716C120.557 50.2716 120.984 52.3197 119.704 53.9412C118.338 55.4772 118.082 55.3919 118.082 55.3919C112.365 56.3306 103.489 56.3306 97.6865 55.3919C97.6865 55.3919 97.5158 55.4772 96.1504 53.9412C94.8703 52.3197 95.297 50.2716 95.297 50.2716C95.297 50.2716 97.4305 24.073 97.6865 20.7448C97.9425 17.3313 98.5399 17.6726 99.5639 16.3926C100.588 15.1978 100.588 13.5765 100.588 13.5765L101.697 10.4189L107.927 10.5043L114.157 10.4189Z" fill="#FEFEFE" fill-opacity="0.658824"/>
<path fill-rule="evenodd" clip-rule="evenodd" d="M118.765 10.4189C118.85 10.5043 118.85 10.5896 118.85 10.6749C118.85 12.723 113.645 14.4298 107.159 14.4298C100.673 14.4298 95.4678 12.723 95.4678 10.6749V4.18924L97.7719 3.50659L118.765 3.84789L118.85 10.4189H118.765Z" fill="#EDEDED"/>
<path d="M107.159 7.94414C113.616 7.94414 118.85 6.26301 118.85 4.18926C118.85 2.11551 113.616 0.434448 107.159 0.434448C100.702 0.434448 95.4678 2.11551 95.4678 4.18926C95.4678 6.26301 100.702 7.94414 107.159 7.94414Z" fill="url(#paint1_radial)"/>
<path d="M101.953 2.22654C102.425 2.22654 102.807 2.0737 102.807 1.88518C102.807 1.69666 102.425 1.54382 101.953 1.54382C101.482 1.54382 101.1 1.69666 101.1 1.88518C101.1 2.0737 101.482 2.22654 101.953 2.22654Z" fill="#4B4B4D"/>
<path d="M107.074 1.5438C107.545 1.5438 107.927 1.39097 107.927 1.20244C107.927 1.01392 107.545 0.861084 107.074 0.861084C106.602 0.861084 106.22 1.01392 106.22 1.20244C106.22 1.39097 106.602 1.5438 107.074 1.5438Z" fill="#4B4B4D"/>
<path d="M112.279 2.22654C112.751 2.22654 113.133 2.0737 113.133 1.88518C113.133 1.69666 112.751 1.54382 112.279 1.54382C111.808 1.54382 111.426 1.69666 111.426 1.88518C111.426 2.0737 111.808 2.22654 112.279 2.22654Z" fill="#4B4B4D"/>
<path d="M115.266 4.01865C115.737 4.01865 116.119 3.86582 116.119 3.6773C116.119 3.48877 115.737 3.33594 115.266 3.33594C114.795 3.33594 114.413 3.48877 114.413 3.6773C114.413 3.86582 114.795 4.01865 115.266 4.01865Z" fill="#4B4B4D"/>
<path d="M110.999 5.72538C111.47 5.72538 111.853 5.57254 111.853 5.38402C111.853 5.1955 111.47 5.04272 110.999 5.04272C110.528 5.04272 110.146 5.1955 110.146 5.38402C110.146 5.57254 110.528 5.72538 110.999 5.72538Z" fill="#4B4B4D"/>
<path d="M105.452 6.15208C105.924 6.15208 106.306 5.99924 106.306 5.81072C106.306 5.6222 105.924 5.46936 105.452 5.46936C104.981 5.46936 104.599 5.6222 104.599 5.81072C104.599 5.99924 104.981 6.15208 105.452 6.15208Z" fill="#4B4B4D"/>
<path d="M99.9906 4.70127C100.462 4.70127 100.844 4.54844 100.844 4.35991C100.844 4.17139 100.462 4.01855 99.9906 4.01855C99.5193 4.01855 99.1372 4.17139 99.1372 4.35991C99.1372 4.54844 99.5193 4.70127 99.9906 4.70127Z" fill="#4B4B4D"/>
<path d="M105.367 3.84794C105.838 3.84794 106.22 3.69516 106.22 3.50664C106.22 3.31812 105.838 3.16528 105.367 3.16528C104.896 3.16528 104.514 3.31812 104.514 3.50664C104.514 3.69516 104.896 3.84794 105.367 3.84794Z" fill="#4B4B4D"/>
<path d="M109.634 3.84794C110.105 3.84794 110.487 3.69516 110.487 3.50664C110.487 3.31812 110.105 3.16528 109.634 3.16528C109.162 3.16528 108.78 3.31812 108.78 3.50664C108.78 3.69516 109.162 3.84794 109.634 3.84794Z" fill="#4B4B4D"/>
<path fill-rule="evenodd" clip-rule="evenodd" d="M118.85 6.74941C118.424 8.71218 113.389 10.2482 107.244 10.2482C100.759 10.2482 95.5531 8.54151 95.5531 6.49341V8.71221C95.5531 10.7603 100.759 12.467 107.244 12.467C113.645 12.467 118.936 10.7603 118.936 8.71221C118.936 8.62687 118.85 8.54148 118.85 8.45614V6.74941Z" fill="#A9ABAE"/>
<defs>
<radialGradient id="paint0_radial" cx="0" cy="0" r="1" gradientUnits="userSpaceOnUse" gradientTransform="translate(20.1469 29.7355) rotate(112.471) scale(80.6924)">
<stop stop-color="#FAEA91"/>
<stop offset="0.658824" stop-color="#E4CB50"/>
<stop offset="1" stop-color="#C1AA3E"/>
</radialGradient>
<radialGradient id="paint1_radial" cx="0" cy="0" r="1" gradientUnits="userSpaceOnUse" gradientTransform="translate(104.407 1.52754) rotate(-0.441599) scale(51.6005 28.7494)">
<stop stop-color="#FEFEFE"/>
<stop offset="1" stop-color="#BDBFC1"/>
</radialGradient>
</defs>
</svg>