<svg viewBox="0 0 126 125" fill="none" xmlns="http://www.w3.org/2000/svg">
<path fill-rule="evenodd" clip-rule="evenodd" d="M7.83229 95.1948V83.9302L19.8648 75.9938L21.7422 55.9395H25.8385L27.8866 70.6176L36.079 65.2413L37.4445 51.502H40.6872L41.9674 61.3157L53.1466 53.9768L72.0916 60.3771L74.0543 59.7797L74.6517 52.8673H77.5532L78.3212 58.3289L81.3933 57.2196L95.3887 62.5105V69.5082L93.938 70.1056V63.7905L81.4786 59.097V75.4818L74.0543 78.554V95.1948H76.3584V79.6634L100.936 69.7642L124.062 75.4818V95.1948H125.428V96.3042H74.0543H64.4111H7.83229H6.29614V95.1948H7.83229ZM58.0962 62.6812L54.5973 61.5718V67.2041L58.0962 68.3135V62.6812ZM102.984 93.4027L112.115 93.6587V85.0397L102.984 84.1009V93.4027ZM114.248 93.6587L121.075 93.8294V85.9784L114.248 85.2957V93.6587ZM121.075 83.8449V77.5299L114.248 75.8232V83.1622L121.075 83.8449ZM112.115 75.3112L102.984 73.0924V81.9675L112.115 82.9062V75.3112ZM85.4042 62.0838L82.3321 61.0597V75.0551L85.4042 73.6897V62.0838ZM89.2444 63.3639L86.1722 62.3398V73.4337L89.2444 72.0683V63.3639ZM93.0846 64.644L90.0124 63.6199V71.8123L93.0846 70.4469V64.644ZM63.0458 64.3026L59.5469 63.1932V68.7401L63.0458 69.8495V64.3026ZM64.4111 95.1948V64.3879L70.5554 61.3157L53.1466 55.4275V95.1948H64.4111ZM123.123 95.1948H100.936V70.7029L123.123 76.0792V95.1948ZM76.273 58.9263L77.7239 58.4996L77.0412 53.3794H76.4437L76.273 58.9263ZM39.1512 63.1932L41.4554 61.6571L40.0899 52.0993H39.4072L39.1512 63.1932ZM23.8757 73.263L27.2038 71.1296L25.1558 56.7076H24.3024L23.8757 73.263Z" fill="url(#paint0_linear)"/>
<path fill-rule="evenodd" clip-rule="evenodd" d="M8.17355 28.4608C11.2457 28.4608 13.8059 30.3382 14.9153 32.9837C15.086 32.9837 15.2566 32.9837 15.4273 32.9837C18.5848 32.9837 21.1449 35.5439 21.1449 38.7014C21.1449 39.2987 21.0596 39.9814 20.8889 40.4935C22.5957 41.0908 23.7904 42.7122 23.7904 44.675C23.7904 45.8697 23.2783 47.0645 22.4249 47.8325C22.7663 48.3445 23.0224 49.0272 23.0224 49.7099C23.0224 49.966 23.0223 50.2219 22.9369 50.478C23.961 50.6486 24.7291 51.5873 24.7291 52.6114C24.7291 53.8061 23.7051 54.7448 22.5103 54.7448C21.401 54.7448 20.4622 53.8914 20.3769 52.782C20.2062 52.8674 20.0354 52.8674 19.8648 52.8674C18.8407 52.8674 17.9021 52.2701 17.3047 51.502C16.622 51.9287 15.7687 52.1847 14.9153 52.1847C12.7819 52.1847 11.0751 50.734 10.6484 48.7712C10.4777 48.8566 10.307 48.8565 10.1363 48.8565C9.9656 48.8565 9.70966 48.7712 9.53898 48.7712C9.28297 48.7712 9.02699 48.8565 8.77097 48.8565C5.61348 48.8565 3.05336 46.2964 3.05336 43.1389C3.05336 42.3709 3.22394 41.6882 3.47995 41.0908C1.94387 39.7254 0.919922 37.7627 0.919922 35.6292C0.919922 31.6183 4.16268 28.4608 8.17355 28.4608Z" fill="#A9ABAE"/>
<path fill-rule="evenodd" clip-rule="evenodd" d="M29.252 33.4957C31.3001 33.4957 32.9215 34.7758 33.6042 36.4825C33.7748 36.4825 33.8602 36.4825 33.9456 36.4825C36.079 36.4825 37.7005 38.104 37.7005 40.1521C37.7005 40.5787 37.6151 40.9201 37.5297 41.3468C38.6391 41.6881 39.4072 42.7975 39.4072 43.9922C39.4072 44.8456 39.0658 45.5284 38.4685 46.0404C38.7245 46.3817 38.8952 46.8084 38.8952 47.3204C38.8952 47.4911 38.8951 47.6618 38.8098 47.7471C39.4925 47.9178 40.0045 48.4298 40.0045 49.1125C40.0045 49.8806 39.3218 50.5633 38.5538 50.5633C37.8711 50.5633 37.2738 49.9659 37.1884 49.2832C37.1031 49.2832 37.0177 49.2832 36.847 49.2832C36.1643 49.2832 35.5669 48.9418 35.2256 48.4298C34.7136 48.6858 34.2015 48.8565 33.6042 48.8565C32.3241 48.8565 31.1294 47.9178 30.8734 46.723C30.7881 46.723 30.7027 46.723 30.6174 46.723C30.4467 46.723 30.276 46.7231 30.1907 46.6377C30.02 46.7231 29.8494 46.723 29.6787 46.723C27.6306 46.723 26.0091 45.0163 26.0091 42.9682C26.0091 42.5415 26.0944 42.1148 26.2651 41.6881C25.2411 40.8348 24.6438 39.5547 24.6438 38.1893C24.6438 35.6291 26.6918 33.4957 29.252 33.4957Z" fill="#A9ABAE"/>
<path fill-rule="evenodd" clip-rule="evenodd" d="M66.2886 34.9465C68.2513 34.9465 69.9582 36.1412 70.6409 37.848C70.7262 37.848 70.8968 37.848 70.9822 37.848C73.0303 37.848 74.737 39.5548 74.737 41.6029C74.737 41.9442 74.6517 42.3709 74.481 42.7123C75.5904 43.139 76.3585 44.163 76.3585 45.4431C76.3585 46.2111 76.0171 46.9792 75.505 47.4912C75.7611 47.8325 75.9318 48.2592 75.9318 48.6859C75.9318 48.8566 75.8465 49.0272 75.8465 49.1979C76.5292 49.2832 76.9558 49.8806 76.9558 50.5633C76.9558 51.3314 76.3585 51.9287 75.5905 51.9287C74.8224 51.9287 74.225 51.4167 74.225 50.734C74.0544 50.734 73.9689 50.734 73.8836 50.734C73.2009 50.734 72.6036 50.3927 72.1769 49.8806C71.7502 50.1366 71.2382 50.3073 70.6409 50.3073C69.2755 50.3073 68.166 49.3686 67.91 48.0885C67.7393 48.0885 67.654 48.0885 67.5687 48.0885C67.4834 48.0885 67.3127 48.0885 67.142 48.0885C67.0567 48.0885 66.886 48.0885 66.7153 48.0885C64.6672 48.0885 62.9604 46.4671 62.9604 44.419C62.9604 43.9923 63.0457 43.4803 63.2164 43.0536C62.2777 42.2002 61.5951 41.0055 61.5951 39.5548C61.5951 36.9946 63.7284 34.9465 66.2886 34.9465Z" fill="#A9ABAE"/>
<defs>
<linearGradient id="paint0_linear" x1="6.29614" y1="73.9458" x2="125.428" y2="73.9458" gradientUnits="userSpaceOnUse">
<stop stop-color="#06748F"/>
<stop offset="1" stop-color="#3AD5FC"/>
</linearGradient>
</defs>
</svg>