<svg viewBox="0 0 126 125" fill="none" xmlns="http://www.w3.org/2000/svg">
<path fill-rule="evenodd" clip-rule="evenodd" d="M124.641 24.8767L122.423 30.4236V61.8279C122.423 67.1188 103.819 63.7906 98.5281 63.876L48.2642 64.9001C42.9733 64.9854 28.9779 67.1188 28.9779 61.8279V30.4236L26.8444 24.8767C57.9927 24.45 93.3225 23.5113 124.641 24.8767Z" fill="#C3EFFA"/>
<path fill-rule="evenodd" clip-rule="evenodd" d="M122.423 46.8938H28.9778V61.8279C28.9778 77.8714 122.423 77.8714 122.423 61.8279V46.8938Z" fill="#24C2E9"/>
<path d="M75.7429 32.301C102.749 32.301 124.641 28.9769 124.641 24.8766C124.641 20.7762 102.749 17.4521 75.7429 17.4521C48.7371 17.4521 26.8444 20.7762 26.8444 24.8766C26.8444 28.9769 48.7371 32.301 75.7429 32.301Z" fill="#78D4EB"/>
<path d="M75.7429 54.3181C101.523 54.3181 122.423 50.9941 122.423 46.8938C122.423 42.7934 101.523 39.4694 75.7429 39.4694C49.9624 39.4694 29.0632 42.7934 29.0632 46.8938C29.0632 50.9941 49.9624 54.3181 75.7429 54.3181Z" fill="#8CE4FA"/>
<path d="M75.7429 31.4476C101.759 31.4476 122.849 28.5057 122.849 24.8766C122.849 21.2476 101.759 18.3057 75.7429 18.3057C49.7267 18.3057 28.6364 21.2476 28.6364 24.8766C28.6364 28.5057 49.7267 31.4476 75.7429 31.4476Z" fill="#D6F7FF"/>
<path d="M53.299 30.5942L54.3231 30.6796C57.2246 30.8503 66.6117 31.4476 71.22 31.3623V32.2157C66.5264 32.301 57.2246 31.7036 54.2377 31.533C53.7257 31.4476 53.3843 31.4476 53.299 31.4476V30.5942Z" fill="#78D4EB"/>
<path fill-rule="evenodd" clip-rule="evenodd" d="M68.3185 73.6898C76.4256 74.0311 84.7887 73.7751 92.3838 73.0924V31.789C87.1782 32.1303 81.6312 32.301 75.7429 32.301C73.2682 32.301 70.7933 32.2157 68.3185 32.2157V73.6898ZM99.4668 72.3244C102.112 71.983 104.587 71.5564 106.891 71.0443V30.5942C104.587 30.8503 102.112 31.1063 99.4668 31.3623V72.3244Z" fill="#FEFEFE" fill-opacity="0.278431"/>
<path fill-rule="evenodd" clip-rule="evenodd" d="M124.983 112.006C124.641 112.006 124.471 112.262 124.471 112.518C124.471 112.774 124.641 113.03 124.983 113.03C125.239 113.03 125.495 112.774 125.495 112.518C125.495 112.262 125.239 112.006 124.983 112.006ZM116.278 112.006H123.105C123.361 112.006 123.617 112.262 123.617 112.518C123.617 112.774 123.361 113.03 123.105 113.03H116.62C116.534 112.604 116.449 112.262 116.278 112.006Z" fill="#364886"/>
<path fill-rule="evenodd" clip-rule="evenodd" d="M1.49907 112.006C1.75508 112.006 1.92578 112.262 1.92578 112.518C1.92578 112.774 1.75508 113.03 1.49907 113.03C1.15772 113.03 0.987061 112.774 0.987061 112.518C0.987061 112.262 1.15772 112.006 1.49907 112.006ZM10.1182 112.006H3.29115C3.03514 112.006 2.77914 112.262 2.77914 112.518C2.77914 112.774 3.03514 113.03 3.29115 113.03H9.77683C9.86217 112.604 10.0329 112.262 10.1182 112.006Z" fill="#364886"/>
<path fill-rule="evenodd" clip-rule="evenodd" d="M19.5907 11.7346C21.1268 11.7346 22.4069 12.9293 22.4069 14.4654V107.313C22.4069 108.849 21.1268 110.129 19.5907 110.129C18.0546 110.129 16.7745 108.849 16.7745 107.313V14.4654C16.7745 12.9293 18.0546 11.7346 19.5907 11.7346Z" fill="#44B1F5"/>
<path fill-rule="evenodd" clip-rule="evenodd" d="M6.27802 33.325C6.27802 31.8743 6.44867 30.6796 6.79002 30.6796H28.8925C29.2338 30.6796 29.4045 31.8743 29.4045 33.325C29.4045 34.3491 29.8312 35.3731 29.6605 35.7998C29.5752 35.9705 28.9778 35.8852 28.8925 35.8852H6.79002C6.44867 35.8852 6.27802 34.7758 6.27802 33.325Z" fill="#44B1F5"/>
<path d="M19.5907 41.3468C24.021 41.3468 27.6124 37.7553 27.6124 33.325C27.6124 28.8948 24.021 25.3033 19.5907 25.3033C15.1604 25.3033 11.5689 28.8948 11.5689 33.325C11.5689 37.7553 15.1604 41.3468 19.5907 41.3468Z" fill="#7982A3"/>
<path d="M19.5907 36.4826C21.3345 36.4826 22.7482 35.0689 22.7482 33.3251C22.7482 31.5812 21.3345 30.1676 19.5907 30.1676C17.8468 30.1676 16.4332 31.5812 16.4332 33.3251C16.4332 35.0689 17.8468 36.4826 19.5907 36.4826Z" fill="#364886"/>
<path d="M19.5907 35.0318C20.5333 35.0318 21.2974 34.2676 21.2974 33.325C21.2974 32.3824 20.5333 31.6183 19.5907 31.6183C18.6481 31.6183 17.884 32.3824 17.884 33.325C17.884 34.2676 18.6481 35.0318 19.5907 35.0318Z" fill="#FEFEFE"/>
<path fill-rule="evenodd" clip-rule="evenodd" d="M63.7103 113.03H61.7475H6.61932C6.61932 113.03 6.87535 106.716 10.6302 105.777C14.4704 104.838 19.676 105.009 19.676 105.009H63.7956H108.001C108.001 105.009 113.121 104.838 116.961 105.777C120.801 106.716 121.057 113.03 121.057 113.03H63.7103Z" fill="#44B1F5"/>
<path fill-rule="evenodd" clip-rule="evenodd" d="M25.479 109.02C25.735 109.02 25.991 109.276 25.991 109.532C25.991 109.788 25.735 110.044 25.479 110.044C25.223 110.044 24.967 109.788 24.967 109.532C24.967 109.276 25.223 109.02 25.479 109.02ZM24.1136 109.532C24.1136 109.276 23.9429 109.02 23.6869 109.02H21.8095H17.3719H7.47277C7.30209 109.361 7.21675 109.702 7.13141 110.044H18.8226H20.3587H23.6869C23.9429 110.044 24.1136 109.788 24.1136 109.532Z" fill="#FEFEFE"/>
<path fill-rule="evenodd" clip-rule="evenodd" d="M102.112 109.02C101.856 109.02 101.6 109.276 101.6 109.532C101.6 109.788 101.856 110.044 102.112 110.044C102.454 110.044 102.624 109.788 102.624 109.532C102.624 109.276 102.454 109.02 102.112 109.02ZM103.478 109.532C103.478 109.276 103.734 109.02 103.99 109.02H105.782H110.219H120.204C120.289 109.361 120.46 109.702 120.545 110.044H108.854H107.232H103.99C103.734 110.044 103.478 109.788 103.478 109.532Z" fill="#FEFEFE"/>
<path fill-rule="evenodd" clip-rule="evenodd" d="M28.9778 30.765V34.2638C28.9778 50.3073 122.423 50.3073 122.423 34.2638V30.509C122.252 30.9357 122.081 31.4477 121.911 31.6184V31.7038C114.657 45.3578 32.9888 45.1018 29.1486 30.765H28.9778Z" fill="#44B1F5"/>
<path d="M51.9337 66.3507C52.1694 66.3507 52.3604 66.1596 52.3604 65.924C52.3604 65.6883 52.1694 65.4973 51.9337 65.4973C51.6981 65.4973 51.507 65.6883 51.507 65.924C51.507 66.1596 51.6981 66.3507 51.9337 66.3507Z" fill="#FEFEFE"/>
<path d="M56.2859 67.8868C56.5216 67.8868 56.7126 67.6958 56.7126 67.4601C56.7126 67.2244 56.5216 67.0334 56.2859 67.0334C56.0503 67.0334 55.8592 67.2244 55.8592 67.4601C55.8592 67.6958 56.0503 67.8868 56.2859 67.8868Z" fill="#FEFEFE"/>
<path d="M56.8833 63.62C57.119 63.62 57.31 63.4289 57.31 63.1933C57.31 62.9576 57.119 62.7666 56.8833 62.7666C56.6477 62.7666 56.4566 62.9576 56.4566 63.1933C56.4566 63.4289 56.6477 63.62 56.8833 63.62Z" fill="#FEFEFE"/>
<path d="M52.9577 60.8891C53.1934 60.8891 53.3844 60.6981 53.3844 60.4624C53.3844 60.2268 53.1934 60.0358 52.9577 60.0358C52.7221 60.0358 52.5311 60.2268 52.5311 60.4624C52.5311 60.6981 52.7221 60.8891 52.9577 60.8891Z" fill="#FEFEFE"/>
<path d="M47.6668 62.3399C47.9024 62.3399 48.0934 62.1489 48.0934 61.9133C48.0934 61.6776 47.9024 61.4866 47.6668 61.4866C47.4311 61.4866 47.2401 61.6776 47.2401 61.9133C47.2401 62.1489 47.4311 62.3399 47.6668 62.3399Z" fill="#FEFEFE"/>
<path d="M45.96 67.9722C46.1957 67.9722 46.3868 67.7811 46.3868 67.5455C46.3868 67.3098 46.1957 67.1188 45.96 67.1188C45.7244 67.1188 45.5334 67.3098 45.5334 67.5455C45.5334 67.7811 45.7244 67.9722 45.96 67.9722Z" fill="#FEFEFE"/>
<path d="M49.1176 57.9876C49.3532 57.9876 49.5443 57.7966 49.5443 57.561C49.5443 57.3253 49.3532 57.1343 49.1176 57.1343C48.8819 57.1343 48.6909 57.3253 48.6909 57.561C48.6909 57.7966 48.8819 57.9876 49.1176 57.9876Z" fill="#FEFEFE"/>
<path d="M57.4806 56.3663C57.7163 56.3663 57.9073 56.1752 57.9073 55.9396C57.9073 55.7039 57.7163 55.5129 57.4806 55.5129C57.245 55.5129 57.0539 55.7039 57.0539 55.9396C57.0539 56.1752 57.245 56.3663 57.4806 56.3663Z" fill="#FEFEFE"/>
<path d="M62.0888 61.2306C62.3245 61.2306 62.5155 61.0395 62.5155 60.8038C62.5155 60.5682 62.3245 60.3772 62.0888 60.3772C61.8532 60.3772 61.6622 60.5682 61.6622 60.8038C61.6622 61.0395 61.8532 61.2306 62.0888 61.2306Z" fill="#FEFEFE"/>
<path d="M62.6863 67.8868C62.922 67.8868 63.1129 67.6958 63.1129 67.4601C63.1129 67.2244 62.922 67.0334 62.6863 67.0334C62.4506 67.0334 62.2596 67.2244 62.2596 67.4601C62.2596 67.6958 62.4506 67.8868 62.6863 67.8868Z" fill="#FEFEFE"/>
<path d="M62.857 56.6223C63.0926 56.6223 63.2837 56.4312 63.2837 56.1956C63.2837 55.9599 63.0926 55.7689 62.857 55.7689C62.6213 55.7689 62.4302 55.9599 62.4302 56.1956C62.4302 56.4312 62.6213 56.6223 62.857 56.6223Z" fill="#FEFEFE"/>
<path d="M65.6731 64.4732C65.9088 64.4732 66.0998 64.2822 66.0998 64.0466C66.0998 63.8109 65.9088 63.6199 65.6731 63.6199C65.4375 63.6199 65.2464 63.8109 65.2464 64.0466C65.2464 64.2822 65.4375 64.4732 65.6731 64.4732Z" fill="#FEFEFE"/>
<path d="M38.109 58.6703C38.3446 58.6703 38.5357 58.4793 38.5357 58.2436C38.5357 58.008 38.3446 57.8169 38.109 57.8169C37.8733 57.8169 37.6823 58.008 37.6823 58.2436C37.6823 58.4793 37.8733 58.6703 38.109 58.6703Z" fill="#FEFEFE"/>
<path d="M42.3758 60.2064C42.6115 60.2064 42.8025 60.0154 42.8025 59.7797C42.8025 59.5441 42.6115 59.353 42.3758 59.353C42.1402 59.353 41.9492 59.5441 41.9492 59.7797C41.9492 60.0154 42.1402 60.2064 42.3758 60.2064Z" fill="#FEFEFE"/>
<path d="M43.0586 56.0249C43.2943 56.0249 43.4853 55.8338 43.4853 55.5982C43.4853 55.3625 43.2943 55.1715 43.0586 55.1715C42.823 55.1715 42.6319 55.3625 42.6319 55.5982C42.6319 55.8338 42.823 56.0249 43.0586 56.0249Z" fill="#FEFEFE"/>
<path d="M39.0476 53.2087C39.2833 53.2087 39.4743 53.0176 39.4743 52.782C39.4743 52.5463 39.2833 52.3553 39.0476 52.3553C38.812 52.3553 38.6209 52.5463 38.6209 52.782C38.6209 53.0176 38.812 53.2087 39.0476 53.2087Z" fill="#FEFEFE"/>
<path d="M33.7567 54.6595C33.9923 54.6595 34.1834 54.4685 34.1834 54.2329C34.1834 53.9972 33.9923 53.8062 33.7567 53.8062C33.521 53.8062 33.33 53.9972 33.33 54.2329C33.33 54.4685 33.521 54.6595 33.7567 54.6595Z" fill="#FEFEFE"/>
<path d="M32.0499 60.2918C32.2856 60.2918 32.4767 60.1008 32.4767 59.8651C32.4767 59.6295 32.2856 59.4385 32.0499 59.4385C31.8143 59.4385 31.6232 59.6295 31.6232 59.8651C31.6232 60.1008 31.8143 60.2918 32.0499 60.2918Z" fill="#FEFEFE"/>
<path d="M35.2075 50.3073C35.4432 50.3073 35.6342 50.1162 35.6342 49.8806C35.6342 49.6449 35.4432 49.4539 35.2075 49.4539C34.9719 49.4539 34.7808 49.6449 34.7808 49.8806C34.7808 50.1162 34.9719 50.3073 35.2075 50.3073Z" fill="#FEFEFE"/>
<path d="M43.6559 48.6859C43.8916 48.6859 44.0826 48.4948 44.0826 48.2592C44.0826 48.0235 43.8916 47.8325 43.6559 47.8325C43.4202 47.8325 43.2292 48.0235 43.2292 48.2592C43.2292 48.4948 43.4202 48.6859 43.6559 48.6859Z" fill="#FEFEFE"/>
<path d="M48.1788 53.5501C48.4144 53.5501 48.6055 53.3591 48.6055 53.1234C48.6055 52.8878 48.4144 52.6968 48.1788 52.6968C47.9431 52.6968 47.7521 52.8878 47.7521 53.1234C47.7521 53.3591 47.9431 53.5501 48.1788 53.5501Z" fill="#FEFEFE"/>
<path d="M42.1199 64.2174C42.3555 64.2174 42.5466 64.0263 42.5466 63.7907C42.5466 63.555 42.3555 63.364 42.1199 63.364C41.8842 63.364 41.6932 63.555 41.6932 63.7907C41.6932 64.0263 41.8842 64.2174 42.1199 64.2174Z" fill="#FEFEFE"/>
<path d="M48.9469 48.9419C49.1826 48.9419 49.3736 48.7508 49.3736 48.5152C49.3736 48.2795 49.1826 48.0885 48.9469 48.0885C48.7113 48.0885 48.5202 48.2795 48.5202 48.5152C48.5202 48.7508 48.7113 48.9419 48.9469 48.9419Z" fill="#FEFEFE"/>
<path d="M52.787 55.0008C53.0227 55.0008 53.2137 54.8098 53.2137 54.5742C53.2137 54.3385 53.0227 54.1475 52.787 54.1475C52.5514 54.1475 52.3603 54.3385 52.3603 54.5742C52.3603 54.8098 52.5514 55.0008 52.787 55.0008Z" fill="#FEFEFE"/>
<path d="M99.7228 66.0094C99.9584 66.0094 100.15 65.8183 100.15 65.5827C100.15 65.347 99.9584 65.156 99.7228 65.156C99.4871 65.156 99.2961 65.347 99.2961 65.5827C99.2961 65.8183 99.4871 66.0094 99.7228 66.0094Z" fill="#FEFEFE"/>
<path d="M95.3706 67.5455C95.6063 67.5455 95.7972 67.3544 95.7972 67.1188C95.7972 66.8831 95.6063 66.6921 95.3706 66.6921C95.135 66.6921 94.9439 66.8831 94.9439 67.1188C94.9439 67.3544 95.135 67.5455 95.3706 67.5455Z" fill="#FEFEFE"/>
<path d="M94.7732 63.2787C95.0089 63.2787 95.1999 63.0876 95.1999 62.8519C95.1999 62.6163 95.0089 62.4253 94.7732 62.4253C94.5376 62.4253 94.3465 62.6163 94.3465 62.8519C94.3465 63.0876 94.5376 63.2787 94.7732 63.2787Z" fill="#FEFEFE"/>
<path d="M98.6987 60.5477C98.9344 60.5477 99.1253 60.3566 99.1253 60.121C99.1253 59.8853 98.9344 59.6943 98.6987 59.6943C98.4631 59.6943 98.272 59.8853 98.272 60.121C98.272 60.3566 98.4631 60.5477 98.6987 60.5477Z" fill="#FEFEFE"/>
<path d="M103.99 61.9985C104.225 61.9985 104.416 61.8075 104.416 61.5719C104.416 61.3362 104.225 61.1451 103.99 61.1451C103.754 61.1451 103.563 61.3362 103.563 61.5719C103.563 61.8075 103.754 61.9985 103.99 61.9985Z" fill="#FEFEFE"/>
<path d="M105.696 67.6308C105.932 67.6308 106.123 67.4398 106.123 67.2041C106.123 66.9685 105.932 66.7775 105.696 66.7775C105.461 66.7775 105.27 66.9685 105.27 67.2041C105.27 67.4398 105.461 67.6308 105.696 67.6308Z" fill="#FEFEFE"/>
<path d="M102.539 57.5609C102.775 57.5609 102.966 57.3698 102.966 57.1342C102.966 56.8985 102.775 56.7075 102.539 56.7075C102.303 56.7075 102.112 56.8985 102.112 57.1342C102.112 57.3698 102.303 57.5609 102.539 57.5609Z" fill="#FEFEFE"/>
<path d="M94.1759 56.0249C94.4116 56.0249 94.6025 55.8338 94.6025 55.5982C94.6025 55.3625 94.4116 55.1715 94.1759 55.1715C93.9403 55.1715 93.7492 55.3625 93.7492 55.5982C93.7492 55.8338 93.9403 56.0249 94.1759 56.0249Z" fill="#FEFEFE"/>
<path d="M89.5676 60.8891C89.8032 60.8891 89.9943 60.6981 89.9943 60.4624C89.9943 60.2268 89.8032 60.0358 89.5676 60.0358C89.3319 60.0358 89.1409 60.2268 89.1409 60.4624C89.1409 60.6981 89.3319 60.8891 89.5676 60.8891Z" fill="#FEFEFE"/>
<path d="M88.9702 67.5455C89.2058 67.5455 89.3969 67.3544 89.3969 67.1188C89.3969 66.8831 89.2058 66.6921 88.9702 66.6921C88.7345 66.6921 88.5435 66.8831 88.5435 67.1188C88.5435 67.3544 88.7345 67.5455 88.9702 67.5455Z" fill="#FEFEFE"/>
<path d="M88.7996 56.1955C89.0352 56.1955 89.2262 56.0045 89.2262 55.7689C89.2262 55.5332 89.0352 55.3422 88.7996 55.3422C88.5639 55.3422 88.3729 55.5332 88.3729 55.7689C88.3729 56.0045 88.5639 56.1955 88.7996 56.1955Z" fill="#FEFEFE"/>
<path d="M85.9834 64.1319C86.2191 64.1319 86.4101 63.9409 86.4101 63.7053C86.4101 63.4696 86.2191 63.2786 85.9834 63.2786C85.7478 63.2786 85.5567 63.4696 85.5567 63.7053C85.5567 63.9409 85.7478 64.1319 85.9834 64.1319Z" fill="#FEFEFE"/>
<path d="M113.633 58.3289C113.868 58.3289 114.059 58.138 114.059 57.9023C114.059 57.6666 113.868 57.4756 113.633 57.4756C113.397 57.4756 113.206 57.6666 113.206 57.9023C113.206 58.138 113.397 58.3289 113.633 58.3289Z" fill="#FEFEFE"/>
<path d="M109.281 59.8651C109.516 59.8651 109.707 59.6741 109.707 59.4384C109.707 59.2028 109.516 59.0117 109.281 59.0117C109.045 59.0117 108.854 59.2028 108.854 59.4384C108.854 59.6741 109.045 59.8651 109.281 59.8651Z" fill="#FEFEFE"/>
<path d="M108.598 55.5982C108.833 55.5982 109.025 55.4072 109.025 55.1716C109.025 54.9359 108.833 54.7449 108.598 54.7449C108.362 54.7449 108.171 54.9359 108.171 55.1716C108.171 55.4072 108.362 55.5982 108.598 55.5982Z" fill="#FEFEFE"/>
<path d="M112.609 52.8674C112.844 52.8674 113.035 52.6764 113.035 52.4408C113.035 52.2051 112.844 52.014 112.609 52.014C112.373 52.014 112.182 52.2051 112.182 52.4408C112.182 52.6764 112.373 52.8674 112.609 52.8674Z" fill="#FEFEFE"/>
<path d="M117.9 54.3181C118.135 54.3181 118.326 54.1271 118.326 53.8914C118.326 53.6558 118.135 53.4647 117.9 53.4647C117.664 53.4647 117.473 53.6558 117.473 53.8914C117.473 54.1271 117.664 54.3181 117.9 54.3181Z" fill="#FEFEFE"/>
<path d="M119.606 59.9504C119.842 59.9504 120.033 59.7593 120.033 59.5237C120.033 59.288 119.842 59.097 119.606 59.097C119.371 59.097 119.18 59.288 119.18 59.5237C119.18 59.7593 119.371 59.9504 119.606 59.9504Z" fill="#FEFEFE"/>
<path d="M116.449 49.9659C116.685 49.9659 116.876 49.7749 116.876 49.5392C116.876 49.3035 116.685 49.1125 116.449 49.1125C116.213 49.1125 116.022 49.3035 116.022 49.5392C116.022 49.7749 116.213 49.9659 116.449 49.9659Z" fill="#FEFEFE"/>
<path d="M108.001 48.3446C108.236 48.3446 108.427 48.1535 108.427 47.9179C108.427 47.6822 108.236 47.4912 108.001 47.4912C107.765 47.4912 107.574 47.6822 107.574 47.9179C107.574 48.1535 107.765 48.3446 108.001 48.3446Z" fill="#FEFEFE"/>
<path d="M103.478 53.2087C103.713 53.2087 103.904 53.0176 103.904 52.782C103.904 52.5463 103.713 52.3553 103.478 52.3553C103.242 52.3553 103.051 52.5463 103.051 52.782C103.051 53.0176 103.242 53.2087 103.478 53.2087Z" fill="#FEFEFE"/>
<path d="M109.537 63.8759C109.772 63.8759 109.963 63.6849 109.963 63.4492C109.963 63.2136 109.772 63.0226 109.537 63.0226C109.301 63.0226 109.11 63.2136 109.11 63.4492C109.11 63.6849 109.301 63.8759 109.537 63.8759Z" fill="#FEFEFE"/>
<path d="M102.71 48.6004C102.945 48.6004 103.136 48.4094 103.136 48.1738C103.136 47.9381 102.945 47.7471 102.71 47.7471C102.474 47.7471 102.283 47.9381 102.283 48.1738C102.283 48.4094 102.474 48.6004 102.71 48.6004Z" fill="#FEFEFE"/>
<path d="M98.9547 54.6595C99.1904 54.6595 99.3814 54.4685 99.3814 54.2329C99.3814 53.9972 99.1904 53.8062 98.9547 53.8062C98.7191 53.8062 98.528 53.9972 98.528 54.2329C98.528 54.4685 98.7191 54.6595 98.9547 54.6595Z" fill="#FEFEFE"/>
<path d="M81.3752 59.7797C81.6109 59.7797 81.8019 59.5886 81.8019 59.353C81.8019 59.1173 81.6109 58.9263 81.3752 58.9263C81.1395 58.9263 80.9485 59.1173 80.9485 59.353C80.9485 59.5886 81.1395 59.7797 81.3752 59.7797Z" fill="#FEFEFE"/>
<path d="M77.0229 61.3158C77.2586 61.3158 77.4496 61.1248 77.4496 60.8891C77.4496 60.6535 77.2586 60.4624 77.0229 60.4624C76.7872 60.4624 76.5963 60.6535 76.5963 60.8891C76.5963 61.1248 76.7872 61.3158 77.0229 61.3158Z" fill="#FEFEFE"/>
<path d="M76.4256 57.1342C76.6613 57.1342 76.8523 56.9433 76.8523 56.7076C76.8523 56.4719 76.6613 56.2809 76.4256 56.2809C76.19 56.2809 75.999 56.4719 75.999 56.7076C75.999 56.9433 76.19 57.1342 76.4256 57.1342Z" fill="#FEFEFE"/>
<path d="M80.3511 54.4034C80.5867 54.4034 80.7777 54.2124 80.7777 53.9768C80.7777 53.7411 80.5867 53.55 80.3511 53.55C80.1154 53.55 79.9244 53.7411 79.9244 53.9768C79.9244 54.2124 80.1154 54.4034 80.3511 54.4034Z" fill="#FEFEFE"/>
<path d="M85.642 55.769C85.8777 55.769 86.0688 55.5779 86.0688 55.3422C86.0688 55.1066 85.8777 54.9155 85.642 54.9155C85.4064 54.9155 85.2154 55.1066 85.2154 55.3422C85.2154 55.5779 85.4064 55.769 85.642 55.769Z" fill="#FEFEFE"/>
<path d="M85.3007 69.9349C85.5364 69.9349 85.7274 69.7439 85.7274 69.5083C85.7274 69.2726 85.5364 69.0815 85.3007 69.0815C85.0651 69.0815 84.8741 69.2726 84.8741 69.5083C84.8741 69.7439 85.0651 69.9349 85.3007 69.9349Z" fill="#FEFEFE"/>
<path d="M84.1913 51.4166C84.427 51.4166 84.618 51.2255 84.618 50.9899C84.618 50.7542 84.427 50.5632 84.1913 50.5632C83.9556 50.5632 83.7646 50.7542 83.7646 50.9899C83.7646 51.2255 83.9556 51.4166 84.1913 51.4166Z" fill="#FEFEFE"/>
<path d="M75.8282 49.7953C76.0639 49.7953 76.2549 49.6043 76.2549 49.3686C76.2549 49.133 76.0639 48.9419 75.8282 48.9419C75.5925 48.9419 75.4016 49.133 75.4016 49.3686C75.4016 49.6043 75.5925 49.7953 75.8282 49.7953Z" fill="#FEFEFE"/>
<path d="M71.3053 54.6595C71.5409 54.6595 71.732 54.4685 71.732 54.2329C71.732 53.9972 71.5409 53.8062 71.3053 53.8062C71.0696 53.8062 70.8786 53.9972 70.8786 54.2329C70.8786 54.4685 71.0696 54.6595 71.3053 54.6595Z" fill="#FEFEFE"/>
<path d="M72.1586 60.4625C72.3943 60.4625 72.5854 60.2715 72.5854 60.0358C72.5854 59.8002 72.3943 59.6091 72.1586 59.6091C71.923 59.6091 71.732 59.8002 71.732 60.0358C71.732 60.2715 71.923 60.4625 72.1586 60.4625Z" fill="#FEFEFE"/>
<path d="M70.4519 50.0512C70.6876 50.0512 70.8786 49.8602 70.8786 49.6246C70.8786 49.3889 70.6876 49.1979 70.4519 49.1979C70.2163 49.1979 70.0252 49.3889 70.0252 49.6246C70.0252 49.8602 70.2163 50.0512 70.4519 50.0512Z" fill="#FEFEFE"/>
<path d="M67.6358 57.9023C67.8715 57.9023 68.0625 57.7112 68.0625 57.4755C68.0625 57.2399 67.8715 57.0488 67.6358 57.0488C67.4002 57.0488 67.2092 57.2399 67.2092 57.4755C67.2092 57.7112 67.4002 57.9023 67.6358 57.9023Z" fill="#FEFEFE"/>
<path d="M85.13 47.0644C85.3657 47.0644 85.5567 46.8734 85.5567 46.6378C85.5567 46.4021 85.3657 46.2111 85.13 46.2111C84.8944 46.2111 84.7033 46.4021 84.7033 46.6378C84.7033 46.8734 84.8944 47.0644 85.13 47.0644Z" fill="#FEFEFE"/>
<path d="M80.6072 48.4298C80.8428 48.4298 81.0338 48.2387 81.0338 48.0031C81.0338 47.7674 80.8428 47.5764 80.6072 47.5764C80.3715 47.5764 80.1805 47.7674 80.1805 48.0031C80.1805 48.2387 80.3715 48.4298 80.6072 48.4298Z" fill="#FEFEFE"/>
<path d="M79.4978 70.5323C79.7334 70.5323 79.9245 70.3413 79.9245 70.1057C79.9245 69.87 79.7334 69.679 79.4978 69.679C79.2621 69.679 79.0711 69.87 79.0711 70.1057C79.0711 70.3413 79.2621 70.5323 79.4978 70.5323Z" fill="#FEFEFE"/>
<path d="M75.2308 72.0683C75.4664 72.0683 75.6575 71.8773 75.6575 71.6417C75.6575 71.406 75.4664 71.215 75.2308 71.215C74.9951 71.215 74.8041 71.406 74.8041 71.6417C74.8041 71.8773 74.9951 72.0683 75.2308 72.0683Z" fill="#FEFEFE"/>
<path d="M74.5482 67.8015C74.7839 67.8015 74.9749 67.6105 74.9749 67.3748C74.9749 67.1392 74.7839 66.9481 74.5482 66.9481C74.3126 66.9481 74.1215 67.1392 74.1215 67.3748C74.1215 67.6105 74.3126 67.8015 74.5482 67.8015Z" fill="#FEFEFE"/>
<path d="M78.4737 65.0706C78.7093 65.0706 78.9003 64.8797 78.9003 64.644C78.9003 64.4083 78.7093 64.2173 78.4737 64.2173C78.238 64.2173 78.0469 64.4083 78.0469 64.644C78.0469 64.8797 78.238 65.0706 78.4737 65.0706Z" fill="#FEFEFE"/>
<path d="M69.4279 65.412C69.6636 65.412 69.8546 65.2209 69.8546 64.9852C69.8546 64.7496 69.6636 64.5586 69.4279 64.5586C69.1923 64.5586 69.0013 64.7496 69.0013 64.9852C69.0013 65.2209 69.1923 65.412 69.4279 65.412Z" fill="#FEFEFE"/>
<path d="M67.4651 70.3617C67.7008 70.3617 67.8918 70.1706 67.8918 69.935C67.8918 69.6993 67.7008 69.5083 67.4651 69.5083C67.2295 69.5083 67.0384 69.6993 67.0384 69.935C67.0384 70.1706 67.2295 70.3617 67.4651 70.3617Z" fill="#FEFEFE"/>
<path fill-rule="evenodd" clip-rule="evenodd" d="M91.189 80.5167C91.189 80.5167 80.3511 81.6261 76.1696 86.9171C70.7933 94.0001 79.4978 101.937 85.9834 95.9629C91.0183 91.3547 91.189 80.5167 91.189 80.5167Z" fill="#FCE631"/>
<path fill-rule="evenodd" clip-rule="evenodd" d="M87.5195 84.5276C87.5195 84.5276 80.5218 85.2103 77.8763 88.6238C74.3775 93.1467 79.9244 98.267 84.1913 94.4268C87.3488 91.5253 87.5195 84.5276 87.5195 84.5276Z" fill="#F74E3B"/>
<path fill-rule="evenodd" clip-rule="evenodd" d="M84.0207 88.2825C84.0207 88.2825 79.6684 88.7091 77.9616 90.9279C75.7428 93.7441 79.2417 96.9869 81.8872 94.5122C83.9353 92.7201 84.0207 88.2825 84.0207 88.2825Z" fill="#FEFEFE"/>
<path fill-rule="evenodd" clip-rule="evenodd" d="M62.0888 80.5167C62.0888 80.5167 72.9267 81.6261 77.0229 86.9171C82.4845 94.0001 73.7801 101.937 67.2091 95.9629C62.2595 91.3547 62.0888 80.5167 62.0888 80.5167Z" fill="#FCE631"/>
<path fill-rule="evenodd" clip-rule="evenodd" d="M65.7584 84.5276C65.7584 84.5276 72.7561 85.2103 75.4016 88.6238C78.8151 93.1467 73.2681 98.267 69.0866 94.4268C65.8438 91.5253 65.7584 84.5276 65.7584 84.5276Z" fill="#F74E3B"/>
<path fill-rule="evenodd" clip-rule="evenodd" d="M69.2573 88.2825C69.2573 88.2825 73.6095 88.7091 75.3162 90.9279C77.4497 93.7441 73.9508 96.9869 71.3053 94.5122C69.2572 92.7201 69.2573 88.2825 69.2573 88.2825Z" fill="#FEFEFE"/>
<path fill-rule="evenodd" clip-rule="evenodd" d="M76.5963 74.7991C76.5963 74.7991 69.3426 82.9915 69.9399 89.7332C70.708 98.5229 82.4846 98.5229 83.2526 89.7332C83.85 82.9915 76.5963 74.7991 76.5963 74.7991Z" fill="#FCE631"/>
<path fill-rule="evenodd" clip-rule="evenodd" d="M76.5963 80.2607C76.5963 80.2607 71.9881 85.4664 72.3294 89.8186C72.8414 95.5362 80.4365 95.5362 80.8632 89.8186C81.2899 85.4664 76.5963 80.2607 76.5963 80.2607Z" fill="#F74E3B"/>
<path fill-rule="evenodd" clip-rule="evenodd" d="M76.5962 85.3811C76.5962 85.3811 73.6947 88.7093 73.9508 91.4401C74.2068 95.0243 78.9857 95.0243 79.327 91.4401C79.583 88.7093 76.5962 85.3811 76.5962 85.3811Z" fill="#FEFEFE"/>
<path fill-rule="evenodd" clip-rule="evenodd" d="M76.7669 96.3896C80.6071 96.3896 83.6793 99.4618 83.6793 103.217C83.6793 103.814 83.5939 104.411 83.4232 105.009H70.1959C70.0252 104.411 69.9399 103.814 69.9399 103.217C69.9399 99.4618 73.012 96.3896 76.7669 96.3896Z" fill="#606062"/>
<path fill-rule="evenodd" clip-rule="evenodd" d="M76.3403 94.7682C76.3403 94.7682 75.8283 94.8535 75.4016 95.4508C74.8896 96.0482 74.9749 96.9016 74.9749 96.9016H76.6817H78.3884C78.3884 96.9016 78.4737 96.0482 77.9617 95.4508C77.535 94.8535 76.9377 94.7682 76.9377 94.7682H76.6817H76.3403Z" fill="#D2D3D5"/>
<path d="M78.3883 96.0483H75.0602C74.7774 96.0483 74.5482 96.2776 74.5482 96.5603C74.5482 96.8431 74.7774 97.0724 75.0602 97.0724H78.3883C78.6711 97.0724 78.9003 96.8431 78.9003 96.5603C78.9003 96.2776 78.6711 96.0483 78.3883 96.0483Z" fill="#96989A"/>
<path d="M60.9795 65.4975C61.8279 65.4975 62.5156 64.8097 62.5156 63.9614C62.5156 63.113 61.8279 62.4253 60.9795 62.4253C60.1311 62.4253 59.4434 63.113 59.4434 63.9614C59.4434 64.8097 60.1311 65.4975 60.9795 65.4975Z" fill="#FEFEFE"/>
<path d="M71.7321 69.5935C72.5804 69.5935 73.2681 68.9058 73.2681 68.0574C73.2681 67.2091 72.5804 66.5214 71.7321 66.5214C70.8837 66.5214 70.196 67.2091 70.196 68.0574C70.196 68.9058 70.8837 69.5935 71.7321 69.5935Z" fill="#FEFEFE"/>
<path d="M81.6311 64.8146C82.4795 64.8146 83.1672 64.1269 83.1672 63.2785C83.1672 62.4302 82.4795 61.7424 81.6311 61.7424C80.7828 61.7424 80.095 62.4302 80.095 63.2785C80.095 64.1269 80.7828 64.8146 81.6311 64.8146Z" fill="#FEFEFE"/>
<path d="M68.3185 62.0839C69.1668 62.0839 69.8546 61.3962 69.8546 60.5478C69.8546 59.6994 69.1668 59.0117 68.3185 59.0117C67.4701 59.0117 66.7824 59.6994 66.7824 60.5478C66.7824 61.3962 67.4701 62.0839 68.3185 62.0839Z" fill="#FEFEFE"/>
<path d="M92.3837 59.5237C93.232 59.5237 93.9198 58.836 93.9198 57.9876C93.9198 57.1393 93.232 56.4515 92.3837 56.4515C91.5353 56.4515 90.8476 57.1393 90.8476 57.9876C90.8476 58.836 91.5353 59.5237 92.3837 59.5237Z" fill="#FEFEFE"/>
<path d="M91.8717 67.8014C92.7201 67.8014 93.4077 67.1137 93.4077 66.2653C93.4077 65.417 92.7201 64.7292 91.8717 64.7292C91.0234 64.7292 90.3356 65.417 90.3356 66.2653C90.3356 67.1137 91.0234 67.8014 91.8717 67.8014Z" fill="#FEFEFE"/>
<path d="M113.633 63.7907C114.481 63.7907 115.169 63.1029 115.169 62.2546C115.169 61.4062 114.481 60.7185 113.633 60.7185C112.785 60.7185 112.097 61.4062 112.097 62.2546C112.097 63.1029 112.785 63.7907 113.633 63.7907Z" fill="#FEFEFE"/>
<path d="M105.611 59.5237C106.459 59.5237 107.147 58.836 107.147 57.9876C107.147 57.1393 106.459 56.4515 105.611 56.4515C104.763 56.4515 104.075 57.1393 104.075 57.9876C104.075 58.836 104.763 59.5237 105.611 59.5237Z" fill="#FEFEFE"/>
<path d="M81.3751 58.4143C82.2235 58.4143 82.9112 57.7266 82.9112 56.8782C82.9112 56.0299 82.2235 55.3422 81.3751 55.3422C80.5268 55.3422 79.8391 56.0299 79.8391 56.8782C79.8391 57.7266 80.5268 58.4143 81.3751 58.4143Z" fill="#FEFEFE"/>
<path d="M54.1525 59.1823C55.0008 59.1823 55.6885 58.4947 55.6885 57.6463C55.6885 56.798 55.0008 56.1102 54.1525 56.1102C53.3041 56.1102 52.6164 56.798 52.6164 57.6463C52.6164 58.4947 53.3041 59.1823 54.1525 59.1823Z" fill="#FEFEFE"/>
<path d="M49.5442 69.5082C50.3926 69.5082 51.0803 68.8205 51.0803 67.9721C51.0803 67.1238 50.3926 66.436 49.5442 66.436C48.6958 66.436 48.0081 67.1238 48.0081 67.9721C48.0081 68.8205 48.6958 69.5082 49.5442 69.5082Z" fill="#FEFEFE"/>
<path d="M38.2797 63.4493C39.128 63.4493 39.8158 62.7616 39.8158 61.9133C39.8158 61.0649 39.128 60.3772 38.2797 60.3772C37.4313 60.3772 36.7436 61.0649 36.7436 61.9133C36.7436 62.7616 37.4313 63.4493 38.2797 63.4493Z" fill="#FEFEFE"/>
</svg>