<svg viewBox="0 0 126 125" fill="none" xmlns="http://www.w3.org/2000/svg">
<path fill-rule="evenodd" clip-rule="evenodd" d="M42.9181 32.6423C43.9421 37.5919 46.6729 36.9092 50.9398 36.9092C50.9398 36.9092 24.1438 89.4772 22.0957 98.779C20.0476 108.081 24.3145 114.652 28.3253 115.932C32.3362 117.212 33.7869 117.212 33.7869 117.212C53.3293 117.212 72.8716 117.212 92.4139 117.212C92.4139 117.212 93.8647 117.212 97.7902 115.932C101.801 114.652 106.153 108.081 104.105 98.779C101.972 89.4772 75.2611 36.9092 75.2611 36.9092C80.2107 36.9092 82.2588 37.5919 83.1975 32.6423C69.7995 32.6423 56.4014 32.6423 42.9181 32.6423Z" fill="#BADEF0"/>
<path fill-rule="evenodd" clip-rule="evenodd" d="M50.9398 36.9092H75.2611C80.2107 36.9092 82.2588 37.5919 83.1975 32.6423C69.7995 32.6423 56.4014 32.6423 42.9181 32.6423C43.6008 35.9705 45.0516 36.7385 47.2703 36.9092H50.9398Z" fill="#73C5EE"/>
<path fill-rule="evenodd" clip-rule="evenodd" d="M94.2914 75.5671H31.9095C26.9599 85.9783 22.8637 95.3655 22.0957 98.779C20.0476 108.081 24.3145 114.652 28.3253 115.932C32.3362 117.212 33.7869 117.212 33.7869 117.212C53.3293 117.212 72.8716 117.212 92.4139 117.212C92.4139 117.212 93.8647 117.212 97.7902 115.932C101.801 114.652 106.153 108.081 104.105 98.779C103.337 95.3655 99.1556 85.9783 94.2914 75.5671Z" fill="#00A859"/>
<path fill-rule="evenodd" clip-rule="evenodd" d="M59.7296 24.7912C59.9856 24.6206 60.2416 24.4499 60.583 24.3646C59.9003 22.8285 60.2416 21.0364 61.4364 19.8417C61.351 19.7564 61.351 19.7563 61.2657 19.671C59.4736 17.2815 59.9856 13.9534 62.2897 12.1613C64.5085 10.5399 67.4953 10.7959 69.3728 12.6733C71.5915 11.5639 74.4077 12.1613 75.9437 14.2094C77.7358 16.5988 77.2238 19.927 74.9197 21.7191C74.1517 22.3164 73.3836 22.6578 72.5302 22.7432C72.9569 24.2792 72.3596 25.9006 71.0795 26.9247C69.4581 28.2048 67.154 27.9488 65.7032 26.498C65.1059 26.7541 64.4232 26.8394 63.8258 26.754C63.8258 27.5221 63.4845 28.3755 62.8018 28.8875C61.6924 29.7409 60.0709 29.4849 59.2176 28.3755C58.3642 27.2661 58.6202 25.6446 59.7296 24.7912Z" fill="#9BD1DE"/>
<path fill-rule="evenodd" clip-rule="evenodd" d="M80.2106 14.8067C80.3812 14.7214 80.5519 14.5507 80.7226 14.5507C80.2959 13.5267 80.4666 12.3319 81.32 11.5639C81.32 11.4786 81.2346 11.4785 81.2346 11.3932C80.0399 9.85712 80.2959 7.63839 81.9173 6.44366C83.3681 5.33427 85.3308 5.50489 86.5256 6.78496C88.0616 6.01692 89.9391 6.44363 90.9631 7.80903C92.1579 9.34511 91.8165 11.6492 90.2804 12.7586C89.7684 13.1853 89.2564 13.356 88.659 13.4413C88.915 14.4654 88.5737 15.5747 87.7203 16.2574C86.6109 17.0255 85.0748 16.9401 84.1361 15.9161C83.7948 16.0868 83.2827 16.1721 82.9414 16.0868C82.9414 16.6842 82.6854 17.1962 82.2587 17.5375C81.4906 18.0495 80.3813 17.9642 79.8692 17.1962C79.2719 16.4281 79.4425 15.4041 80.2106 14.8067Z" fill="#9BD1DE"/>
<path fill-rule="evenodd" clip-rule="evenodd" d="M50.6838 37.4211C47.8677 42.9681 24.0585 89.9892 22.0957 98.779C20.0476 108.081 24.3145 114.652 28.3253 115.932C32.3362 117.212 33.7869 117.212 33.7869 117.212C53.3293 117.212 72.8716 117.212 92.4139 117.212C92.4139 117.212 93.8647 117.212 97.7902 115.932C100.777 114.993 103.935 111.153 104.532 105.435H53.6706C53.6706 105.435 52.2199 105.435 48.209 104.155C44.1981 102.875 39.8459 96.3041 41.9794 87.0023C43.3448 80.602 56.5721 53.55 64.5939 37.4211H50.6838Z" fill="#FEFEFE" fill-opacity="0.4"/>
<path d="M111.615 79.322H86.5256C79.079 79.322 73.0422 85.3587 73.0422 92.8054V96.1336C73.0422 103.58 79.079 109.617 86.5256 109.617H111.615C119.062 109.617 125.098 103.58 125.098 96.1336V92.8054C125.098 85.3587 119.062 79.322 111.615 79.322Z" fill="#C97F30"/>
<path d="M111.871 80.3461H86.7816C79.3349 80.3461 73.2982 86.3828 73.2982 93.8294V97.1576C73.2982 104.604 79.3349 110.641 86.7816 110.641H111.871C119.318 110.641 125.354 104.604 125.354 97.1576V93.8294C125.354 86.3828 119.318 80.3461 111.871 80.3461Z" fill="#F89E32"/>
<path d="M99.3262 105.691C108.705 105.691 116.308 101.107 116.308 95.4508C116.308 89.7951 108.705 85.2103 99.3262 85.2103C89.9472 85.2103 82.344 89.7951 82.344 95.4508C82.344 101.107 89.9472 105.691 99.3262 105.691Z" fill="#D0873A"/>
<path d="M85.6912 96.5887L86.5986 96.5094C86.6416 96.873 86.7407 97.1722 86.8961 97.4069C87.0548 97.6383 87.2994 97.8267 87.63 97.9721C87.9606 98.1143 88.3324 98.1854 88.7457 98.1854C89.1126 98.1854 89.4366 98.1308 89.7175 98.0217C89.9985 97.9126 90.2068 97.7639 90.3423 97.5755C90.4812 97.3837 90.5506 97.1755 90.5506 96.9507C90.5506 96.7226 90.4845 96.5242 90.3522 96.3556C90.22 96.1837 90.0018 96.0399 89.6977 95.9242C89.5027 95.8482 89.0713 95.7309 88.4035 95.5722C87.7358 95.4102 87.268 95.2581 87.0002 95.116C86.6531 94.9342 86.3936 94.7094 86.2217 94.4416C86.0532 94.1706 85.9689 93.8681 85.9689 93.5342C85.9689 93.1673 86.073 92.8251 86.2812 92.5078C86.4895 92.1871 86.7936 91.9442 87.1936 91.7789C87.5936 91.6136 88.0382 91.5309 88.5275 91.5309C89.0663 91.5309 89.5407 91.6185 89.9506 91.7937C90.3638 91.9656 90.6812 92.2202 90.9026 92.5574C91.1241 92.8946 91.2431 93.2764 91.2597 93.7028L90.3374 93.7722C90.2878 93.3127 90.1192 92.9656 89.8316 92.7309C89.5473 92.4962 89.1258 92.3789 88.5672 92.3789C87.9853 92.3789 87.5606 92.4863 87.2928 92.7012C87.0283 92.9127 86.8961 93.1689 86.8961 93.4697C86.8961 93.7309 86.9903 93.9458 87.1787 94.1144C87.3639 94.283 87.8465 94.4565 88.6267 94.635C89.4101 94.8102 89.9473 94.9639 90.2382 95.0962C90.6613 95.2912 90.9737 95.5391 91.1754 95.84C91.377 96.1375 91.4778 96.4813 91.4778 96.8713C91.4778 97.2581 91.3671 97.6234 91.1456 97.9672C90.9241 98.3077 90.6051 98.5738 90.1886 98.7655C89.7754 98.9539 89.3093 99.0482 88.7903 99.0482C88.1324 99.0482 87.5804 98.9523 87.1341 98.7606C86.6912 98.5688 86.3424 98.2812 86.0879 97.8978C85.8366 97.511 85.7044 97.0746 85.6912 96.5887ZM92.4993 95.3838C92.4993 94.1772 92.8233 93.2334 93.4712 92.5524C94.1191 91.8681 94.9555 91.526 95.9802 91.526C96.6513 91.526 97.2562 91.6863 97.7951 92.007C98.3339 92.3276 98.7438 92.7755 99.0248 93.3507C99.3091 93.9226 99.4512 94.5722 99.4512 95.2995C99.4512 96.0366 99.3025 96.6961 99.005 97.2779C98.7075 97.8598 98.286 98.3011 97.7405 98.6019C97.1951 98.8994 96.6067 99.0482 95.9753 99.0482C95.291 99.0482 94.6794 98.8829 94.1406 98.5523C93.6018 98.2217 93.1935 97.7705 92.9158 97.1986C92.6381 96.6267 92.4993 96.0218 92.4993 95.3838ZM93.491 95.3986C93.491 96.2747 93.7257 96.9656 94.1951 97.4713C94.6679 97.9738 95.2596 98.225 95.9703 98.225C96.6943 98.225 97.2893 97.9705 97.7554 97.4614C98.2248 96.9523 98.4595 96.23 98.4595 95.2945C98.4595 94.7028 98.3587 94.1871 98.157 93.7474C97.9587 93.3045 97.6661 92.9623 97.2794 92.721C96.8959 92.4764 96.4645 92.3541 95.9852 92.3541C95.3042 92.3541 94.7174 92.5888 94.2249 93.0582C93.7356 93.5243 93.491 94.3044 93.491 95.3986ZM99.8975 98.9242L102.689 91.6549H103.726L106.701 98.9242H105.605L104.757 96.7226H101.717L100.919 98.9242H99.8975ZM101.995 95.9391H104.459L103.701 93.9259C103.469 93.3144 103.297 92.8119 103.185 92.4185C103.092 92.8846 102.962 93.3474 102.793 93.8069L101.995 95.9391ZM107.469 98.9242V91.6549H110.211C110.694 91.6549 111.063 91.678 111.317 91.7243C111.674 91.7838 111.973 91.8979 112.215 92.0665C112.456 92.2318 112.649 92.4648 112.795 92.7656C112.944 93.0665 113.018 93.397 113.018 93.7573C113.018 94.3755 112.821 94.8995 112.428 95.3292C112.034 95.7557 111.324 95.9689 110.296 95.9689H108.431V98.9242H107.469ZM108.431 95.111H110.311C110.932 95.111 111.373 94.9953 111.634 94.7639C111.896 94.5325 112.026 94.2069 112.026 93.7871C112.026 93.483 111.949 93.2235 111.793 93.0086C111.641 92.7904 111.439 92.6466 111.188 92.5772C111.026 92.5342 110.727 92.5127 110.291 92.5127H108.431V95.111Z" fill="#9C6438"/>
<path d="M85.235 100.372H113.459V101.116H85.235V100.372Z" fill="#9C6438"/>
<path fill-rule="evenodd" clip-rule="evenodd" d="M115.882 94.1708C115.882 99.8031 108.287 104.411 98.8996 104.411C91.1339 104.411 84.6482 101.339 82.6001 97.0723C83.7948 101.937 90.8778 105.777 99.3263 105.777C108.713 105.777 116.308 101.168 116.308 95.4509C116.308 94.5121 116.138 93.4881 115.711 92.6348C115.796 93.1468 115.882 93.6588 115.882 94.1708Z" fill="#9C6438"/>
<path d="M23.973 116.358C36.6983 116.358 47.0142 106.043 47.0142 93.3173C47.0142 80.592 36.6983 70.2761 23.973 70.2761C11.2477 70.2761 0.931885 80.592 0.931885 93.3173C0.931885 106.043 11.2477 116.358 23.973 116.358Z" fill="url(#paint0_radial)"/>
<path fill-rule="evenodd" clip-rule="evenodd" d="M47.3556 87.0877C57.6815 90.3305 64.4231 98.4376 62.2897 105.35C60.2416 112.177 50.0864 115.164 39.6752 111.921C29.264 108.763 22.5223 100.571 24.6558 93.744C26.7892 86.8316 36.9444 83.9302 47.3556 87.0877Z" fill="#F4A332"/>
<path fill-rule="evenodd" clip-rule="evenodd" d="M46.9289 88.3677C56.316 91.2692 62.375 98.6082 60.4122 104.753C58.5348 110.897 49.4037 113.542 40.0165 110.726C30.7147 107.825 24.6558 100.486 26.5332 94.3413C28.4106 88.1117 37.5417 85.4663 46.9289 88.3677Z" fill="#F9C77F"/>
<path fill-rule="evenodd" clip-rule="evenodd" d="M43.9421 97.9255C45.3075 98.3522 46.1609 99.3763 45.9049 100.23C45.5636 101.083 44.2835 101.51 43.0034 101.083C41.7234 100.656 40.87 99.6323 41.126 98.7789C41.382 97.9255 42.662 97.5841 43.9421 97.9255Z" fill="#FAB643"/>
<path fill-rule="evenodd" clip-rule="evenodd" d="M41.7233 109.532C41.8939 108.422 42.918 103.302 43.2593 101.51H43.43C43.6007 103.473 44.0274 108.849 44.0274 110.044C44.1127 111.75 41.5526 111.238 41.7233 109.532ZM47.6969 90.2453C47.1849 91.2694 45.1368 96.0482 44.3687 97.755L44.5394 97.8404C45.8195 96.3043 49.1476 92.1227 49.8303 91.184C50.8544 89.8186 48.4649 88.7092 47.6969 90.2453ZM52.3905 92.6348C51.3664 93.3175 46.9288 96.9016 45.3074 98.267L45.3928 98.3524C47.4409 97.3283 52.9878 94.5975 54.0972 93.9148C55.804 92.9761 53.8412 91.5254 52.3905 92.6348ZM55.9746 95.8776C54.6092 96.2189 48.2943 98.1817 45.9901 98.8644L46.0755 98.9497V99.0351C48.6356 98.6937 55.6333 97.6697 57.084 97.4136C59.3028 97.0723 58.1081 95.2802 55.9746 95.8776ZM58.1081 99.6324C56.4867 99.6324 49.0623 99.6324 46.3315 99.6324L46.4168 99.7177C49.1476 100.144 56.828 101.083 58.4494 101.254C60.9242 101.51 60.5829 99.7178 58.1081 99.6324ZM58.3641 103.302C56.7427 102.79 49.1476 100.998 46.4168 100.315L46.3315 100.4C48.977 101.425 56.316 104.155 57.9374 104.753C60.3269 105.606 60.8389 103.899 58.3641 103.302ZM55.6333 107.654C54.2679 106.801 48.1236 102.619 45.9048 101.083L45.9901 100.998C48.4649 102.193 55.3773 105.691 56.828 106.459C59.0468 107.654 57.6814 108.934 55.6333 107.654ZM51.7931 109.617C50.8544 108.508 46.6729 103.302 45.1368 101.425H45.3074C47.1849 103.131 52.4758 107.91 53.5852 108.934C55.2066 110.47 53.1585 111.238 51.7931 109.617ZM46.9289 110.214C46.5022 109.02 44.8807 103.558 44.2834 101.595H44.3687H44.4541C45.4781 103.558 48.5503 108.934 49.1476 110.129C50.001 111.836 47.6116 112.006 46.9289 110.214Z" fill="#FAB643"/>
<path fill-rule="evenodd" clip-rule="evenodd" d="M39.2485 108.763C39.7606 107.825 41.894 103.046 42.5767 101.339L42.4914 101.254H42.406C41.2113 102.704 37.7978 106.971 37.1151 107.91C36.1764 109.275 38.5658 110.3 39.2485 108.763ZM45.2222 89.4771C45.0515 90.5865 44.1128 95.7067 43.7715 97.5842L43.6008 97.4989C43.4301 95.5361 43.0034 90.1598 42.9181 89.0504C42.9181 87.3436 45.4782 87.8557 45.2222 89.4771ZM40.0166 88.7944C40.4433 89.9891 42.15 95.4507 42.7474 97.4135H42.5767C41.4673 95.5361 38.4805 90.0745 37.8831 88.9651C36.9444 87.173 39.4192 87.0876 40.0166 88.7944ZM35.2377 89.4771C36.1764 90.5865 40.3579 95.7067 41.8087 97.5842L41.7233 97.6695H41.638C39.7606 95.9628 34.4696 91.1839 33.4456 90.1598C31.8242 88.6237 33.7869 87.8557 35.2377 89.4771ZM31.3121 91.4399C32.6775 92.2933 38.8218 96.4748 41.0406 98.0109V98.0962H40.9553C38.4805 96.8162 31.5681 93.3173 30.1174 92.5493C27.984 91.3545 29.264 90.0745 31.3121 91.4399ZM29.0934 94.256C30.6294 94.768 38.0538 97.5842 40.6993 98.5229L40.6139 98.6082V98.6936C37.8831 98.0109 30.2027 96.1335 28.5813 95.7068C26.1919 95.0241 26.7039 93.4026 29.0934 94.256ZM28.8374 99.3763C30.4588 99.4616 37.9685 99.4616 40.6139 99.4616V99.2909C37.7978 98.9496 30.2028 97.9255 28.496 97.7549C26.1065 97.4989 26.4479 99.291 28.8374 99.3763ZM30.9708 103.216C32.4215 102.79 38.7365 100.912 41.0406 100.144L40.9553 100.059C38.3952 100.4 31.3975 101.339 29.8614 101.595C27.6426 102.022 28.9227 103.729 30.9708 103.216ZM34.6403 106.459C35.579 105.691 40.1019 102.107 41.7233 100.827L41.5527 100.742C39.5899 101.68 34.0429 104.497 32.8482 105.094C31.1415 106.033 33.1042 107.483 34.6403 106.459Z" fill="#FAB643"/>
<path fill-rule="evenodd" clip-rule="evenodd" d="M115.028 80.858C115.114 80.9433 115.199 81.114 115.199 81.1994C115.199 81.5407 114.943 81.7967 114.516 81.7967C114.346 81.7967 114.26 81.7114 114.09 81.6261C114.09 81.8821 113.834 82.0527 113.492 82.0527C113.578 82.1381 113.578 82.1381 113.578 82.2234C113.578 82.5648 113.236 82.7354 112.895 82.7354C112.724 82.7354 112.639 82.7354 112.468 82.6501C112.554 82.7354 112.554 82.7355 112.554 82.8208C112.554 83.0768 112.212 83.3328 111.871 83.3328C111.785 83.3328 111.785 83.3328 111.7 83.3328C111.615 83.4181 111.444 83.5035 111.273 83.5888C111.444 83.6741 111.529 83.8448 111.529 84.0155C111.529 84.2715 111.273 84.4422 110.932 84.5275C110.932 84.5275 111.017 84.6128 111.017 84.7835C111.017 84.9542 110.847 85.1249 110.676 85.2102C110.676 85.2956 110.676 85.2956 110.676 85.3809C110.676 85.637 110.591 85.8076 110.335 85.893C110.505 85.9783 110.591 86.2343 110.591 86.4903C110.591 86.917 110.42 87.2583 110.164 87.2583C109.993 87.2583 109.823 86.917 109.823 86.4903C109.823 86.2343 109.823 86.0636 109.908 85.893C109.567 85.893 109.311 85.637 109.311 85.3809C109.311 85.2956 109.396 85.2102 109.481 85.1249C109.14 85.0395 108.969 84.8689 108.969 84.6129C108.969 84.5275 108.969 84.5276 108.969 84.4422C108.628 84.4422 108.287 84.2715 108.287 83.9302C108.287 83.8448 108.372 83.7595 108.457 83.6742C108.372 83.6742 108.372 83.6741 108.372 83.5888C108.287 83.5888 108.287 83.5888 108.201 83.5888C107.86 83.5888 107.519 83.4181 107.519 83.0768C107.519 83.0768 107.519 82.9915 107.519 82.9061C107.519 82.9061 107.519 82.9061 107.433 82.9061C107.092 82.9061 106.751 82.7354 106.751 82.3941V82.3088C106.665 82.3941 106.58 82.3941 106.495 82.3941C106.153 82.3941 105.812 82.1381 105.812 81.8821V81.7967C105.726 81.8821 105.556 81.8821 105.471 81.8821C105.214 81.8821 104.958 81.7967 104.873 81.6261C104.788 81.6261 104.617 81.7114 104.532 81.7114C104.276 81.7114 104.02 81.5407 103.934 81.3701C103.508 81.3701 103.252 81.114 103.252 80.858C103.252 80.602 103.593 80.346 103.934 80.346C104.105 80.346 104.276 80.346 104.361 80.4313C104.361 80.1753 104.617 79.9193 105.044 79.9193C105.129 79.9193 105.3 79.9193 105.385 80.0046V79.9193C105.385 79.6633 105.727 79.4073 106.068 79.4073C106.239 79.4073 106.324 79.4926 106.495 79.4926C106.58 79.3219 106.836 79.2366 107.092 79.2366C107.177 79.2366 107.263 79.2366 107.348 79.2366C107.519 79.0659 107.689 78.9806 107.945 78.9806H108.031V78.8953C108.031 78.7246 108.287 78.5539 108.543 78.4685C108.543 78.2125 108.884 77.9565 109.225 77.9565C109.567 77.9565 109.823 78.1272 109.908 78.3832C109.993 78.2979 110.164 78.2979 110.335 78.2979C110.591 78.2979 110.761 78.2979 110.847 78.4685C111.017 78.3832 111.188 78.2979 111.359 78.2979C111.615 78.2979 111.956 78.4685 111.956 78.7246H112.127C112.298 78.7246 112.554 78.8099 112.639 78.8953C112.724 78.8953 112.895 78.8099 113.066 78.8099C113.492 78.8099 113.748 79.0659 113.748 79.3219V79.4073C113.834 79.4073 113.834 79.4073 113.919 79.4073C114.346 79.4073 114.602 79.6633 114.602 79.9193C114.602 80.0046 114.602 80.0046 114.602 80.09C114.858 80.09 115.114 80.346 115.114 80.602C115.114 80.6873 115.114 80.7727 115.028 80.858Z" fill="#FBE5C5"/>
<path fill-rule="evenodd" clip-rule="evenodd" d="M99.8383 81.9675C100.009 82.1382 100.009 82.3942 99.8383 82.7355C99.5823 83.2476 98.7289 83.6743 98.0462 83.6743C97.7048 83.6743 97.4489 83.6743 97.3635 83.5036C97.0222 83.9303 96.3394 84.2716 95.7421 84.2716C95.7421 84.4423 95.7421 84.5276 95.6568 84.613C95.4007 85.2103 94.5474 85.637 93.8647 85.637C93.5233 85.637 93.3526 85.5517 93.182 85.4663C93.182 85.5517 93.182 85.637 93.0966 85.7223C92.8406 86.3197 91.9873 86.7464 91.3045 86.7464C91.2192 86.7464 91.1339 86.7464 91.0485 86.7464C90.7072 87.0024 90.3658 87.1731 89.9391 87.2584C90.1098 87.4291 90.1951 87.6851 90.0245 88.0265C89.7685 88.5385 89.0004 88.9652 88.3177 88.9652C88.3177 89.1359 88.3177 89.3065 88.2324 89.4772C88.0617 89.9039 87.635 90.1599 87.123 90.3306C87.123 90.5013 87.123 90.672 87.0377 90.7573C86.867 91.184 86.355 91.5253 85.9283 91.696C86.0136 91.8667 85.9283 92.3787 85.6723 92.8907C85.2456 93.6588 84.5629 94.3415 84.2215 94.3415C83.7948 94.3415 83.7948 93.6588 84.1362 92.8907C84.3922 92.464 84.7335 92.0374 84.9895 91.7814C84.3922 91.696 84.1362 91.2693 84.3922 90.7573C84.4775 90.5866 84.6482 90.3306 84.9042 90.1599C84.3922 90.0746 84.2215 89.6479 84.4775 89.2212C84.4775 89.1359 84.5628 89.0505 84.6482 88.9652C83.8801 88.9652 83.5388 88.5385 83.8801 87.9411C83.9655 87.7705 84.0508 87.5998 84.3069 87.5145C84.2215 87.4291 84.2215 87.3438 84.2215 87.2584C84.1362 87.2584 84.0508 87.2584 83.9655 87.2584C83.2828 87.2584 82.8561 86.8317 83.1975 86.3197C83.1975 86.149 83.2828 86.0637 83.3681 85.9784C83.2828 85.9784 83.1974 85.9784 83.1121 85.9784C82.4294 85.9784 82.0881 85.5517 82.3441 84.9543L82.4294 84.869C82.2587 84.869 82.0881 84.869 81.9174 84.869C81.1493 84.869 80.808 84.4423 81.064 83.9303V83.845C80.8933 83.9303 80.552 84.0156 80.3813 84.0156C79.7839 84.0156 79.4426 83.7596 79.4426 83.4182C79.1866 83.5036 79.0159 83.5889 78.7599 83.5889C78.2479 83.5889 77.9065 83.3329 77.8212 82.9915C77.2238 82.9062 76.8825 82.4795 77.1385 81.9675C77.4798 81.3702 78.2479 80.9434 79.0159 80.9434C79.2719 80.9434 79.4426 81.0288 79.6133 81.1142C79.9546 80.6021 80.7227 80.1754 81.4907 80.1754C81.7467 80.1754 81.9174 80.2607 82.0881 80.3461L82.1734 80.2607C82.4294 79.6634 83.2828 79.2367 83.9655 79.2367C84.2215 79.2367 84.4775 79.322 84.6482 79.4074C84.9895 79.066 85.5869 78.81 86.1843 78.81C86.3549 78.81 86.5256 78.81 86.611 78.8954C87.0376 78.554 87.5497 78.3833 88.0617 78.3833H88.2324L88.3177 78.298C88.4884 77.786 89.0857 77.4446 89.6831 77.2739C90.0245 76.7619 90.7925 76.3352 91.4752 76.3352C92.1579 76.3352 92.4993 76.6765 92.4139 77.1886C92.6699 77.0179 93.0113 76.9326 93.3526 76.9326C93.7793 76.9326 94.1207 77.1033 94.206 77.3593C94.5474 77.1886 94.8887 77.1033 95.1447 77.1033C95.8274 77.1033 96.1688 77.4446 96.0834 77.8713H96.3395C96.7662 77.8713 97.0222 78.042 97.1928 78.2126C97.4488 78.1273 97.7902 78.042 98.1316 78.042C98.8996 78.042 99.2409 78.4687 98.9849 78.9807L98.8142 79.1514C98.9849 79.1514 99.0703 79.1514 99.1556 79.1514C99.9236 79.1514 100.265 79.5781 100.009 80.1754C99.9236 80.2608 99.8383 80.3461 99.753 80.4314C100.35 80.6021 100.521 80.9434 100.35 81.4555C100.18 81.6261 100.009 81.8822 99.8383 81.9675Z" fill="#FEFEFE"/>
<path fill-rule="evenodd" clip-rule="evenodd" d="M100.692 110.3C100.777 110.044 100.862 109.787 100.692 109.531C100.436 109.019 99.7529 108.593 99.0702 108.678C98.8142 108.678 98.5582 108.763 98.4729 108.934C98.1315 108.507 97.6195 108.251 97.0221 108.251C97.0221 108.081 97.0221 107.995 96.9368 107.91C96.6808 107.313 95.9981 106.971 95.3154 106.971C95.23 106.971 95.1447 106.971 95.0594 107.057C94.8887 107.057 94.8033 107.142 94.718 107.227C94.0353 107.654 93.438 107.91 93.438 107.91C93.438 107.91 93.1819 107.483 92.4992 107.227C91.8165 106.971 90.7925 107.569 90.7925 107.569C90.7925 107.569 90.7925 106.886 89.8538 106.545C89.0004 106.203 88.2324 107.142 88.2324 107.142C88.2324 107.142 88.3177 106.886 87.5496 106.459C86.8669 106.118 86.0136 107.313 86.0136 107.313H85.5869C85.0748 107.398 84.8188 107.825 85.0748 108.337L85.1602 108.507C84.9895 108.422 84.8188 108.422 84.6482 108.422C83.9655 108.507 83.6241 108.934 83.8801 109.531H83.9655C83.7095 109.446 83.4534 109.446 83.2828 109.446C82.7707 109.446 82.5147 109.702 82.4294 110.044C82.2587 110.044 82.0027 109.958 81.832 109.958C81.32 110.043 81.064 110.3 80.9786 110.641C80.4666 110.726 80.2106 111.153 80.3813 111.665C80.6373 112.177 81.4053 112.604 82.088 112.518C82.2587 112.518 82.5147 112.433 82.6001 112.348C82.9414 112.86 83.6241 113.286 84.2215 113.201C84.4775 113.201 84.7335 113.116 84.8188 113.03L84.9042 113.116C85.1602 113.628 85.8429 114.054 86.5256 113.969C86.7816 113.969 86.9523 113.884 87.123 113.798C87.4643 114.14 87.9763 114.31 88.4884 114.31C88.659 114.31 88.7444 114.225 88.915 114.225C89.2564 114.481 89.7684 114.652 90.1951 114.652L90.3658 114.566V114.737C90.5365 115.164 91.0485 115.505 91.6458 115.59C91.9019 116.102 92.5846 116.444 93.2673 116.444C93.7793 116.359 94.1207 116.017 94.0353 115.505C94.2913 115.676 94.6327 115.761 94.8887 115.676C95.3154 115.676 95.5714 115.505 95.6567 115.249C95.9127 115.42 96.2541 115.505 96.5101 115.42C97.1075 115.42 97.3635 115.078 97.3635 114.652H97.5342C97.8755 114.566 98.2169 114.396 98.3022 114.14C98.5582 114.31 98.8996 114.396 99.1556 114.396C99.8383 114.31 100.18 113.884 99.9236 113.286L99.8383 113.201C99.9236 113.201 100.009 113.201 100.094 113.201C100.777 113.116 101.118 112.689 100.862 112.092C100.777 112.006 100.692 111.921 100.606 111.836C101.118 111.665 101.374 111.238 101.118 110.812C101.033 110.556 100.862 110.385 100.692 110.3Z" fill="#FEFEFE"/>
<path fill-rule="evenodd" clip-rule="evenodd" d="M118.442 110.3C118.613 110.044 118.612 109.787 118.527 109.531C118.271 109.019 117.503 108.593 116.82 108.678C116.564 108.678 116.394 108.763 116.223 108.934C115.967 108.507 115.37 108.251 114.858 108.251C114.858 108.081 114.772 107.995 114.772 107.91C114.516 107.313 113.748 106.971 113.066 106.971C112.98 106.971 112.895 106.971 112.81 107.057C112.724 107.057 112.639 107.142 112.554 107.227C111.785 107.654 111.188 107.91 111.188 107.91C111.188 107.91 111.017 107.483 110.249 107.227C109.567 106.971 108.543 107.569 108.543 107.569C108.543 107.569 108.543 106.886 107.689 106.545C106.751 106.203 106.068 107.142 106.068 107.142C106.068 107.142 106.068 106.886 105.385 106.459C104.702 106.118 103.764 107.313 103.764 107.313H103.422C102.825 107.398 102.569 107.825 102.825 108.337L102.91 108.507C102.74 108.422 102.569 108.422 102.398 108.422C101.801 108.507 101.46 108.934 101.716 109.531C101.46 109.446 101.289 109.446 101.033 109.446C100.606 109.446 100.265 109.702 100.265 110.044C100.009 110.044 99.8382 109.958 99.5822 109.958C99.1555 110.043 98.8141 110.3 98.8141 110.641C98.2168 110.726 97.9608 111.153 98.2168 111.665C98.4728 112.177 99.1555 112.604 99.8382 112.518C100.094 112.518 100.265 112.433 100.436 112.348C100.692 112.86 101.374 113.286 102.057 113.201C102.313 113.201 102.484 113.116 102.654 113.03V113.116C102.91 113.628 103.678 114.054 104.276 113.969C104.532 113.969 104.788 113.884 104.873 113.798C105.214 114.14 105.727 114.31 106.239 114.31C106.409 114.31 106.58 114.225 106.665 114.225C107.007 114.481 107.519 114.652 107.945 114.652L108.116 114.566V114.737C108.372 115.164 108.884 115.505 109.396 115.59C109.652 116.102 110.42 116.444 111.017 116.444C111.615 116.359 111.956 116.017 111.785 115.505C112.127 115.676 112.383 115.761 112.639 115.676C113.066 115.676 113.322 115.505 113.407 115.249C113.748 115.42 114.004 115.505 114.346 115.42C114.858 115.42 115.199 115.078 115.114 114.652H115.284C115.711 114.566 115.967 114.396 116.052 114.14C116.308 114.31 116.65 114.396 116.906 114.396C117.588 114.31 117.93 113.884 117.674 113.286L117.588 113.201C117.674 113.201 117.759 113.201 117.93 113.201C118.527 113.116 118.868 112.689 118.612 112.092C118.527 112.006 118.527 111.921 118.442 111.836C118.869 111.665 119.125 111.238 118.869 110.812C118.783 110.556 118.613 110.385 118.442 110.3Z" fill="#FBE5C5"/>
<defs>
<radialGradient id="paint0_radial" cx="0" cy="0" r="1" gradientUnits="userSpaceOnUse" gradientTransform="translate(28.8893 84.7418) rotate(112.471) scale(80.6914)">
<stop stop-color="#FAEA91"/>
<stop offset="0.658824" stop-color="#F9A531"/>
<stop offset="1" stop-color="#B77E3B"/>
</radialGradient>
</defs>
</svg>