<svg width="88" height="78" viewBox="0 0 88 78" fill="none" xmlns="http://www.w3.org/2000/svg">
<path fill-rule="evenodd" clip-rule="evenodd" d="M87.6349 0.45166C87.6349 0.45166 58.0439 2.34853 50.0771 24.7315C42.1103 47.1144 34.9022 53.5637 20.8654 57.7368C6.82869 61.9099 2.6556 71.3942 0 77.8435C0 52.0462 0 26.2489 0 0.45166C29.2116 0.45166 58.4232 0.45166 87.6349 0.45166Z" fill="#49AEB8"/>
<path d="M49.6976 38.7682C58.0784 38.7682 64.8724 31.9742 64.8724 23.5933C64.8724 15.2125 58.0784 8.41846 49.6976 8.41846C41.3167 8.41846 34.5227 15.2125 34.5227 23.5933C34.5227 31.9742 41.3167 38.7682 49.6976 38.7682Z" fill="#236073"/>
<path fill-rule="evenodd" clip-rule="evenodd" d="M0 59.6336V15.6265C9.48429 18.2821 16.6924 27.0076 16.6924 37.63C16.6924 47.8731 9.48429 56.978 0 59.6336Z" fill="#236073"/>
</svg>