<svg viewBox="0 0 49 49" fill="none" xmlns="http://www.w3.org/2000/svg">
<path fill-rule="evenodd" clip-rule="evenodd" d="M24.421 0.978149C37.699 0.978149 48.3214 11.6005 48.3214 24.8785C48.3214 38.1565 37.699 48.7789 24.421 48.7789C11.5223 48.7789 0.520508 38.1565 0.520508 24.8785C0.520508 11.6005 11.5223 0.978149 24.421 0.978149ZM24.421 4.01312C36.1815 4.01312 45.6658 13.4974 45.6658 24.8785C45.6658 36.6391 36.1815 46.1233 24.421 46.1233C13.0398 46.1233 3.55555 36.6391 3.55555 24.8785C3.55555 13.4974 13.0398 4.01312 24.421 4.01312ZM11.9018 15.0149V31.7072C11.9018 34.3628 13.4193 34.7422 15.3161 34.7422C17.213 34.7422 19.1098 34.7422 21.0066 34.7422V32.0866H14.5574V18.4292H33.9053V23.361H36.9403C36.9403 21.0848 36.9402 15.0148 36.5608 13.8767C36.5608 13.118 35.8021 11.9799 34.664 11.9799H14.1779C12.6604 11.9799 11.9018 13.4974 11.9018 15.0149ZM26.3178 26.0167C25.559 26.0167 24.8004 25.2579 24.0417 26.396C23.2829 27.9135 23.2829 28.2929 24.8004 29.0516C24.8004 29.431 24.421 30.1897 24.421 30.5691C24.421 30.9485 24.8004 31.3279 24.8004 31.7072C23.2829 32.8454 23.2829 32.8453 24.0417 34.3628C25.1798 35.8803 25.9384 34.7422 26.3178 34.7422C27.0765 35.1216 27.8353 35.8803 28.5941 35.8803C29.3528 37.0184 27.8354 37.7772 30.8704 37.7772C32.3878 37.7772 32.0084 36.639 32.3877 35.8803C33.1465 35.8803 33.9053 35.1216 34.2847 34.7422C35.0435 34.7422 35.8021 35.8803 36.5608 34.3628C37.3196 33.6041 37.699 32.8454 36.1815 31.7072C36.1815 31.3279 36.1815 30.9485 36.1815 30.5691C36.1815 30.1897 36.1815 29.431 36.1815 29.0516C36.5609 29.0516 37.3196 28.2929 37.3196 27.5341C37.3196 27.1548 36.5608 25.6373 35.8021 25.6373C35.0433 25.6373 34.6641 26.0167 34.2847 26.0167C33.9053 25.6373 33.1465 25.2579 32.0084 24.8785C31.6291 23.7404 33.1465 22.9817 29.7321 22.9817C28.594 22.9817 28.9734 24.1198 28.5941 24.8785C27.8353 25.2579 27.0765 25.6373 26.3178 26.0167ZM15.6954 14.2561C16.0748 14.2561 16.4542 14.6355 16.4542 15.3942C16.4542 15.7736 16.0748 16.153 15.6954 16.153C14.9367 16.153 14.5574 15.7736 14.5574 15.3942C14.5574 14.6355 14.9367 14.2561 15.6954 14.2561ZM21.3861 14.2561C22.1448 14.2561 22.5241 14.6355 22.5241 15.3942C22.5241 15.7736 22.1448 16.153 21.3861 16.153C21.0067 16.153 20.6273 15.7736 20.6273 15.3942C20.6273 14.6355 21.0067 14.2561 21.3861 14.2561ZM18.7305 14.2561C19.1098 14.2561 19.4891 14.6355 19.4891 15.3942C19.4891 15.7736 19.1098 16.153 18.7305 16.153C17.9717 16.153 17.5923 15.7736 17.5923 15.3942C17.5923 14.6355 17.9717 14.2561 18.7305 14.2561Z" fill="#00A859"/>
</svg>