<svg viewBox="0 0 52 79" fill="none" xmlns="http://www.w3.org/2000/svg">
<path fill-rule="evenodd" clip-rule="evenodd" d="M24.7442 72.8844C25.7408 71.5342 24.7764 69.7339 24.905 67.4835C25.0336 65.3618 25.1943 63.5294 26.223 62.2435C29.2771 65.9726 28.7305 65.4261 30.1772 70.0875C30.4986 71.2127 31.3023 72.3057 31.4952 72.8522C34.9993 73.1415 36.7674 71.3413 39.8215 72.2414C40.0465 70.8591 38.7928 70.1518 38.2784 69.0267C37.9248 68.2551 37.4747 66.7442 37.1533 65.844C36.3817 63.6901 35.6409 60.5575 35.448 58.1464C33.0048 58.0178 28.1505 58.5 25 58.5C21.4959 58.4679 20.4029 58.3071 17.3488 57.6963C16.8345 60.7182 17.3503 62.1792 17.5753 65.1689C17.8646 69.6374 17.093 68.1908 16 71.4377C18.4432 72.5629 22.3974 72.8201 24.7442 72.8844Z" fill="url(#paint0_linear)"/>
<path fill-rule="evenodd" clip-rule="evenodd" d="M44.6287 44.5604C44.6287 44.5604 46.2682 44.9462 46.7825 44.689C47.2647 44.4318 47.8756 43.6281 48.2614 43.8531C48.615 44.046 48.5829 45.5248 48.2614 46.0713C47.9399 46.5857 50.0295 47.6466 50.8332 48.2895C51.6369 48.9646 51.7655 49.8647 50.7689 49.5754C49.7723 49.2861 48.8722 48.6431 48.8722 48.6431C48.8722 48.6431 51.3476 51.0221 50.8654 51.5686C50.3831 52.1151 48.0042 50.0576 48.0042 50.0576C48.0042 50.0576 49.5794 52.1794 48.9365 52.4687C48.2935 52.7902 46.6218 50.4755 46.6218 50.4755C46.6218 50.4755 47.5542 52.2437 47.0719 52.533C46.5576 52.8545 45.0466 50.3148 45.0466 50.3148C45.0466 50.3148 43.2142 49.6397 42.5069 48.5145C41.7675 47.3893 41.6711 46.4892 41.6711 46.4892L38.9385 45.5248L41.639 43.3709L44.6287 44.5604Z" fill="#E69D65"/>
<path fill-rule="evenodd" clip-rule="evenodd" d="M25.2112 74.5542L24.6969 72.6896L20.1962 72.2717L17.3672 71.6609L19.8747 74.747C22.3179 75.1328 23.2824 74.0719 25.2112 74.5542Z" fill="#FDC9A2"/>
<path fill-rule="evenodd" clip-rule="evenodd" d="M25.2112 74.5542C23.2824 74.072 22.3179 75.1328 19.8747 74.7471C18.9103 72.3681 18.9425 71.3716 15.9206 71.243C14.4097 72.4003 12.7379 73.6219 12.9308 76.5795C14.7311 77.126 17.0458 77.2546 19.2318 77.0296L25.0826 75.6472L25.2112 74.5542Z" fill="#8C542F"/>
<path fill-rule="evenodd" clip-rule="evenodd" d="M32.0264 74.5221C32.5086 76.9653 33.7624 77.5118 36.4628 77.8976C38.7774 78.1869 41.6385 77.9619 43.2781 76.8688C43.2781 75.4865 42.9566 74.8757 42.0886 73.8791C41.3492 73.0754 40.8992 72.8504 40.3848 72.8182C39.4525 72.8182 37.9094 73.0433 37.2665 73.4612C35.3697 74.5864 37.5879 76.8367 33.0229 74.9078L32.0264 74.5221Z" fill="#8C542F"/>
<path fill-rule="evenodd" clip-rule="evenodd" d="M44.9819 44.3996C43.9532 43.4352 41.7672 42.5029 40.6099 41.8921C37.6844 40.2847 37.5559 39.3846 36.0128 39.256C35.6591 38.7416 35.3376 38.3558 34.984 38.0344C32.7015 36.7484 30.7405 37.1664 30.7405 37.1664C30.7083 38.6451 30.0012 39.2881 29.3903 40.0275C27.783 40.1239 29.1331 39.9954 28.4259 39.8668C27.6222 39.7382 28.3937 39.5775 27.6222 39.8025L26.6256 45.6533L24.986 45.6212C24.5038 43.7245 25.1147 41.667 25.4683 39.8346L25.1468 39.7382C24.4074 39.481 24.0859 39.6418 24.1181 37.1985C22.9286 37.1021 22.2214 37.3592 21.9321 37.52L21.3212 37.9058C20.2604 37.9058 17.2063 40.4776 15.7596 41.3134C14.1201 42.2457 10.9053 43.2423 9.94092 43.9817C10.7446 45.3962 10.3267 46.0391 11.4519 48.7396C13.4772 51.2792 16.5955 47.968 18.3315 48.3538C18.2351 50.1541 15.7276 57.2909 17.335 57.6445L17.367 57.8374C20.4211 58.4482 21.5141 58.5768 25.0182 58.6411C28.1687 58.6089 33.023 58.1588 35.4662 58.2874C36.077 57.4837 35.7234 58.2231 35.8199 57.0658C35.852 56.6479 35.7877 55.8763 35.7555 55.4584L34.8232 46.3928C36.5913 47.518 39.9026 49.7683 42.5708 49.4147C42.4422 46.4892 43.1173 46.2963 44.9819 44.3996Z" fill="url(#paint1_radial)"/>
<path fill-rule="evenodd" clip-rule="evenodd" d="M31.4478 72.6575C31.6728 73.204 31.7049 73.5898 32.0264 74.5221C32.2514 74.715 32.605 74.7471 33.023 74.9078C37.5879 76.8367 35.3698 74.5864 37.2665 73.4612C37.9094 73.0433 39.4525 72.8183 40.3848 72.8183C40.1598 72.4968 39.6454 71.9824 39.774 72.0788C36.72 71.1465 34.9197 72.9468 31.4478 72.6575Z" fill="#FDC9A2"/>
<path fill-rule="evenodd" clip-rule="evenodd" d="M5.79378 49.8647L0.650226 40.2847C0.650226 40.2847 0.10368 39.5132 0.714486 39.1595C1.35744 38.8059 10.6481 35.2053 10.6481 35.2053C10.6481 35.2053 11.484 34.691 11.9019 35.559C12.3198 36.4269 17.4956 46.232 17.4956 46.232C17.4956 46.232 18.1064 47.1 17.367 47.4858C16.6276 47.8715 7.01541 50.1862 7.01541 50.1862C7.01541 50.1862 6.2117 50.7327 5.79378 49.8647Z" fill="#E6E7E8"/>
<path fill-rule="evenodd" clip-rule="evenodd" d="M6.98366 38.0987C7.2087 38.3559 8.17307 40.124 8.33381 40.5419C8.62314 41.2813 7.33729 41.86 6.88722 41.1849C6.69434 40.8634 5.56912 38.7738 5.53698 38.6452C5.47268 38.0023 6.5336 37.5843 6.98366 38.0987Z" fill="#D2D3D5"/>
<path d="M6.46921 39.1917C6.70002 39.1917 6.88714 39.0046 6.88714 38.7738C6.88714 38.543 6.70002 38.3559 6.46921 38.3559C6.23839 38.3559 6.05127 38.543 6.05127 38.7738C6.05127 39.0046 6.23839 39.1917 6.46921 39.1917Z" fill="#4B4B4D"/>
<path d="M6.4692 38.9988C6.59348 38.9988 6.69416 38.8981 6.69416 38.7738C6.69416 38.6495 6.59348 38.5488 6.4692 38.5488C6.34492 38.5488 6.24414 38.6495 6.24414 38.7738C6.24414 38.8981 6.34492 38.9988 6.4692 38.9988Z" fill="#120F0F"/>
<path fill-rule="evenodd" clip-rule="evenodd" d="M6.88685 40.4455L7.72263 40.0275C7.78692 39.9632 7.88336 39.9954 7.91551 40.0918L8.01194 40.2526C8.04409 40.349 8.01198 40.4133 7.94768 40.4776L7.11181 40.8955C7.01537 40.9277 6.95115 40.8955 6.88685 40.8312L6.82249 40.6383C6.7582 40.574 6.79041 40.4776 6.88685 40.4455Z" fill="url(#paint2_linear)"/>
<path fill-rule="evenodd" clip-rule="evenodd" d="M6.59748 46.5214C6.59748 46.5214 7.07975 46.3928 6.95116 45.8784C6.82257 45.3962 6.46891 45.4284 6.11529 45.4927C5.76166 45.5891 4.28289 45.8784 3.83283 46.1999C3.41491 46.4571 3.25419 46.6499 3.25419 47.0679C3.25419 47.0679 3.06125 47.7751 3.70421 48.9003C4.31502 49.9933 4.95803 50.2827 5.37595 50.5077C6.59757 51.1507 7.11187 50.7006 8.42993 50.0898C8.42993 50.0898 8.78361 49.9933 8.68716 49.6076C8.59072 49.2539 8.30135 49.2861 8.04417 49.3504C7.81914 49.3825 6.88685 49.5754 6.43678 49.8004L6.40461 49.7361C6.82253 49.5754 7.27267 49.3825 7.78703 49.1253C7.78703 49.1253 8.2692 48.9968 8.14061 48.5467C8.01202 48.0645 7.65839 48.0966 7.33692 48.1609C7.07973 48.2252 6.21172 48.4181 5.60091 48.611L5.53665 48.5788C5.98672 48.4181 6.53323 48.1609 7.14404 47.8716C7.14404 47.8716 7.62621 47.7751 7.49762 47.2607C7.36902 46.7464 7.01547 46.7785 6.66184 46.875C6.37251 46.9393 5.24733 47.1643 4.63652 47.4215L4.57226 47.3572C5.11877 47.1643 5.79379 46.875 6.59748 46.5214Z" fill="#F5B585"/>
<path fill-rule="evenodd" clip-rule="evenodd" d="M8.6552 43.3066C8.62305 43.3066 8.39804 43.2745 8.07656 43.4674C7.72294 43.6602 7.81931 44.271 8.10864 44.6568C8.43012 45.0747 8.94447 45.3641 9.20165 45.3319C9.42669 45.3319 9.52318 45.1712 9.55533 45.0747C9.65177 45.1069 9.84468 45.1069 9.97327 44.9462C10.134 44.7533 10.1983 44.1424 10.0697 43.6924C10.0697 43.6281 10.0375 43.5959 10.0375 43.5638C10.0054 43.5959 9.97324 43.5959 9.94109 43.5959C9.68391 43.7567 9.36239 43.6281 9.20165 43.3709C9.13736 43.2102 9.13736 43.0494 9.20165 42.9209C9.16951 42.9209 9.13736 42.9208 9.10522 42.953C8.88018 43.0494 8.75161 43.1459 8.71946 43.2423C8.75161 43.0494 8.8159 42.8887 8.8159 42.8887H8.6552C8.6552 42.8887 8.62302 42.9208 8.62302 43.0494C8.62302 43.1459 8.62305 43.2423 8.6552 43.3066Z" fill="#FEFEFE"/>
<path fill-rule="evenodd" clip-rule="evenodd" d="M15.8809 16.1097C14.4986 16.7205 16.4275 16.0454 15.3666 17.4599C14.8844 18.135 15.6238 19.1958 15.3023 19.9031C14.8844 20.8997 14.6915 23.6965 14.2735 24.9181L13.0841 23.6C13.0519 23.5036 12.9876 23.4715 12.9233 23.4393C11.0266 24.1466 10.5766 25.2717 11.3803 27.5864C12.3447 30.3832 13.8556 30.2225 14.9487 30.3832C15.1416 31.3798 15.1737 31.7013 15.6238 32.6014C19.578 40.7348 37.5164 39.0631 40.1846 30.8655C46.0998 30.5761 46.7749 23.9858 43.753 23.5036C43.1422 24.4359 43.6244 23.5679 43.1422 24.1466C42.7565 24.6288 43.0136 24.3395 42.5635 24.9181C41.792 25.979 42.5636 25.2075 41.4384 26.1397C41.2777 25.979 41.3098 26.0754 40.9883 25.4646C40.9562 25.4325 40.699 24.8217 40.6668 24.7574C40.474 24.2752 40.3775 24.018 40.2168 23.6322C39.7667 22.5392 39.5095 21.9927 39.2523 20.7389C37.9664 23.8251 37.9343 17.9742 38.4165 16.2382C36.9699 16.5597 36.7127 16.5919 35.2982 16.0132L36.3269 15.6596C34.173 15.0488 32.5977 13.9236 30.251 14.5987C30.6046 13.6986 30.6046 13.2807 31.2797 13.0235C28.7722 12.7984 26.9398 14.0844 25.4931 15.1452C23.8214 14.663 23.3392 12.059 21.1532 11.8661C20.446 13.2485 18.3242 10.741 18.3242 12.6377C18.3563 13.345 18.4849 14.7916 16.4596 15.2095C17.1026 15.4989 16.0738 15.9489 15.8809 16.1097L16.0739 16.0132L15.8809 16.1097Z" fill="url(#paint3_radial)"/>
<path d="M19.6421 28.6151C21.1868 28.6151 22.4389 26.8736 22.4389 24.7252C22.4389 22.5769 21.1868 20.8354 19.6421 20.8354C18.0974 20.8354 16.8452 22.5769 16.8452 24.7252C16.8452 26.8736 18.0974 28.6151 19.6421 28.6151Z" fill="#F4F2FD"/>
<path d="M19.6425 27.297C20.6545 27.297 21.4749 26.1456 21.4749 24.7252C21.4749 23.3048 20.6545 22.1534 19.6425 22.1534C18.6305 22.1534 17.8101 23.3048 17.8101 24.7252C17.8101 26.1456 18.6305 27.297 19.6425 27.297Z" fill="#061161"/>
<path d="M19.6424 26.204C20.2283 26.204 20.7033 25.5419 20.7033 24.7252C20.7033 23.9085 20.2283 23.2465 19.6424 23.2465C19.0565 23.2465 18.5815 23.9085 18.5815 24.7252C18.5815 25.5419 19.0565 26.204 19.6424 26.204Z" fill="black"/>
<path d="M19.4174 24.5645C19.6659 24.5645 19.8674 24.2766 19.8674 23.9215C19.8674 23.5664 19.6659 23.2786 19.4174 23.2786C19.1688 23.2786 18.9673 23.5664 18.9673 23.9215C18.9673 24.2766 19.1688 24.5645 19.4174 24.5645Z" fill="#FEFEFE"/>
<path fill-rule="evenodd" clip-rule="evenodd" d="M24.143 27.5864C24.143 27.5864 24.0786 28.165 23.3714 28.5508C22.6641 28.9366 22.1819 29.3545 22.2784 29.7724C22.3427 30.2225 22.5677 30.5761 23.6608 30.5439C24.7859 30.5118 24.9145 30.6404 24.9145 30.6404C24.9145 30.6404 24.5609 30.0617 23.8858 30.0939C23.2107 30.0939 22.7928 30.0939 22.7928 29.676C22.7606 29.2581 23.6286 29.0009 23.9501 28.5508C24.3037 28.1007 24.143 27.5864 24.143 27.5864Z" fill="#B07C5A"/>
<path d="M32.5659 28.6794C34.1105 28.6794 35.3628 26.9379 35.3628 24.7896C35.3628 22.6412 34.1105 20.8997 32.5659 20.8997C31.0212 20.8997 29.769 22.6412 29.769 24.7896C29.769 26.9379 31.0212 28.6794 32.5659 28.6794Z" fill="#F4F2FD"/>
<path d="M32.5658 27.3614C33.5778 27.3614 34.3982 26.2099 34.3982 24.7895C34.3982 23.3692 33.5778 22.2177 32.5658 22.2177C31.5538 22.2177 30.7334 23.3692 30.7334 24.7895C30.7334 26.2099 31.5538 27.3614 32.5658 27.3614Z" fill="#061161"/>
<path d="M32.5658 26.2683C33.1517 26.2683 33.6266 25.6063 33.6266 24.7895C33.6266 23.9728 33.1517 23.3107 32.5658 23.3107C31.9799 23.3107 31.5049 23.9728 31.5049 24.7895C31.5049 25.6063 31.9799 26.2683 32.5658 26.2683Z" fill="black"/>
<path d="M32.3407 24.6288C32.5893 24.6288 32.7908 24.3409 32.7908 23.9858C32.7908 23.6307 32.5893 23.3429 32.3407 23.3429C32.0921 23.3429 31.8906 23.6307 31.8906 23.9858C31.8906 24.3409 32.0921 24.6288 32.3407 24.6288Z" fill="#FEFEFE"/>
<path fill-rule="evenodd" clip-rule="evenodd" d="M22.8247 31.3476C22.8247 31.3476 24.8179 32.0871 26.4574 31.3798C28.1291 30.7047 28.8685 30.7368 29.2543 31.5405C29.64 32.3764 28.8363 34.5303 26.9396 34.9482C25.0429 35.3661 24.5928 33.7266 22.8247 31.3476Z" fill="#540302"/>
<path fill-rule="evenodd" clip-rule="evenodd" d="M24.2393 33.373C25.043 34.5624 25.6537 35.2376 26.9397 34.9482C28.097 34.6911 28.8364 33.7909 29.1579 32.9229C28.7721 32.6014 28.2256 32.28 27.6469 32.3764C26.5217 32.505 26.5539 33.4694 26.5539 33.4694C26.5539 33.4694 26.5217 32.5693 25.493 32.6657C25.0429 32.6979 24.5929 33.0194 24.2393 33.373Z" fill="#FFADBB"/>
<path fill-rule="evenodd" clip-rule="evenodd" d="M42.2102 26.7827C42.2102 26.7827 42.8853 25.4003 43.6569 25.4646C44.4606 25.5289 44.2676 27.0078 43.3675 28.2615C42.4995 29.5153 41.1493 28.8723 42.2102 26.7827Z" fill="#D18B56"/>
<path fill-rule="evenodd" clip-rule="evenodd" d="M14.0488 26.6541C14.0488 26.6541 13.663 25.1753 12.8915 25.0789C12.0878 24.9824 11.9914 26.4612 12.6022 27.8757C13.213 29.2581 14.6596 28.9366 14.0488 26.6541Z" fill="#D18B56"/>
<path fill-rule="evenodd" clip-rule="evenodd" d="M13.06 15.3344C10.0381 17.9384 11.4848 24.4322 14.1852 26.2325C14.9246 23.95 14.4745 20.3174 17.2392 19.0958C16.8856 18.2599 16.7892 17.4562 16.9821 16.3632C18.043 16.9097 19.811 16.7811 20.3254 16.5239C19.8432 15.5916 19.8754 14.8844 20.1004 13.8878C20.7755 14.2736 22.8973 15.9452 25.4048 16.4917C26.8514 15.4309 28.6838 14.1128 31.1913 14.3379C30.4841 14.6272 30.5162 15.0451 30.1626 15.9131C32.5094 15.2702 34.0846 16.3632 36.2064 17.0061L35.2098 17.3276C36.6243 17.9384 36.8815 17.8741 38.3281 17.5526C37.8459 19.3208 37.8781 25.1716 39.164 22.0855C39.4212 23.3392 39.6783 23.8536 40.1284 24.9466C40.2891 25.3645 40.3856 25.5896 40.5785 26.1039C40.6107 26.1682 40.8679 26.7469 40.9 26.8112C41.2215 27.3898 41.1893 27.3255 41.35 27.4863C42.4752 26.5218 41.7037 27.3256 42.4752 26.2647C42.9253 25.6539 42.6359 25.9753 43.0538 25.4931C43.5361 24.9145 43.0539 25.7825 43.6647 24.8502C44.6612 22.5034 46.7509 19.6422 44.597 15.9131L43.954 14.8522L47.8438 13.3092C46.365 11.541 45.1113 11.9589 42.8931 12.3768C43.5361 10.0944 42.5073 8.16549 41.35 6.84743C41.6715 9.35495 41.6715 9.25853 41.2536 11.6375C40.5463 7.10463 39.7427 7.00818 35.1455 2.08958C35.5956 4.01845 35.3063 5.07932 34.7276 6.20449C33.8275 3.79341 31.8986 0.964432 26.0156 0C27.1086 2.53967 27.2371 4.37207 26.7549 6.20449C25.3404 5.56153 24.0867 4.66138 23.4116 2.47534C21.2899 4.24346 21.097 5.14361 20.6148 6.20449C20.3576 6.71885 18.8144 5.43293 17.7214 3.18259C15.1818 6.33307 14.4745 6.59024 14.8281 10.9623C13.6387 9.54783 13.7351 8.35839 12.9314 7.26537C11.4205 11.4767 12.0313 11.8303 13.06 15.3344Z" fill="url(#paint4_radial)"/>
<defs>
<linearGradient id="paint0_linear" x1="16.0321" y1="64.4938" x2="34.5171" y2="64.6546" gradientUnits="userSpaceOnUse">
<stop stop-color="#A19E9E"/>
<stop offset="1" stop-color="#332F31"/>
</linearGradient>
<radialGradient id="paint1_radial" cx="0" cy="0" r="1" gradientUnits="userSpaceOnUse" gradientTransform="translate(20.9593 53.6681) rotate(-18.4372) scale(84.9501 82.884)">
<stop stop-color="#8FCFAC"/>
<stop offset="1" stop-color="#00A859"/>
</radialGradient>
<linearGradient id="paint2_linear" x1="7.33686" y1="40.2526" x2="7.52976" y2="40.6383" gradientUnits="userSpaceOnUse">
<stop stop-color="#D6D6D6"/>
<stop offset="0.0784314" stop-color="#FEFEFE"/>
<stop offset="0.34902" stop-color="#FEFEFE"/>
<stop offset="1" stop-color="#D4D4D3"/>
</linearGradient>
<radialGradient id="paint3_radial" cx="0" cy="0" r="1" gradientUnits="userSpaceOnUse" gradientTransform="translate(25.7431 18.3197) rotate(26.9302) scale(133.794 128.298)">
<stop stop-color="#FEDEC6"/>
<stop offset="1" stop-color="#F2A972"/>
</radialGradient>
<radialGradient id="paint4_radial" cx="0" cy="0" r="1" gradientUnits="userSpaceOnUse" gradientTransform="translate(27.3797 23.6274) rotate(-30.6305) scale(143.547 142.331)">
<stop stop-color="#772B09"/>
<stop offset="1" stop-color="#D6851A"/>
</radialGradient>
</defs>
</svg>