<svg viewBox="0 0 49 48" fill="none" xmlns="http://www.w3.org/2000/svg">
<path fill-rule="evenodd" clip-rule="evenodd" d="M8.69361 35.0475H28.8004C28.421 34.2887 27.6622 33.9094 27.6622 33.1506H10.5904C10.5904 32.3919 10.5904 16.0789 10.5904 13.8027H36.7672L37.1465 22.5282C37.1465 22.9076 36.7671 23.287 37.1465 23.6663C38.2846 24.4251 38.664 25.1838 38.664 25.1838H39.0433V11.9058H8.69361V35.0475ZM33.7321 24.4251C37.1465 24.4251 39.8021 27.0807 39.8021 30.1157C39.8021 33.53 37.1465 35.8062 33.7321 35.8062C30.6972 35.8062 28.0416 33.53 28.0416 30.1157C28.0416 27.0807 30.6972 24.4251 33.7321 24.4251ZM34.1116 26.7013V29.7363H37.5259V30.495H33.3528V26.7013H34.1116ZM33.7321 25.5632C36.3877 25.5632 38.664 27.4601 38.664 30.1157C38.664 32.7713 36.3877 35.0475 33.7321 35.0475C31.0765 35.0475 29.1797 32.7713 29.1797 30.1157C29.1797 27.4601 31.0765 25.5632 33.7321 25.5632ZM18.1779 17.5964L18.9367 17.217C22.351 20.252 20.0748 19.4932 24.6273 19.4932C25.386 19.4932 26.1448 20.252 27.2829 21.0107C27.6623 21.3901 29.1797 22.5282 29.559 22.9076C29.9384 22.5282 29.5591 22.9076 29.9385 22.5282C29.9385 22.1488 29.9385 22.5282 29.9385 22.1488C29.5591 21.7694 25.7654 18.7345 25.3861 18.7345C23.1098 18.3551 22.351 19.8726 20.4542 17.5964C20.0748 17.217 19.6954 16.8376 19.6954 16.4583C20.0748 16.0789 20.0748 16.0789 20.4542 15.6995L17.7986 15.3201L18.1779 17.5964ZM12.8667 30.495C12.4874 30.8744 12.8667 30.8744 12.108 30.8744V32.0125H27.2829V30.8744H25.3861V25.5632H23.1098L22.7305 30.8744H20.0747V21.3901H17.7986V30.8744H15.143L14.7636 17.217H12.8667V30.495ZM24.2478 0.145264C37.5259 0.145264 48.1483 10.7677 48.1483 24.0457C48.1483 36.9444 37.5259 47.9461 24.2478 47.9461C10.9698 47.9461 0.347534 36.9444 0.347534 24.0457C0.347534 10.7677 10.9698 0.145264 24.2478 0.145264ZM24.2478 2.80085C36.0084 2.80085 45.1134 12.2852 45.1134 24.0457C45.1134 35.4269 36.0084 44.9111 24.2478 44.9111C12.4873 44.9111 3.00312 35.4269 3.00312 24.0457C3.00312 12.2852 12.4873 2.80085 24.2478 2.80085Z" fill="#A8518A"/>
</svg>
