<svg  viewBox="0 0 60 79" fill="none" xmlns="http://www.w3.org/2000/svg">
<path fill-rule="evenodd" clip-rule="evenodd" d="M32.8784 36.3918L33.5535 39.2851L35.0002 40.0566L37.1862 39.8316L38.5363 36.874L32.8784 36.3918Z" fill="#D18B56"/>
<path fill-rule="evenodd" clip-rule="evenodd" d="M7.16014 26.6832L8.57464 31.0231L10.3106 30.4445L9.34621 36.2953L7.89957 31.9232L6.16356 32.5019L7.16014 26.6832ZM6.00282 24.4971C10.0213 23.1791 14.3612 25.3651 15.7114 29.4157C16.5473 31.9875 15.9686 34.7201 14.3612 36.6811L6.48506 39.2851C4.00969 38.6421 1.92006 36.8097 1.08422 34.2057C-0.233838 30.1873 1.9522 25.8473 6.00282 24.4971Z" fill="#FBC908"/>
<path fill-rule="evenodd" clip-rule="evenodd" d="M52.7458 44.9753C52.7458 44.9753 54.3853 45.3932 54.8996 45.136C55.414 44.8467 56.0249 44.0751 56.3785 44.268C56.7321 44.4609 56.732 45.9718 56.4106 46.4862C56.0569 47.0327 58.1466 48.0615 58.9503 48.7366C59.754 49.4117 59.8826 50.2796 58.886 50.0225C57.9216 49.7331 56.9893 49.0902 56.9893 49.0902C56.9893 49.0902 59.4968 51.4691 59.0146 52.0156C58.5324 52.5621 56.1212 50.5047 56.1212 50.5047C56.1212 50.5047 57.6965 52.6264 57.0536 52.9157C56.4106 53.2051 54.7389 50.9226 54.7389 50.9226C54.7389 50.9226 55.6712 52.6586 55.189 52.9801C54.7068 53.2694 53.1958 50.7619 53.1958 50.7619C53.1958 50.7619 51.3634 50.0868 50.624 48.9616C49.8846 47.8364 49.7881 46.9041 49.7881 46.9041L47.0557 45.9719L49.7881 43.8179L52.7458 44.9753Z" fill="#E69D65"/>
<path fill-rule="evenodd" clip-rule="evenodd" d="M18.4763 44.8145C18.4763 44.8145 17.8655 44.9109 17.2547 44.4287C16.6117 43.9465 15.4223 42.8535 15.1008 43.3357C14.7793 43.85 15.583 45.136 15.808 45.5217C16.0652 45.9075 12.529 46.1647 11.6931 46.9041C10.8251 47.6435 11.7574 50.6975 14.3614 51.2119C16.9332 51.6941 20.1158 49.6688 20.1158 49.6688L20.5659 45.7468L18.4763 44.8145Z" fill="#E69D65"/>
<path fill-rule="evenodd" clip-rule="evenodd" d="M33.3285 75.0013L32.8141 73.1367L28.3134 72.6866L25.5166 72.0758L27.9919 75.1941C30.4673 75.5478 31.4318 74.519 33.3285 75.0013Z" fill="#FDC9A2"/>
<path fill-rule="evenodd" clip-rule="evenodd" d="M32.814 73.1367C33.8106 71.7865 32.8462 69.9862 32.9748 67.7358C33.1034 65.6141 33.2641 63.7817 34.2929 62.4958C37.3469 66.2249 36.8003 65.6784 38.247 70.3398C38.5685 71.465 39.3722 72.558 39.565 73.1045C43.0691 73.3938 44.8373 71.5936 47.8913 72.4937C48.1163 71.1114 46.8626 70.4041 46.3483 69.279C45.9946 68.5074 45.5446 66.9964 45.2231 66.0963C44.4515 63.9424 43.7764 61.1134 43.5835 58.7023C41.1403 58.5737 36.286 59.056 33.1355 59.056C29.6314 59.0238 28.5384 58.8631 25.4843 58.2523C24.97 61.2741 25.4201 62.4314 25.6451 65.4212C25.9345 69.8897 25.1628 68.4431 24.0698 71.69C26.5131 72.8152 30.4672 73.0724 32.814 73.1367Z" fill="url(#paint0_linear)"/>
<path fill-rule="evenodd" clip-rule="evenodd" d="M33.3284 75.0013C31.4317 74.5191 30.4672 75.5478 27.9918 75.1942C27.0596 72.8152 27.0917 71.8187 24.0698 71.6901C22.5267 72.8152 20.8551 74.0368 21.048 76.9944C22.8804 77.5409 25.1629 77.6695 27.3489 77.4766L33.2319 76.0943L33.3284 75.0013Z" fill="#8C542F"/>
<path fill-rule="evenodd" clip-rule="evenodd" d="M40.1758 74.969C40.6258 77.4123 41.8796 77.9588 44.58 78.3124C46.8946 78.6339 49.7558 78.4089 51.4275 77.3159C51.3953 75.9014 51.106 75.3227 50.238 74.294C49.4986 73.5224 49.0164 73.2974 48.502 73.2331C47.6019 73.2331 46.0588 73.4903 45.3837 73.876C43.487 75.0334 45.7373 77.2516 41.1724 75.3549L40.1758 74.969Z" fill="#8C542F"/>
<path fill-rule="evenodd" clip-rule="evenodd" d="M53.0991 44.8145C52.0704 43.8501 49.8844 42.9178 48.7271 42.307C45.8016 40.7318 45.673 39.8316 44.13 39.703C43.8085 39.1886 43.487 38.8029 43.1012 38.4814C40.8187 37.1955 38.8577 37.5813 38.8577 37.5813C38.8255 39.0922 38.1504 39.703 37.5396 40.4746C35.9322 40.571 37.2503 40.4103 36.5752 40.3138C35.7394 40.1531 36.5109 39.9923 35.7393 40.2495L34.775 46.1004L33.1354 46.0361C32.6532 44.1715 33.264 42.082 33.5855 40.2817L33.264 40.1852C32.5246 39.8959 32.2031 40.0566 32.2353 37.6134C31.0458 37.517 30.3707 37.8063 30.0814 37.9349L29.4384 38.3207C28.3776 38.3528 25.3235 40.9246 23.8768 41.7605C22.2694 42.6927 19.0225 43.6893 18.0581 44.3966C18.8618 45.8432 18.4439 46.454 19.6012 49.1544C21.5944 51.6941 24.7127 48.3829 26.4808 48.8008C26.3522 50.6011 23.8448 57.7057 25.4521 58.0594L25.4842 58.2522C28.5383 58.8631 29.6313 59.0238 33.1354 59.0559C36.2859 59.0559 41.1402 58.5737 43.5834 58.7023C44.2264 57.9308 43.8728 58.638 43.9371 57.4807C43.9692 57.0949 43.9049 56.2912 43.8727 55.8733L42.9405 46.8398C44.7086 47.965 48.0519 50.2153 50.7202 49.8617C50.5916 46.9041 51.2345 46.7434 53.0991 44.8145Z" fill="url(#paint1_radial)"/>
<path fill-rule="evenodd" clip-rule="evenodd" d="M39.5649 73.1045C39.79 73.651 39.8543 74.0368 40.1758 74.9691C40.3686 75.162 40.7223 75.1941 41.1723 75.3549C45.7373 77.2516 43.487 75.0334 45.3837 73.8761C46.0588 73.4903 47.6019 73.2331 48.502 73.2331C48.277 72.9438 47.7626 72.3973 47.8912 72.4937C44.8372 71.5936 43.069 73.3938 39.5649 73.1045Z" fill="#FDC9A2"/>
<path fill-rule="evenodd" clip-rule="evenodd" d="M7.8673 40.8925L14.6505 38.6421L14.2968 37.6134L7.51367 39.8316L7.8673 40.8925ZM9.44255 42.7571C9.44255 42.7571 9.6033 43.2714 10.0534 43.4C10.5034 43.5286 10.8892 43.3678 10.8892 43.3678C11.1464 43.85 11.5321 44.1073 11.9822 44.2037L15.1648 53.2051L15.5506 53.3658L16.515 53.0443L16.6758 52.6585L13.461 43.5608C13.6539 43.2714 13.7503 42.8856 13.6539 42.4356C13.6539 42.4356 14.0718 42.3713 14.3612 41.9855C14.6505 41.5997 14.4897 41.0854 14.4897 41.0854L11.9501 41.9212L9.44255 42.7571ZM9.24968 42.2105L14.2968 40.5389L13.9432 39.5101L8.89605 41.1497L9.24968 42.2105Z" fill="#373435"/>
<path fill-rule="evenodd" clip-rule="evenodd" d="M14.7152 46.9362C14.7152 46.9362 15.2296 46.8077 15.0688 46.3255C14.9402 45.8111 14.5866 45.8432 14.233 45.9397C13.8794 46.0039 12.4327 46.2933 11.9505 46.6148C11.5326 46.9041 11.404 47.097 11.3719 47.4827C11.3719 47.4827 11.179 48.2221 11.8219 49.3152C12.4327 50.4082 13.0757 50.6975 13.5257 50.9226C14.7152 51.5655 15.2617 51.1476 16.5476 50.5046C16.5476 50.5046 16.9012 50.4403 16.8048 50.0546C16.7083 49.6688 16.4512 49.7009 16.194 49.7652C15.9368 49.8295 15.0045 50.0224 14.5866 50.2153L14.5544 50.151C14.9402 49.9903 15.4225 49.7974 15.9368 49.5402C15.9368 49.5402 16.3869 49.4438 16.2583 48.9615C16.1297 48.4793 15.8082 48.5115 15.4546 48.6079C15.1974 48.6722 14.3294 48.8329 13.7186 49.058L13.6543 48.9937C14.1365 48.8329 14.6509 48.6079 15.2617 48.3186C15.2617 48.3186 15.7761 48.19 15.6153 47.7078C15.4867 47.1934 15.1331 47.2256 14.7795 47.322C14.4902 47.3863 13.365 47.6114 12.7542 47.8685L12.7221 47.7721C13.2364 47.6114 13.9115 47.322 14.7152 46.9362Z" fill="#F5B585"/>
<path fill-rule="evenodd" clip-rule="evenodd" d="M23.8809 16.1097C22.4986 16.7205 24.4275 16.0454 23.3666 17.4599C22.8844 18.135 23.6238 19.1958 23.3023 19.9031C22.8844 20.8997 22.6915 23.6965 22.2735 24.9181L21.0841 23.6C21.0519 23.5036 20.9876 23.4715 20.9233 23.4393C19.0266 24.1466 18.5766 25.2717 19.3803 27.5864C20.3447 30.3832 21.8556 30.2225 22.9487 30.3832C23.1416 31.3798 23.1737 31.7013 23.6238 32.6014C27.578 40.7348 45.5164 39.0631 48.1846 30.8655C54.0998 30.5761 54.7749 23.9858 51.753 23.5036C51.1422 24.4359 51.6244 23.5679 51.1422 24.1466C50.7565 24.6288 51.0136 24.3395 50.5635 24.9181C49.792 25.979 50.5636 25.2075 49.4384 26.1397C49.2777 25.979 49.3098 26.0754 48.9883 25.4646C48.9562 25.4325 48.699 24.8217 48.6668 24.7574C48.474 24.2752 48.3775 24.018 48.2168 23.6322C47.7667 22.5392 47.5095 21.9927 47.2523 20.7389C45.9664 23.8251 45.9343 17.9742 46.4165 16.2382C44.9699 16.5597 44.7127 16.5919 43.2982 16.0132L44.3269 15.6596C42.173 15.0488 40.5977 13.9236 38.251 14.5987C38.6046 13.6986 38.6046 13.2807 39.2797 13.0235C36.7722 12.7984 34.9398 14.0844 33.4931 15.1452C31.8214 14.663 31.3392 12.059 29.1532 11.8661C28.446 13.2485 26.3242 10.741 26.3242 12.6377C26.3563 13.345 26.4849 14.7916 24.4596 15.2095C25.1026 15.4989 24.0738 15.9489 23.8809 16.1097L24.0739 16.0132L23.8809 16.1097Z" fill="url(#paint2_radial)"/>
<path d="M27.6421 28.6151C29.1868 28.6151 30.4389 26.8736 30.4389 24.7252C30.4389 22.5769 29.1868 20.8354 27.6421 20.8354C26.0974 20.8354 24.8452 22.5769 24.8452 24.7252C24.8452 26.8736 26.0974 28.6151 27.6421 28.6151Z" fill="#F4F2FD"/>
<path d="M27.6424 26.204C28.2283 26.204 28.7033 25.5419 28.7033 24.7252C28.7033 23.9085 28.2283 23.2465 27.6424 23.2465C27.0565 23.2465 26.5815 23.9085 26.5815 24.7252C26.5815 25.5419 27.0565 26.204 27.6424 26.204Z" fill="black"/>
<path d="M27.4174 24.5645C27.6659 24.5645 27.8674 24.2766 27.8674 23.9215C27.8674 23.5664 27.6659 23.2786 27.4174 23.2786C27.1688 23.2786 26.9673 23.5664 26.9673 23.9215C26.9673 24.2766 27.1688 24.5645 27.4174 24.5645Z" fill="#FEFEFE"/>
<path fill-rule="evenodd" clip-rule="evenodd" d="M32.143 27.5864C32.143 27.5864 32.0786 28.165 31.3714 28.5508C30.6641 28.9366 30.1819 29.3545 30.2784 29.7724C30.3427 30.2225 30.5677 30.5761 31.6608 30.5439C32.7859 30.5118 32.9145 30.6404 32.9145 30.6404C32.9145 30.6404 32.5609 30.0617 31.8858 30.0939C31.2107 30.0939 30.7928 30.0939 30.7928 29.676C30.7606 29.2581 31.6286 29.0009 31.9501 28.5508C32.3037 28.1007 32.143 27.5864 32.143 27.5864Z" fill="#B07C5A"/>
<path d="M40.5659 28.6794C42.1105 28.6794 43.3628 26.9379 43.3628 24.7896C43.3628 22.6412 42.1105 20.8997 40.5659 20.8997C39.0212 20.8997 37.769 22.6412 37.769 24.7896C37.769 26.9379 39.0212 28.6794 40.5659 28.6794Z" fill="#F4F2FD"/>
<path d="M40.5658 26.2683C41.1517 26.2683 41.6266 25.6063 41.6266 24.7895C41.6266 23.9728 41.1517 23.3107 40.5658 23.3107C39.9799 23.3107 39.5049 23.9728 39.5049 24.7895C39.5049 25.6063 39.9799 26.2683 40.5658 26.2683Z" fill="black"/>
<path d="M40.3407 24.6288C40.5893 24.6288 40.7908 24.3409 40.7908 23.9858C40.7908 23.6307 40.5893 23.3429 40.3407 23.3429C40.0921 23.3429 39.8906 23.6307 39.8906 23.9858C39.8906 24.3409 40.0921 24.6288 40.3407 24.6288Z" fill="#FEFEFE"/>
<path fill-rule="evenodd" clip-rule="evenodd" d="M30.8247 31.3476C30.8247 31.3476 32.8179 32.0871 34.4574 31.3798C36.1291 30.7047 36.8685 30.7368 37.2543 31.5405C37.64 32.3764 36.8363 34.5303 34.9396 34.9482C33.0429 35.3661 32.5928 33.7266 30.8247 31.3476Z" fill="#540302"/>
<path fill-rule="evenodd" clip-rule="evenodd" d="M32.2393 33.373C33.043 34.5624 33.6537 35.2376 34.9397 34.9482C36.097 34.6911 36.8364 33.7909 37.1579 32.9229C36.7721 32.6014 36.2256 32.28 35.6469 32.3764C34.5217 32.505 34.5539 33.4694 34.5539 33.4694C34.5539 33.4694 34.5217 32.5693 33.493 32.6657C33.0429 32.6979 32.5929 33.0194 32.2393 33.373Z" fill="#FFADBB"/>
<path fill-rule="evenodd" clip-rule="evenodd" d="M50.2102 26.7827C50.2102 26.7827 50.8853 25.4003 51.6569 25.4646C52.4606 25.5289 52.2676 27.0078 51.3675 28.2615C50.4995 29.5153 49.1493 28.8723 50.2102 26.7827Z" fill="#D18B56"/>
<path fill-rule="evenodd" clip-rule="evenodd" d="M22.0488 26.6541C22.0488 26.6541 21.663 25.1753 20.8915 25.0789C20.0878 24.9824 19.9914 26.4612 20.6022 27.8757C21.213 29.2581 22.6596 28.9366 22.0488 26.6541Z" fill="#D18B56"/>
<path fill-rule="evenodd" clip-rule="evenodd" d="M21.06 15.3344C18.0381 17.9384 19.4848 24.4322 22.1852 26.2325C22.9246 23.95 22.4745 20.3174 25.2392 19.0958C24.8856 18.2599 24.7892 17.4562 24.9821 16.3632C26.043 16.9097 27.811 16.7811 28.3254 16.5239C27.8432 15.5916 27.8754 14.8844 28.1004 13.8878C28.7755 14.2736 30.8973 15.9452 33.4048 16.4917C34.8514 15.4309 36.6838 14.1128 39.1913 14.3379C38.4841 14.6272 38.5162 15.0451 38.1626 15.9131C40.5094 15.2702 42.0846 16.3632 44.2064 17.0061L43.2098 17.3276C44.6243 17.9384 44.8815 17.8741 46.3281 17.5526C45.8459 19.3208 45.8781 25.1716 47.164 22.0855C47.4212 23.3392 47.6783 23.8536 48.1284 24.9466C48.2891 25.3645 48.3856 25.5896 48.5785 26.1039C48.6107 26.1682 48.8679 26.7469 48.9 26.8112C49.2215 27.3898 49.1893 27.3255 49.35 27.4863C50.4752 26.5218 49.7037 27.3256 50.4752 26.2647C50.9253 25.6539 50.6359 25.9753 51.0538 25.4931C51.5361 24.9145 51.0539 25.7825 51.6647 24.8502C52.6612 22.5034 54.7509 19.6422 52.597 15.9131L51.954 14.8522L55.8438 13.3092C54.365 11.541 53.1113 11.9589 50.8931 12.3768C51.5361 10.0944 50.5073 8.16549 49.35 6.84743C49.6715 9.35495 49.6715 9.25853 49.2536 11.6375C48.5463 7.10463 47.7427 7.00818 43.1455 2.08958C43.5956 4.01845 43.3063 5.07932 42.7276 6.20449C41.8275 3.79341 39.8986 0.964432 34.0156 0C35.1086 2.53967 35.2371 4.37207 34.7549 6.20449C33.3404 5.56153 32.0867 4.66138 31.4116 2.47534C29.2899 4.24346 29.097 5.14361 28.6148 6.20449C28.3576 6.71885 26.8144 5.43293 25.7214 3.18259C23.1818 6.33307 22.4745 6.59024 22.8281 10.9623C21.6387 9.54783 21.7351 8.35839 20.9314 7.26537C19.4205 11.4767 20.0313 11.8303 21.06 15.3344Z" fill="url(#paint3_radial)"/>
<defs>
<linearGradient id="paint0_linear" x1="24.102" y1="64.7461" x2="42.5869" y2="64.9068" gradientUnits="userSpaceOnUse">
<stop stop-color="#A19E9E"/>
<stop offset="1" stop-color="#332F31"/>
</linearGradient>
<radialGradient id="paint1_radial" cx="0" cy="0" r="1" gradientUnits="userSpaceOnUse" gradientTransform="translate(30.501 55.3653) rotate(-18.4342) scale(84.9479 82.8761)">
<stop stop-color="#EB8A91"/>
<stop offset="1" stop-color="#CF0C19"/>
</radialGradient>
<radialGradient id="paint2_radial" cx="0" cy="0" r="1" gradientUnits="userSpaceOnUse" gradientTransform="translate(33.7431 18.3197) rotate(26.9302) scale(133.794 128.298)">
<stop stop-color="#FEDEC6"/>
<stop offset="1" stop-color="#F2A972"/>
</radialGradient>
<radialGradient id="paint3_radial" cx="0" cy="0" r="1" gradientUnits="userSpaceOnUse" gradientTransform="translate(35.3797 23.6274) rotate(-30.6305) scale(143.547 142.331)">
<stop stop-color="#772B09"/>
<stop offset="1" stop-color="#D6851A"/>
</radialGradient>
</defs>
</svg>