<svg viewBox="0 0 49 49" fill="none" xmlns="http://www.w3.org/2000/svg">
<path fill-rule="evenodd" clip-rule="evenodd" d="M13.2823 18.8086C13.2823 25.2579 16.3172 25.6373 17.8347 29.431C18.214 30.1898 18.2141 30.5691 18.5934 31.3279C19.3522 34.3628 23.146 33.6041 26.5603 33.6041C31.4922 33.6041 29.5953 30.5691 31.8715 27.5341C32.2509 27.1548 32.6302 26.7754 33.3889 26.0167C33.7683 25.6373 34.1477 24.8785 34.5271 24.4992C36.8033 19.9467 36.0446 14.6355 32.2508 11.2211C29.2159 7.80678 24.284 7.04806 20.111 8.94492C16.3172 10.4624 13.2823 14.6355 13.2823 18.8086ZM19.3522 36.2597C19.3522 37.3978 19.3522 38.5359 20.111 39.2946C20.4903 39.674 20.8696 39.2946 21.249 40.0534C22.3871 41.5709 20.4903 41.9503 25.4221 41.9503C26.1809 41.9503 26.5603 41.9503 26.9397 41.5709C28.0778 40.4328 26.9396 40.4328 28.0777 39.674L28.8365 39.2946C29.5952 38.1565 29.9746 35.1216 28.0777 35.1216H20.8697C20.111 35.1216 19.3522 35.5009 19.3522 36.2597ZM20.4904 15.3942C19.7317 15.0149 18.9729 14.2561 18.2141 15.3942C17.4554 16.9117 17.4554 17.2911 18.9729 18.0498C18.5935 18.8086 18.5934 19.188 18.5934 19.5674C18.5934 19.9467 18.5935 20.326 18.9729 20.7054C17.4554 21.8435 17.4554 21.8435 18.2141 23.361C18.9729 24.8785 19.7317 23.7404 20.4904 23.7404C21.2491 24.4991 22.0078 24.8785 22.7665 24.8785C23.5253 26.0166 22.0079 26.7754 25.0428 26.7754C26.5603 26.7754 26.1809 25.6373 26.1809 24.8785C26.9396 24.8785 27.6984 24.4991 28.4572 23.7404C29.2159 24.1198 29.9746 24.8785 30.7333 23.361C31.4921 22.6023 31.8715 21.8435 30.354 20.7054C30.354 20.326 30.354 19.9467 30.354 19.5674C30.354 19.188 30.354 18.8086 30.354 18.0498C30.7334 18.0498 31.4921 17.2911 31.4921 16.5324C31.1127 16.5324 30.7334 15.0149 29.9747 15.0149C29.216 15.0149 28.8365 15.0149 28.4572 15.3942C27.6984 14.6355 26.9396 14.2561 26.1809 13.8767C25.8015 12.7386 26.9396 11.9799 23.9046 11.9799C22.7665 11.9799 23.1459 13.4973 22.7665 13.8767C22.0078 14.2561 21.2491 14.6355 20.4904 15.3942ZM21.6285 16.5324C21.2491 16.153 20.4903 15.7736 20.111 16.5324C19.3522 17.6705 19.3523 17.6705 20.4904 18.4292C20.4904 18.8086 20.111 19.188 20.111 19.5674C20.111 19.9467 20.4904 20.326 20.4904 20.326C19.3523 21.0848 19.3522 21.4642 20.111 22.2229C20.4903 23.3611 21.2491 22.6023 21.6285 22.6023C22.0078 22.9817 22.7666 23.361 23.146 23.7404C23.5254 24.4991 22.7666 24.8785 25.0428 24.8785C25.8016 24.8785 25.8016 24.1198 25.8016 23.361C26.5603 23.361 26.9396 22.9817 27.319 22.6023C28.0777 22.6023 28.4572 23.3611 29.2159 22.6023C29.5953 21.8436 29.9746 21.0848 28.8365 20.326C28.8365 19.9467 28.8365 19.9467 28.8365 19.5674C28.8365 19.188 28.8365 18.8086 28.8365 18.4292C29.2159 18.4292 29.5952 18.0498 29.5952 17.2911C29.5952 17.2911 28.8365 16.153 28.4572 16.153C28.0778 16.153 27.6983 16.153 27.319 16.5324C26.9396 15.7736 26.5603 15.7736 25.8016 15.3942C25.4222 14.6355 26.5602 14.2561 23.9046 14.2561C23.1459 14.2561 23.5254 15.0149 23.146 15.3942C22.7666 15.7736 22.0078 15.7736 21.6285 16.5324ZM24.6634 0.978149C37.562 0.978149 48.5638 11.6005 48.5638 24.8785C48.5638 38.1565 37.562 48.7789 24.6634 48.7789C11.3854 48.7789 0.763062 38.1565 0.763062 24.8785C0.763062 11.6005 11.3854 0.978149 24.6634 0.978149ZM24.6634 4.01312C36.0445 4.01312 45.5289 13.4974 45.5289 24.8785C45.5289 36.6391 36.0445 46.1233 24.6634 46.1233C12.9029 46.1233 3.41865 36.6391 3.41865 24.8785C3.41865 13.4974 12.9029 4.01312 24.6634 4.01312Z" fill="#C21521"/>
</svg>
