<svg viewBox="0 0 49 49" fill="none" xmlns="http://www.w3.org/2000/svg">
<path fill-rule="evenodd" clip-rule="evenodd" d="M24.5264 0.978149C37.8044 0.978149 48.4269 11.6005 48.4269 24.8785C48.4269 38.1565 37.8044 48.7789 24.5264 48.7789C11.2484 48.7789 0.625977 38.1565 0.625977 24.8785C0.625977 11.6005 11.2484 0.978149 24.5264 0.978149ZM24.5264 4.01312C36.287 4.01312 45.3918 13.4974 45.3918 24.8785C45.3918 36.6391 36.287 46.1233 24.5264 46.1233C12.7659 46.1233 3.28157 36.6391 3.28157 24.8785C3.28157 13.4974 12.7659 4.01312 24.5264 4.01312ZM15.8009 17.2911C17.3184 17.2911 18.4565 18.8086 18.4565 16.5324C18.4565 13.8768 21.4914 13.118 23.0089 14.6355C23.3883 15.0149 23.7677 15.7736 23.7677 16.153V25.6373C21.1121 25.6373 19.974 29.0516 21.4915 29.0516C21.8709 29.0516 21.8708 28.6723 22.2502 28.2929C22.2502 27.9135 22.2502 27.9135 22.2502 27.5341C22.6295 27.1548 23.0089 26.7754 23.7677 26.7754V37.7772C23.7677 38.9153 22.6296 40.0534 21.1121 40.0534C19.5946 40.0534 18.4565 38.9153 18.4565 37.3978C18.4565 35.5009 17.6978 37.0184 15.8009 37.0184C15.0422 37.0184 14.2834 36.639 13.5246 35.8803C12.7659 34.7422 12.3866 33.2247 13.1453 32.0866C13.5247 31.7072 14.2834 30.9485 14.2834 30.5691C14.2834 29.8104 13.5247 30.1898 12.3866 29.431C10.8691 28.2929 10.8691 26.396 12.0072 24.8785C12.766 23.7404 13.904 23.7404 15.0421 23.7404C16.5596 23.7404 16.5597 24.8786 16.5597 25.6373C16.5597 26.0167 16.1803 26.396 15.8009 26.7754C15.0422 26.7754 14.2834 26.7754 14.2834 27.5341C14.2834 28.6722 17.6977 27.9135 17.6977 25.2579C17.6977 24.1198 16.939 22.9817 16.1802 22.6023C15.4215 22.6023 15.0421 22.6023 14.2834 22.6023C13.904 22.6023 13.904 22.6023 13.5246 22.2229C12.0071 20.7055 13.1453 17.2911 15.8009 17.2911ZM16.5597 19.188C16.5597 20.3261 17.3184 21.4642 18.4565 21.8436C19.2152 22.2229 19.974 21.8436 21.1121 22.2229C22.2502 22.9817 21.112 24.1198 22.2502 24.1198C23.3883 24.8785 23.0089 21.0848 20.3533 20.7054C19.5946 20.7054 18.0771 21.0848 17.6977 19.5674C17.6977 18.4292 16.939 18.4292 16.5597 18.8086V19.188ZM26.044 23.7404C26.044 24.1198 26.4233 24.4991 26.8027 24.1198C27.5615 24.1198 27.1821 23.7404 27.5615 23.361C27.5615 22.9816 27.9408 22.6023 27.9408 22.2229C28.3202 22.2229 28.6996 21.8436 29.4583 21.8436C30.5964 22.2229 30.9757 21.8436 31.7344 21.4642C32.4932 20.3261 32.8726 18.4292 32.1139 18.4292C31.7345 18.4292 31.3551 18.8086 31.3551 19.188C30.9758 21.8436 28.6996 19.9467 26.8027 21.8436C26.4233 22.2229 26.044 22.9816 26.044 23.7404ZM20.3533 34.7422C21.4914 34.7422 21.4914 34.3628 22.2502 34.3628C23.0089 34.3628 23.3884 34.3628 23.3884 33.6041C23.3884 31.7072 19.5947 35.5009 18.0772 31.3279C18.0772 30.9485 17.6977 30.5691 17.6977 30.5691C17.3184 29.0516 16.5597 29.8103 16.5597 30.1897C16.5597 30.5691 17.3184 32.4659 17.3184 32.8453C18.0772 33.9834 19.2152 34.7422 20.3533 34.7422ZM29.0789 27.9135C29.0789 29.0516 30.5964 29.8104 30.5964 31.3279C30.5964 32.8453 29.079 33.6041 28.3202 34.3628C28.3202 34.7422 28.3201 35.501 29.0789 35.501C29.4582 35.501 29.8376 35.1216 29.8376 34.7422C30.5964 33.9835 31.7344 33.2247 31.7344 31.7072C32.1138 30.1897 30.9758 29.0516 30.2171 27.9135C29.8377 27.1548 29.0789 27.5341 29.0789 27.9135ZM35.1488 14.2561C35.1488 14.6355 35.1489 15.0149 35.5282 15.0149H38.1838C38.5632 15.0149 38.5632 13.8767 38.1838 13.8767H35.5282C35.1489 13.8767 35.1488 14.2561 35.1488 14.2561ZM32.1139 8.94492V11.6005C32.1139 12.3593 33.252 12.3593 33.252 11.6005V8.94492C33.252 8.56555 32.1139 8.56555 32.1139 8.94492ZM34.0107 12.3593C34.0107 13.118 34.0107 13.118 34.7695 13.118L36.6663 11.2211C36.6663 10.4624 36.6663 10.4624 35.9076 10.4624L34.0107 12.3593ZM30.9758 17.6705C31.7346 17.6705 31.7345 17.2911 33.252 17.2911C35.9076 17.2911 37.0457 20.3261 35.5282 22.2229C35.1489 22.9817 34.7695 22.6023 33.6314 22.6023C32.4933 22.6023 31.3551 23.7404 31.3551 25.2579C31.3551 26.7754 32.4933 27.9135 33.6314 27.9135C34.0108 27.9135 34.7695 27.9135 34.7695 27.5341C34.7695 26.7754 34.0108 26.7754 33.6314 26.7754C32.4933 26.396 32.4932 25.6373 32.4932 24.8785C32.4932 23.361 35.1488 23.7404 35.9076 24.1198C37.0457 24.4991 37.8045 25.6372 37.8045 26.7754C37.8045 27.9135 37.8044 28.6723 36.6663 29.431C35.5282 30.1898 34.7695 29.8104 34.7695 30.5691C34.7695 30.9485 35.1488 31.3279 35.1488 31.3279C37.8044 33.6041 35.5282 37.0184 33.252 37.0184C31.7345 37.0184 31.7346 36.2597 30.9758 36.2597C29.8377 36.2597 31.3551 37.7771 29.8376 39.2946C28.3201 40.8121 25.2852 40.0534 25.2852 37.3978V30.1897C26.0439 30.1897 26.8027 30.1897 27.182 30.9485C27.182 31.3278 27.1821 31.3279 27.5615 31.7072C27.5615 32.466 27.5615 32.466 28.3202 32.466C29.079 32.466 28.6996 30.1898 26.8027 29.431C26.4233 29.0517 26.0439 29.0516 25.2852 29.0516V16.5324C25.2852 15.3943 25.6646 14.6355 26.8027 14.2561C28.3202 13.4974 30.5964 14.2562 30.5964 16.5324C30.5964 16.9118 30.2171 17.6705 30.9758 17.6705ZM17.3184 16.153C16.5597 16.153 16.1803 15.7736 15.0421 16.153C14.2834 16.153 13.904 16.5323 13.5246 16.9117C12.3865 17.6704 11.6278 18.8086 11.6278 20.326C11.6278 21.4642 12.0072 22.223 12.3866 22.9817C11.2484 23.7404 10.1103 24.8785 10.1103 26.7754C10.1103 28.6722 11.6278 30.5691 12.3866 30.9485C12.3866 30.9485 9.73097 34.3628 13.1453 37.0184C14.2834 37.7772 15.4215 38.1566 16.5597 38.1566C16.939 38.1566 16.9391 37.7772 17.3184 37.7772C17.3184 38.5359 18.0771 40.0534 18.4565 40.4328C19.2152 40.8121 19.974 41.1915 21.1121 41.1915C22.6296 41.1915 23.7677 40.4327 24.5264 39.2946C24.5264 39.674 24.9059 40.0534 24.9059 40.0534C27.5615 42.709 31.3551 40.8121 31.7344 37.7772C32.4932 37.7772 32.4932 38.1566 33.252 38.1566C35.1488 38.1566 37.4251 36.2597 37.4251 33.9834C37.4251 32.8453 37.4251 32.466 36.6663 31.3279C36.6663 31.3279 36.6663 31.3278 36.6663 30.9485C37.8044 30.5691 38.9426 28.6722 38.9426 27.1547C38.9426 26.0166 38.5632 25.2579 38.1838 24.4992C38.1838 24.4992 38.1839 24.1198 37.8045 24.1198C37.4252 23.7404 37.0457 22.9817 36.6663 22.9817C36.6663 22.6023 36.6663 22.9817 36.6663 22.6023L37.0458 21.8436C38.1839 19.188 36.287 16.5324 34.0107 16.153C32.8726 15.7736 32.4932 16.153 31.7344 16.153C31.7344 14.2561 29.8376 12.7387 27.9408 12.7387C27.182 12.7387 26.4232 12.7387 25.6645 13.118C25.6645 13.4974 25.6646 13.4974 25.2852 13.4974C25.2852 13.4974 25.2853 13.8767 24.9059 13.8767C24.9059 13.8767 24.5264 14.2561 24.5264 14.6355C23.7677 13.118 21.4914 11.9799 19.5946 13.118C19.2152 13.118 18.8359 13.4973 18.4565 13.8767C18.0771 14.2561 17.3184 15.3943 17.3184 16.153Z" fill="#1776B6"/>
</svg>
