<svg  viewBox="0 0 62 79" fill="none" xmlns="http://www.w3.org/2000/svg">
<path fill-rule="evenodd" clip-rule="evenodd" d="M34.7442 72.9466C35.7408 71.5964 34.7765 69.3095 34.9051 67.0592C35.0337 64.9374 35.1944 63.1051 36.2231 61.8191C39.2772 65.5483 38.7306 65.0017 40.1772 69.6631C40.4987 70.7883 41.3072 72.4535 41.5001 73C45.0042 73.2893 46.7723 71.4891 49.8263 72.3892C50.0514 71.0069 48.7929 69.7275 48.2785 68.6023C47.9249 67.8308 47.4748 66.3198 47.1533 65.4197C46.3818 63.2658 45.7067 60.4368 45.5138 58.0257C43.0705 57.8971 38.2162 58.3793 35.0658 58.3793C31.5617 58.3472 30.4686 58.1864 27.4146 57.5756C26.9002 60.5975 27.3504 61.7548 27.5754 64.7445C27.8647 69.2131 27.093 68.2531 26 71.5C28.4432 72.6252 32.3974 72.8823 34.7442 72.9466Z" fill="url(#paint0_linear)"/>
<path fill-rule="evenodd" clip-rule="evenodd" d="M54.6022 44.5604C54.6022 44.5604 56.2417 44.9462 56.7561 44.689C57.2705 44.4318 57.8813 43.6281 58.2349 43.8531C58.5886 44.046 58.5885 45.5248 58.2671 46.0713C57.9456 46.5857 60.0031 47.6466 60.8068 48.2895C61.6426 48.9646 61.739 49.8647 60.7424 49.5754C59.778 49.2861 58.8457 48.6431 58.8457 48.6431C58.8457 48.6431 61.3532 51.0221 60.871 51.5686C60.3888 52.1151 57.9777 50.0576 57.9777 50.0576C57.9777 50.0576 59.553 52.1794 58.9101 52.4687C58.2671 52.7902 56.5954 50.4755 56.5954 50.4755C56.5954 50.4755 57.5277 52.2437 57.0455 52.533C56.5633 52.8545 55.0523 50.3148 55.0523 50.3148C55.0523 50.3148 53.2199 49.6397 52.4805 48.5145C51.7411 47.3893 51.6446 46.4892 51.6446 46.4892L48.9121 45.5248L51.6446 43.3709L54.6022 44.5604Z" fill="#E69D65"/>
<path fill-rule="evenodd" clip-rule="evenodd" d="M20.3328 44.3674C20.3328 44.3674 19.7219 44.4639 19.1111 43.9817C18.5003 43.4995 17.2787 42.4064 16.9572 42.9208C16.6358 43.4352 17.4395 44.6889 17.6645 45.0747C17.9217 45.4605 14.3854 45.7498 13.5496 46.457C12.6816 47.1964 13.6138 50.2826 16.2178 50.7649C18.7896 51.2792 21.9723 49.2539 21.9723 49.2539L22.4223 45.3319L20.3328 44.3674Z" fill="#E69D65"/>
<path fill-rule="evenodd" clip-rule="evenodd" d="M35.1849 74.5542C33.2881 74.072 32.3237 75.1328 29.8483 74.7471C28.916 72.3681 28.9482 71.3716 25.9263 71.243C24.3832 72.4003 22.7115 73.6219 22.9044 76.5795C24.7368 77.126 27.0193 77.2546 29.2054 77.0296L35.0884 75.6472L35.1849 74.5542Z" fill="#8C542F"/>
<path fill-rule="evenodd" clip-rule="evenodd" d="M42.0322 74.5221C42.5144 76.9653 43.736 77.5118 46.4364 77.8976C48.7511 78.1869 51.6122 77.9619 53.2839 76.8688C53.2518 75.4865 52.9624 74.8757 52.0944 73.8791C51.355 73.0754 50.8728 72.8504 50.3585 72.8182C49.4583 72.8182 47.9152 73.0433 47.2723 73.4612C45.3434 74.5864 47.5938 76.8367 43.0288 74.9078L42.0322 74.5221Z" fill="#8C542F"/>
<path fill-rule="evenodd" clip-rule="evenodd" d="M54.9555 44.3996C53.9268 43.4352 51.7408 42.5029 50.5835 41.8921C47.658 40.2847 47.5294 39.3846 45.9864 39.256C45.6649 38.7416 45.3434 38.3558 44.9576 38.0344C42.6751 36.7484 40.7463 37.1664 40.7463 37.1664C40.7141 38.6451 40.0069 39.2881 39.3961 40.0275C37.7887 40.1239 39.1067 39.9954 38.4316 39.8668C37.6279 39.7382 38.3673 39.5775 37.6279 39.8025L36.6314 45.6533L34.9918 45.6212C34.5096 43.7245 35.1204 41.667 35.4419 39.8346L35.1204 39.7382C34.381 39.481 34.0917 39.6418 34.0917 37.1985C32.9022 37.1021 32.2271 37.3592 31.9378 37.52L31.2948 37.9058C30.2339 37.9058 27.1799 40.4776 25.7333 41.3134C24.1259 42.2457 20.879 43.2423 19.9146 43.9817C20.7182 45.3962 20.3003 46.0391 21.4576 48.7396C23.4508 51.2792 26.6013 47.968 28.3372 48.3538C28.2086 50.1541 25.7011 57.2909 27.3085 57.6445L27.3407 57.8374C30.3947 58.4482 31.4877 58.5768 34.9918 58.6411C38.1423 58.6089 42.9966 58.1588 45.4398 58.2874C46.0828 57.4837 45.7292 58.2231 45.7935 57.0658C45.8256 56.6479 45.7613 55.8763 45.7292 55.4584L44.7969 46.3928C46.5971 47.518 49.9084 49.7683 52.5766 49.4147C52.4481 46.4892 53.1231 46.2963 54.9555 44.3996Z" fill="url(#paint1_radial)"/>
<path fill-rule="evenodd" clip-rule="evenodd" d="M9.72374 40.4455L16.5069 38.2273L16.1533 37.1664L9.37012 39.3846L9.72374 40.4455ZM11.299 42.31C11.299 42.31 11.4597 42.8244 11.9098 42.9852C12.3598 43.1138 12.7456 42.9209 12.7456 42.9209C13.0028 43.4352 13.3886 43.6924 13.8386 43.7567L17.0212 52.758L17.4392 52.9509L18.4036 52.5973L18.5322 52.2115L15.3174 43.1137C15.5103 42.8244 15.6068 42.4386 15.5103 42.0207C15.5103 42.0207 15.9282 41.9242 16.2175 41.5385C16.5069 41.1848 16.3462 40.6705 16.3462 40.6705L13.8065 41.5063L11.299 42.31ZM11.1061 41.7635L16.1533 40.124L15.8318 39.0631L10.7846 40.7348L11.1061 41.7635Z" fill="#373435"/>
<path fill-rule="evenodd" clip-rule="evenodd" d="M16.5712 46.5214C16.5712 46.5214 17.0855 46.3928 16.9248 45.8784C16.7962 45.3962 16.4426 45.4284 16.089 45.4927C15.7353 45.5891 14.2887 45.8784 13.8064 46.1999C13.3885 46.4571 13.26 46.6499 13.2278 47.0679C13.2278 47.0679 13.0349 47.7751 13.6779 48.9003C14.3208 49.9933 14.9316 50.2827 15.3817 50.5077C16.5712 51.1507 17.1177 50.7006 18.4036 50.0898C18.4036 50.0898 18.7572 49.9933 18.6608 49.6076C18.5643 49.2539 18.3071 49.2861 18.05 49.3504C17.7928 49.3825 16.8605 49.5754 16.4426 49.8004L16.4105 49.7361C16.7962 49.5754 17.2784 49.3825 17.7928 49.1253C17.7928 49.1253 18.275 48.9968 18.1143 48.5467C17.9857 48.0645 17.6642 48.0966 17.3106 48.1609C17.0534 48.2252 16.1854 48.4181 15.5746 48.611L15.5103 48.5788C15.9925 48.4181 16.5069 48.1609 17.1177 47.8716C17.1177 47.8716 17.6321 47.7751 17.5035 47.2607C17.3427 46.7464 16.9891 46.7785 16.6355 46.875C16.3461 46.9393 15.2209 47.1643 14.6101 47.4215L14.578 47.3572C15.0924 47.1643 15.7996 46.875 16.5712 46.5214Z" fill="#F5B585"/>
<path fill-rule="evenodd" clip-rule="evenodd" d="M3.23006 24.8217C2.87643 24.9181 2.58711 24.8216 1.9763 25.2074C1.59053 25.4324 1.33333 25.7218 1.1083 26.0111C0.626081 26.7505 0.465354 27.5221 0.818979 28.5187C1.01187 29.0973 1.4941 29.4831 1.84773 29.7724C1.23692 30.5761 0.88329 31.3798 1.23691 32.5371C1.55839 33.5337 2.78001 34.4017 3.45512 34.3052C3.45512 34.466 2.65142 36.9414 5.15894 37.8094C5.83404 38.0344 6.63773 37.9701 7.31283 37.5843C7.40927 37.52 7.47356 37.4879 7.60215 37.4236C7.76289 37.8736 8.43797 38.4202 8.7916 38.5487C9.33811 38.7095 9.9168 38.8381 10.5276 38.6452C11.3313 38.3559 11.9421 37.52 12.0385 36.877C12.1671 36.9092 12.3279 37.0699 12.4886 37.1664C14.4818 38.1629 16.3785 36.202 15.9606 34.5303C16.3142 34.4338 16.3142 34.4981 16.8285 34.3052C18.0501 33.8873 18.8538 32.4085 18.4359 31.1548C18.243 30.5761 18.0502 30.2225 17.568 29.8046C17.4715 29.7081 17.375 29.676 17.2786 29.5152C17.8894 29.1295 18.243 27.7149 17.9537 26.8791C17.6965 26.2362 17.4393 25.8825 16.9893 25.5289C16.8607 25.4325 16.8286 25.4325 16.7 25.336C16.4749 25.2074 16.0248 24.9824 15.7355 25.0145C15.6712 24.7895 15.7034 24.9503 15.7355 24.7895L15.832 24.1787C15.9605 22.5392 14.3853 21.3175 12.8744 21.4461C12.1671 21.5104 11.91 21.7998 11.5885 21.9284C11.1706 20.9961 9.82034 20.321 8.75947 20.7068C8.21296 20.8996 7.85932 21.0925 7.53784 21.5104C7.47354 21.639 7.47357 21.6391 7.40927 21.7355C7.34497 21.8319 7.31282 21.864 7.24852 21.9926C7.18423 22.1534 7.15209 22.3784 7.05564 22.507C6.34839 21.8641 4.86961 21.7033 4.00162 22.5713C3.74444 22.8285 3.68013 22.9249 3.48725 23.2143C3.26221 23.5357 3.06932 24.3716 3.23006 24.8217Z" fill="#FFADBB"/>
<path fill-rule="evenodd" clip-rule="evenodd" d="M3.23006 24.8217C2.87643 24.9181 2.58711 24.8217 1.9763 25.2074C1.59053 25.4325 1.33333 25.7218 1.1083 26.0111C0.626081 26.7505 0.465354 27.5221 0.818979 28.5187C1.01187 29.0974 1.4941 29.4831 1.84773 29.7725C1.23692 30.5761 0.88329 31.3798 1.23691 32.5372C1.55839 33.5337 2.78001 34.4017 3.45512 34.3052C3.45512 34.466 2.65142 36.9414 5.15894 37.8094C5.83404 38.0344 6.63773 37.9701 7.31283 37.5843C7.40927 37.52 7.47356 37.4879 7.60215 37.4236C7.76289 37.8736 8.43797 38.4202 8.7916 38.5488C9.33811 38.7095 9.9168 38.8381 10.5276 38.6452C11.3313 38.3559 11.9421 37.52 12.0385 36.8771C12.1671 36.9092 12.3279 37.0699 12.4886 37.1664C14.4818 38.163 16.3785 36.202 15.9606 34.5303C16.3142 34.4339 16.3142 34.4981 16.8285 34.3052C18.0501 33.8873 18.8538 32.4085 18.4359 31.1548C18.243 30.5761 18.0502 30.2225 17.568 29.8046C17.4715 29.7081 17.375 29.676 17.2786 29.5153C17.8894 29.1295 18.243 27.715 17.9537 26.8791C17.6965 26.2362 17.4393 25.8826 16.9893 25.5289C16.8607 25.4325 16.8286 25.4325 16.7 25.3361C16.4749 25.2075 16.0248 24.9824 15.7355 25.0146C15.6712 24.7895 15.7034 24.9503 15.7355 24.7895L15.832 24.1787C15.9605 22.5392 14.3853 21.3176 12.8744 21.4462C12.1671 21.5105 11.91 21.7998 11.5885 21.9284C11.1706 20.9961 9.82034 20.321 8.75947 20.7068C8.21296 20.8997 7.85932 21.0925 7.53784 21.5105C7.47354 21.6391 7.47357 21.6391 7.40927 21.7355C7.34497 21.832 7.31282 21.8641 7.24852 21.9927C7.18423 22.1534 7.15209 22.3784 7.05564 22.507C6.34839 21.8641 4.86961 21.7034 4.00162 22.5713C3.74444 22.8285 3.68013 22.925 3.48725 23.2143C3.26221 23.5358 3.06932 24.3716 3.23006 24.8217ZM11.5242 22.9571C11.8778 22.8285 11.8456 22.507 12.5529 22.2498C14.1603 21.7033 15.5105 23.2786 14.9961 24.6931C14.8354 25.2075 14.6425 25.0467 13.9353 25.3361C13.2923 25.6254 12.9065 26.5255 13.1959 27.3935C13.4531 28.1008 14.3853 28.6473 15.0926 28.3901C15.3176 28.2936 15.7034 28.2615 15.5748 27.8436C15.414 27.3935 15.0604 27.715 14.6746 27.715C14.096 27.7471 13.9674 27.3292 13.8388 26.9434C13.5173 26.0112 15.0283 25.5932 15.6712 25.6897C16.2499 25.7861 16.925 26.2362 17.1179 26.847C17.3429 27.4578 17.5036 27.9722 17.0857 28.6473C16.5714 29.4188 16.0892 29.2902 16.2499 29.7725C16.3142 29.9975 16.4749 29.9975 16.6357 30.0618C18.5002 30.8976 17.8572 33.2122 16.6678 33.598C15.6391 33.9838 15.7034 33.6301 15.2533 33.7587C14.5782 34.0159 15.6712 34.6268 15.1247 35.7519C14.546 37.0057 12.5529 37.1342 12.0064 35.559L10.5597 31.412C11.0419 31.2512 11.492 31.1226 11.8778 31.412C12.0385 31.5406 12.1028 31.637 12.2314 31.862C12.3922 32.1835 12.4243 32.2799 12.8101 32.1514C13.2601 31.9906 12.7137 30.7369 11.492 30.544C10.9777 30.4797 10.8169 30.5761 10.3347 30.7368L7.85934 23.5679C7.60215 22.8928 7.76288 22.2177 8.24509 21.7998C9.11308 20.9961 10.5597 21.189 11.0098 22.4106C11.0419 22.5392 11.0741 23.1178 11.5242 22.9571ZM12.1028 19.453C12.2314 19.7745 12.3279 19.8388 12.6815 19.7102C12.7779 19.6781 13.5495 18.135 13.4852 18.0064C13.3887 17.6849 13.2602 17.6206 12.9387 17.7492C12.8101 17.7813 12.0707 19.3244 12.1028 19.453ZM10.3669 17.7813L10.9134 19.2923C11.042 19.6137 11.7171 19.3887 11.5885 19.0673L11.0741 17.5241C10.9455 17.2027 10.2704 17.4277 10.3669 17.7813ZM13.1316 20.2246C13.1959 20.3853 13.2923 20.6425 13.5173 20.546L15.0604 20.0317C15.3819 19.9031 15.1569 19.228 14.8033 19.3566L13.2923 19.8709C13.1959 19.9031 13.0994 20.1281 13.1316 20.2246ZM12.4564 29.3866C12.6493 29.901 13.6459 30.0296 13.9674 30.994C14.2889 31.8942 13.453 32.6657 13.3566 33.2122C13.3244 33.4694 13.5173 33.7588 13.8388 33.6302C14.0638 33.5659 14.1603 33.2444 14.2567 33.0515C14.5782 32.4085 14.8997 31.862 14.7068 30.9619C14.5461 30.0618 13.8067 29.5153 13.0351 29.0009C12.7136 28.7759 12.36 29.0652 12.4564 29.3866ZM8.75947 34.8839C9.27383 34.691 9.30597 34.6589 9.75604 34.4017C10.0775 34.2409 10.4633 34.1124 10.3347 33.7266C9.94895 32.6336 8.40583 35.5912 6.73415 33.4694C6.60556 33.3087 6.47698 33.1801 6.34839 33.0194C5.83403 32.4085 5.54468 32.9872 5.57683 33.2122C5.60897 33.373 6.477 34.3374 6.66989 34.4982C7.2164 34.9482 8.02007 35.1411 8.75947 34.8839ZM9.82035 27.3614C9.94894 27.6829 10.2061 27.7471 10.399 27.6185C10.6883 27.4256 10.5276 27.2649 10.4954 26.9113C10.4633 26.7184 10.5598 26.4291 10.6884 26.2683C10.8169 26.0754 11.0098 25.979 11.3313 25.8504C12.0064 25.6254 12.2636 25.4004 12.5207 24.9503C12.9065 24.3395 12.8101 23.1179 12.1992 23.3429C11.9742 23.4072 11.9099 23.6001 11.9742 23.8572C12.3279 25.4325 10.624 24.6931 9.91679 26.1076C9.75605 26.4612 9.69176 26.9756 9.82035 27.3614ZM3.35863 26.7184C3.61581 27.4578 4.25879 27.8757 4.99819 27.94C5.67329 27.9722 5.99477 27.5221 6.60558 27.6507C7.40927 27.8114 7.11992 28.5508 7.63428 28.5508C8.56656 28.5508 7.63428 26.6219 5.93045 26.9756C5.41609 27.072 4.58026 27.6186 4.13019 26.6541C3.90516 26.1398 3.55153 26.2683 3.42294 26.4934C3.39079 26.5255 3.35863 26.6862 3.35863 26.7184ZM2.61924 25.6897C3.55153 25.4003 4.41954 26.0755 4.00162 24.8539C3.45511 23.3429 5.12678 22.3141 6.25195 22.7964C6.50913 22.9249 6.92705 23.2464 7.05564 23.6L8.92022 28.9688C7.40927 29.4831 7.37714 31.7656 8.27727 31.4763C8.50231 31.3798 8.53445 31.1869 8.47015 30.994C8.40586 30.7047 8.37368 30.6726 8.43797 30.4154C8.50227 30.0939 8.75945 29.8046 9.14523 29.6438L11.3634 36.0091C11.5885 36.6842 11.2027 37.5843 10.2382 37.938C9.3381 38.2273 8.47011 37.7772 8.18078 36.9735C7.73072 35.6876 7.53783 36.7807 6.5734 37.1021C5.99474 37.295 5.51253 37.1986 5.12676 37.0057C4.29092 36.6199 3.87303 35.6876 4.09806 34.8196C4.13021 34.5946 4.4838 34.1124 4.41951 33.8874C4.25877 33.373 3.80869 33.823 3.005 33.5016C2.07272 33.1158 1.59054 31.9585 1.94417 30.9298C2.2335 30.1261 2.84431 29.9332 3.45512 29.7081C4.25881 29.451 4.48383 29.9653 4.64456 30.4475C4.77316 30.769 4.64456 31.0905 4.38738 31.2834C4.09805 31.5084 3.58369 31.4763 3.74443 31.9263C4.03376 32.6979 5.83403 31.4763 5.35182 30.1261C5.09464 29.3867 4.48381 28.9687 3.873 28.9366C3.45508 28.9044 3.26219 29.033 2.81212 29.1938C2.49064 29.2902 2.52281 29.2581 2.32993 29.1616C0.979721 28.4865 0.97971 26.2683 2.61924 25.6897Z" fill="#ED5770"/>
<path fill-rule="evenodd" clip-rule="evenodd" d="M25.5084 16.1097C24.126 16.7205 26.0549 16.0454 24.994 17.4599C24.5118 18.135 25.2512 19.1958 24.9297 19.9031C24.5118 20.8997 24.3189 23.6965 23.901 24.9181L22.7115 23.6C22.6794 23.5036 22.6151 23.4715 22.5508 23.4393C20.6541 24.1466 20.204 25.2717 21.0077 27.5864C21.9721 30.3832 23.4831 30.2225 24.5761 30.3832C24.769 31.3798 24.8012 31.7013 25.2512 32.6014C29.2054 40.7348 47.1438 39.0631 49.8121 30.8655C55.7273 30.5761 56.4024 23.9858 53.3805 23.5036C52.7697 24.4359 53.2519 23.5679 52.7697 24.1466C52.3839 24.6288 52.6411 24.3395 52.191 24.9181C51.4194 25.979 52.191 25.2075 51.0658 26.1397C50.9051 25.979 50.9373 26.0754 50.6158 25.4646C50.5836 25.4325 50.3264 24.8217 50.2943 24.7574C50.1014 24.2752 50.005 24.018 49.8442 23.6322C49.3941 22.5392 49.137 21.9927 48.8798 20.7389C47.5939 23.8251 47.5617 17.9742 48.0439 16.2382C46.5973 16.5597 46.3401 16.5919 44.9256 16.0132L45.9543 15.6596C43.8004 15.0488 42.2252 13.9236 39.8784 14.5987C40.232 13.6986 40.2321 13.2807 40.9072 13.0235C38.3996 12.7984 36.5672 14.0844 35.1206 15.1452C33.4489 14.663 32.9667 12.059 30.7806 11.8661C30.0734 13.2485 27.9516 10.741 27.9516 12.6377C27.9838 13.345 28.1124 14.7916 26.0871 15.2095C26.73 15.4989 25.7013 15.9489 25.5084 16.1097L25.7013 16.0132L25.5084 16.1097Z" fill="url(#paint2_radial)"/>
<path d="M29.2695 28.6151C30.8142 28.6151 32.0664 26.8736 32.0664 24.7252C32.0664 22.5769 30.8142 20.8354 29.2695 20.8354C27.7249 20.8354 26.4727 22.5769 26.4727 24.7252C26.4727 26.8736 27.7249 28.6151 29.2695 28.6151Z" fill="#F4F2FD"/>
<path d="M29.2699 27.297C30.282 27.297 31.1023 26.1456 31.1023 24.7252C31.1023 23.3048 30.282 22.1534 29.2699 22.1534C28.2579 22.1534 27.4375 23.3048 27.4375 24.7252C27.4375 26.1456 28.2579 27.297 29.2699 27.297Z" fill="#061161"/>
<path d="M29.2699 26.204C29.8558 26.204 30.3307 25.5419 30.3307 24.7252C30.3307 23.9085 29.8558 23.2465 29.2699 23.2465C28.684 23.2465 28.209 23.9085 28.209 24.7252C28.209 25.5419 28.684 26.204 29.2699 26.204Z" fill="black"/>
<path d="M29.0448 24.5645C29.2934 24.5645 29.4949 24.2766 29.4949 23.9215C29.4949 23.5664 29.2934 23.2786 29.0448 23.2786C28.7962 23.2786 28.5947 23.5664 28.5947 23.9215C28.5947 24.2766 28.7962 24.5645 29.0448 24.5645Z" fill="#FEFEFE"/>
<path fill-rule="evenodd" clip-rule="evenodd" d="M33.7704 27.5864C33.7704 27.5864 33.7061 28.165 32.9988 28.5508C32.2916 28.9366 31.8094 29.3545 31.9058 29.7724C31.9701 30.2225 32.1952 30.5761 33.2882 30.5439C34.4134 30.5118 34.542 30.6404 34.542 30.6404C34.542 30.6404 34.1883 30.0617 33.5132 30.0939C32.8381 30.0939 32.4202 30.0939 32.4202 29.676C32.3881 29.2581 33.256 29.0009 33.5775 28.5508C33.9311 28.1007 33.7704 27.5864 33.7704 27.5864Z" fill="#B07C5A"/>
<path d="M42.1933 28.6794C43.738 28.6794 44.9902 26.9379 44.9902 24.7896C44.9902 22.6412 43.738 20.8997 42.1933 20.8997C40.6487 20.8997 39.3965 22.6412 39.3965 24.7896C39.3965 26.9379 40.6487 28.6794 42.1933 28.6794Z" fill="#F4F2FD"/>
<path d="M42.1932 27.3614C43.2053 27.3614 44.0257 26.2099 44.0257 24.7895C44.0257 23.3692 43.2053 22.2177 42.1932 22.2177C41.1812 22.2177 40.3608 23.3692 40.3608 24.7895C40.3608 26.2099 41.1812 27.3614 42.1932 27.3614Z" fill="#061161"/>
<path d="M42.1932 26.2683C42.7791 26.2683 43.2541 25.6063 43.2541 24.7895C43.2541 23.9728 42.7791 23.3107 42.1932 23.3107C41.6073 23.3107 41.1323 23.9728 41.1323 24.7895C41.1323 25.6063 41.6073 26.2683 42.1932 26.2683Z" fill="black"/>
<path d="M41.9681 24.6288C42.2167 24.6288 42.4182 24.3409 42.4182 23.9858C42.4182 23.6307 42.2167 23.3429 41.9681 23.3429C41.7196 23.3429 41.5181 23.6307 41.5181 23.9858C41.5181 24.3409 41.7196 24.6288 41.9681 24.6288Z" fill="#FEFEFE"/>
<path fill-rule="evenodd" clip-rule="evenodd" d="M32.4521 31.3476C32.4521 31.3476 34.4453 32.0871 36.0849 31.3798C37.7565 30.7047 38.4959 30.7368 38.8817 31.5405C39.2675 32.3764 38.4638 34.5303 36.5671 34.9482C34.6703 35.3661 34.2203 33.7266 32.4521 31.3476Z" fill="#540302"/>
<path fill-rule="evenodd" clip-rule="evenodd" d="M33.8667 33.373C34.6704 34.5624 35.2812 35.2376 36.5671 34.9482C37.7244 34.6911 38.4638 33.7909 38.7853 32.9229C38.3995 32.6014 37.853 32.28 37.2743 32.3764C36.1492 32.505 36.1813 33.4694 36.1813 33.4694C36.1813 33.4694 36.1492 32.5693 35.1205 32.6657C34.6704 32.6979 34.2203 33.0194 33.8667 33.373Z" fill="#FFADBB"/>
<path fill-rule="evenodd" clip-rule="evenodd" d="M51.8376 26.7827C51.8376 26.7827 52.5128 25.4003 53.2843 25.4646C54.088 25.5289 53.8951 27.0078 52.9949 28.2615C52.1269 29.5153 50.7767 28.8723 51.8376 26.7827Z" fill="#D18B56"/>
<path fill-rule="evenodd" clip-rule="evenodd" d="M23.6763 26.6541C23.6763 26.6541 23.2905 25.1753 22.5189 25.0789C21.7152 24.9824 21.6188 26.4612 22.2296 27.8757C22.8404 29.2581 24.2871 28.9366 23.6763 26.6541Z" fill="#D18B56"/>
<path fill-rule="evenodd" clip-rule="evenodd" d="M22.6875 15.3344C19.6656 17.9384 21.1122 24.4322 23.8126 26.2325C24.552 23.95 24.102 20.3174 26.8667 19.0958C26.513 18.2599 26.4166 17.4562 26.6095 16.3632C27.6704 16.9097 29.4385 16.7811 29.9528 16.5239C29.4706 15.5916 29.5028 14.8844 29.7279 13.8878C30.403 14.2736 32.5247 15.9452 35.0322 16.4917C36.4789 15.4309 38.3112 14.1128 40.8188 14.3379C40.1115 14.6272 40.1436 15.0451 39.79 15.9131C42.1368 15.2702 43.7121 16.3632 45.8338 17.0061L44.8372 17.3276C46.2517 17.9384 46.5089 17.8741 47.9556 17.5526C47.4733 19.3208 47.5055 25.1716 48.7914 22.0855C49.0486 23.3392 49.3058 23.8536 49.7558 24.9466C49.9166 25.3645 50.0131 25.5896 50.2059 26.1039C50.2381 26.1682 50.4953 26.7469 50.5274 26.8112C50.8489 27.3898 50.8167 27.3255 50.9775 27.4863C52.1026 26.5218 51.3311 27.3256 52.1026 26.2647C52.5527 25.6539 52.2634 25.9753 52.6813 25.4931C53.1635 24.9145 52.6813 25.7825 53.2921 24.8502C54.2887 22.5034 56.3783 19.6422 54.2244 15.9131L53.5814 14.8522L57.4713 13.3092C55.9925 11.541 54.7388 11.9589 52.5206 12.3768C53.1635 10.0944 52.1348 8.16549 50.9775 6.84743C51.2989 9.35495 51.2989 9.25853 50.881 11.6375C50.1738 7.10463 49.3701 7.00818 44.773 2.08958C45.223 4.01845 44.9337 5.07932 44.355 6.20449C43.4549 3.79341 41.5261 0.964432 35.643 0C36.7361 2.53967 36.8646 4.37207 36.3824 6.20449C34.9679 5.56153 33.7142 4.66138 33.0391 2.47534C30.9173 4.24346 30.7245 5.14361 30.2422 6.20449C29.9851 6.71885 28.4419 5.43293 27.3489 3.18259C24.8092 6.33307 24.102 6.59024 24.4556 10.9623C23.2661 9.54783 23.3626 8.35839 22.5589 7.26537C21.0479 11.4767 21.6587 11.8303 22.6875 15.3344Z" fill="url(#paint3_radial)"/>
<defs>
<linearGradient id="paint0_linear" x1="26.0321" y1="64.0695" x2="44.5171" y2="64.2302" gradientUnits="userSpaceOnUse">
<stop stop-color="#A19E9E"/>
<stop offset="1" stop-color="#332F31"/>
</linearGradient>
<radialGradient id="paint1_radial" cx="0" cy="0" r="1" gradientUnits="userSpaceOnUse" gradientTransform="translate(34.033 52.8586) rotate(-18.4349) scale(84.9498 82.8856)">
<stop stop-color="#B7E0F3"/>
<stop offset="1" stop-color="#1699D7"/>
</radialGradient>
<radialGradient id="paint2_radial" cx="0" cy="0" r="1" gradientUnits="userSpaceOnUse" gradientTransform="translate(35.3705 18.3197) rotate(26.9302) scale(133.794 128.298)">
<stop stop-color="#FEDEC6"/>
<stop offset="1" stop-color="#F2A972"/>
</radialGradient>
<radialGradient id="paint3_radial" cx="0" cy="0" r="1" gradientUnits="userSpaceOnUse" gradientTransform="translate(37.0072 23.6274) rotate(-30.6305) scale(143.547 142.331)">
<stop stop-color="#772B09"/>
<stop offset="1" stop-color="#D6851A"/>
</radialGradient>
</defs>
</svg>