<svg  viewBox="0 0 49 48" fill="none" xmlns="http://www.w3.org/2000/svg">
<path fill-rule="evenodd" clip-rule="evenodd" d="M23.7677 31.6331C23.7677 31.2537 23.7677 30.8744 23.7677 30.495C23.7677 25.1838 25.6646 23.6663 27.9408 19.8726C28.3202 19.1139 28.3202 18.3551 28.3202 17.5964C28.3202 14.1821 24.5265 9.62957 20.7328 13.4233L20.3533 13.8027C21.4914 14.5614 22.2502 15.6995 22.2502 17.217C22.2502 19.1139 20.7328 20.6314 18.8359 20.6314C16.1803 20.6314 15.0421 18.7345 15.0421 16.8376C15.0421 14.9408 16.5597 12.6646 18.0772 11.1471C19.5947 9.62959 21.8708 9.25018 24.5264 9.25018C27.182 9.25018 29.4583 10.009 31.3551 11.5265C32.8726 13.0439 34.0107 14.9408 34.0107 17.217C34.0107 18.3551 33.6314 19.4933 32.8727 20.6314C32.4933 21.7695 31.3552 22.9076 29.4583 24.8044C28.3202 25.5632 27.5614 26.3219 27.182 27.0807C26.8027 27.4601 26.4233 27.8394 26.4233 28.5981C26.0439 29.3569 26.044 30.495 26.044 31.6331H23.7677ZM25.2852 33.9094C26.4233 33.9094 27.5615 35.0475 27.5615 36.1856C27.5615 37.7031 26.4233 38.8412 25.2852 38.8412C23.7677 38.8412 22.6296 37.7031 22.6296 36.1856C22.6296 35.0475 23.7677 33.9094 25.2852 33.9094ZM24.5264 0.145264C37.8044 0.145264 48.4269 10.7677 48.4269 24.0457C48.4269 36.9444 37.8044 47.9461 24.5264 47.9461C11.2484 47.9461 0.625977 36.9444 0.625977 24.0457C0.625977 10.7677 11.2484 0.145264 24.5264 0.145264ZM24.5264 2.80085C36.287 2.80085 45.3918 12.2852 45.3918 24.0457C45.3918 35.4269 36.287 44.9111 24.5264 44.9111C12.7659 44.9111 3.28157 35.4269 3.28157 24.0457C3.28157 12.2852 12.7659 2.80085 24.5264 2.80085Z" fill="#0E9C8B"/>
</svg>
