<svg viewBox="0 0 108 109" fill="none" xmlns="http://www.w3.org/2000/svg">
<path d="M54.1169 108.133C83.8689 108.133 107.988 84.014 107.988 54.262C107.988 24.51 83.8689 0.391235 54.1169 0.391235C24.3649 0.391235 0.246094 24.51 0.246094 54.262C0.246094 84.014 24.3649 108.133 54.1169 108.133Z" fill="url(#paint0_linear)"/>
<path fill-rule="evenodd" clip-rule="evenodd" d="M27.9402 30.7411L22.629 28.4648C20.3528 29.603 17.3178 39.4666 17.6972 40.9841C18.0765 42.5016 31.3545 73.9894 33.2514 77.4038C35.5276 80.8181 42.3563 79.68 42.3563 79.68H86.3634H87.5016L64.3599 42.1222L27.9402 30.7411Z" fill="#2A6B8C"/>
<path fill-rule="evenodd" clip-rule="evenodd" d="M40.4595 64.1257L88.2603 67.5401L84.846 78.1625H36.6658L40.4595 64.1257Z" fill="#E6E7E8"/>
<path fill-rule="evenodd" clip-rule="evenodd" d="M45.3913 68.6782H90.1572L65.498 28.4648H22.629C20.3528 29.603 17.3178 39.4666 17.6972 40.9841C18.0765 42.5016 31.3545 73.9894 33.2514 77.4038C34.3895 79.3006 37.4245 80.0594 39.7007 80.0594C39.3213 79.68 38.5626 78.9213 38.5626 78.5419C38.1832 77.7831 38.942 75.5069 40.4595 72.472C41.977 69.437 45.3913 68.6782 45.3913 68.6782Z" fill="#40A4D6"/>
<path fill-rule="evenodd" clip-rule="evenodd" d="M89.019 66.402L66.2567 29.6029L26.0433 29.9823H23.3877L40.0801 64.8845L41.5976 67.9195C41.5976 67.9195 46.9087 66.0226 51.8406 66.402C54.4962 66.7813 64.3598 66.7813 74.2235 66.402C75.741 66.402 77.6379 66.402 79.1553 66.402C82.9491 66.402 86.3634 66.402 89.019 66.402Z" fill="#2A6B8C"/>
<path d="M42.1606 39.2769H38.0012L45.489 54.3703H49.6484L42.1606 39.2769Z" fill="#FEFEFE"/>
<path d="M52.9044 44.1821H48.745L53.7955 54.3626H57.9549L52.9044 44.1821Z" fill="#FEFEFE"/>
<path d="M63.0829 48.0897H58.9235L62.0314 54.3545H66.1908L63.0829 48.0897Z" fill="#FEFEFE"/>
<path d="M69.0998 44.1821H64.9404L69.9909 54.3626H74.1503L69.0998 44.1821Z" fill="#FEFEFE"/>
<path d="M39.3213 37.5698L49.185 39.846V40.2254L59.8074 45.916L65.1186 41.7429H64.7392C65.4979 41.3635 65.8773 41.3636 66.2567 41.3636V42.881L65.498 42.1223L60.1867 46.6747L49.185 40.6048L39.3213 37.9492V37.5698Z" fill="#FEFEFE"/>
<path fill-rule="evenodd" clip-rule="evenodd" d="M31.7339 35.6729H31.3545L40.4594 54.2621L40.8388 54.6414H41.2182H76.4997L76.1204 54.2621H40.8388L31.7339 35.6729Z" fill="#FEFEFE"/>
<defs>
<linearGradient id="paint0_linear" x1="10.1098" y1="82.3355" x2="154.271" y2="-117.973" gradientUnits="userSpaceOnUse">
<stop stop-color="#29DBE5"/>
<stop offset="1" stop-color="#030281"/>
</linearGradient>
</defs>
</svg>
