<svg viewBox="0 0 49 48" fill="none" xmlns="http://www.w3.org/2000/svg">
<path fill-rule="evenodd" clip-rule="evenodd" d="M23.5253 12.6645C30.354 11.9058 35.6652 16.8376 36.4239 22.9076C37.5621 30.1156 32.2509 35.8062 25.8016 36.565C18.9729 37.3237 13.2822 32.0125 12.5235 25.9425C11.7647 18.7345 17.076 13.0439 23.5253 12.6645ZM35.2859 13.4233L36.8033 14.182C37.1826 13.8027 37.1826 13.8027 37.562 13.4233C38.3208 12.6645 38.3208 13.0439 38.3208 12.2851C37.9414 11.9058 35.6652 9.62955 34.5271 9.25018C34.1477 9.62955 33.389 10.3883 33.0096 11.1471C33.389 11.9058 33.7683 11.9058 34.1477 12.2851L33.7684 13.0439H33.3889C31.1127 11.147 28.8365 10.3883 25.0428 10.0089H23.9046C19.7315 10.3883 18.2141 11.147 15.5585 13.0439L15.1791 12.2851C15.5585 11.9058 15.5585 11.9058 15.9378 11.1471C15.5585 10.3883 14.7997 9.62955 14.4203 9.25018C13.2822 9.62955 11.006 11.9058 10.6267 12.2851C11.006 13.0439 11.7647 14.1821 12.5235 14.5614L13.6617 13.4233L14.041 14.182C12.9029 15.6995 11.7649 16.8376 11.0061 19.4932C10.2474 21.7695 9.86798 24.0457 10.2474 26.7013C11.3855 33.9094 17.8348 39.2206 25.0428 38.8412C33.389 38.8412 39.8383 31.2538 39.0795 22.9076C38.3208 17.9757 36.4239 16.0789 34.9064 14.182C35.2858 13.8027 34.9065 13.8027 35.2859 13.4233ZM25.4221 25.5632H23.9046C22.7665 22.9076 26.1809 22.9076 25.4221 25.5632ZM24.6634 17.217C24.284 17.5964 23.5254 21.0107 23.146 22.1488C22.7666 24.0457 22.0078 26.3219 24.6634 26.3219C26.9396 26.3219 26.5603 24.0457 26.1809 22.1488C25.8015 21.0107 25.0427 17.5964 24.6634 17.217ZM24.2841 6.59458C27.319 6.59458 26.9397 8.49149 24.2841 8.49149C22.3872 8.49149 21.6285 6.59458 24.2841 6.59458ZM23.9046 10.0089H25.0428V9.25018C26.1809 8.8708 27.319 8.87084 27.319 7.73273C27.319 6.21524 25.8016 5.83582 24.2841 5.83582C23.146 5.45645 21.6285 6.21523 21.6285 7.35335C21.6285 8.11209 22.3871 9.25018 23.9046 9.25018V10.0089ZM25.4221 25.5632C26.1809 22.9076 22.7665 22.9076 23.9046 25.5632H25.4221ZM30.354 17.9758L31.1128 18.7345C31.8715 18.3551 32.2508 17.9758 32.2508 17.217C32.2508 17.217 32.2509 16.8376 31.8715 16.4583C31.1128 16.8376 30.7334 17.217 30.354 17.9758ZM16.6966 17.5964C17.076 18.3551 17.4554 18.3551 18.2141 18.7345L18.5934 17.9758C18.5934 17.217 18.2141 17.217 17.4554 16.8376L17.0761 17.217C16.6967 17.5964 17.076 17.217 16.6966 17.5964ZM16.6966 31.6331L17.4554 32.3919C18.2141 32.0125 18.5935 32.0125 18.9729 31.2537L17.8347 30.495L16.6966 31.6331ZM23.9046 15.6995H25.0428V14.182L23.9046 13.8027V15.6995ZM33.3889 24.8044L35.2859 25.1838V23.6663H33.3889V24.8044ZM24.2841 35.0475H25.4221V33.53H24.2841V35.0475ZM14.041 25.1838H15.9378V24.0457H14.041V25.1838ZM30.7333 31.2537L31.8715 32.3919L32.6303 31.6331L31.4921 30.495L30.7333 31.2537ZM24.6634 0.145264C37.562 0.145264 48.5638 10.7677 48.5638 24.0457C48.5638 36.9444 37.562 47.9461 24.6634 47.9461C11.3854 47.9461 0.763062 36.9444 0.763062 24.0457C0.763062 10.7677 11.3854 0.145264 24.6634 0.145264ZM24.6634 2.80085C36.0445 2.80085 45.5289 12.2852 45.5289 24.0457C45.5289 35.4269 36.0445 44.9111 24.6634 44.9111C12.9029 44.9111 3.41865 35.4269 3.41865 24.0457C3.41865 12.2852 12.9029 2.80085 24.6634 2.80085Z" fill="#575BB8"/>
</svg>