<svg  viewBox="0 0 506 46" fill="none" xmlns="http://www.w3.org/2000/svg">
<path fill-rule="evenodd" clip-rule="evenodd" d="M71.3077 7.55298H505.141C505.141 29.2205 475.983 45.0051 455.376 45.0051H21.543V44.9729C31.2516 25.5878 50.701 7.55298 71.3077 7.55298Z" fill="#22B6D4"/>
<path fill-rule="evenodd" clip-rule="evenodd" d="M69.7002 3.59884H439.849L442.292 0.416199H54.2371H54.205C53.337 0.448346 25.7221 1.41278 10.1626 27.1953C6.2406 33.7212 3.09012 39.7007 0.614746 45.0051H15.4348C20.482 28.3847 38.0026 3.59884 69.7002 3.59884ZM446.954 3.59884H454.862L457.305 0.416199H449.397L446.954 3.59884ZM461.999 3.59884H469.907L472.35 0.416199H464.442L461.999 3.59884ZM477.012 3.59884H484.92L487.363 0.416199H479.455L477.012 3.59884ZM492.057 3.59884H499.965L502.409 0.416199H494.5L492.057 3.59884Z" fill="#0E75B5"/>
</svg>