<svg viewBox="0 0 126 94" fill="none" xmlns="http://www.w3.org/2000/svg">
<path fill-rule="evenodd" clip-rule="evenodd" d="M61.3717 11.2436C60.7744 11.1582 56.8488 12.5236 56.8488 12.5236L56.4221 14.8278C56.4221 14.8278 61.3717 18.7533 60.2624 21.8254C59.153 24.8123 62.8224 26.775 62.8224 26.775C62.8224 26.775 66.5773 24.8123 65.4679 21.8254C64.3585 18.7533 69.2228 14.8278 69.2228 14.8278L68.8814 12.5236C68.8814 12.5236 64.8706 11.1582 64.3585 11.2436L62.8224 11.3289L61.3717 11.2436Z" fill="#BDBFC1"/>
<path fill-rule="evenodd" clip-rule="evenodd" d="M17.6787 62.1902C18.2761 61.6782 19.5562 60.9102 22.031 61.4222C25.8712 62.1049 28.0046 63.0436 30.138 62.5316C31.6741 62.1049 32.6982 60.6542 33.2102 59.8861C32.0155 56.814 29.114 55.4485 29.114 55.4485L28.9433 55.2779V50.4136L29.114 50.3283C29.114 50.3283 29.1994 50.2429 29.4554 49.9016H21.9456C22.1163 50.2429 22.287 50.3283 22.287 50.3283L22.4577 50.4136V55.2779L22.287 55.4485C22.2017 55.4485 17.8494 57.582 17.6787 62.1902ZM32.1008 68.7612C33.5516 67.2252 34.4049 65.0063 34.4049 62.4462C34.4049 57.838 30.5647 55.3632 29.626 54.8512V50.755C29.7114 50.6696 29.8821 50.5843 30.0527 50.3283C30.5648 49.6456 29.7967 49.2189 29.7967 49.2189L29.626 49.1335H21.775L21.6043 49.2189C21.6043 49.2189 20.8362 49.6456 21.3483 50.3283C21.5189 50.5843 21.6043 50.6696 21.6896 50.755V54.8512C20.8363 55.3632 16.9961 57.838 16.9961 62.4462C16.9961 65.0063 17.8494 67.2252 19.2148 68.7612C22.4577 72.2601 28.858 72.3454 32.1008 68.7612ZM21.519 62.9583C22.1163 62.9583 22.543 63.4703 22.543 63.9823C22.543 64.5796 22.1163 65.0917 21.519 65.0917C20.9216 65.0917 20.4949 64.5796 20.4949 63.9823C20.4949 63.4703 20.9216 62.9583 21.519 62.9583ZM25.1885 68.0785C25.5299 68.0785 25.7859 68.3345 25.7859 68.6759C25.7859 69.0172 25.5299 69.3586 25.1885 69.3586C24.7618 69.3586 24.5058 69.0172 24.5058 68.6759C24.5058 68.3345 24.7618 68.0785 25.1885 68.0785ZM30.2234 64.5796C30.5647 64.5796 30.8208 64.8357 30.8208 65.2624C30.8208 65.6037 30.5647 65.8597 30.2234 65.8597C29.7967 65.8597 29.5407 65.6037 29.5407 65.2624C29.5407 64.8357 29.7967 64.5796 30.2234 64.5796Z" fill="#00AFEF"/>
<path fill-rule="evenodd" clip-rule="evenodd" d="M62.8224 24.6416H61.6276V21.6548C61.6276 21.6548 61.5423 17.1319 59.4942 14.9131C57.4461 12.7796 56.8488 12.5236 56.8488 12.5236L61.713 4.33122C61.0303 3.90453 60.6036 3.22183 60.6036 2.36846C60.6036 1.17373 61.6276 0.149658 62.8224 0.149658C64.1024 0.149658 65.1265 1.17373 65.1265 2.36846C65.1265 3.22183 64.6998 3.90453 64.0171 4.33122L68.8813 12.5236C68.8813 12.5236 68.284 12.7796 66.2359 14.9131C64.1878 17.1319 64.1024 21.6548 64.1024 21.6548V24.6416H62.8224Z" fill="#848688"/>
<path fill-rule="evenodd" clip-rule="evenodd" d="M59.1528 23.9589H62.8224V86.8527V87.1087V89.2422H49.339V86.9381C49.339 86.9381 52.5818 86.426 55.8247 84.6339C59.0675 82.8418 59.1528 78.7457 59.1528 77.4656V77.0389V23.9589Z" fill="#BDBFC1"/>
<path fill-rule="evenodd" clip-rule="evenodd" d="M66.5773 23.9589H62.8224V86.8527V87.1087V89.2422H76.3911V86.9381C76.3911 86.9381 73.1483 86.426 69.9054 84.6339C66.5773 82.8418 66.5773 78.7457 66.5773 77.4656V77.0389V23.9589Z" fill="#848688"/>
<path fill-rule="evenodd" clip-rule="evenodd" d="M48.4855 84.89H62.5663H63.1636H77.2444C79.6338 84.89 81.5966 86.8527 81.5966 89.2422C81.5966 91.6316 79.6338 93.5944 77.2444 93.5944H63.1636H62.5663H48.4855C46.0961 93.5944 44.1333 91.6316 44.1333 89.2422C44.1333 86.8527 46.0961 84.89 48.4855 84.89Z" fill="#679FCE"/>
<path d="M65.1266 27.031C65.1266 26.9457 69.6494 23.2762 74.6843 23.4469C76.9885 23.5322 79.2073 25.751 81.5114 28.0551C84.0715 30.6152 86.7169 33.1754 90.2158 34.0288C97.8962 35.9062 102.504 27.2871 102.504 27.2871C103.016 26.2631 102.675 24.983 101.651 24.4709C100.627 23.8736 99.4323 24.3003 98.8349 25.239C98.8349 25.3243 95.6774 31.1273 91.1545 30.0179C88.8504 29.4205 86.6316 27.2017 84.4982 25.1536C81.5967 22.2521 78.7806 19.436 74.855 19.3507C69.2228 19.0947 64.2731 22.4228 62.8224 23.4469C61.457 22.4228 56.5074 19.0947 50.8751 19.3507C46.9496 19.436 44.1335 22.2521 41.232 25.1536C39.0985 27.2017 36.8798 29.4205 34.5757 30.0179C29.9674 31.1273 26.8952 25.3243 26.8952 25.239C26.2979 24.3003 25.1031 23.8736 24.0791 24.4709C23.055 24.983 22.7137 26.2631 23.2257 27.2871C23.2257 27.2871 27.834 35.9062 35.5144 34.0288C39.0132 33.1754 41.6587 30.6152 44.2188 28.0551C46.5229 25.751 48.7417 23.5322 51.0458 23.4469C56.0807 23.2762 60.6036 26.9457 60.6036 27.031C61.0303 27.2871 61.8837 27.8845 62.8224 27.8845C63.7611 27.8845 64.6999 27.2871 65.1266 27.031ZM100.2 25.9217C100.798 25.9217 101.31 26.4337 101.31 27.031C101.31 27.7137 100.798 28.2258 100.2 28.2258C99.5176 28.2258 99.0056 27.7137 99.0056 27.031C99.0056 26.4337 99.5176 25.9217 100.2 25.9217ZM25.5299 25.9217C26.1272 25.9217 26.7246 26.4337 26.7246 27.031C26.7246 27.7137 26.1272 28.2258 25.5299 28.2258C24.8472 28.2258 24.3351 27.7137 24.3351 27.031C24.3351 26.4337 24.8472 25.9217 25.5299 25.9217Z" fill="#679FCE"/>
<path d="M62.8224 26.0922C63.8593 26.0922 64.6998 25.2517 64.6998 24.2148C64.6998 23.1779 63.8593 22.3374 62.8224 22.3374C61.7855 22.3374 60.9449 23.1779 60.9449 24.2148C60.9449 25.2517 61.7855 26.0922 62.8224 26.0922Z" fill="#FEFEFE"/>
<path d="M1.03784 70.724L25.0177 26.9458L25.4444 27.0311L25.9564 26.9458L49.851 70.724L48.9123 71.236L25.9564 29.2499C25.9564 29.2499 25.7858 28.6525 25.4444 28.6525C25.1884 28.6525 24.9324 29.2499 24.9324 29.2499L1.97656 71.236L1.03784 70.724Z" fill="#BDBFC1"/>
<path fill-rule="evenodd" clip-rule="evenodd" d="M0.696533 70.3826H50.1924C40.8053 84.0366 10.0837 84.0366 0.696533 70.3826Z" fill="#679FCE"/>
<path fill-rule="evenodd" clip-rule="evenodd" d="M92.3492 62.1048C92.9465 61.5928 94.312 60.8248 96.7868 61.3368C100.627 62.0195 102.846 62.9582 104.979 62.4462C106.515 62.0195 107.539 60.5688 108.051 59.8007C106.857 56.7286 103.955 55.2779 103.955 55.2779L103.699 55.1925V50.2429L103.87 50.0723C103.87 50.0723 104.04 49.9869 104.296 49.7309C104.296 49.7309 104.296 49.7309 104.296 49.6455H96.616C96.616 49.7309 96.6161 49.7309 96.7014 49.7309C96.8721 49.9869 97.0428 50.0723 97.0428 50.0723L97.2134 50.2429V55.1925L96.9574 55.2779C96.9574 55.2779 92.5198 57.4966 92.3492 62.1048ZM106.942 68.7612C108.393 67.2252 109.246 65.0064 109.246 62.3609C109.246 57.7527 105.406 55.2778 104.467 54.7658V50.5843C104.552 50.4989 104.723 50.3283 104.808 50.1576C105.32 49.4749 104.638 49.0482 104.638 49.0482L104.382 48.9629H96.5307L96.2747 49.0482C96.2747 49.0482 95.592 49.4749 96.104 50.1576C96.2747 50.3283 96.3601 50.4989 96.4454 50.5843V54.7658C95.5067 55.2778 91.6665 57.7527 91.6665 62.3609C91.6665 65.0064 92.5199 67.2252 93.9706 68.7612C97.2134 72.3454 103.699 72.3454 106.942 68.7612ZM96.2747 62.8729C96.7867 62.8729 97.2988 63.3849 97.2988 63.9823C97.2988 64.4943 96.7867 65.0064 96.2747 65.0064C95.6773 65.0064 95.1653 64.4943 95.1653 63.9823C95.1653 63.3849 95.6773 62.8729 96.2747 62.8729ZM99.9442 67.9932C100.286 67.9932 100.542 68.3345 100.542 68.6759C100.542 69.0172 100.286 69.3586 99.9442 69.3586C99.5175 69.3586 99.2616 69.0172 99.2616 68.6759C99.2616 68.3345 99.5175 67.9932 99.9442 67.9932ZM104.979 64.4943C105.406 64.4943 105.662 64.8356 105.662 65.177C105.662 65.5184 105.406 65.8597 104.979 65.8597C104.638 65.8597 104.382 65.5184 104.382 65.177C104.382 64.8356 104.638 64.4943 104.979 64.4943Z" fill="#00A859"/>
<path d="M75.623 70.724L99.7736 26.519L100.2 26.6044L100.712 26.519L124.863 70.724L123.924 71.236L100.798 28.9085C100.798 28.9085 100.542 28.2258 100.286 28.2258C100.03 28.2258 99.6883 28.9085 99.6883 28.9085L76.5618 71.236L75.623 70.724Z" fill="#BDBFC1"/>
<path fill-rule="evenodd" clip-rule="evenodd" d="M75.2817 70.3826H125.204C115.732 84.1219 84.7542 84.1219 75.2817 70.3826Z" fill="#679FCE"/>
</svg>