<svg viewBox="0 0 126 125" fill="none" xmlns="http://www.w3.org/2000/svg">
<path fill-rule="evenodd" clip-rule="evenodd" d="M109.435 28.4405V104.476C109.435 115.57 100.389 124.616 89.2954 124.616H44.7492C33.6553 124.616 24.6095 115.57 24.6095 104.476V49.0069C24.6095 42.3505 17.0997 37.5716 17.0144 28.3551H28.7057L89.2101 26.9044L109.435 28.4405Z" fill="#C3EFFA"/>
<path d="M63.2676 38.0837C88.7653 38.0837 109.435 33.7663 109.435 28.4405C109.435 23.1148 88.7653 18.7974 63.2676 18.7974C37.7699 18.7974 17.0999 23.1148 17.0999 28.4405C17.0999 33.7663 37.7699 38.0837 63.2676 38.0837Z" fill="#B4EAF7"/>
<path d="M67.0223 82.2887C90.4463 82.2887 109.435 77.9712 109.435 72.6455C109.435 67.3197 90.4463 63.0023 67.0223 63.0023C43.5984 63.0023 24.6095 67.3197 24.6095 72.6455C24.6095 77.9712 43.5984 82.2887 67.0223 82.2887Z" fill="#A9CAF5"/>
<path fill-rule="evenodd" clip-rule="evenodd" d="M67.0223 82.2886C43.6398 82.2886 24.6095 77.9363 24.6095 72.6454V104.476C24.6095 115.57 33.6553 124.616 44.7492 124.616H89.2955C100.389 124.616 109.435 115.57 109.435 104.476V72.6454C109.435 77.9363 90.4902 82.2886 67.0223 82.2886Z" fill="#70A6EB"/>
<path fill-rule="evenodd" clip-rule="evenodd" d="M52.6003 111.559C53.283 111.73 54.5631 112.157 56.2699 112.583C57.2086 113.949 58.7446 114.802 60.5367 114.802C62.1582 114.802 63.6942 114.034 64.6329 112.754C65.3156 112.583 65.9983 112.242 66.5957 111.815L66.681 111.73C67.7051 113.266 69.4118 114.29 71.2892 114.29C73.6787 114.29 75.6415 112.839 76.4096 110.791L76.6656 110.877C77.0922 113.266 79.2257 115.144 81.7005 115.144C84.1752 115.144 86.2234 113.437 86.7354 111.133C86.9061 111.218 87.0768 111.218 87.3328 111.218C90.1489 111.218 92.453 108.914 92.453 106.098C92.453 105.159 92.197 104.306 91.6849 103.538C92.1116 102.94 92.3677 102.258 92.3677 101.404C92.5383 100.892 92.6237 100.295 92.6237 99.6975C92.6237 96.8814 90.3196 94.5772 87.5034 94.5772C86.9914 94.5772 86.4794 94.6625 85.9673 94.8332C85.7967 92.1877 83.5779 90.1397 80.8471 90.1397C79.6524 90.1397 78.5429 90.5663 77.6896 91.249C77.4336 88.6889 75.2148 86.5555 72.5693 86.5555C70.9479 86.5555 69.5825 87.3235 68.6438 88.4329C68.4731 87.5795 68.3024 86.3848 68.3024 85.1901C68.3024 83.3126 68.4731 82.2886 68.4731 82.2886L63.0115 82.2032C63.6088 85.7021 63.4382 88.0062 62.7555 89.5423C61.8168 88.7743 60.6221 88.3476 59.342 88.3476C57.0379 88.3476 54.9897 89.7983 54.2217 91.8464C53.6243 91.505 52.8563 91.3344 52.1736 91.3344C49.7842 91.3344 47.9067 93.2118 47.9067 95.5159C47.9067 96.1133 47.9921 96.7107 48.2481 97.2227C47.9921 97.1374 47.736 97.1373 47.48 97.1373C45.0906 97.1373 43.2131 99.0148 43.2131 101.319C43.2131 103.026 44.2372 104.562 45.6879 105.159C44.6639 106.098 44.0666 107.293 44.0666 108.743C44.0666 111.389 46.2 113.522 48.8455 113.522C50.3815 113.522 51.747 112.754 52.6003 111.559Z" fill="#FEFEFE"/>
<path d="M65.2302 73.9254C68.765 73.9254 71.6305 72.932 71.6305 71.7066C71.6305 70.4812 68.765 69.4879 65.2302 69.4879C61.6954 69.4879 58.8298 70.4812 58.8298 71.7066C58.8298 72.932 61.6954 73.9254 65.2302 73.9254Z" fill="#FEFEFE"/>
<path d="M63.2675 37.2303C88.0111 37.2303 108.07 33.295 108.07 28.4406C108.07 23.5861 88.0111 19.6508 63.2675 19.6508C38.5239 19.6508 18.4652 23.5861 18.4652 28.4406C18.4652 33.295 38.5239 37.2303 63.2675 37.2303Z" fill="#D4F6FF"/>
<path fill-rule="evenodd" clip-rule="evenodd" d="M63.0114 22.2109C63.0114 22.2109 54.9897 45.3375 58.0619 53.9566C61.1341 62.4903 70.1798 59.2475 69.8385 49.8603C69.4971 40.4732 63.0114 22.2109 63.0114 22.2109Z" fill="#FEFEFE"/>
<path fill-rule="evenodd" clip-rule="evenodd" d="M102.437 119.667C101.243 120.776 99.8773 121.629 98.5119 122.397V34.6702C99.9626 34.3288 101.243 33.9875 102.437 33.5608V119.667ZM94.245 124.019C92.6236 124.445 90.9169 124.701 89.2101 124.701H76.0681V37.7424C82.8951 37.3157 89.0394 36.633 94.245 35.6089V124.019Z" fill="#FEFEFE" fill-opacity="0.321569"/>
<path d="M68.3024 37.145H58.0619V37.9984H68.3024V37.145Z" fill="#B4EAF7"/>
<path fill-rule="evenodd" clip-rule="evenodd" d="M59.5127 10.4343C59.9394 10.4343 60.2807 10.6903 60.2807 11.1169V27.5871C60.2807 28.0138 59.9394 28.3552 59.5127 28.3552C59.086 28.3552 58.7446 28.0138 58.7446 27.5871V11.1169C58.7446 10.6903 59.086 10.4343 59.5127 10.4343ZM62.8409 0.193726C63.2676 0.193726 63.6089 0.535078 63.6089 0.961766V17.4319C63.6089 17.7733 63.2676 18.1146 62.8409 18.1146C62.4142 18.1146 62.0729 17.7733 62.0729 17.4319V0.961766C62.0729 0.535078 62.4142 0.193726 62.8409 0.193726Z" fill="#A9ABAE"/>
</svg>
