<svg  viewBox="0 0 126 126" fill="none" xmlns="http://www.w3.org/2000/svg">
<path fill-rule="evenodd" clip-rule="evenodd" d="M117.572 124.187C117.316 124.187 117.146 124.443 117.146 124.699C117.146 124.87 117.316 125.126 117.572 125.126C117.828 125.126 117.999 124.87 117.999 124.699C117.999 124.443 117.828 124.187 117.572 124.187ZM109.892 124.187H115.951C116.207 124.187 116.378 124.443 116.378 124.614C116.378 124.87 116.207 125.126 115.951 125.126H110.233C110.148 124.785 109.977 124.443 109.892 124.187Z" fill="#364886"/>
<path fill-rule="evenodd" clip-rule="evenodd" d="M8.42546 124.187C8.68147 124.187 8.85214 124.443 8.85214 124.699C8.85214 124.87 8.68147 125.126 8.42546 125.126C8.16945 125.126 7.99878 124.87 7.99878 124.699C7.99878 124.443 8.16945 124.187 8.42546 124.187ZM16.1059 124.187H10.0469C9.79087 124.187 9.62018 124.443 9.62018 124.614C9.62018 124.87 9.79087 125.126 10.0469 125.126H15.7645C15.8498 124.785 15.9352 124.443 16.1059 124.187Z" fill="#364886"/>
<path fill-rule="evenodd" clip-rule="evenodd" d="M64.7483 101.231C64.7483 101.231 63.6389 101.743 63.6389 102.853C63.6389 104.047 65.687 104.303 65.687 104.303V106.864L60.3108 111.216C60.3108 111.216 59.5427 111.898 59.5427 113.435C59.5427 114.971 59.5427 116.592 59.5427 116.592C59.5427 116.592 59.7134 118.043 61.8468 118.043C66.1137 118.043 70.3806 118.043 74.6475 118.043C76.6956 118.043 76.8663 116.592 76.8663 116.592C76.8663 116.592 76.8663 114.971 76.8663 113.435C76.8663 111.898 76.0982 111.216 76.0982 111.216L70.722 106.864V104.303C70.722 104.303 72.7701 104.047 72.7701 102.853C72.7701 101.743 71.746 101.231 71.746 101.231C69.3566 101.231 67.0524 101.231 64.7483 101.231Z" fill="#90CEF5"/>
<path fill-rule="evenodd" clip-rule="evenodd" d="M68.3325 91.3322C68.3325 91.3322 65.431 94.575 65.687 97.2205C66.0284 100.634 70.6366 100.634 70.8926 97.2205C71.1486 94.575 68.3325 91.3322 68.3325 91.3322Z" fill="#FCE631"/>
<path fill-rule="evenodd" clip-rule="evenodd" d="M68.3325 93.4656C68.3325 93.4656 66.455 95.5137 66.6257 97.2205C66.7964 99.4392 69.7832 99.4392 69.9539 97.2205C70.1246 95.5137 68.3325 93.4656 68.3325 93.4656Z" fill="#F74E3B"/>
<path fill-rule="evenodd" clip-rule="evenodd" d="M68.3325 95.5137C68.3325 95.5137 67.1378 96.7937 67.2231 97.9031C67.3938 99.2685 69.2712 99.2685 69.3566 97.9031C69.4419 96.7937 68.3325 95.5137 68.3325 95.5137Z" fill="#FEFEFE"/>
<path d="M65.8577 111.472C66.2348 111.472 66.5405 111.166 66.5405 110.789C66.5405 110.412 66.2348 110.106 65.8577 110.106C65.4807 110.106 65.175 110.412 65.175 110.789C65.175 111.166 65.4807 111.472 65.8577 111.472Z" fill="#FCE631"/>
<path d="M71.0633 111.472C71.4404 111.472 71.746 111.166 71.746 110.789C71.746 110.412 71.4404 110.106 71.0633 110.106C70.6863 110.106 70.3806 110.412 70.3806 110.789C70.3806 111.166 70.6863 111.472 71.0633 111.472Z" fill="#FCE631"/>
<path fill-rule="evenodd" clip-rule="evenodd" d="M24.4689 13.6748C25.749 13.6748 26.9437 14.7842 26.9437 16.1496V120.091C26.9437 121.456 25.749 122.566 24.4689 122.566C23.1035 122.566 21.9941 121.456 21.9941 120.091V16.1496C21.9941 14.7842 23.1035 13.6748 24.4689 13.6748Z" fill="#44B1F5"/>
<path fill-rule="evenodd" clip-rule="evenodd" d="M12.6071 31.5958C12.6071 30.2304 13.6311 29.121 14.8258 29.121H108.356C109.636 29.121 110.575 30.2304 110.575 31.5958C110.575 32.9612 109.636 34.0706 108.356 34.0706H14.8258C13.6311 34.0706 12.6071 32.9612 12.6071 31.5958Z" fill="#44B1F5"/>
<path d="M24.4689 38.8494C28.3807 38.8494 31.5519 35.6782 31.5519 31.7664C31.5519 27.8545 28.3807 24.6833 24.4689 24.6833C20.557 24.6833 17.3859 27.8545 17.3859 31.7664C17.3859 35.6782 20.557 38.8494 24.4689 38.8494Z" fill="#7982A3"/>
<path d="M24.469 34.5826C26.0243 34.5826 27.2851 33.3218 27.2851 31.7665C27.2851 30.2112 26.0243 28.9503 24.469 28.9503C22.9137 28.9503 21.6528 30.2112 21.6528 31.7665C21.6528 33.3218 22.9137 34.5826 24.469 34.5826Z" fill="#364886"/>
<path d="M24.4689 33.3025C25.3173 33.3025 26.005 32.6148 26.005 31.7664C26.005 30.9181 25.3173 30.2303 24.4689 30.2303C23.6206 30.2303 22.9329 30.9181 22.9329 31.7664C22.9329 32.6148 23.6206 33.3025 24.4689 33.3025Z" fill="#FEFEFE"/>
<path fill-rule="evenodd" clip-rule="evenodd" d="M60.7374 23.4886V42.4336C37.2696 47.4685 37.0989 89.54 68.3325 89.3693C96.4086 89.1133 101.614 50.4553 75.4155 42.4336V23.4886H60.7374Z" fill="#DDF6FC"/>
<path d="M74.5621 17.1737H61.5054C59.4788 17.1737 57.8359 18.5874 57.8359 20.3312C57.8359 22.075 59.4788 23.4887 61.5054 23.4887H74.5621C76.5887 23.4887 78.2316 22.075 78.2316 20.3312C78.2316 18.5874 76.5887 17.1737 74.5621 17.1737Z" fill="#C0EEFA"/>
<path fill-rule="evenodd" clip-rule="evenodd" d="M65.6017 19.7339C65.3457 19.7339 65.0896 19.9899 65.0896 20.2459C65.0896 20.5019 65.3457 20.6726 65.6017 20.6726C65.7723 20.6726 66.0283 20.5019 66.0283 20.2459C66.0283 19.9899 65.7723 19.7339 65.6017 19.7339ZM57.8359 20.6726C57.8359 20.5873 57.8359 20.5019 57.8359 20.3312C57.8359 20.1606 57.8359 19.9899 57.8359 19.7339H63.9802C64.1509 19.7339 64.4069 19.9899 64.4069 20.2459C64.4069 20.4166 64.1509 20.6726 63.9802 20.6726H57.8359Z" fill="#FEFEFE"/>
<path fill-rule="evenodd" clip-rule="evenodd" d="M68.3325 89.3694C83.8639 89.1987 92.3977 77.3368 92.4831 65.3895C89.2402 67.779 80.0237 69.2297 67.2231 66.7549C54.4224 64.2801 43.9259 65.6455 43.9259 65.6455C43.9259 77.5074 51.6063 89.4547 68.3325 89.3694Z" fill="#24C2E9"/>
<path fill-rule="evenodd" clip-rule="evenodd" d="M74.7329 67.779C83.608 68.547 89.923 67.267 92.4831 65.3895C92.4831 63.3414 92.2271 61.2933 91.8004 59.3306C90.179 59.3306 82.584 59.7572 77.8051 63.7681C76.525 64.8775 75.5009 66.3282 74.7329 67.779Z" fill="#1DA1C2"/>
<path fill-rule="evenodd" clip-rule="evenodd" d="M60.8228 8.38389C61.1641 8.38389 61.4201 8.46923 61.6762 8.55457C62.0175 7.10383 63.2976 5.90912 64.8337 5.73844C64.8337 5.65311 64.8337 5.56775 64.8337 5.48241C64.8337 2.83694 67.0524 0.618164 69.6979 0.618164C72.1727 0.618164 74.3061 2.49559 74.5622 4.88505C76.8663 5.31174 78.573 7.27452 78.573 9.66397C78.573 12.3948 76.3542 14.6135 73.6234 14.6135C72.7701 14.6135 72.002 14.3575 71.3193 14.0162C70.8073 15.2962 69.4419 16.235 67.9911 16.235C66.0284 16.235 64.4923 14.7842 64.3216 12.9921C63.7243 12.8215 63.2122 12.4801 62.7856 12.1388C62.3589 12.7361 61.6762 13.0775 60.8228 13.0775C59.5427 13.0775 58.5187 12.0534 58.5187 10.7734C58.5187 9.4933 59.5427 8.38389 60.8228 8.38389Z" fill="#9BD1DE"/>
<path fill-rule="evenodd" clip-rule="evenodd" d="M76.8663 113.435H59.5427C59.5427 114.971 59.5427 116.592 59.5427 116.592C59.5427 116.592 59.7134 118.043 61.8468 118.043C62.3589 118.043 62.9562 118.043 63.5536 118.043H74.6475C76.6956 118.043 76.8663 116.592 76.8663 116.592C76.8663 116.592 76.8663 114.971 76.8663 113.435Z" fill="#FCE631"/>
<path d="M68.7592 4.88508C68.9477 4.88508 69.1005 4.73227 69.1005 4.54375C69.1005 4.35523 68.9477 4.20239 68.7592 4.20239C68.5707 4.20239 68.4178 4.35523 68.4178 4.54375C68.4178 4.73227 68.5707 4.88508 68.7592 4.88508Z" fill="#364886"/>
<path d="M71.5754 6.59186C71.7639 6.59186 71.9167 6.43903 71.9167 6.25051C71.9167 6.06198 71.7639 5.90918 71.5754 5.90918C71.3868 5.90918 71.234 6.06198 71.234 6.25051C71.234 6.43903 71.3868 6.59186 71.5754 6.59186Z" fill="#364886"/>
<path d="M75.1596 9.49335C75.3481 9.49335 75.5009 9.34052 75.5009 9.15199C75.5009 8.96347 75.3481 8.81067 75.1596 8.81067C74.9711 8.81067 74.8182 8.96347 74.8182 9.15199C74.8182 9.34052 74.9711 9.49335 75.1596 9.49335Z" fill="#364886"/>
<path d="M72.8554 12.2241C73.0439 12.2241 73.1967 12.0712 73.1967 11.8827C73.1967 11.6942 73.0439 11.5414 72.8554 11.5414C72.6669 11.5414 72.514 11.6942 72.514 11.8827C72.514 12.0712 72.6669 12.2241 72.8554 12.2241Z" fill="#364886"/>
<path d="M70.8073 10.176C70.9958 10.176 71.1486 10.0232 71.1486 9.83464C71.1486 9.64612 70.9958 9.49329 70.8073 9.49329C70.6188 9.49329 70.4659 9.64612 70.4659 9.83464C70.4659 10.0232 70.6188 10.176 70.8073 10.176Z" fill="#364886"/>
<path d="M68.9299 13.6749C69.1184 13.6749 69.2712 13.5221 69.2712 13.3335C69.2712 13.145 69.1184 12.9922 68.9299 12.9922C68.7413 12.9922 68.5885 13.145 68.5885 13.3335C68.5885 13.5221 68.7413 13.6749 68.9299 13.6749Z" fill="#364886"/>
<path d="M66.1137 12.0534C66.3022 12.0534 66.455 11.9006 66.455 11.7121C66.455 11.5235 66.3022 11.3707 66.1137 11.3707C65.9252 11.3707 65.7723 11.5235 65.7723 11.7121C65.7723 11.9006 65.9252 12.0534 66.1137 12.0534Z" fill="#364886"/>
<path d="M61.4202 10.9441C61.6087 10.9441 61.7616 10.7912 61.7616 10.6027C61.7616 10.4142 61.6087 10.2614 61.4202 10.2614C61.2317 10.2614 61.0789 10.4142 61.0789 10.6027C61.0789 10.7912 61.2317 10.9441 61.4202 10.9441Z" fill="#364886"/>
<path d="M64.8337 8.89597C65.0222 8.89597 65.175 8.74314 65.175 8.55462C65.175 8.36609 65.0222 8.21326 64.8337 8.21326C64.6451 8.21326 64.4923 8.36609 64.4923 8.55462C64.4923 8.74314 64.6451 8.89597 64.8337 8.89597Z" fill="#364886"/>
<path d="M67.9058 7.70127C68.0943 7.70127 68.2472 7.54844 68.2472 7.35991C68.2472 7.17139 68.0943 7.01855 67.9058 7.01855C67.7173 7.01855 67.5645 7.17139 67.5645 7.35991C67.5645 7.54844 67.7173 7.70127 67.9058 7.70127Z" fill="#364886"/>
<path d="M68.1619 10.432C68.3504 10.432 68.5033 10.2791 68.5033 10.0906C68.5033 9.9021 68.3504 9.74927 68.1619 9.74927C67.9734 9.74927 67.8206 9.9021 67.8206 10.0906C67.8206 10.2791 67.9734 10.432 68.1619 10.432Z" fill="#364886"/>
<path fill-rule="evenodd" clip-rule="evenodd" d="M75.4156 42.0923V34.0705V29.1209V24.5127L72.7701 29.1209L69.954 34.0705L52.2891 65.2188C55.1052 65.3041 58.5187 65.4748 62.2736 65.9015L75.4156 42.0923Z" fill="#BAE9F5"/>
<path fill-rule="evenodd" clip-rule="evenodd" d="M80.2798 44.4818L68.3325 66.9256C69.4419 67.0963 70.466 67.2669 71.5753 67.4376L83.0959 46.2739C82.2426 45.5912 81.3038 44.9938 80.2798 44.4818Z" fill="#BAE9F5"/>
<path d="M68.7591 97.3911C68.7591 97.1555 68.5681 96.9645 68.3325 96.9645C68.0968 96.9645 67.9058 97.1555 67.9058 97.3911V109.68C67.9058 109.915 68.0968 110.106 68.3325 110.106C68.5681 110.106 68.7591 109.915 68.7591 109.68V97.3911Z" fill="#364886"/>
<path fill-rule="evenodd" clip-rule="evenodd" d="M63.3829 125.126H61.6762H12.9484C12.9484 125.126 13.119 119.494 16.5325 118.726C19.9461 117.872 24.4689 118.043 24.4689 118.043H63.5536H102.553C102.553 118.043 107.161 117.872 110.489 118.726C113.903 119.494 114.074 125.126 114.074 125.126H63.3829Z" fill="#44B1F5"/>
<path fill-rule="evenodd" clip-rule="evenodd" d="M29.6745 121.542C29.9305 121.542 30.1012 121.798 30.1012 122.054C30.1012 122.31 29.9305 122.48 29.6745 122.48C29.4185 122.48 29.1625 122.31 29.1625 122.054C29.1625 121.798 29.4185 121.542 29.6745 121.542ZM28.4798 122.054C28.4798 121.798 28.2238 121.542 28.0531 121.542H26.4317H22.5061H13.7164C13.5457 121.883 13.4603 122.139 13.375 122.48H23.7009H25.1516H28.0531C28.2238 122.48 28.4798 122.224 28.4798 122.054Z" fill="#FEFEFE"/>
<path fill-rule="evenodd" clip-rule="evenodd" d="M97.4327 121.542C97.1766 121.542 96.9207 121.798 96.9207 122.054C96.9207 122.31 97.1766 122.48 97.4327 122.48C97.6033 122.48 97.8594 122.31 97.8594 122.054C97.8594 121.798 97.6033 121.542 97.4327 121.542ZM98.5421 122.054C98.5421 121.798 98.7981 121.542 99.0541 121.542H100.676H104.601H113.305C113.476 121.883 113.561 122.139 113.647 122.48H103.321H101.956H99.0541C98.7981 122.48 98.5421 122.224 98.5421 122.054Z" fill="#FEFEFE"/>
<path d="M59.9694 79.8969C61.3362 79.8969 62.4442 78.7889 62.4442 77.4221C62.4442 76.0553 61.3362 74.9473 59.9694 74.9473C58.6026 74.9473 57.4946 76.0553 57.4946 77.4221C57.4946 78.7889 58.6026 79.8969 59.9694 79.8969Z" fill="#FEFEFE"/>
<path d="M68.1619 74.35C69.2459 74.35 70.1246 73.4712 70.1246 72.3872C70.1246 71.3032 69.2459 70.4244 68.1619 70.4244C67.0779 70.4244 66.1991 71.3032 66.1991 72.3872C66.1991 73.4712 67.0779 74.35 68.1619 74.35Z" fill="#FEFEFE"/>
<path d="M75.0742 79.3849C76.1582 79.3849 77.037 78.5062 77.037 77.4221C77.037 76.3381 76.1582 75.4594 75.0742 75.4594C73.9902 75.4594 73.1115 76.3381 73.1115 77.4221C73.1115 78.5062 73.9902 79.3849 75.0742 79.3849Z" fill="#FEFEFE"/>
</svg>
