<svg viewBox="0 0 126 126" fill="none" xmlns="http://www.w3.org/2000/svg">
<path fill-rule="evenodd" clip-rule="evenodd" d="M46.7607 49.6021C48.2967 49.6021 49.8328 49.858 51.1982 50.3701C54.8677 51.7355 56.2332 56.429 56.4038 60.0985C56.9159 68.6323 54.6971 73.0699 53.929 73.7526C51.8809 75.118 49.4061 75.8861 46.7607 75.8861C39.507 75.8861 33.6187 69.9978 33.6187 62.7441C33.6187 55.4904 39.507 49.6021 46.7607 49.6021Z" fill="url(#paint0_radial)"/>
<path d="M100.523 88.0894C104.954 88.0894 108.545 84.4979 108.545 80.0677C108.545 75.6374 104.954 72.0459 100.523 72.0459C96.0932 72.0459 92.5017 75.6374 92.5017 80.0677C92.5017 84.4979 96.0932 88.0894 100.523 88.0894Z" fill="url(#paint1_radial)"/>
<path d="M22.1838 67.3072V62.0307H16.9466V59.8256H22.1838V54.5884H24.4152V59.8256H29.6523V62.0307H24.4152V67.3072H22.1838Z" fill="#373435"/>
<path d="M15.4503 74.2507H31.1486V76.2195H15.4503V74.2507Z" fill="#373435"/>
<path d="M90.8222 59.1036H78.1166V56.8985H90.8222V59.1036ZM90.8222 64.9446H78.1166V62.7395H90.8222V64.9446Z" fill="#373435"/>
<path d="M76.6202 74.2507H92.3185V76.2195H76.6202V74.2507Z" fill="#373435"/>
<defs>
<radialGradient id="paint0_radial" cx="0" cy="0" r="1" gradientUnits="userSpaceOnUse" gradientTransform="translate(41.0852 62.7498) scale(156.849 180.068)">
<stop stop-color="#F6BEB2"/>
<stop offset="1" stop-color="#F53938"/>
</radialGradient>
<radialGradient id="paint1_radial" cx="0" cy="0" r="1" gradientUnits="userSpaceOnUse" gradientTransform="translate(100.059 83.6735) rotate(-0.206757) scale(170.998 170.998)">
<stop stop-color="#79D9F1"/>
<stop offset="1" stop-color="#087E9C"/>
</radialGradient>
</defs>
</svg>