<svg viewBox="0 0 115 114" fill="none" xmlns="http://www.w3.org/2000/svg">
<path fill-rule="evenodd" clip-rule="evenodd" d="M56.6717 29.0054C50.6018 20.2799 37.3237 16.1068 25.9426 18.7624C3.18026 23.6942 -3.64837 56.6995 3.18032 75.6681C10.009 95.3954 35.8063 117.02 68.0528 113.605C100.299 110.191 115.854 77.9444 114.716 62.3901C113.957 46.8359 102.576 40.3865 90.4358 40.3865C72.6053 40.3865 69.5704 46.8359 56.6717 29.0054Z" fill="url(#paint0_linear)"/>
<path d="M95.3676 2.06995H22.5282C20.852 2.06995 19.4933 3.42875 19.4933 5.10492V49.8708C19.4933 51.5469 20.852 52.9058 22.5282 52.9058H95.3676C97.0438 52.9058 98.4025 51.5469 98.4025 49.8708V5.10492C98.4025 3.42875 97.0438 2.06995 95.3676 2.06995Z" fill="#3F769D"/>
<path d="M27.5837 28.5543C27.5837 29.343 28.1095 29.9815 29.0485 29.9815C29.9874 29.9815 30.5132 29.343 30.5132 28.5543V14.4326H34.4192C35.1704 14.4326 35.7713 13.8316 35.7713 13.0429C35.7713 12.2542 35.1704 11.6533 34.4192 11.6533H30.5132V9.3247C30.5132 7.18391 31.64 5.38113 33.8559 5.38113C34.9075 5.38113 35.5084 5.64404 36.1469 5.64404C36.8981 5.64404 37.5741 5.11823 37.5741 4.2544C37.5741 2.52674 34.7573 2.52674 34.1563 2.5643C30.4006 2.71453 27.5837 4.85532 27.5837 9.62516V28.5543ZM42.5731 21.4934C42.5731 16.3856 43.6623 11.2401 46.1786 6.77077C46.3664 6.43275 46.5542 6.09473 46.5542 5.75671C46.5542 4.968 46.1035 4.17928 45.127 4.17928C44.6388 4.17928 44.1881 4.40463 43.8876 4.89288C40.883 9.85051 39.606 15.8598 39.606 21.4934C39.606 27.1271 40.883 33.1363 43.8876 38.094C44.1881 38.5822 44.6388 38.8076 45.127 38.8076C46.1035 38.8076 46.5542 38.0189 46.5542 37.2301C46.5542 36.8921 46.3664 36.5541 46.1786 36.2161C43.6623 31.7467 42.5731 26.6013 42.5731 21.4934ZM57.3471 20.1038L62.2672 12.7049C62.4174 12.4796 62.455 12.2167 62.455 11.9913C62.455 11.2026 61.7038 10.6017 61.0278 10.6017C60.3517 10.6017 60.0137 10.9772 59.6381 11.5782L55.6946 17.7001L51.9012 11.8786C51.5256 11.3153 51.0749 10.6017 50.2487 10.6017C49.4224 10.6017 48.7839 11.3153 48.7839 12.104C48.7839 12.2918 48.859 12.5547 49.0093 12.7425L53.9293 20.1789L48.6712 27.9909C48.521 28.2163 48.4835 28.4041 48.4835 28.6294C48.4835 29.4932 49.1595 30.0942 49.9858 30.0942C50.474 30.0942 50.8496 29.8688 51.1876 29.343L55.6194 22.545L59.8635 29.0801C60.3142 29.7937 60.6146 30.0942 61.2907 30.0942C62.1921 30.0942 62.793 29.3806 62.793 28.5543C62.793 28.3665 62.7554 28.1412 62.6052 27.9158L57.3471 20.1038ZM68.6394 21.4934C68.6394 26.6013 67.5502 31.7467 65.0338 36.2161C64.846 36.5541 64.6583 36.8921 64.6583 37.2301C64.6583 38.0189 65.1089 38.8076 66.0854 38.8076C66.5737 38.8076 67.0244 38.5822 67.3249 38.094C70.3295 33.1363 71.6064 27.1271 71.6064 21.4934C71.6064 15.8598 70.3295 9.85051 67.3249 4.89288C67.0244 4.40463 66.5737 4.17928 66.0854 4.17928C65.1089 4.17928 64.6583 4.968 64.6583 5.75671C64.6583 6.09473 64.846 6.43275 65.0338 6.77077C67.5502 11.2401 68.6394 16.3856 68.6394 21.4934ZM77.4801 18.4137C76.729 18.4137 76.0154 19.0522 76.0154 19.8784C76.0154 20.7047 76.6539 21.3432 77.4801 21.3432H89.4235C90.2498 21.3432 90.8883 20.7047 90.8883 19.8784C90.8883 19.0522 90.1747 18.4137 89.4235 18.4137H77.4801ZM77.4801 11.6533C76.729 11.6533 76.0154 12.2918 76.0154 13.118C76.0154 13.9443 76.6539 14.5828 77.4801 14.5828H89.4235C90.2498 1a4.5828 90.8883 13.9443 90.8883 13.118C90.8883 12.2918 90.1747 11.6533 89.4235 11.6533H77.4801Z" fill="#FEFEFE"/>
<path d="M21.3901 0.173096H96.1263C97.6438 0.173096 98.7819 0.552475 99.5407 1.31122C100.299 2.06996 100.679 3.20808 100.679 4.72557V50.2502C100.679 51.7677 100.299 52.9058 99.5407 53.6645C98.7819 54.4233 97.6438 55.182 96.1263 55.182H69.9496L86.2626 77.5649C87.4007 78.703 87.0213 80.5999 85.5038 81.738C84.3657 82.8761 82.469 82.4968 81.3309 80.9793L70.7084 66.5631L61.9828 71.1156V86.6698C61.9828 88.5667 60.4654 89.7048 58.9479 89.7048C57.0511 89.7048 55.9129 88.5667 55.9129 86.6698V70.7363L47.1874 66.1838L36.1855 80.9793C35.4268 82.4968 33.5299 82.8761 32.0124 81.738C30.8743 80.5999 30.495 78.703 31.6331 77.5649L47.9461 55.182H21.3901C20.252 55.182 18.7345 54.4233 17.9757 53.6645C17.217 52.9058 16.8376 51.7677 16.8376 50.2502V4.72557C16.8376 3.20808 17.217 2.06996 17.9757 1.31122C18.7345 0.552475 20.252 0.173096 21.3901 0.173096ZM62.3623 55.182H61.9828V68.0806L69.191 64.2869L62.3623 55.182ZM55.9129 55.182H55.5336L49.0842 63.9076L55.9129 67.7013V55.182ZM96.1263 2.8287H21.3901C21.0107 2.8287 20.2519 3.20807 19.8725 3.20807C19.8725 3.58744 19.4932 4.3462 19.4932 4.72557V50.2502C19.4932 51.0089 19.8725 51.3883 19.8725 51.7677C20.2519 52.147 21.0107 52.147 21.3901 52.147H96.1263C96.8851 52.147 97.2645 52.147 97.6439 51.7677C98.0232 51.3883 98.0232 51.0089 98.0232 50.2502V4.72557C98.0232 4.3462 98.0232 3.58744 97.6439 3.20807C97.2645 3.20807 96.8851 2.8287 96.1263 2.8287Z" fill="#FEFEFE"/>
<defs>
<linearGradient id="paint0_linear" x1="27.0807" y1="41.904" x2="136.719" y2="185.686" gradientUnits="userSpaceOnUse">
<stop stop-color="#8089C3"/>
<stop offset="1" stop-color="#060669"/>
</linearGradient>
</defs>
</svg>
