<svg viewBox="0 0 116 124" fill="none" xmlns="http://www.w3.org/2000/svg">
<path fill-rule="evenodd" clip-rule="evenodd" d="M57.0085 38.8364C50.9385 30.1109 37.6605 25.5584 26.2793 28.214C3.517 33.1459 -3.69108 66.1512 3.13761 85.1198C10.3457 104.847 35.7636 126.851 68.3896 123.436C100.636 120.022 116.57 87.7754 115.432 72.2211C114.294 56.6669 103.292 49.8382 90.7725 49.8382C72.942 49.8382 69.9071 56.6669 57.0085 38.8364Z" fill="url(#paint0_linear)"/>
<g filter="url(#filter0_d)">
<path d="M35.4353 54.112C35.4353 53.3533 35.4353 52.2152 35.4353 51.077C35.8146 48.4214 35.8146 45.0071 34.6765 43.1102C34.2971 42.3515 33.5383 41.5928 32.4002 40.4547C29.7446 37.0403 25.5715 32.4878 25.5715 26.7973V26.4179C25.5715 21.4861 27.089 17.313 29.7446 14.6574C35.4352 8.96679 47.9545 8.96679 53.6451 14.6574C56.3007 17.313 57.8182 21.4861 57.8182 26.4179C57.8182 26.4179 57.8181 26.7973 58.1975 26.7973C58.1975 32.4878 54.0245 37.0403 50.9895 40.4547C49.8514 41.5928 49.0926 42.3515 48.7132 43.1102C47.9545 45.0071 47.9544 48.4214 47.9544 51.077C47.9544 52.2152 47.9544 53.3533 47.9544 54.112C47.5751 60.9407 36.194 60.9407 35.4353 54.112ZM41.8845 19.9686C46.437 19.9686 49.8513 23.3829 49.8513 27.9354C49.8513 32.1085 46.8164 35.5228 43.0227 35.9022V47.2833H45.6783C45.6783 45.3865 46.0576 43.4896 46.8164 41.9721C47.1957 41.2134 48.3339 40.0753 49.472 38.9372C52.1276 35.9022 55.5419 31.7291 55.5419 26.7973V26.4179C55.5419 21.8654 54.4038 18.4511 52.1276 16.1749C47.1957 11.243 36.1939 11.243 31.6415 16.1749C29.3652 18.4511 27.8478 21.8654 27.8478 26.4179V26.7973C27.8478 31.7291 31.6414 35.9022 34.297 38.9372C35.4352 40.0753 36.194 41.2134 36.9528 41.9721C37.7115 43.4896 37.7115 45.3865 38.0908 47.2833H40.367V35.9022C36.5733 35.5228 33.5384 32.1085 33.5384 27.9354C33.5384 23.3829 37.332 19.9686 41.8845 19.9686ZM67.6818 9.72555L59.3356 18.0717C59.3356 18.0717 60.0943 20.348 60.8531 23.7623L60.4738 23.3829V22.2448C61.9913 22.2448 63.1293 21.8654 64.2674 21.8654C65.7849 21.8654 66.9231 22.2448 68.0612 22.2448V24.9004C68.82 24.9004 69.5787 25.2798 69.9581 25.6591L71.8549 24.1417C74.1311 25.2798 75.6486 27.1766 77.1661 29.0735L75.2692 30.9704C75.6486 31.3497 76.028 32.1085 76.028 32.8672H78.6836C79.063 34.0053 79.0629 35.5228 79.0629 36.6609C79.0629 37.799 79.063 39.3165 78.6836 40.4547H76.028C76.028 41.2134 75.6486 41.5928 75.2692 42.3515L77.1661 44.2484C75.6486 46.1452 74.1311 48.0421 71.8549 49.1802L69.9581 47.6627C69.5787 48.0421 68.82 48.4215 68.0612 48.4215V51.077C66.9231 51.077 65.7849 51.4564 64.2674 51.4564C63.1293 51.4564 61.9913 51.077 60.4738 51.077V48.4215C60.0944 48.4215 59.3357 48.0421 58.577 47.6627L56.68 49.1802C54.7831 48.0421 53.2657 46.5246 52.1276 44.6277C51.7482 45.0071 51.7482 45.3865 51.7482 45.7659C51.3689 46.904 51.3688 48.0421 51.3688 49.1802C51.7482 49.1802 52.5069 49.1802 53.2656 49.1802C54.0244 49.1802 54.7832 49.1802 55.1626 49.5596V50.6977C55.9213 51.0771 56.3006 51.0771 56.68 51.4564L57.4387 50.3183C58.9562 51.077 60.0943 52.2152 60.8531 53.3533L59.715 54.4914C59.715 54.8708 60.0943 55.2501 60.0943 55.6295H61.6118C61.6118 56.3882 61.9913 57.147 61.9913 57.9058C61.9913 58.6645 61.6118 59.4232 61.6118 60.182H60.0943C60.0943 60.5614 59.715 60.9407 59.715 61.3201L60.8531 62.4582C60.0943 63.5963 58.9562 64.7344 57.4387 65.4932L56.68 64.3551C56.3006 64.7344 55.9213 64.7344 55.1626 65.1138V66.2519C54.7832 66.6313 54.0244 66.6313 53.2656 66.6313C52.5069 66.6313 51.7482 66.6313 50.9895 66.2519V65.1138C50.6101 64.7344 50.2306 64.7344 49.8513 64.3551L48.7132 65.4932C47.5751 64.7344 46.437 63.5963 45.6783 62.4582L46.0576 62.0788C44.9195 62.4582 43.7814 62.4582 42.6433 62.4582C39.2289 62.4582 36.5734 61.3201 34.6765 59.4232C32.7796 57.5264 32.0208 56.3883 31.6415 54.112C30.8827 51.4564 29.7446 51.8358 29.7446 51.8358L27.4685 52.9739C27.4685 52.9739 32.0208 61.6995 34.297 73.46C36.5733 84.4618 31.2621 89.773 31.2621 89.773L33.159 91.2905L65.785 97.3604H66.923H68.0612V86.3586C69.5787 86.738 71.0962 86.738 72.6137 87.1174C83.9948 88.2555 84.7536 86.738 86.2711 82.9443C87.4092 81.0474 88.1678 78.3918 88.5472 76.1156C88.9266 74.2187 88.9267 72.7012 88.9267 71.1838C90.8235 70.425 92.3409 68.5282 91.2028 65.4932C90.444 63.9757 89.6854 62.0788 89.6854 61.3201C90.4442 60.182 92.7204 62.0788 94.9966 60.182C96.8935 56.3883 93.0996 50.6977 91.2028 49.1802C91.2028 46.904 91.9616 39.6959 89.306 29.4529C85.8916 16.9336 67.6818 9.72555 67.6818 9.72555ZM60.8531 27.556V27.9354V27.556ZM60.8531 28.6941V29.0735V28.6941ZM60.8531 29.4529C60.8531 30.2116 60.4738 30.9704 60.4738 31.7291C59.715 34.3847 58.1975 36.6609 56.3007 38.9372L56.68 38.5578C57.4387 41.9721 60.4737 44.6277 64.2674 44.6277C68.8199 44.6277 72.2342 41.2134 72.2342 36.6609C72.2342 32.1085 68.8199 28.6941 64.2674 28.6941C63.1293 28.6941 61.9912 29.0735 60.8531 29.4529ZM51.3688 53.3533C51.3688 55.6295 50.9895 57.147 50.2307 58.2851C49.8514 59.0439 49.4719 59.8026 48.7132 60.182H49.0927C49.8514 61.6995 51.3688 62.8376 53.2656 62.8376C55.9212 62.8376 57.8182 60.5614 57.8182 57.9058C57.8182 55.2501 55.9212 52.9739 53.2656 52.9739C52.5069 52.9739 51.7482 53.3533 51.3688 53.3533ZM24.8127 75.7362L25.951 79.5299L29.7446 80.2887L25.951 81.0474L24.8127 84.8411L24.0541 81.0474L20.2603 80.2887L24.0541 79.5299L24.8127 75.7362ZM19.5016 57.147L21.0191 64.3551L28.2271 65.8726L21.0191 67.7694L19.5016 74.9775L17.6047 67.7694L10.3967 65.8726L17.6047 64.3551L19.5016 57.147ZM98.0315 21.4861L98.7903 25.2798L102.584 26.0385L98.7903 26.7973L98.0315 30.591L97.2727 26.7973L93.4791 26.0385L97.2727 25.2798L98.0315 21.4861ZM92.341 2.89685L94.2378 10.1049L101.446 12.0018L94.2378 13.5193L92.341 20.7273L90.8235 13.5193L83.6155 12.0018L90.8235 10.1049L92.341 2.89685ZM19.1223 2.89685L28.6066 12.7605L27.089 14.278L17.6047 4.41433L19.1223 2.89685ZM43.0227 1V7.4493H40.7464V1H43.0227ZM66.1643 4.41433L56.68 14.278L54.7831 12.7605L64.2674 2.89685L66.1643 4.41433ZM38.0908 49.5596L37.7114 51.077H45.6783V49.5596H38.0908ZM37.7114 53.3533V53.7327C38.0908 57.5264 45.2989 57.5264 45.6783 53.7327V53.3533H37.7114Z" fill="#FEFEFE"/>
</g>
<defs>
<filter id="filter0_d" x="9.39673" y="0" width="96.1873" height="100.36" filterUnits="userSpaceOnUse" color-interpolation-filters="sRGB">
<feFlood flood-opacity="0" result="BackgroundImageFix"/>
<feColorMatrix in="SourceAlpha" type="matrix" values="0 0 0 0 0 0 0 0 0 0 0 0 0 0 0 0 0 0 127 0"/>
<feOffset dx="1" dy="1"/>
<feGaussianBlur stdDeviation="1"/>
<feColorMatrix type="matrix" values="0 0 0 0 0 0 0 0 0 0 0 0 0 0 0 0 0 0 0.25 0"/>
<feBlend mode="normal" in2="BackgroundImageFix" result="effect1_dropShadow"/>
<feBlend mode="normal" in="SourceGraphic" in2="effect1_dropShadow" result="shape"/>
</filter>
<linearGradient id="paint0_linear" x1="27.4174" y1="51.3557" x2="137.435" y2="195.896" gradientUnits="userSpaceOnUse">
<stop stop-color="#EAE33D"/>
<stop offset="1" stop-color="#69673A"/>
</linearGradient>
</defs>
</svg>
