<svg viewBox="0 0 126 125" fill="none" xmlns="http://www.w3.org/2000/svg">
<path fill-rule="evenodd" clip-rule="evenodd" d="M54.3253 24.1737C75.4037 19.3095 96.3968 32.3661 101.346 53.4445C106.211 74.5229 93.0686 95.6013 71.9902 100.466C50.9972 105.33 29.9188 92.2732 25.0545 71.1948C20.1049 50.1163 33.2469 29.0379 54.3253 24.1737Z" fill="#E6E7E8"/>
<path d="M111.672 56.6873C111.502 55.7485 111.416 54.8098 111.246 53.8711L108.515 54.3831C108.686 55.2365 108.771 56.0899 108.941 57.0286L111.672 56.6873Z" fill="#373435"/>
<path d="M111.672 67.952C111.758 67.0132 111.843 66.0745 111.928 65.1358L109.112 64.9651C109.112 65.9038 109.027 66.7572 108.941 67.6106L111.672 67.952Z" fill="#373435"/>
<path d="M109.027 78.9605C109.368 78.1072 109.624 77.1685 109.965 76.2297L107.32 75.4617C107.064 76.315 106.723 77.1684 106.467 78.0218L109.027 78.9605Z" fill="#373435"/>
<path d="M103.992 89.0303C104.504 88.2622 105.016 87.4941 105.443 86.6408L103.053 85.2754C102.627 86.0434 102.2 86.8114 101.688 87.5795L103.992 89.0303Z" fill="#373435"/>
<path d="M96.7382 97.7347C97.4209 97.052 98.1036 96.3693 98.7863 95.6866L96.7382 93.8092C96.1409 94.4919 95.4581 95.0892 94.8608 95.7719L96.7382 97.7347Z" fill="#373435"/>
<path d="M15.838 73.9255C16.0087 74.8642 16.2647 75.8029 16.5207 76.6563L19.1662 75.8883C18.9102 75.0349 18.6542 74.1815 18.4835 73.3281L15.838 73.9255Z" fill="#373435"/>
<path d="M14.3873 62.7463C14.3873 63.6851 14.4726 64.6238 14.4726 65.5625L17.2034 65.3918C17.2034 64.5384 17.1181 63.5997 17.1181 62.7463H14.3873Z" fill="#373435"/>
<path d="M15.582 51.567C15.4113 52.4204 15.2407 53.3591 15.07 54.2978L17.8008 54.7245C17.8861 53.8712 18.0568 53.0178 18.3128 52.1644L15.582 51.567Z" fill="#373435"/>
<path d="M19.3369 40.8999C18.9102 41.7533 18.5688 42.6066 18.2275 43.46L20.7023 44.4841C21.0436 43.716 21.4704 42.8627 21.8117 42.0946L19.3369 40.8999Z" fill="#373435"/>
<path d="M25.4812 31.342C24.8838 32.1101 24.2864 32.8781 23.7744 33.6461L25.9932 35.1822V35.2676C26.5052 34.4995 27.0173 33.8168 27.6146 33.1341L25.4812 31.342Z" fill="#373435"/>
<path d="M33.5882 23.491C32.8202 24.0883 32.1375 24.6857 31.3694 25.2831L33.1615 27.4165C33.8442 26.8191 34.5269 26.2218 35.295 25.7098L33.5882 23.491Z" fill="#373435"/>
<path fill-rule="evenodd" clip-rule="evenodd" d="M59.9576 48.4949C67.638 46.7028 75.233 51.4817 77.0251 59.0768C78.8172 66.7572 74.0383 74.4376 66.3579 76.1443C58.7628 77.9364 51.0824 73.1575 49.2903 65.5625C47.5836 57.8821 52.2772 50.287 59.9576 48.4949ZM53.3012 34.9262L59.9576 33.3901L63.3711 37.3157C66.0166 37.3157 68.662 37.7424 71.1368 38.5957L75.5744 35.9503L81.3773 39.6198L81.036 44.7401C82.8281 46.6175 84.3641 48.7509 85.5589 51.1404L90.5938 52.4205L92.1299 59.0768L88.2044 62.4903C88.2044 65.1358 87.7777 67.7812 86.9243 70.256L89.5697 74.6936L85.9002 80.4966L80.78 80.1552C78.9025 81.9473 76.7691 83.5687 74.3797 84.7635L73.0143 89.713L66.3579 91.2491L63.0297 87.3236C60.2989 87.3236 57.7388 86.8969 55.264 86.0435L50.7411 88.689L44.9382 85.1048L45.3648 79.8992C43.4874 78.0217 41.9513 75.8883 40.7566 73.4988L35.7217 72.2188L34.1856 65.5625L38.1111 62.149C38.1965 59.5035 38.6232 56.858 39.3912 54.3832L36.8311 49.9457L40.4153 44.1427L45.6208 44.484C47.4129 42.6919 49.6317 41.1559 52.0212 39.9611L53.3012 34.9262Z" fill="#FEFEFE"/>
<path d="M59.5309 46.7028C63.8831 45.6788 68.15 46.5321 71.6488 48.6656C75.1477 50.8844 77.7932 54.3832 78.8172 58.7354C79.8413 63.0023 78.9879 67.3545 76.7691 70.8534C74.6356 74.2669 71.1368 76.9977 66.7846 77.9364C62.5177 78.9605 58.1655 78.1071 54.6667 75.9736C51.1678 73.7548 48.5223 70.256 47.4983 65.9891C46.5595 61.6369 47.413 57.2847 49.5464 53.8712C51.7652 50.3723 55.264 47.6415 59.5309 46.7028ZM69.7714 51.8231C67.0406 50.1163 63.7124 49.519 60.3843 50.287C57.0561 51.0551 54.3253 53.1032 52.6186 55.7486C50.9972 58.4794 50.3144 61.8076 51.0825 65.1358C51.8505 68.4639 53.8986 71.1947 56.6294 72.8162C59.2749 74.5229 62.6031 75.2056 66.0166 74.3522C69.3448 73.5842 71.9902 71.5361 73.6969 68.8906C75.4037 66.1598 76.001 62.8316 75.233 59.5034C74.465 56.1753 72.4169 53.4445 69.7714 51.8231ZM52.8746 33.1341L60.6403 31.342L64.2244 35.4382C65.3338 35.5236 66.4433 35.6089 67.5527 35.7796C68.7474 36.0356 69.7714 36.2916 70.8808 36.5476L75.5744 33.8168L83.2548 38.5957L82.9134 44.0573C83.6814 44.9107 84.3642 45.7641 85.0469 46.7028C85.6442 47.6415 86.2416 48.5802 86.8389 49.6043L92.1299 50.9697L94.178 59.7595L89.9965 63.3437C89.9965 64.5384 89.8258 65.6478 89.6551 66.7572C89.4844 67.8666 89.2284 68.976 88.8871 70L91.7032 74.7789L86.9243 82.4593L81.4627 82.0326C80.6093 82.8006 79.756 83.4833 78.8172 84.166C77.8785 84.8487 76.9398 85.4461 75.9157 85.9582L74.5504 91.2491L65.7605 93.2972L62.1763 89.201C60.9816 89.1156 59.8722 89.0303 58.7628 88.8596C57.6534 88.6036 56.5441 88.3476 55.4347 88.0916L50.7411 90.8224L43.0607 86.0435L43.4874 80.5819C42.7193 79.7285 41.9513 78.8751 41.3539 77.9364C40.6712 77.083 40.0739 76.059 39.5618 75.1203L34.1856 73.6695L32.1375 64.8798L36.319 61.2956C36.4044 60.1009 36.4897 58.9915 36.6604 57.8821C36.8311 56.7727 37.0871 55.6632 37.4284 54.6392L34.6976 49.8603L39.4766 42.1799L44.9382 42.6066C45.7915 41.8386 46.6449 41.1559 47.5836 40.4732C48.437 39.7905 49.3757 39.1931 50.3998 38.6811L51.8505 33.3901L52.8746 33.1341ZM59.2749 35.4382L54.752 36.4623L53.5572 41.1559L52.7892 41.5825C51.6798 42.0946 50.6558 42.6919 49.7171 43.46C48.693 44.1427 47.7543 44.9107 46.9009 45.7641L46.3035 46.3615L41.4393 46.0201L38.9645 49.9457L41.4393 54.2125L41.1833 54.9806C40.7566 56.1753 40.5006 57.2847 40.2446 58.5647C40.0739 59.7594 39.9886 60.9542 39.9886 62.149V63.0023L36.2337 66.1598L37.2578 70.6827L42.0366 71.9628L42.378 72.7308C42.9754 73.7549 43.5727 74.8643 44.2554 75.803C45.0235 76.827 45.7915 77.7658 46.6449 78.6191L47.2423 79.2165L46.9009 84.0807L50.8264 86.5555L55.008 84.0807L55.8614 84.3367C56.9708 84.7634 58.1655 85.0194 59.3602 85.1901C60.5549 85.4461 61.835 85.5315 63.0297 85.5315H63.7978L67.0406 89.2863L71.5635 88.1769L72.8436 83.4834L73.5263 83.0567C74.6357 82.5446 75.6597 81.9473 76.6838 81.1792C77.6225 80.4965 78.5612 79.7285 79.4999 78.8751L80.012 78.2778L84.9615 78.6191L87.4363 74.6936L84.9615 70.4267L85.2176 69.6586C85.5589 68.5493 85.9003 67.3546 86.0709 66.1598C86.2416 64.8798 86.4123 63.685 86.4123 62.4903V61.6369L90.0818 58.4794L89.0577 53.9565L84.2788 52.6765L83.9375 51.9084C83.4255 50.8843 82.7427 49.8603 82.06 48.8363C81.3773 47.8122 80.6093 46.9588 79.6706 46.0201L79.1585 45.4227L79.4999 40.5585L75.5744 38.0837L71.3075 40.5585L70.5395 40.3025C69.3447 39.9611 68.15 39.6198 66.9552 39.4491C65.7605 39.1931 64.5658 39.1078 63.3711 39.1078H62.5177L59.2749 35.4382Z" fill="#1B3650"/>
<path fill-rule="evenodd" clip-rule="evenodd" d="M107.917 11.629H105.528L82.5721 3.86324C82.5721 3.86324 78.6466 2.32717 75.4037 3.86324C72.1609 5.31398 71.3075 5.82601 71.3075 5.82601L45.4502 19.3947C45.4502 19.3947 42.0367 21.2721 42.5487 24.771C43.1461 28.2698 45.4502 31.0006 48.693 31.0006C51.9358 31.0006 67.2113 25.283 67.2113 25.283C67.2113 25.283 69.4301 30.0619 71.7342 31.2566C74.0383 32.5367 87.9484 32.1954 87.9484 32.1954L96.9942 37.2303H107.917V40.7291H125.497V8.81281H107.917V11.629Z" fill="#193651"/>
<path fill-rule="evenodd" clip-rule="evenodd" d="M107.917 15.2986V33.4755H98.3595L89.7404 29.0379C89.7404 29.0379 88.375 28.5259 84.7908 28.5259C81.2066 28.5259 73.5262 28.5259 73.5262 28.5259C73.5262 28.5259 71.2221 27.9285 71.2221 25.7098C71.3074 23.491 73.953 22.9789 73.953 22.9789L85.1322 22.8936C85.1322 22.8936 87.0096 22.9789 88.7163 20.8455C90.4231 18.712 90.0818 17.5173 90.0818 17.5173H86.3269C86.3269 17.5173 86.2415 19.0534 84.7055 19.0534C83.1694 19.0534 74.3796 19.0534 74.3796 19.0534C74.3796 19.0534 71.7342 19.8214 67.2113 21.3575C62.6884 22.8936 49.8877 27.3312 49.8877 27.3312C49.8877 27.3312 47.4983 28.0992 46.4742 25.7951C45.4502 23.5763 48.7783 22.0402 48.7783 22.0402L76.257 7.44747C76.257 7.44747 78.1345 6.33809 81.804 7.61815C85.3882 8.81288 104.674 15.2986 104.674 15.2986H107.917Z" fill="#FEFEFE"/>
<path d="M121.571 12.7384H111.843V36.7183H121.571V12.7384Z" fill="#4FBF9F"/>
<path fill-rule="evenodd" clip-rule="evenodd" d="M18.5688 113.266H20.9582L43.9141 120.947C43.9141 120.947 47.8397 122.483 51.0825 120.947C54.3253 119.496 55.1787 118.984 55.1787 118.984L80.9507 105.415C80.9507 105.415 84.4495 103.538 83.9375 100.039C83.3401 96.54 80.9507 93.8092 77.7078 93.8092C74.5503 93.8092 59.1896 99.5268 59.1896 99.5268C59.1896 99.5268 57.0561 94.8333 54.752 93.5532C52.4479 92.2731 38.5379 92.6145 38.5379 92.6145L29.492 87.5795H18.5688V84.166H0.989258V115.997H18.5688V113.266Z" fill="#1B3650"/>
<path fill-rule="evenodd" clip-rule="evenodd" d="M18.5688 109.511V91.4198H28.1266L36.7458 95.772C36.7458 95.772 38.1111 96.284 41.6953 96.284C45.2795 96.284 52.8746 96.284 52.8746 96.284C52.8746 96.284 55.264 96.8814 55.264 99.1001C55.1787 101.404 52.5332 101.831 52.5332 101.831L41.3539 101.916C41.3539 101.916 39.4765 101.831 37.7698 103.964C36.063 106.183 36.4044 107.378 36.4044 107.378H40.1592C40.1592 107.378 40.1592 105.757 41.6953 105.757C43.3167 105.757 52.1065 105.757 52.1065 105.757C52.1065 105.757 54.752 104.988 59.2749 103.452C63.7125 101.916 76.5984 97.4788 76.5984 97.4788C76.5984 97.4788 78.9879 96.7961 80.012 99.0148C81.036 101.234 77.7078 102.855 77.7078 102.855L50.2291 117.362C50.2291 117.362 48.2663 118.472 44.6822 117.277C41.098 116.082 21.8117 109.511 21.8117 109.511H18.5688Z" fill="#FEFEFE"/>
<path d="M14.6433 88.0916H4.91479V112.071H14.6433V88.0916Z" fill="#FDBF5E"/>
</svg>
