<svg viewBox="0 0 251 50" fill="none" xmlns="http://www.w3.org/2000/svg">
<path fill-rule="evenodd" clip-rule="evenodd" d="M63.159 8.49097H247.967C247.967 32.1734 219.933 49.3997 200.147 49.3997H15.3397C15.3397 25.7173 43.3587 8.49097 63.159 8.49097Z" fill="#FEFEFE"/>
<path fill-rule="evenodd" clip-rule="evenodd" d="M61.6056 4.16178H190.662L192.999 0.692383H55.0307C55.0307 0.692383 22.8646 2.63825 7.7392 33.893C4.90412 39.7306 2.70242 44.8744 0.983276 49.3997H9.47342C14.5102 30.6649 31.1587 4.16178 61.6056 4.16178ZM197.493 4.16178H205.094L207.446 0.692383H199.846L197.493 4.16178ZM211.94 4.16178H219.54L221.893 0.692383H214.292L211.94 4.16178ZM226.387 4.16178H233.987L236.34 0.692383H228.739L226.387 4.16178ZM240.834 4.16178H248.434L250.771 0.692383H243.171L240.834 4.16178Z" fill="#1193AD"/>
</svg>