<svg  viewBox="0 0 116 114" fill="none" xmlns="http://www.w3.org/2000/svg">
<path fill-rule="evenodd" clip-rule="evenodd" d="M56.9396 28.1085C50.4903 19.383 37.2123 14.8305 25.8311 17.4861C3.06881 22.418 -3.75982 55.4233 3.06887 74.3919C9.89756 94.1192 35.6948 116.123 67.9414 112.708C100.567 109.294 116.122 77.0475 114.983 61.4932C114.225 45.5596 102.844 39.1103 90.3243 39.1103C72.4939 39.1103 69.8382 45.939 56.9396 28.1085Z" fill="url(#paint0_linear)"/>
<path fill-rule="evenodd" clip-rule="evenodd" d="M0.413208 59.5963C0.413208 64.9075 1.17201 70.2187 3.06887 74.3918C9.89756 94.1191 35.6948 116.123 67.9414 112.708C81.2194 111.191 91.4624 105.121 99.0499 97.5335C93.3593 95.6366 86.91 93.3604 81.2194 89.5667C66.8033 79.703 64.9064 61.1138 64.9064 61.1138C64.9064 61.1138 47.4553 67.9425 31.9011 67.9425C16.7262 67.9425 0.413208 59.5963 0.413208 59.5963Z" fill="url(#paint1_linear)"/>
<g filter="url(#filter0_d)">
<path fill-rule="evenodd" clip-rule="evenodd" d="M59.9747 35.3166C65.2859 35.3166 69.459 39.4897 69.459 44.4215C69.459 49.3533 65.2859 53.5264 59.9747 53.5264C55.0429 53.5264 50.8697 49.3533 50.8697 44.4215C50.8697 39.4897 55.0429 35.3166 59.9747 35.3166ZM37.2124 64.5282C38.7299 64.5282 40.2474 65.2869 41.0061 66.8044C42.5236 66.425 44.041 66.425 45.5585 65.6663C44.7998 62.252 44.0411 58.0789 43.6617 53.9058C40.2474 51.2502 37.2124 48.9739 34.5568 46.3183C28.4868 53.147 25.4519 59.5964 27.7281 63.3901C28.8662 65.2869 30.7631 66.425 33.798 66.8044C34.1774 65.2869 35.6949 64.5282 37.2124 64.5282ZM41.0061 69.8394C40.6267 71.3569 39.1092 72.495 37.2124 72.495C35.6949 72.495 34.5568 71.7362 33.798 70.5981C28.8662 70.2188 25.0725 69.0806 23.1756 66.0457C20.52 61.1138 24.3137 52.7677 32.6599 44.4215C24.3137 36.0753 20.52 27.7291 23.1756 22.7973C26.2106 17.8655 34.9361 17.1067 46.3173 20.1417C49.3523 9.13992 54.2841 1.55249 59.9747 1.55249C64.1478 1.55249 67.5621 5.34621 70.5971 11.0368C72.8733 11.0368 74.3908 12.9336 74.3908 15.2099C74.3908 16.348 74.0114 17.1067 73.2527 17.8655C73.632 18.6242 73.632 19.3829 74.0114 20.1417C85.0132 17.1067 94.1181 17.8655 97.1531 22.7973C99.8087 27.7291 96.015 36.0753 87.6688 44.4215C89.5657 46.3184 91.0831 47.8358 92.2212 49.7327C92.6006 49.7327 92.6006 49.7327 92.98 49.7327C95.2562 49.7327 96.7737 51.6296 96.7737 53.9058C96.7737 54.6645 96.7737 55.4233 96.3943 55.8026C98.2912 59.9757 98.6706 63.3901 97.1531 66.0457C94.1181 70.9775 85.0132 71.7363 74.0114 68.7013C70.9764 79.7031 66.0446 87.2905 59.9747 87.2905C54.2841 87.2905 49.3523 79.7031 46.3173 68.7013C44.4204 69.0807 42.903 69.46 41.0061 69.8394ZM92.98 57.6995C90.7038 57.6995 88.8069 55.8026 88.8069 53.9058C88.8069 52.7677 89.1863 52.0089 89.5656 51.2502C88.4275 49.7327 87.2894 47.8358 85.7719 46.3183C83.1163 48.9739 79.702 51.2502 76.2876 53.9058C75.9082 58.0789 75.5289 62.252 74.7702 65.6663C83.4957 67.9425 90.3244 67.1838 92.6006 63.3901C93.3594 61.8726 93.3594 59.9757 92.98 57.6995ZM70.5971 19.0036C68.3208 19.0036 66.424 17.4861 66.424 15.2099C66.424 14.0718 66.8033 12.9336 67.5621 12.1749C65.2859 8.76054 63.0097 6.86369 59.9747 6.86369C55.8016 6.86369 51.6285 12.5543 48.9729 21.2798C52.3872 22.4179 56.181 23.5561 59.9747 25.4529C64.1478 23.5561 67.5621 22.4179 71.3558 21.2798C70.9764 20.5211 70.9764 19.7623 70.5971 19.0036ZM46.6967 55.4233C48.2142 56.5614 49.7316 57.6995 51.6285 58.8376C53.5253 59.9757 55.4222 61.1138 57.319 61.8726C54.2841 63.3901 51.2491 64.1488 48.2141 65.2869C47.4554 62.252 47.076 58.8376 46.6967 55.4233ZM59.9747 63.3901C64.1478 65.2869 67.5621 66.425 71.3558 67.5632C68.7002 76.2887 64.5272 81.9793 59.9747 81.9793C55.8016 81.9793 51.6285 76.2887 48.9729 67.5632C52.3872 66.425 56.181 65.2869 59.9747 63.3901ZM85.7719 42.5246C83.1163 39.869 79.702 37.5928 76.2876 34.9372C75.9082 30.7641 75.5289 26.591 74.7702 23.1767C83.4957 20.9004 90.3244 21.6592 92.6006 25.4529C94.8768 29.2466 91.8419 35.6959 85.7719 42.5246ZM73.632 33.0403C72.1145 32.2816 70.2177 31.1435 68.7002 30.0054C66.8034 28.8673 64.9065 27.7291 63.0097 26.9704C66.0446 25.4529 69.0796 24.6942 72.1146 23.556C72.8733 26.591 73.2527 29.626 73.632 33.0403ZM27.7281 25.4529C25.4519 29.2466 28.4868 35.6959 34.5568 42.5246C37.2124 39.869 40.2474 37.5928 43.6617 34.9372C44.0411 30.7641 44.7998 26.591 45.5585 23.1767C36.833 20.9004 30.0043 21.6592 27.7281 25.4529ZM36.4536 44.4215C38.7299 46.3184 41.0061 48.5946 43.6617 50.4914C43.6617 48.5946 43.2823 46.3184 43.2823 44.4215C43.2823 42.5246 43.6617 40.2484 43.6617 38.3515C41.0061 40.2484 38.7299 42.5246 36.4536 44.4215ZM46.3173 52.3883C48.2142 53.9058 50.4904 55.4233 52.7666 56.5614C55.4222 58.0789 57.6985 59.217 59.9747 60.3551C62.6303 59.217 64.9065 58.0789 67.1827 56.5614C69.8383 55.4233 72.1146 53.9058 74.0114 52.3883C74.3908 49.7327 74.3908 47.0771 74.3908 44.4215C74.3908 41.7659 74.3908 39.1103 74.0114 36.4547C72.1146 34.9372 69.8383 33.4197 67.1827 32.2816C64.9065 30.7641 62.6303 29.2466 59.9747 28.1085C57.6985 29.2466 55.4222 30.7641 52.7666 32.2816C50.4904 33.4197 48.2142 34.9372 46.3173 36.4547C45.9379 39.1103 45.9379 41.7659 45.9379 44.4215C45.9379 47.0771 45.9379 49.7327 46.3173 52.3883ZM63.0097 61.8726C66.0446 63.3901 69.0796 64.1488 72.1146 65.2869C72.8733 62.252 73.2527 58.8376 73.632 55.4233C72.1145 56.5614 70.2177 57.6995 68.7002 58.8376C66.8034 59.9757 64.9065 61.1138 63.0097 61.8726ZM83.8751 44.4215C81.5989 42.5246 79.3226 40.2484 76.667 38.3515C76.667 40.2484 76.667 42.5246 76.667 44.4215C76.667 46.3184 76.667 48.5946 76.667 50.4914C79.3226 48.5946 81.5989 46.3184 83.8751 44.4215ZM57.319 26.9704C54.2841 25.4529 51.2491 24.6942 48.2141 23.556C47.4554 26.591 47.076 29.626 46.6967 33.0403C48.2142 32.2816 49.7316 31.1435 51.6285 30.0054C53.5253 28.8673 55.4222 27.7291 57.319 26.9704Z" fill="#FEFEFE"/>
</g>
<defs>
<filter id="filter0_d" x="21.3381" y="0.55249" width="79.7513" height="89.738" filterUnits="userSpaceOnUse" color-interpolation-filters="sRGB">
<feFlood flood-opacity="0" result="BackgroundImageFix"/>
<feColorMatrix in="SourceAlpha" type="matrix" values="0 0 0 0 0 0 0 0 0 0 0 0 0 0 0 0 0 0 127 0"/>
<feOffset dx="1" dy="1"/>
<feGaussianBlur stdDeviation="1"/>
<feColorMatrix type="matrix" values="0 0 0 0 0 0 0 0 0 0 0 0 0 0 0 0 0 0 0.25 0"/>
<feBlend mode="normal" in2="BackgroundImageFix" result="effect1_dropShadow"/>
<feBlend mode="normal" in="SourceGraphic" in2="effect1_dropShadow" result="shape"/>
</filter>
<linearGradient id="paint0_linear" x1="26.9693" y1="40.6278" x2="137.366" y2="184.789" gradientUnits="userSpaceOnUse">
<stop stop-color="#F37C64"/>
<stop offset="1" stop-color="#6E2D2C"/>
</linearGradient>
<linearGradient id="paint1_linear" x1="50.1109" y1="116.123" x2="100.947" y2="-14.7606" gradientUnits="userSpaceOnUse">
<stop stop-color="#F37C64"/>
<stop offset="1" stop-color="#752D2D"/>
</linearGradient>
</defs>
</svg>
