<svg width="31" height="31" viewBox="0 0 31 31" fill="none" xmlns="http://www.w3.org/2000/svg">
<path fill-rule="evenodd" clip-rule="evenodd" d="M15.4803 1.95947C23.1675 1.95947 29.3474 8.13939 29.3474 15.7512C29.3474 23.4384 23.1675 29.6184 15.4803 29.6184C7.86842 29.6184 1.68853 23.4384 1.68853 15.7512C1.68853 8.13939 7.86842 1.95947 15.4803 1.95947ZM15.4803 0.753662C23.8458 0.753662 30.5532 7.46111 30.5532 15.7512C30.5532 24.1167 23.8458 30.8242 15.4803 30.8242C7.19014 30.8242 0.482666 24.1167 0.482666 15.7512C0.482666 7.46111 7.19014 0.753662 15.4803 0.753662ZM18.4195 11.0033C18.0427 11.2294 17.5905 11.6815 17.289 11.983C17.1383 12.1337 16.9876 12.2844 16.8368 12.4352C16.3846 12.8874 14.2744 14.6962 14.1237 15.073C13.37 16.3542 15.1035 18.2383 15.9325 19.0673C16.3847 19.5195 16.6861 19.6702 16.9876 20.2731C16.2339 20.4238 15.4049 20.7253 14.6512 20.9514C13.8222 21.1775 12.7671 21.2529 12.6164 21.9311C12.3149 22.9109 13.144 23.3631 14.0483 23.137L19.1732 22.0819C20.0022 21.9312 20.7558 21.3282 20.2283 20.2731L17.6658 16.731C17.8166 16.5049 20.379 14.6961 20.7558 14.47C22.037 16.0527 21.0572 16.8817 23.2428 16.8063C24.7501 16.731 27.3125 16.9571 26.6342 15.6005C26.2574 14.8469 24.524 15.2237 23.4689 15.073C22.866 14.9976 22.9414 14.2439 22.2631 12.7366C22.037 12.1337 21.5848 11.7569 21.2834 11.3047C20.5297 10.4004 19.7761 9.64668 19.0224 8.74231C18.4949 7.98866 18.6456 7.91329 17.4397 7.91329C16.6861 7.98866 15.8571 7.98867 15.1034 7.98867C14.4252 8.06404 13.4454 7.9133 13.3701 8.74231C13.2947 10.0235 15.631 9.34525 17.289 9.64671C17.6659 9.64671 17.7412 9.8728 17.8919 10.1743C18.118 10.4757 18.3441 10.6264 18.4195 11.0033ZM13.6715 18.4644C13.4454 17.8615 12.9179 17.56 12.8425 16.2034L6.36114 21.5544C5.30603 22.308 5.75823 23.5138 6.6626 23.5138C7.26552 23.5138 7.49161 23.2124 7.86844 22.9109L11.712 19.9716C12.3903 19.5195 13.2193 18.9919 13.6715 18.4644ZM23.6197 8.66693C21.0573 9.5713 22.4892 13.1889 24.8255 12.3598C25.6545 12.0584 26.4082 11.0786 26.0313 9.87279C25.7299 9.11914 24.8255 8.2901 23.6197 8.66693ZM7.86844 11.7569V12.6613L14.1237 13.1135V11.3047L7.86844 11.7569ZM2.81898 17.2586V18.1629L9.07427 18.6151V16.8063L2.81898 17.2586ZM4.92919 14.47V15.4498L11.1845 15.8266V14.0932L4.92919 14.47Z" fill="#1193AD"/>
</svg>