<svg width="256" height="115" viewBox="0 0 256 115" fill="none" xmlns="http://www.w3.org/2000/svg">
<path fill-rule="evenodd" clip-rule="evenodd" d="M67.9807 30.7866C75.6811 30.7866 82.9062 33.1608 88.8003 37.2446L89.3707 37.6249C93.4585 40.474 96.881 44.1776 99.5429 48.5463L99.638 48.6413L99.9232 49.2111C101.825 52.4402 103.251 56.049 104.106 59.8479L104.201 60.1331L104.296 60.5128L104.391 61.1777V61.2727C105.342 66.3062 105.152 71.3397 104.011 76.0883H60.0903L47.9218 98.7866C43.4537 95.9375 39.6511 92.1386 36.704 87.485L36.4189 87.0097L36.2285 86.725C32.9012 81.2167 31 74.6636 31 67.7307C31 47.3118 47.5414 30.7866 67.9807 30.7866Z" fill="#BAD4D6"/>
<path fill-rule="evenodd" clip-rule="evenodd" d="M25.9253 93.7866C20.361 86.2381 17.0031 76.9698 17.0031 66.937C17.0031 41.9984 37.2454 21.8375 62.2844 21.8375C64.4909 21.8375 66.6975 22.0285 68.904 22.3152L69 21.7419C65.8341 21.073 62.6682 20.7866 59.3105 20.7866C32.0649 20.7866 10 42.7632 10 69.804C10 78.4991 12.3024 86.7159 16.2357 93.7866H25.9253Z" fill="#2C7F87"/>
<path fill-rule="evenodd" clip-rule="evenodd" d="M45.0119 111.263L63.7157 76.2151C103.699 76.2151 210.195 76.2151 250.179 76.2151L231.285 111.263H45.0119ZM61.6163 72.7866L39 114.787H43.1036C84.4232 114.787 192.16 114.787 233.479 114.787L256 72.7866H253.901H251.992C210.672 72.7866 102.936 72.7866 61.6163 72.7866Z" fill="#BAD4D6"/>
<path fill-rule="evenodd" clip-rule="evenodd" d="M2.00192 51.6632C0.667447 56.8105 0 62.2437 0 67.7723C0 71.871 0.38143 75.8744 1.04867 79.6872L2.57382 79.1153C2.28786 76.923 2.19246 74.7306 2.19246 72.5382C2.19246 65.8659 3.33626 59.3841 5.43329 53.4743L2.00192 51.6632Z" fill="#EE1D23"/>
<path fill-rule="evenodd" clip-rule="evenodd" d="M17.6341 22.3053C10.8664 29.6449 5.81456 38.5095 2.85965 48.3274L6.67238 50.2339C10.1039 41.9411 15.537 34.5061 22.3047 28.6916L17.6341 22.3053Z" fill="#FDAF40"/>
<path fill-rule="evenodd" clip-rule="evenodd" d="M51.1866 2.0022C39.1764 5.05243 28.5007 11.3434 20.0172 19.7315L24.9737 26.5943C33.0759 20.4938 42.7986 16.395 53.3791 15.2512L51.1866 2.0022Z" fill="#6342F5"/>
<path fill-rule="evenodd" clip-rule="evenodd" d="M94.9386 26.7847C106.854 35.9353 115.146 49.7567 117.053 65.4844H135.64C134.877 41.9405 122.104 21.542 103.326 10.0083L94.9386 26.7847Z" fill="#8EC642"/>
<path fill-rule="evenodd" clip-rule="evenodd" d="M59.8607 14.8698C71.7757 14.8698 82.9281 18.4918 92.0788 24.7829L100.372 8.29276C90.649 2.95486 79.5919 0 67.8676 0C63.2922 0 58.8122 0.476738 54.5229 1.33461L56.8107 14.9653C57.7639 14.8699 58.8122 14.8698 59.8607 14.8698Z" fill="#139CD6"/>
</svg>