<svg width="110" height="219" viewBox="0 0 110 219" fill="none" xmlns="http://www.w3.org/2000/svg">
    <path fill-rule="evenodd" clip-rule="evenodd" d="M54.9755 186.536C59.7989 186.536 64.4717 186.762 68.8428 187.063H107.354V201.759C107.354 210.125 83.9156 216.908 54.9755 216.908C26.1108 216.908 2.67236 210.125 2.67236 201.759V187.063L17.2931 187.139H41.1084C45.555 186.762 50.2275 186.536 54.9755 186.536Z" fill="#FEFEFE" stroke="#025B85" stroke-width="4.14506" stroke-miterlimit="2.61313"/>
   <path d="M54.9753 202.287C83.9031 202.287 107.354 195.505 107.354 187.139C107.354 178.773 83.9031 171.99 54.9753 171.99C26.0474 171.99 2.59692 178.773 2.59692 187.139C2.59692 195.505 26.0474 202.287 54.9753 202.287Z" fill="#FEFEFE" stroke="#025B85" stroke-width="4.14506" stroke-miterlimit="2.61313"/>
   <path fill-rule="evenodd" clip-rule="evenodd" d="M54.9755 186.234C61.1554 186.234 67.1095 186.536 72.6111 187.063C84.8955 188.345 95.0696 190.982 101.174 194.223C105.093 192.113 107.354 189.701 107.354 187.063C107.354 178.698 83.9156 171.915 54.9755 171.915C26.1108 171.915 2.67236 178.698 2.67236 187.063C2.67236 189.701 4.85815 192.113 8.77712 194.223C14.8817 190.982 25.0557 188.345 37.3402 187.139C42.8418 186.536 48.7956 186.234 54.9755 186.234Z" fill="#FEFEFE" stroke="#025B85" stroke-width="4.14506" stroke-miterlimit="2.61313"/>
   <path fill-rule="evenodd" clip-rule="evenodd" d="M54.9755 162.871C59.7989 162.871 64.4717 163.097 68.8428 163.399H107.354V178.095C107.354 186.46 83.9156 193.243 54.9755 193.243C26.1108 193.243 2.67236 186.46 2.67236 178.095V163.399H17.2931H41.1084C45.555 163.097 50.2275 162.871 54.9755 162.871Z" fill="#FEFEFE" stroke="#025B85" stroke-width="4.14506" stroke-miterlimit="2.61313"/>
   <path d="M54.9753 178.547C83.9031 178.547 107.354 171.765 107.354 163.399C107.354 155.033 83.9031 148.251 54.9753 148.251C26.0474 148.251 2.59692 155.033 2.59692 163.399C2.59692 171.765 26.0474 178.547 54.9753 178.547Z" fill="#FEFEFE" stroke="#025B85" stroke-width="4.14506" stroke-miterlimit="2.61313"/>
   <path fill-rule="evenodd" clip-rule="evenodd" d="M54.9755 162.57C61.1554 162.57 67.1095 162.871 72.6111 163.399C84.8955 164.68 95.0696 167.242 101.174 170.559C105.093 168.448 107.354 166.037 107.354 163.399C107.354 155.033 83.9156 148.251 54.9755 148.251C26.1108 148.251 2.67236 155.033 2.67236 163.399C2.67236 166.037 4.85815 168.448 8.77712 170.559C14.8817 167.242 25.0557 164.68 37.3402 163.399C42.8418 162.871 48.7956 162.57 54.9755 162.57Z" fill="#FEFEFE" stroke="#025B85" stroke-width="4.14506" stroke-miterlimit="2.61313"/>
   <path fill-rule="evenodd" clip-rule="evenodd" d="M54.9755 139.207C59.7989 139.207 64.4717 139.433 68.8428 139.734H107.354V154.431C107.354 162.796 83.9156 169.579 54.9755 169.579C26.1108 169.579 2.67236 162.796 2.67236 154.431V139.734H17.2931H41.1084C45.555 139.433 50.2275 139.207 54.9755 139.207Z" fill="#FEFEFE" stroke="#025B85" stroke-width="4.14506" stroke-miterlimit="2.61313"/>
   <path d="M54.9753 154.883C83.9031 154.883 107.354 148.101 107.354 139.734C107.354 131.368 83.9031 124.586 54.9753 124.586C26.0474 124.586 2.59692 131.368 2.59692 139.734C2.59692 148.101 26.0474 154.883 54.9753 154.883Z" fill="#FEFEFE" stroke="#025B85" stroke-width="4.14506" stroke-miterlimit="2.61313"/>
   <path fill-rule="evenodd" clip-rule="evenodd" d="M54.9755 138.905C61.1554 138.905 67.1095 139.207 72.6111 139.734C84.8955 141.016 95.0696 143.578 101.174 146.894C105.093 144.784 107.354 142.372 107.354 139.734C107.354 131.369 83.9156 124.586 54.9755 124.586C26.1108 124.586 2.67236 131.369 2.67236 139.734C2.67236 142.372 4.85815 144.784 8.77712 146.894C14.8817 143.578 25.0557 141.016 37.3402 139.734C42.8418 139.207 48.7956 138.905 54.9755 138.905Z" fill="#FEFEFE" stroke="#025B85" stroke-width="4.14506" stroke-miterlimit="2.61313"/>
   <path fill-rule="evenodd" clip-rule="evenodd" d="M54.9755 115.542C59.7989 115.542 64.4717 115.768 68.8428 116.07H107.354V130.766C107.354 139.131 83.9156 145.914 54.9755 145.914C26.1108 145.914 2.67236 139.131 2.67236 130.766V116.07H17.2931H41.1084C45.555 115.768 50.2275 115.542 54.9755 115.542Z" fill="#FEFEFE" stroke="#025B85" stroke-width="4.14506" stroke-miterlimit="2.61313"/>
   <path d="M54.9753 131.218C83.9031 131.218 107.354 124.436 107.354 116.07C107.354 107.704 83.9031 100.922 54.9753 100.922C26.0474 100.922 2.59692 107.704 2.59692 116.07C2.59692 124.436 26.0474 131.218 54.9753 131.218Z" fill="#FEFEFE" stroke="#025B85" stroke-width="4.14506" stroke-miterlimit="2.61313"/>
   <path fill-rule="evenodd" clip-rule="evenodd" d="M54.9755 115.241C61.1554 115.241 67.1095 115.542 72.6111 116.07C84.8955 117.351 95.0696 119.913 101.174 123.229C105.093 121.119 107.354 118.708 107.354 116.07C107.354 107.704 83.9156 100.922 54.9755 100.922C26.1108 100.922 2.67236 107.704 2.67236 116.07C2.67236 118.708 4.85815 121.119 8.77712 123.229C14.8817 119.913 25.0557 117.351 37.3402 116.07C42.8418 115.542 48.7956 115.241 54.9755 115.241Z" fill="#FEFEFE" stroke="#025B85" stroke-width="4.14506" stroke-miterlimit="2.61313"/>
   <path fill-rule="evenodd" clip-rule="evenodd" d="M54.9754 86.0747H55.5785V122.627C56.709 122.702 57.6887 123.079 57.6887 123.606C57.6887 124.134 56.5582 124.586 55.277 124.586C53.9204 124.586 52.8652 124.134 52.8652 123.606C52.8652 123.079 53.7696 122.702 54.9754 122.627V86.0747Z" fill="#373435"/>
   <path fill-rule="evenodd" clip-rule="evenodd" d="M54.9755 2.87192C73.8167 2.87192 89.0405 18.0956 89.0405 36.9368C89.0405 55.7026 73.8167 71.0017 54.9755 71.0017C36.2097 71.0017 20.9107 55.7026 20.9107 36.9368C20.9107 18.0956 36.2097 2.87192 54.9755 2.87192ZM54.9755 0.912476C74.8718 0.912476 90.9999 17.0405 90.9999 36.9368C90.9999 45.9806 87.6839 54.2707 82.1069 60.6013C74.7211 69.0422 63.3411 78.8396 55.277 86.7529C47.7406 79.4426 34.4765 68.2886 27.6183 60.2999C22.192 53.9693 18.9512 45.8299 18.9512 36.9368C18.9512 17.0405 35.0792 0.912476 54.9755 0.912476Z" fill="#025B85"/>
   <path fill-rule="evenodd" clip-rule="evenodd" d="M34.4761 25.2552H42.465V44.8501H34.4761V25.2552ZM35.5313 26.5364H41.4097V43.5689H35.5313V26.5364Z" fill="#373435"/>
   <path d="M54.9754 20.2811C54.9754 19.4521 55.0509 18.6985 55.277 18.1709C55.4277 17.6434 55.7292 17.1913 56.0307 16.7391C56.3321 16.3622 56.7843 15.91 57.4626 15.2317C58.2162 14.5534 58.6684 14.0259 58.8191 13.6491C59.0452 13.2723 59.1206 12.8201 59.1206 12.3679C59.1206 11.5389 58.8192 10.7852 58.2163 10.1069C57.6134 9.50402 56.8597 9.20259 56.0307 9.20259C55.2016 9.20259 54.448 9.50394 53.9204 10.0315C53.4683 10.4837 53.0913 11.162 52.8652 12.0664C52.7899 12.4432 52.564 12.6693 52.1118 12.6693L51.5842 12.594C50.8305 12.3679 50.9059 11.6142 50.9059 11.5389C51.132 10.4084 51.6596 9.42859 52.3379 8.75031C53.2422 7.84593 54.4479 7.3938 55.9552 7.3938C57.5379 7.3938 58.8191 7.84601 59.7989 8.82575C60.7033 9.73012 61.2308 10.8606 61.2308 12.2171C61.2308 12.9708 61.0047 13.7244 60.7032 14.3273C60.4018 15.0056 59.7234 15.7593 58.7437 16.7391C58.0654 17.342 57.6887 17.7941 57.4626 18.0956C57.2365 18.397 57.0858 18.6985 57.0104 19.0754C56.9351 19.3015 56.935 19.6782 56.935 20.055C56.8596 20.5072 56.5583 20.9595 55.88 20.9595C55.2771 20.9595 54.9754 20.2811 54.9754 20.2811ZM55.5785 22.3914C56.1814 22.3914 56.7089 22.9189 56.7089 23.5219C56.7089 24.2001 56.1814 24.6523 55.5785 24.6523C54.9756 24.6523 54.4481 24.2001 54.4481 23.5219C54.4481 22.9189 54.9756 22.3914 55.5785 22.3914Z" fill="#025B85"/>
</svg>   