<svg width="21" height="27" viewBox="0 0 21 27" fill="none" xmlns="http://www.w3.org/2000/svg">
<path fill-rule="evenodd" clip-rule="evenodd" d="M8.15814 19.3937H12.3786V25.649H8.15814V19.3937ZM14.6395 13.5152H18.8599V25.649H14.6395V13.5152ZM3.86235 12.9877L10.3437 15.0979L15.9207 10.0485L15.2424 9.21944L18.4831 8.76727L17.5034 11.8572L16.7497 11.0282L10.6452 16.6052L3.41017 14.1935L3.86235 12.9877ZM0.0941162 12.8369H0.395575V25.7997H20.5933V26.0258H0.395575H0.0941162V25.7997V12.8369ZM1.67678 16.2284H5.8972V25.649H1.67678V16.2284ZM2.95797 3.64247C2.88261 5.14976 2.95797 5.45122 3.1087 5.67732C3.3348 5.90341 3.41017 5.90341 3.41017 6.3556C3.48553 6.80779 3.86235 7.78752 4.31454 8.16434C4.69137 8.54116 4.84209 8.69189 4.84209 8.69189V9.74699C4.84209 9.74699 4.91746 10.0485 4.31454 10.1992C3.71162 10.3499 1.29995 10.8775 0.847763 11.3297C0.697034 11.5558 0.621667 11.7065 0.470938 12.008L2.88261 12.0833C2.88261 12.0833 3.03334 11.405 4.01308 11.7065C4.99283 11.9326 9.7408 13.7413 10.193 13.7413C10.4945 13.7413 11.7757 12.4601 12.5293 11.7818C12.3786 11.6311 12.3032 11.4804 12.2278 11.3297C11.7757 10.8775 9.36398 10.3499 8.76106 10.1992C8.15814 10.0485 8.23351 9.74699 8.23351 9.74699V8.69189C8.23351 8.69189 8.38424 8.54116 8.83643 8.16434C9.21325 7.78752 9.59008 6.80779 9.66544 6.3556C9.66544 5.90341 9.7408 5.90341 9.9669 5.67732C10.1176 5.45122 10.2684 5.14976 10.1176 3.64247C10.1176 2.88882 9.9669 2.2859 9.59007 1.75835C9.36398 1.45689 8.91179 1.30615 8.38424 1.30615C7.70596 0.0249469 3.18407 -0.0504075 2.95797 3.64247Z" fill="#FEFEFE"/>
</svg>