<svg width="37" height="20" viewBox="0 0 37 20" fill="none" xmlns="http://www.w3.org/2000/svg">
<path fill-rule="evenodd" clip-rule="evenodd" d="M11.3021 16.5971C11.0006 18.6319 9.79491 19.8378 17.4067 19.8378C19.6677 19.6117 26.8273 20.4407 26.4505 17.6522L26.2244 16.1449L30.897 13.7332L31.6507 12.8288L33.158 8.30697L32.4043 7.17649C32.9318 6.87503 33.9116 6.57358 35.2682 6.42285C37.303 6.19676 36.3986 5.14165 36.0217 5.06629C35.871 5.06629 35.1174 5.06629 34.2884 5.06629C35.1174 4.84019 35.7203 4.08654 35.7203 3.18217C35.7203 2.0517 34.8914 1.14732 33.7609 1.14732C32.7058 1.14732 31.8013 2.0517 31.8013 3.18217C31.8013 4.08654 32.4796 4.91556 33.3086 5.06629C32.781 5.14165 32.3289 5.14165 32.1029 5.21702C31.8768 5.29238 31.6507 5.51846 31.4999 5.81992L31.1984 5.29237L28.8621 11.2462C24.4156 13.5071 25.6968 13.5071 21.0995 11.623V10.3418C22.8329 9.21135 22.3808 7.6287 23.1344 6.87505C23.2852 6.64896 24.1895 1.5995 21.2503 1.67487C20.4213 0.0922067 15.0704 0.0922113 14.8443 4.388L15.3719 7.62869L17.0299 10.3418L16.427 12.2259C11.679 13.3564 13.1863 13.5825 8.66441 11.2462L6.32812 5.29237L6.02659 5.81992C5.87587 5.51846 5.64976 5.29238 5.42366 5.21702C4.82074 5.06629 1.80624 5.06629 1.50478 5.06629C1.12795 5.14165 0.223508 6.19676 2.25836 6.42285C3.69029 6.57358 4.67007 6.87503 5.12225 7.17649L4.36856 8.30697L5.87583 12.8288L6.70485 13.7332L11.3775 16.1449L11.3021 16.5971ZM4.29324 0.996583L1.5801 4.53874L4.36856 5.06629L6.70485 4.388L4.29324 0.996583ZM18.0096 16.8232L16.9545 14.0347L17.8589 13.281L18.5372 14.3361L18.0096 16.8232ZM19.5923 14.3361L20.2705 13.281L21.175 14.0347L20.1198 16.8232L19.5923 14.3361Z" fill="#FEFEFE"/>
</svg>
