<svg width="106" height="218" viewBox="0 0 106 218" fill="none" xmlns="http://www.w3.org/2000/svg">
    <path fill-rule="evenodd" clip-rule="evenodd"
        d="M53.1486 186.687C57.972 186.687 62.6446 186.837 67.0157 187.214H105.527V201.835C105.527 210.276 82.0887 217.059 53.1486 217.059C24.2839 217.059 0.845459 210.276 0.845459 201.835V187.214H15.4662H39.2815C43.7281 186.837 48.3253 186.687 53.1486 186.687Z"
        fill="#00A859" />
    <path
        d="M53.1486 202.362C82.0765 202.362 105.527 195.58 105.527 187.214C105.527 178.848 82.0765 172.066 53.1486 172.066C24.2208 172.066 0.770264 178.848 0.770264 187.214C0.770264 195.58 24.2208 202.362 53.1486 202.362Z"
        fill="#69C28E" />
    <path fill-rule="evenodd" clip-rule="evenodd"
        d="M53.1486 163.173C57.972 163.173 62.6446 163.399 67.0157 163.7H105.527V178.396C105.527 186.762 82.0887 193.545 53.1486 193.545C24.2839 193.545 0.845459 186.762 0.845459 178.396V163.7H15.4662H39.2815C43.7281 163.399 48.3253 163.173 53.1486 163.173Z"
        fill="#00A859" />
    <path
        d="M53.1486 178.849C82.0765 178.849 105.527 172.067 105.527 163.7C105.527 155.334 82.0765 148.552 53.1486 148.552C24.2208 148.552 0.770264 155.334 0.770264 163.7C0.770264 172.067 24.2208 178.849 53.1486 178.849Z"
        fill="#69C28E" />
    <path fill-rule="evenodd" clip-rule="evenodd"
        d="M53.1486 139.734C57.972 139.734 62.6446 139.885 67.0157 140.262H105.527V154.883C105.527 163.248 82.0887 170.106 53.1486 170.106C24.2839 170.106 0.845459 163.248 0.845459 154.883V140.262H15.4662H39.2815C43.7281 139.885 48.3253 139.734 53.1486 139.734Z"
        fill="#00A859" />
    <path
        d="M53.1486 155.41C82.0765 155.41 105.527 148.628 105.527 140.262C105.527 131.896 82.0765 125.114 53.1486 125.114C24.2208 125.114 0.770264 131.896 0.770264 140.262C0.770264 148.628 24.2208 155.41 53.1486 155.41Z"
        fill="#69C28E" />
    <path fill-rule="evenodd" clip-rule="evenodd"
        d="M53.1486 116.221C57.972 116.221 62.6446 116.447 67.0157 116.748H105.527V131.444C105.527 139.81 82.0887 146.593 53.1486 146.593C24.2839 146.593 0.845459 139.81 0.845459 131.444V116.748H15.4662H39.2815C43.7281 116.447 48.3253 116.221 53.1486 116.221Z"
        fill="#00A859" />
    <path
        d="M53.1486 131.897C82.0765 131.897 105.527 125.114 105.527 116.748C105.527 108.382 82.0765 101.6 53.1486 101.6C24.2208 101.6 0.770264 108.382 0.770264 116.748C0.770264 125.114 24.2208 131.897 53.1486 131.897Z"
        fill="#69C28E" />
    <path fill-rule="evenodd" clip-rule="evenodd"
        d="M53.1488 86.15H53.7518V115.015C54.8823 115.09 55.7866 115.467 55.7866 115.995C55.7866 116.522 54.7315 116.974 53.4503 116.974C52.0937 116.974 51.0386 116.522 51.0386 115.995C51.0386 115.467 51.9429 115.09 53.1488 115.015V86.15Z"
        fill="#373435" />
    <path fill-rule="evenodd" clip-rule="evenodd"
        d="M53.1486 2.94735C71.9898 2.94735 87.2134 18.1709 87.2134 37.0121C87.2134 55.8533 71.9898 71.077 53.1486 71.077C34.3074 71.077 19.0838 55.8533 19.0838 37.0121C19.0838 18.1709 34.3074 2.94735 53.1486 2.94735ZM53.1486 0.987793C73.0449 0.987793 89.173 17.1158 89.173 37.0121C89.173 46.0559 85.857 54.346 80.28 60.6767C72.8942 69.1929 61.5142 78.9149 53.4501 86.8282C45.8383 79.5179 32.6494 68.4393 25.7912 60.3753C20.3649 54.12 17.1243 45.9052 17.1243 37.0121C17.1243 17.1158 33.2523 0.987793 53.1486 0.987793Z"
        fill="#00A859" />
    <path fill-rule="evenodd" clip-rule="evenodd"
        d="M32.6494 25.3307H40.6381V44.9255H32.6494V25.3307ZM33.7046 26.6119H39.5831V43.6443H33.7046V26.6119Z"
        fill="#373435" />
    <path fill-rule="evenodd" clip-rule="evenodd"
        d="M42.6731 15.2317L45.9892 22.919C45.9892 22.919 47.3456 25.6321 50.2848 24.5017C53.224 23.3712 68.071 10.7852 68.071 10.7852C68.071 10.7852 68.5985 9.27798 65.6593 10.4838C62.72 11.6897 51.4906 18.171 49.5311 18.2464C47.5716 18.3217 43.3514 12.1418 42.6731 15.2317Z"
        fill="#00A859" />
</svg>