<svg width="94" height="274" viewBox="0 0 94 274" fill="none" xmlns="http://www.w3.org/2000/svg">
<path fill-rule="evenodd" clip-rule="evenodd" d="M1 59.3875H93.5479V232.048C93.5479 240.112 72.8227 246.744 47.2741 246.744C21.7254 246.744 1 240.112 1 232.048V59.3875Z" fill="url(#paint0_linear)"/>
<path fill-rule="evenodd" clip-rule="evenodd" d="M24.4608 270.925L21.9845 271.403C21.9845 271.403 21.6563 270.09 23.2674 268.181C24.8485 266.271 24.938 266.242 24.938 266.242C24.938 266.242 30.0396 264.69 30.1589 262.9C30.2783 261.14 30.2783 261.14 30.2783 261.14L33.0528 263.795C33.0528 263.795 30.2485 270.836 24.4608 270.925Z" fill="#66DCF4"/>
<path fill-rule="evenodd" clip-rule="evenodd" d="M69.5692 270.925L72.0154 271.403C72.0154 271.403 72.3437 270.09 70.7625 268.181C69.1813 266.271 69.0918 266.242 69.0918 266.242C69.0918 266.242 63.9903 264.69 63.8709 262.9C63.7516 261.14 63.7516 261.14 63.7516 261.14L60.9771 263.795C60.9771 263.795 63.7814 270.836 69.5692 270.925Z" fill="#66DCF4"/>
<path fill-rule="evenodd" clip-rule="evenodd" d="M71.3293 273.133H66.9438C66.9438 272.477 66.4068 271.94 65.7505 271.94H28.2496C27.5932 271.94 27.0264 272.477 27.0264 273.133H22.6707C18.4641 267.107 35.6781 269.613 29.055 261.23C27.981 259.828 26.549 257.65 25.5048 255.979C25.0275 255.263 24.58 254.517 24.1624 253.771V253.742C22.1337 250.042 21 245.836 21 241.331C21 226.951 32.6351 215.316 46.9851 215.286C61.3649 215.316 73 226.951 73 241.331C73 245.836 71.8365 250.042 69.8376 253.742V253.771C69.42 254.517 68.9725 255.263 68.4653 255.979C67.451 257.65 66.019 259.828 64.9151 261.23C58.3219 269.613 75.506 267.107 71.3293 273.133Z" fill="url(#paint1_linear)"/>
<path d="M47.0447 262.99C59.0067 262.99 68.7039 253.293 68.7039 241.331C68.7039 229.369 59.0067 219.672 47.0447 219.672C35.0826 219.672 25.3855 229.369 25.3855 241.331C25.3855 253.293 35.0826 262.99 47.0447 262.99Z" fill="url(#paint2_radial)"/>
<path d="M47.0448 263.079C59.0563 263.079 68.7935 253.342 68.7935 241.331C68.7935 229.319 59.0563 219.582 47.0448 219.582C35.0333 219.582 25.2961 229.319 25.2961 241.331C25.2961 253.342 35.0333 263.079 47.0448 263.079Z" fill="#FEFEFE"/>
<path fill-rule="evenodd" clip-rule="evenodd" d="M31.5611 247.566C30.7855 245.657 30.3379 243.538 30.3379 241.331C30.3379 239.033 30.8153 236.856 31.6506 234.857C30.2783 234.648 28.9656 234.111 27.8319 233.186C29.2639 233.395 30.5766 233.932 31.6805 234.767C33.381 230.799 36.5732 227.607 40.5709 225.907C39.6759 224.713 39.1091 223.281 38.9898 221.7C40.0041 222.893 40.6306 224.325 40.8096 225.817C42.7488 225.041 44.8371 224.624 47.0448 224.624C49.2823 224.624 51.4304 225.071 53.3994 225.877C53.5784 224.505 54.1154 223.192 55.0104 222.058C54.8314 223.49 54.2943 224.803 53.459 225.907C57.5164 227.607 60.7683 230.859 62.4688 234.916C63.5727 234.081 64.8854 233.544 66.3174 233.365C65.1837 234.26 63.871 234.797 62.4987 234.976C63.3042 236.945 63.7516 239.093 63.7516 241.331C63.7516 243.598 63.3042 245.746 62.4688 247.715C63.8412 247.894 65.1538 248.461 66.2875 249.356C64.8555 249.177 63.5428 248.61 62.439 247.805C60.7384 251.832 57.4866 255.084 53.4292 256.755C54.2347 257.858 54.7717 259.171 54.9507 260.633C54.0557 259.469 53.5187 258.157 53.3397 256.784C51.4006 257.59 49.2823 258.008 47.0448 258.008C44.7476 258.008 42.5996 257.56 40.6007 256.755C40.4217 258.097 39.8549 259.41 38.9599 260.544C39.1389 259.112 39.7057 257.799 40.5411 256.695C36.4837 254.995 33.2617 251.743 31.591 247.655C30.4872 248.491 29.1447 249.028 27.7127 249.177C28.8762 248.312 30.1888 247.775 31.5611 247.566ZM27.8319 233.186C27.5336 233.156 27.2055 233.126 26.8773 233.126C25.863 235.662 25.2961 238.437 25.2961 241.331C25.2961 244.105 25.8331 246.79 26.7878 249.237C27.0862 249.237 27.4143 249.207 27.7127 249.177C27.474 249.386 27.2353 249.595 26.9966 249.804C29.1744 254.935 33.2617 259.022 38.3334 261.26C38.5721 261.021 38.7809 260.782 38.9599 260.544C38.9301 260.872 38.9003 261.17 38.9003 261.498C41.4063 262.513 44.1509 263.079 47.0448 263.079C49.8492 263.079 52.5342 262.542 55.0104 261.558C55.0104 261.23 54.9805 260.931 54.9507 260.633C55.1297 260.872 55.3386 261.11 55.5773 261.319C60.6788 259.141 64.7958 255.054 67.0035 249.983C66.7648 249.744 66.5262 249.535 66.2875 249.356C66.5859 249.386 66.9141 249.416 67.2422 249.416C68.2267 246.91 68.7935 244.195 68.7935 241.331C68.7935 238.496 68.2565 235.782 67.272 233.305C66.9438 233.305 66.6157 233.335 66.3174 233.365C66.5561 233.156 66.7947 232.947 67.0334 232.739C64.8257 227.637 60.7384 223.55 55.6369 221.342C55.4281 221.581 55.2192 221.819 55.0104 222.058C55.0402 221.73 55.07 221.432 55.07 221.103C52.5939 220.119 49.879 219.582 47.0448 219.582C44.1808 219.582 41.4659 220.119 38.9599 221.133C38.9599 221.312 38.9898 221.491 38.9898 221.7C38.8704 221.551 38.7511 221.402 38.6019 221.282C33.5004 223.43 29.3535 227.488 27.116 232.56C27.3546 232.798 27.5933 233.007 27.8319 233.186Z" fill="url(#paint3_linear)"/>
<path d="M47.0446 254.696C54.4262 254.696 60.4101 248.712 60.4101 241.331C60.4101 233.949 54.4262 227.965 47.0446 227.965C39.6631 227.965 33.6792 233.949 33.6792 241.331C33.6792 248.712 39.6631 254.696 47.0446 254.696Z" fill="#1792AC"/>
<path d="M47.0447 254.279C54.1956 254.279 59.9925 248.482 59.9925 241.331C59.9925 234.18 54.1956 228.383 47.0447 228.383C39.8938 228.383 34.0969 234.18 34.0969 241.331C34.0969 248.482 39.8938 254.279 47.0447 254.279Z" fill="#22B2CF"/>
<path d="M67.958 270.568H26.4893V273.134H67.958V270.568Z" fill="#14778B"/>
<path d="M47.2553 74.0831C72.8117 74.0831 93.5291 67.5038 93.5291 59.3874C93.5291 51.2709 72.8117 44.6912 47.2553 44.6912C21.6989 44.6912 0.981201 51.2709 0.981201 59.3874C0.981201 67.5038 21.6989 74.0831 47.2553 74.0831Z" fill="#28BFDE"/>
<path d="M47.2551 63.6079C64.8199 63.6079 79.0588 49.3685 79.0588 31.8037C79.0588 14.2389 64.8199 0 47.2551 0C29.6903 0 15.4512 14.2389 15.4512 31.8037C15.4512 49.3685 29.6903 63.6079 47.2551 63.6079Z" fill="url(#paint4_linear)"/>
<path d="M36.4204 53.5955V47.6073H37.6132L39.0306 51.8472C39.1613 52.2421 39.2566 52.5375 39.3165 52.7336C39.3846 52.5157 39.4908 52.1958 39.6351 51.7737L41.0688 47.6073H42.1349V53.5955H41.3711V48.5835L39.631 53.5955H38.9162L37.1843 48.4977V53.5955H36.4204ZM46.1502 53.0604C45.8779 53.2918 45.6151 53.4552 45.3619 53.5505C45.1113 53.6458 44.8417 53.6935 44.5531 53.6935C44.0765 53.6935 43.7103 53.5778 43.4543 53.3463C43.1983 53.1121 43.0703 52.8139 43.0703 52.4517C43.0703 52.2393 43.118 52.046 43.2133 51.8717C43.3113 51.6947 43.438 51.5531 43.5932 51.4469C43.7511 51.3407 43.9281 51.2604 44.1242 51.2059C44.2685 51.1678 44.4864 51.131 44.7778 51.0956C45.3714 51.0248 45.8085 50.9404 46.0889 50.8424C46.0917 50.7416 46.093 50.6776 46.093 50.6504C46.093 50.3508 46.0236 50.1398 45.8847 50.0173C45.6968 49.8511 45.4177 49.7681 45.0473 49.7681C44.7015 49.7681 44.4455 49.8294 44.2794 49.9519C44.116 50.0717 43.9949 50.2855 43.9159 50.5932L43.197 50.4952C43.2623 50.1874 43.3699 49.9396 43.5197 49.7517C43.6694 49.5611 43.8859 49.4154 44.1691 49.3147C44.4523 49.2112 44.7805 49.1595 45.1535 49.1595C45.5239 49.1595 45.8248 49.203 46.0563 49.2902C46.2877 49.3773 46.4579 49.4876 46.5669 49.621C46.6758 49.7517 46.752 49.9179 46.7956 50.1194C46.8201 50.2446 46.8324 50.4707 46.8324 50.7974V51.7778C46.8324 52.4613 46.8473 52.8943 46.8773 53.0767C46.91 53.2564 46.9726 53.4293 47.0652 53.5955H46.2973C46.221 53.443 46.172 53.2646 46.1502 53.0604ZM46.0889 51.4183C45.8221 51.5272 45.4218 51.6198 44.888 51.6961C44.5858 51.7396 44.372 51.7887 44.2467 51.8431C44.1215 51.8976 44.0248 51.9779 43.9567 52.0841C43.8886 52.1876 43.8546 52.3033 43.8546 52.4313C43.8546 52.6274 43.9281 52.7908 44.0752 52.9215C44.225 53.0522 44.4428 53.1175 44.7287 53.1175C45.0119 53.1175 45.2638 53.0563 45.4844 52.9337C45.705 52.8085 45.867 52.6383 45.9705 52.4231C46.0495 52.257 46.0889 52.012 46.0889 51.6879V51.4183ZM47.9679 53.5955V49.2575H48.6296V49.9151C48.7985 49.6074 48.9537 49.4045 49.0953 49.3065C49.2396 49.2085 49.3976 49.1595 49.5691 49.1595C49.8169 49.1595 50.0688 49.2384 50.3248 49.3964L50.0715 50.0785C49.8918 49.9723 49.7121 49.9192 49.5324 49.9192C49.3717 49.9192 49.2274 49.9682 49.0994 50.0663C48.9714 50.1616 48.8802 50.295 48.8257 50.4666C48.744 50.728 48.7032 51.0139 48.7032 51.3244V53.5955H47.9679ZM50.7659 53.5955V47.6073H51.5012V51.0221L53.2413 49.2575H54.193L52.5346 50.8669L54.3605 53.5955H53.4537L52.0199 51.3775L51.5012 51.8758V53.5955H50.7659ZM54.6505 52.3006L55.3776 52.1862C55.4184 52.4776 55.5314 52.7009 55.7166 52.8561C55.9045 53.0113 56.1659 53.089 56.5009 53.089C56.8385 53.089 57.0891 53.0209 57.2525 52.8847C57.4159 52.7458 57.4975 52.5838 57.4975 52.3986C57.4975 52.2325 57.4254 52.1018 57.2811 52.0065C57.1803 51.9412 56.9298 51.8581 56.5295 51.7573C55.9903 51.6212 55.6159 51.5041 55.4062 51.4061C55.1992 51.3053 55.0413 51.1678 54.9323 50.9935C54.8261 50.8165 54.773 50.6218 54.773 50.4094C54.773 50.216 54.8166 50.0377 54.9038 49.8743C54.9936 49.7082 55.1148 49.5707 55.2673 49.4617C55.3817 49.3773 55.5369 49.3065 55.733 49.2493C55.9317 49.1894 56.1441 49.1595 56.3702 49.1595C56.7106 49.1595 57.0087 49.2085 57.2647 49.3065C57.5234 49.4045 57.714 49.538 57.8366 49.7068C57.9591 49.8729 58.0435 50.0962 58.0898 50.3767L57.3709 50.4747C57.3382 50.2514 57.2429 50.0772 57.085 49.9519C56.9298 49.8266 56.7092 49.764 56.4233 49.764C56.0856 49.764 55.8446 49.8198 55.7003 49.9315C55.5559 50.0431 55.4838 50.1738 55.4838 50.3236C55.4838 50.4189 55.5137 50.5047 55.5736 50.5809C55.6336 50.6599 55.7275 50.7253 55.8555 50.777C55.929 50.8042 56.1455 50.8669 56.505 50.9649C57.0251 51.1038 57.3873 51.2182 57.5915 51.308C57.7985 51.3952 57.9605 51.5231 58.0776 51.692C58.1947 51.8608 58.2532 52.0705 58.2532 52.321C58.2532 52.5661 58.1811 52.7976 58.0367 53.0154C57.8951 53.2306 57.6895 53.398 57.4199 53.5178C57.1503 53.6349 56.8454 53.6935 56.505 53.6935C55.9413 53.6935 55.511 53.5764 55.2142 53.3422C54.9201 53.108 54.7322 52.7608 54.6505 52.3006Z" fill="#07A4C4"/>
<defs>
<linearGradient id="paint0_linear" x1="77.5" y1="149.786" x2="-0.500002" y2="149.786" gradientUnits="userSpaceOnUse">
<stop stop-color="#28BFDE"/>
<stop offset="1" stop-color="#189DB8"/>
</linearGradient>
<linearGradient id="paint1_linear" x1="21" y1="244.195" x2="73" y2="244.195" gradientUnits="userSpaceOnUse">
<stop stop-color="#28BFDE"/>
<stop offset="1" stop-color="#189DB9"/>
</linearGradient>
<radialGradient id="paint2_radial" cx="0" cy="0" r="1" gradientUnits="userSpaceOnUse" gradientTransform="translate(47.0421 241.331) scale(123.69 123.69)">
<stop stop-color="#A3A7F0"/>
<stop offset="0.541176" stop-color="#8387D3"/>
<stop offset="1" stop-color="#6468B6"/>
</radialGradient>
<linearGradient id="paint3_linear" x1="48.268" y1="219.582" x2="48.268" y2="265.347" gradientUnits="userSpaceOnUse">
<stop stop-color="#FBDE82"/>
<stop offset="0.219608" stop-color="#FCA49A"/>
<stop offset="0.470588" stop-color="#FBB0F1"/>
<stop offset="0.701961" stop-color="#6EDBFC"/>
<stop offset="1" stop-color="#BFFFB0"/>
</linearGradient>
<linearGradient id="paint4_linear" x1="22.6108" y1="10.325" x2="67.2268" y2="60.6685" gradientUnits="userSpaceOnUse">
<stop stop-color="#42D4F1"/>
<stop offset="1" stop-color="#C5E8F4"/>
</linearGradient>
</defs>
</svg>