<svg width="93" height="273" viewBox="0 0 93 273" fill="none" xmlns="http://www.w3.org/2000/svg">
<path fill-rule="evenodd" clip-rule="evenodd" d="M0 58.3875H92.5479V231.048C92.5479 239.112 71.8979 245.744 46.2738 245.744C20.7252 245.744 0 239.112 0 231.048V58.3875Z" fill="url(#paint0_linear)"/>
<path d="M46.289 73.0831C71.8454 73.0831 92.563 66.5038 92.563 58.3874C92.563 50.2709 71.8454 43.6912 46.289 43.6912C20.7326 43.6912 0.0151367 50.2709 0.0151367 58.3874C0.0151367 66.5038 20.7326 73.0831 46.289 73.0831Z" fill="#E75E5E"/>
<path d="M46.289 61.1004C63.0214 61.1004 76.5858 47.536 76.5858 30.8036C76.5858 14.0712 63.0214 0.506836 46.289 0.506836C29.5566 0.506836 15.9924 14.0712 15.9924 30.8036C15.9924 47.536 29.5566 61.1004 46.289 61.1004Z" fill="url(#paint1_linear)"/>
<path d="M35.4544 52.5955V46.6073H36.6471L38.0645 50.8472C38.1952 51.2421 38.2905 51.5375 38.3504 51.7336C38.4185 51.5157 38.5247 51.1958 38.669 50.7737L40.1028 46.6073H41.1689V52.5955H40.405V47.5835L38.665 52.5955H37.9501L36.2182 47.4977V52.5955H35.4544ZM45.1842 52.0604C44.9118 52.2918 44.6491 52.4552 44.3958 52.5505C44.1453 52.6458 43.8757 52.6935 43.587 52.6935C43.1105 52.6935 42.7442 52.5778 42.4882 52.3463C42.2323 52.1121 42.1043 51.8139 42.1043 51.4517C42.1043 51.2393 42.1519 51.046 42.2472 50.8717C42.3453 50.6947 42.4719 50.5531 42.6271 50.4469C42.7851 50.3407 42.9621 50.2604 43.1581 50.2059C43.3025 50.1678 43.5203 50.131 43.8117 50.0956C44.4053 50.0248 44.8424 49.9404 45.1229 49.8424C45.1256 49.7416 45.127 49.6776 45.127 49.6504C45.127 49.3508 45.0575 49.1398 44.9186 49.0173C44.7308 48.8511 44.4516 48.7681 44.0813 48.7681C43.7354 48.7681 43.4795 48.8294 43.3134 48.9519C43.15 49.0717 43.0288 49.2855 42.9498 49.5932L42.2309 49.4952C42.2963 49.1874 42.4038 48.9396 42.5536 48.7517C42.7034 48.5611 42.9199 48.4154 43.2031 48.3147C43.4863 48.2112 43.8144 48.1595 44.1875 48.1595C44.5578 48.1595 44.8587 48.203 45.0902 48.2902C45.3217 48.3773 45.4919 48.4876 45.6008 48.621C45.7097 48.7517 45.786 48.9179 45.8295 49.1194C45.854 49.2446 45.8663 49.4707 45.8663 49.7974V50.7778C45.8663 51.4613 45.8813 51.8943 45.9112 52.0767C45.9439 52.2564 46.0065 52.4293 46.0991 52.5955H45.3312C45.255 52.443 45.2059 52.2646 45.1842 52.0604ZM45.1229 50.4183C44.856 50.5272 44.4557 50.6198 43.922 50.6961C43.6197 50.7396 43.4059 50.7887 43.2807 50.8431C43.1554 50.8976 43.0587 50.9779 42.9907 51.0841C42.9226 51.1876 42.8885 51.3033 42.8885 51.4313C42.8885 51.6274 42.9621 51.7908 43.1091 51.9215C43.2589 52.0522 43.4767 52.1175 43.7627 52.1175C44.0459 52.1175 44.2978 52.0563 44.5183 51.9337C44.7389 51.8085 44.9009 51.6383 45.0044 51.4231C45.0834 51.257 45.1229 51.012 45.1229 50.6879V50.4183ZM47.0019 52.5955V48.2575H47.6636V48.9151C47.8324 48.6074 47.9876 48.4045 48.1292 48.3065C48.2736 48.2085 48.4315 48.1595 48.6031 48.1595C48.8509 48.1595 49.1028 48.2384 49.3587 48.3964L49.1055 49.0785C48.9257 48.9723 48.746 48.9192 48.5663 48.9192C48.4056 48.9192 48.2613 48.9682 48.1333 49.0663C48.0053 49.1616 47.9141 49.295 47.8596 49.4666C47.7779 49.728 47.7371 50.0139 47.7371 50.3244V52.5955H47.0019ZM49.7999 52.5955V46.6073H50.5351V50.0221L52.2752 48.2575H53.2269L51.5686 49.8669L53.3944 52.5955H52.4876L51.0539 50.3775L50.5351 50.8758V52.5955H49.7999ZM53.6844 51.3006L54.4115 51.1862C54.4524 51.4776 54.5654 51.7009 54.7505 51.8561C54.9384 52.0113 55.1999 52.089 55.5348 52.089C55.8725 52.089 56.123 52.0209 56.2864 51.8847C56.4498 51.7458 56.5315 51.5838 56.5315 51.3986C56.5315 51.2325 56.4593 51.1018 56.315 51.0065C56.2142 50.9412 55.9637 50.8581 55.5634 50.7573C55.0242 50.6212 54.6498 50.5041 54.4401 50.4061C54.2332 50.3053 54.0752 50.1678 53.9663 49.9935C53.8601 49.8165 53.807 49.6218 53.807 49.4094C53.807 49.216 53.8505 49.0377 53.9377 48.8743C54.0276 48.7082 54.1487 48.5707 54.3012 48.4617C54.4156 48.3773 54.5708 48.3065 54.7669 48.2493C54.9657 48.1894 55.1781 48.1595 55.4041 48.1595C55.7445 48.1595 56.0427 48.2085 56.2987 48.3065C56.5574 48.4045 56.748 48.538 56.8705 48.7068C56.9931 48.8729 57.0775 49.0962 57.1238 49.3767L56.4049 49.4747C56.3722 49.2514 56.2769 49.0772 56.1189 48.9519C55.9637 48.8266 55.7431 48.764 55.4572 48.764C55.1195 48.764 54.8785 48.8198 54.7342 48.9315C54.5899 49.0431 54.5177 49.1738 54.5177 49.3236C54.5177 49.4189 54.5477 49.5047 54.6076 49.5809C54.6675 49.6599 54.7614 49.7253 54.8894 49.777C54.963 49.8042 55.1794 49.8669 55.5389 49.9649C56.059 50.1038 56.4212 50.2182 56.6254 50.308C56.8324 50.3952 56.9944 50.5231 57.1115 50.692C57.2286 50.8608 57.2872 51.0705 57.2872 51.321C57.2872 51.5661 57.215 51.7976 57.0707 52.0154C56.9291 52.2306 56.7235 52.398 56.4539 52.5178C56.1843 52.6349 55.8793 52.6935 55.5389 52.6935C54.9752 52.6935 54.545 52.5764 54.2481 52.3422C53.954 52.108 53.7661 51.7608 53.6844 51.3006Z" fill="#D93B3B"/>
<path fill-rule="evenodd" clip-rule="evenodd" d="M23.4608 269.925L20.9845 270.403C20.9845 270.403 20.6563 269.09 22.2674 267.181C23.8485 265.271 23.938 265.242 23.938 265.242C23.938 265.242 29.0396 263.69 29.1589 261.9C29.2783 260.14 29.2783 260.14 29.2783 260.14L32.0528 262.795C32.0528 262.795 29.2485 269.836 23.4608 269.925Z" fill="#FFC4C4"/>
<path fill-rule="evenodd" clip-rule="evenodd" d="M68.5692 269.925L71.0154 270.403C71.0154 270.403 71.3437 269.09 69.7625 267.181C68.1813 265.271 68.0918 265.242 68.0918 265.242C68.0918 265.242 62.9903 263.69 62.8709 261.9C62.7516 260.14 62.7516 260.14 62.7516 260.14L59.9771 262.795C59.9771 262.795 62.7814 269.836 68.5692 269.925Z" fill="#FFC4C4"/>
<path fill-rule="evenodd" clip-rule="evenodd" d="M70.3293 272.133H65.9438C65.9438 271.477 65.4068 270.94 64.7505 270.94H27.2496C26.5932 270.94 26.0264 271.477 26.0264 272.133H21.6707C17.4641 266.107 34.6781 268.613 28.055 260.23C26.981 258.828 25.549 256.65 24.5048 254.979C24.0275 254.263 23.58 253.517 23.1624 252.771V252.742C21.1337 249.042 20 244.836 20 240.331C20 225.951 31.6351 214.316 45.9851 214.286C60.3649 214.316 72 225.951 72 240.331C72 244.836 70.8365 249.042 68.8376 252.742V252.771C68.42 253.517 67.9725 254.263 67.4653 254.979C66.451 256.65 65.019 258.828 63.9151 260.23C57.3219 268.613 74.506 266.107 70.3293 272.133Z" fill="url(#paint2_linear)"/>
<path d="M46.0447 261.99C58.0067 261.99 67.7039 252.293 67.7039 240.331C67.7039 228.369 58.0067 218.672 46.0447 218.672C34.0826 218.672 24.3855 228.369 24.3855 240.331C24.3855 252.293 34.0826 261.99 46.0447 261.99Z" fill="url(#paint3_radial)"/>
<path d="M46.0448 262.079C58.0563 262.079 67.7935 252.342 67.7935 240.331C67.7935 228.319 58.0563 218.582 46.0448 218.582C34.0333 218.582 24.2961 228.319 24.2961 240.331C24.2961 252.342 34.0333 262.079 46.0448 262.079Z" fill="#FEFEFE"/>
<path fill-rule="evenodd" clip-rule="evenodd" d="M30.5611 246.566C29.7855 244.657 29.3379 242.538 29.3379 240.331C29.3379 238.033 29.8153 235.856 30.6506 233.857C29.2783 233.648 27.9656 233.111 26.8319 232.186C28.2639 232.395 29.5766 232.932 30.6805 233.767C32.381 229.799 35.5732 226.607 39.5709 224.907C38.6759 223.713 38.1091 222.281 37.9898 220.7C39.0041 221.893 39.6306 223.325 39.8096 224.817C41.7488 224.041 43.8371 223.624 46.0448 223.624C48.2823 223.624 50.4304 224.071 52.3994 224.877C52.5784 223.505 53.1154 222.192 54.0104 221.058C53.8314 222.49 53.2943 223.803 52.459 224.907C56.5164 226.607 59.7683 229.859 61.4688 233.916C62.5727 233.081 63.8854 232.544 65.3174 232.365C64.1837 233.26 62.871 233.797 61.4987 233.976C62.3042 235.945 62.7516 238.093 62.7516 240.331C62.7516 242.598 62.3042 244.746 61.4688 246.715C62.8412 246.894 64.1538 247.461 65.2875 248.356C63.8555 248.177 62.5428 247.61 61.439 246.805C59.7384 250.832 56.4866 254.084 52.4292 255.755C53.2347 256.858 53.7717 258.171 53.9507 259.633C53.0557 258.469 52.5187 257.157 52.3397 255.784C50.4006 256.59 48.2823 257.008 46.0448 257.008C43.7476 257.008 41.5996 256.56 39.6007 255.755C39.4217 257.097 38.8549 258.41 37.9599 259.544C38.1389 258.112 38.7057 256.799 39.5411 255.695C35.4837 253.995 32.2617 250.743 30.591 246.655C29.4872 247.491 28.1447 248.028 26.7127 248.177C27.8762 247.312 29.1888 246.775 30.5611 246.566ZM26.8319 232.186C26.5336 232.156 26.2055 232.126 25.8773 232.126C24.863 234.662 24.2961 237.437 24.2961 240.331C24.2961 243.105 24.8331 245.79 25.7878 248.237C26.0862 248.237 26.4143 248.207 26.7127 248.177C26.474 248.386 26.2353 248.595 25.9966 248.804C28.1744 253.935 32.2617 258.022 37.3334 260.26C37.5721 260.021 37.7809 259.782 37.9599 259.544C37.9301 259.872 37.9003 260.17 37.9003 260.498C40.4063 261.513 43.1509 262.079 46.0448 262.079C48.8492 262.079 51.5342 261.542 54.0104 260.558C54.0104 260.23 53.9805 259.931 53.9507 259.633C54.1297 259.872 54.3386 260.11 54.5773 260.319C59.6788 258.141 63.7958 254.054 66.0035 248.983C65.7648 248.744 65.5262 248.535 65.2875 248.356C65.5859 248.386 65.9141 248.416 66.2422 248.416C67.2267 245.91 67.7935 243.195 67.7935 240.331C67.7935 237.496 67.2565 234.782 66.272 232.305C65.9438 232.305 65.6157 232.335 65.3174 232.365C65.5561 232.156 65.7947 231.947 66.0334 231.739C63.8257 226.637 59.7384 222.55 54.6369 220.342C54.4281 220.581 54.2192 220.819 54.0104 221.058C54.0402 220.73 54.07 220.432 54.07 220.103C51.5939 219.119 48.879 218.582 46.0448 218.582C43.1808 218.582 40.4659 219.119 37.9599 220.133C37.9599 220.312 37.9898 220.491 37.9898 220.7C37.8704 220.551 37.7511 220.402 37.6019 220.282C32.5004 222.43 28.3535 226.488 26.116 231.56C26.3546 231.798 26.5933 232.007 26.8319 232.186Z" fill="url(#paint4_linear)"/>
<path d="M46.0446 253.696C53.4262 253.696 59.4101 247.712 59.4101 240.331C59.4101 232.949 53.4262 226.965 46.0446 226.965C38.6631 226.965 32.6792 232.949 32.6792 240.331C32.6792 247.712 38.6631 253.696 46.0446 253.696Z" fill="#DA3F3F"/>
<path d="M46.0447 253.279C53.1956 253.279 58.9925 247.482 58.9925 240.331C58.9925 233.18 53.1956 227.383 46.0447 227.383C38.8938 227.383 33.0969 233.18 33.0969 240.331C33.0969 247.482 38.8938 253.279 46.0447 253.279Z" fill="#ED6E6E"/>
<path d="M66.958 269.568H25.4893V272.134H66.958V269.568Z" fill="#AC2F2F"/>
<defs>
<linearGradient id="paint0_linear" x1="0" y1="152.066" x2="92.5479" y2="152.066" gradientUnits="userSpaceOnUse">
<stop stop-color="#D93B3B"/>
<stop offset="0.458824" stop-color="#E86161"/>
<stop offset="1" stop-color="#F78888"/>
</linearGradient>
<linearGradient id="paint1_linear" x1="64.3767" y1="53.8653" x2="35.361" y2="11.8871" gradientUnits="userSpaceOnUse">
<stop stop-color="#F08D8D"/>
<stop offset="1" stop-color="#FEFEFE"/>
</linearGradient>
<linearGradient id="paint2_linear" x1="20" y1="243.195" x2="72" y2="243.195" gradientUnits="userSpaceOnUse">
<stop stop-color="#F68787"/>
<stop offset="1" stop-color="#D93C3C"/>
</linearGradient>
<radialGradient id="paint3_radial" cx="0" cy="0" r="1" gradientUnits="userSpaceOnUse" gradientTransform="translate(46.0421 240.331) scale(123.69 123.69)">
<stop stop-color="#A3A7F0"/>
<stop offset="0.541176" stop-color="#8387D3"/>
<stop offset="1" stop-color="#6468B6"/>
</radialGradient>
<linearGradient id="paint4_linear" x1="47.268" y1="218.582" x2="47.268" y2="264.347" gradientUnits="userSpaceOnUse">
<stop stop-color="#FBDE82"/>
<stop offset="0.219608" stop-color="#FCA49A"/>
<stop offset="0.470588" stop-color="#FBB0F1"/>
<stop offset="0.701961" stop-color="#6EDBFC"/>
<stop offset="1" stop-color="#BFFFB0"/>
</linearGradient>
</defs>
</svg>