<svg width="94" height="273" viewBox="0 0 94 273" fill="none" xmlns="http://www.w3.org/2000/svg">
<path fill-rule="evenodd" clip-rule="evenodd" d="M1 58.3875H93.5479V231.048C93.5479 239.112 72.8227 245.744 47.2741 245.744C21.7254 245.744 1 239.112 1 231.048V58.3875Z" fill="url(#paint0_linear)"/>
<path d="M47.2213 73.0831C72.7777 73.0831 93.4952 66.5038 93.4952 58.3874C93.4952 50.2709 72.7777 43.6912 47.2213 43.6912C21.6649 43.6912 0.947266 50.2709 0.947266 58.3874C0.947266 66.5038 21.6649 73.0831 47.2213 73.0831Z" fill="#8589D4"/>
<path d="M47.2211 61.1004C63.9535 61.1004 77.5177 47.536 77.5177 30.8036C77.5177 14.0712 63.9535 0.506836 47.2211 0.506836C30.4887 0.506836 16.9246 14.0712 16.9246 30.8036C16.9246 47.536 30.4887 61.1004 47.2211 61.1004Z" fill="url(#paint1_linear)"/>
<path d="M36.3867 52.5955V46.6073H37.5795L38.9969 50.8472C39.1276 51.2421 39.2229 51.5375 39.2828 51.7336C39.3509 51.5157 39.4571 51.1958 39.6014 50.7737L41.0351 46.6073H42.1013V52.5955H41.3374V47.5835L39.5973 52.5955H38.8825L37.1506 47.4977V52.5955H36.3867ZM46.1165 52.0604C45.8442 52.2918 45.5814 52.4552 45.3282 52.5505C45.0776 52.6458 44.8081 52.6935 44.5194 52.6935C44.0429 52.6935 43.6766 52.5778 43.4206 52.3463C43.1646 52.1121 43.0367 51.8139 43.0367 51.4517C43.0367 51.2393 43.0843 51.046 43.1796 50.8717C43.2777 50.6947 43.4043 50.5531 43.5595 50.4469C43.7174 50.3407 43.8944 50.2604 44.0905 50.2059C44.2348 50.1678 44.4527 50.131 44.7441 50.0956C45.3377 50.0248 45.7748 49.9404 46.0553 49.8424C46.058 49.7416 46.0593 49.6776 46.0593 49.6504C46.0593 49.3508 45.9899 49.1398 45.851 49.0173C45.6631 48.8511 45.384 48.7681 45.0137 48.7681C44.6678 48.7681 44.4118 48.8294 44.2457 48.9519C44.0823 49.0717 43.9612 49.2855 43.8822 49.5932L43.1633 49.4952C43.2286 49.1874 43.3362 48.9396 43.486 48.7517C43.6357 48.5611 43.8522 48.4154 44.1354 48.3147C44.4186 48.2112 44.7468 48.1595 45.1199 48.1595C45.4902 48.1595 45.7911 48.203 46.0226 48.2902C46.254 48.3773 46.4242 48.4876 46.5332 48.621C46.6421 48.7517 46.7183 48.9179 46.7619 49.1194C46.7864 49.2446 46.7987 49.4707 46.7987 49.7974V50.7778C46.7987 51.4613 46.8137 51.8943 46.8436 52.0767C46.8763 52.2564 46.9389 52.4293 47.0315 52.5955H46.2636C46.1873 52.443 46.1383 52.2646 46.1165 52.0604ZM46.0553 50.4183C45.7884 50.5272 45.3881 50.6198 44.8544 50.6961C44.5521 50.7396 44.3383 50.7887 44.2131 50.8431C44.0878 50.8976 43.9911 50.9779 43.923 51.0841C43.855 51.1876 43.8209 51.3033 43.8209 51.4313C43.8209 51.6274 43.8944 51.7908 44.0415 51.9215C44.1913 52.0522 44.4091 52.1175 44.695 52.1175C44.9783 52.1175 45.2301 52.0563 45.4507 51.9337C45.6713 51.8085 45.8333 51.6383 45.9368 51.4231C46.0158 51.257 46.0553 51.012 46.0553 50.6879V50.4183ZM47.9342 52.5955V48.2575H48.5959V48.9151C48.7648 48.6074 48.92 48.4045 49.0616 48.3065C49.2059 48.2085 49.3639 48.1595 49.5354 48.1595C49.7832 48.1595 50.0351 48.2384 50.2911 48.3964L50.0378 49.0785C49.8581 48.9723 49.6784 48.9192 49.4987 48.9192C49.338 48.9192 49.1937 48.9682 49.0657 49.0663C48.9377 49.1616 48.8465 49.295 48.792 49.4666C48.7103 49.728 48.6695 50.0139 48.6695 50.3244V52.5955H47.9342ZM50.7322 52.5955V46.6073H51.4675V50.0221L53.2076 48.2575H54.1593L52.5009 49.8669L54.3268 52.5955H53.42L51.9863 50.3775L51.4675 50.8758V52.5955H50.7322ZM54.6168 51.3006L55.3439 51.1862C55.3847 51.4776 55.4977 51.7009 55.6829 51.8561C55.8708 52.0113 56.1322 52.089 56.4672 52.089C56.8049 52.089 57.0554 52.0209 57.2188 51.8847C57.3822 51.7458 57.4639 51.5838 57.4639 51.3986C57.4639 51.2325 57.3917 51.1018 57.2474 51.0065C57.1466 50.9412 56.8961 50.8581 56.4958 50.7573C55.9566 50.6212 55.5822 50.5041 55.3725 50.4061C55.1655 50.3053 55.0076 50.1678 54.8987 49.9935C54.7925 49.8165 54.7394 49.6218 54.7394 49.4094C54.7394 49.216 54.7829 49.0377 54.8701 48.8743C54.9599 48.7082 55.0811 48.5707 55.2336 48.4617C55.348 48.3773 55.5032 48.3065 55.6993 48.2493C55.898 48.1894 56.1105 48.1595 56.3365 48.1595C56.6769 48.1595 56.9751 48.2085 57.231 48.3065C57.4897 48.4045 57.6803 48.538 57.8029 48.7068C57.9254 48.8729 58.0098 49.0962 58.0561 49.3767L57.3372 49.4747C57.3046 49.2514 57.2092 49.0772 57.0513 48.9519C56.8961 48.8266 56.6755 48.764 56.3896 48.764C56.0519 48.764 55.8109 48.8198 55.6666 48.9315C55.5223 49.0431 55.4501 49.1738 55.4501 49.3236C55.4501 49.4189 55.48 49.5047 55.54 49.5809C55.5999 49.6599 55.6938 49.7253 55.8218 49.777C55.8953 49.8042 56.1118 49.8669 56.4713 49.9649C56.9914 50.1038 57.3536 50.2182 57.5578 50.308C57.7648 50.3952 57.9268 50.5231 58.0439 50.692C58.161 50.8608 58.2195 51.0705 58.2195 51.321C58.2195 51.5661 58.1474 51.7976 58.003 52.0154C57.8614 52.2306 57.6558 52.398 57.3862 52.5178C57.1167 52.6349 56.8117 52.6935 56.4713 52.6935C55.9076 52.6935 55.4773 52.5764 55.1805 52.3422C54.8864 52.108 54.6985 51.7608 54.6168 51.3006Z" fill="#6569B7"/>
<path fill-rule="evenodd" clip-rule="evenodd" d="M71.3293 272.133H66.9438C66.9438 271.477 66.4068 270.94 65.7505 270.94H28.2496C27.5932 270.94 27.0264 271.477 27.0264 272.133H22.6707C18.4641 266.107 35.6781 268.613 29.055 260.23C27.981 258.828 26.549 256.65 25.5048 254.979C25.0275 254.263 24.58 253.517 24.1624 252.771V252.742C22.1337 249.042 21 244.836 21 240.331C21 225.951 32.6351 214.316 46.9851 214.286C61.3649 214.316 73 225.951 73 240.331C73 244.836 71.8365 249.042 69.8376 252.742V252.771C69.42 253.517 68.9725 254.263 68.4653 254.979C67.451 256.65 66.019 258.828 64.9151 260.23C58.3219 268.613 75.506 266.107 71.3293 272.133Z" fill="url(#paint2_linear)"/>
<path d="M47.0447 261.99C59.0067 261.99 68.7039 252.293 68.7039 240.331C68.7039 228.369 59.0067 218.672 47.0447 218.672C35.0826 218.672 25.3855 228.369 25.3855 240.331C25.3855 252.293 35.0826 261.99 47.0447 261.99Z" fill="url(#paint3_radial)"/>
<path d="M47.0448 262.079C59.0563 262.079 68.7935 252.342 68.7935 240.331C68.7935 228.319 59.0563 218.582 47.0448 218.582C35.0333 218.582 25.2961 228.319 25.2961 240.331C25.2961 252.342 35.0333 262.079 47.0448 262.079Z" fill="#FEFEFE"/>
<path fill-rule="evenodd" clip-rule="evenodd" d="M31.5611 246.566C30.7855 244.657 30.3379 242.538 30.3379 240.331C30.3379 238.033 30.8153 235.856 31.6506 233.857C30.2783 233.648 28.9656 233.111 27.8319 232.186C29.2639 232.395 30.5766 232.932 31.6805 233.767C33.381 229.799 36.5732 226.607 40.5709 224.907C39.6759 223.713 39.1091 222.281 38.9898 220.7C40.0041 221.893 40.6306 223.325 40.8096 224.817C42.7488 224.041 44.8371 223.624 47.0448 223.624C49.2823 223.624 51.4304 224.071 53.3994 224.877C53.5784 223.505 54.1154 222.192 55.0104 221.058C54.8314 222.49 54.2943 223.803 53.459 224.907C57.5164 226.607 60.7683 229.859 62.4688 233.916C63.5727 233.081 64.8854 232.544 66.3174 232.365C65.1837 233.26 63.871 233.797 62.4987 233.976C63.3042 235.945 63.7516 238.093 63.7516 240.331C63.7516 242.598 63.3042 244.746 62.4688 246.715C63.8412 246.894 65.1538 247.461 66.2875 248.356C64.8555 248.177 63.5428 247.61 62.439 246.805C60.7384 250.832 57.4866 254.084 53.4292 255.755C54.2347 256.858 54.7717 258.171 54.9507 259.633C54.0557 258.469 53.5187 257.157 53.3397 255.784C51.4006 256.59 49.2823 257.008 47.0448 257.008C44.7476 257.008 42.5996 256.56 40.6007 255.755C40.4217 257.097 39.8549 258.41 38.9599 259.544C39.1389 258.112 39.7057 256.799 40.5411 255.695C36.4837 253.995 33.2617 250.743 31.591 246.655C30.4872 247.491 29.1447 248.028 27.7127 248.177C28.8762 247.312 30.1888 246.775 31.5611 246.566ZM27.8319 232.186C27.5336 232.156 27.2055 232.126 26.8773 232.126C25.863 234.662 25.2961 237.437 25.2961 240.331C25.2961 243.105 25.8331 245.79 26.7878 248.237C27.0862 248.237 27.4143 248.207 27.7127 248.177C27.474 248.386 27.2353 248.595 26.9966 248.804C29.1744 253.935 33.2617 258.022 38.3334 260.26C38.5721 260.021 38.7809 259.782 38.9599 259.544C38.9301 259.872 38.9003 260.17 38.9003 260.498C41.4063 261.513 44.1509 262.079 47.0448 262.079C49.8492 262.079 52.5342 261.542 55.0104 260.558C55.0104 260.23 54.9805 259.931 54.9507 259.633C55.1297 259.872 55.3386 260.11 55.5773 260.319C60.6788 258.141 64.7958 254.054 67.0035 248.983C66.7648 248.744 66.5262 248.535 66.2875 248.356C66.5859 248.386 66.9141 248.416 67.2422 248.416C68.2267 245.91 68.7935 243.195 68.7935 240.331C68.7935 237.496 68.2565 234.782 67.272 232.305C66.9438 232.305 66.6157 232.335 66.3174 232.365C66.5561 232.156 66.7947 231.947 67.0334 231.739C64.8257 226.637 60.7384 222.55 55.6369 220.342C55.4281 220.581 55.2192 220.819 55.0104 221.058C55.0402 220.73 55.07 220.432 55.07 220.103C52.5939 219.119 49.879 218.582 47.0448 218.582C44.1808 218.582 41.4659 219.119 38.9599 220.133C38.9599 220.312 38.9898 220.491 38.9898 220.7C38.8704 220.551 38.7511 220.402 38.6019 220.282C33.5004 222.43 29.3535 226.488 27.116 231.56C27.3546 231.798 27.5933 232.007 27.8319 232.186Z" fill="url(#paint4_linear)"/>
<path d="M47.0446 253.696C54.4262 253.696 60.4101 247.712 60.4101 240.331C60.4101 232.949 54.4262 226.965 47.0446 226.965C39.6631 226.965 33.6792 232.949 33.6792 240.331C33.6792 247.712 39.6631 253.696 47.0446 253.696Z" fill="#5D61AF"/>
<path d="M47.0447 253.279C54.1956 253.279 59.9925 247.482 59.9925 240.331C59.9925 233.18 54.1956 227.383 47.0447 227.383C39.8938 227.383 34.0969 233.18 34.0969 240.331C34.0969 247.482 39.8938 253.279 47.0447 253.279Z" fill="#8B8FDA"/>
<path d="M67.958 269.568H26.4893V272.134H67.958V269.568Z" fill="#4E5293"/>
<defs>
<linearGradient id="paint0_linear" x1="1" y1="152.066" x2="93.5479" y2="152.066" gradientUnits="userSpaceOnUse">
<stop stop-color="#6367B5"/>
<stop offset="0.458824" stop-color="#8387D2"/>
<stop offset="1" stop-color="#A3A7F0"/>
</linearGradient>
<linearGradient id="paint1_linear" x1="65.3086" y1="53.8653" x2="36.293" y2="11.8872" gradientUnits="userSpaceOnUse">
<stop stop-color="#ACB0F7"/>
<stop offset="1" stop-color="#FEFEFE"/>
</linearGradient>
<linearGradient id="paint2_linear" x1="21" y1="243.195" x2="73" y2="243.195" gradientUnits="userSpaceOnUse">
<stop stop-color="#A1A5EE"/>
<stop offset="1" stop-color="#6468B6"/>
</linearGradient>
<radialGradient id="paint3_radial" cx="0" cy="0" r="1" gradientUnits="userSpaceOnUse" gradientTransform="translate(47.0421 240.331) scale(123.69 123.69)">
<stop stop-color="#A3A7F0"/>
<stop offset="0.541176" stop-color="#8387D3"/>
<stop offset="1" stop-color="#6468B6"/>
</radialGradient>
<linearGradient id="paint4_linear" x1="48.268" y1="218.582" x2="48.268" y2="264.347" gradientUnits="userSpaceOnUse">
<stop stop-color="#FBDE82"/>
<stop offset="0.219608" stop-color="#FCA49A"/>
<stop offset="0.470588" stop-color="#FBB0F1"/>
<stop offset="0.701961" stop-color="#6EDBFC"/>
<stop offset="1" stop-color="#BFFFB0"/>
</linearGradient>
</defs>
</svg>