<svg width="21" height="21" viewBox="0 0 21 21" fill="none" xmlns="http://www.w3.org/2000/svg">
<path fill-rule="evenodd" clip-rule="evenodd" d="M10.5641 0.211426C16.2164 0.211426 20.8137 4.80862 20.8137 10.461C20.8137 16.038 16.2164 20.6353 10.5641 20.6353C4.9117 20.6353 0.314453 16.038 0.314453 10.461C0.314453 4.80862 4.9117 0.211426 10.5641 0.211426ZM10.5641 1.04039C15.7642 1.04039 19.9847 5.26081 19.9847 10.461C19.9847 15.5858 15.7642 19.8062 10.5641 19.8062C5.36389 19.8062 1.14346 15.5858 1.14346 10.461C1.14346 5.26081 5.36389 1.04039 10.5641 1.04039ZM3.32904 5.71302H11.9206V14.3046H2.95222V5.71302H3.32904ZM11.0916 6.54204H3.78123V13.4756H11.0916V6.54204ZM15.1613 12.1944C15.1613 12.0437 15.1613 11.8929 15.1613 11.8175C15.1613 11.4407 15.2367 11.0639 15.312 10.7624C15.4628 10.5364 15.5381 10.3103 15.7642 10.0088C15.915 9.85808 16.141 9.632 16.5179 9.25517C16.8947 8.95371 17.1962 8.72763 17.2715 8.50154C17.4223 8.27544 17.4222 8.04932 17.4222 7.82322C17.4222 7.4464 17.2715 7.06957 16.9701 6.69274C16.5932 6.39128 16.2164 6.24057 15.7642 6.24057C15.312 6.24057 14.8598 6.39128 14.5584 6.69274C14.2569 6.9942 14.1062 7.44639 13.9555 8.04931L12.9004 7.89861C12.9757 7.06959 13.2772 6.46667 13.7294 6.01449C14.2569 5.5623 14.9352 5.33623 15.6889 5.33623C16.5932 5.33623 17.2715 5.56231 17.7991 6.08987C18.3266 6.54206 18.5527 7.06962 18.5527 7.7479C18.5527 8.12472 18.4774 8.5015 18.3266 8.87833C18.1005 9.17978 17.7237 9.55662 17.1962 10.0088C16.8947 10.3103 16.6686 10.6118 16.5179 10.6871C16.4425 10.8379 16.3671 11.0639 16.2918 11.2147C16.2164 11.4408 16.2164 11.7422 16.2164 12.1944H15.1613ZM14.9352 14.38V13.0988H16.2164V14.38H14.9352Z" fill="#025B85"/>
</svg>