<svg width="28" height="27" viewBox="0 0 28 27" fill="none" xmlns="http://www.w3.org/2000/svg">
<path fill-rule="evenodd" clip-rule="evenodd" d="M14.2963 7.28545C18.4413 7.28545 21.7574 10.6017 21.7574 14.7467C21.7574 18.0628 19.6472 20.7759 16.7833 21.831V25.2977C16.7833 25.7499 16.3312 26.2021 15.8037 26.2021H12.789C12.2615 26.2021 11.8093 25.7499 11.8093 25.2977V21.831C8.87012 20.7759 6.83524 18.0628 6.83524 14.7467C6.83524 10.6017 10.1512 7.28545 14.2963 7.28545ZM4.49895 14.8219H0.730713V13.3148H4.49895V14.8219ZM5.32797 18.2889L1.78582 19.6454L1.25821 18.2889L4.80036 16.8569L5.32797 18.2889ZM22.9633 10.5263L26.5054 9.16957L27.0329 10.5263L23.4908 11.8828L22.9633 10.5263ZM10.302 5.5522L8.87012 2.01005L10.302 1.48244L11.6586 5.0246L10.302 5.5522ZM5.10188 11.2046L1.55973 9.77261L2.08722 8.34066L5.62938 9.77261L5.10188 11.2046ZM23.1894 17.6104L26.7315 19.0423L26.2039 20.3991L22.6618 18.9671L23.1894 17.6104ZM17.3863 5.32612L18.7429 1.78397L20.1748 2.31134L18.7429 5.8535L17.3863 5.32612ZM6.986 7.88849L4.27287 5.25068L5.32797 4.19546L8.0411 6.83328L6.986 7.88849ZM21.3053 20.8512L24.0184 23.5643L22.9633 24.6195L20.2502 21.9062L21.3053 20.8512ZM7.66426 21.5295L5.02644 24.2425L3.97134 23.1875L6.60916 20.4743L7.66426 21.5295ZM20.627 7.28545L23.2647 4.57243L24.3198 5.62741L21.6821 8.34066L20.627 7.28545ZM23.7923 13.993H27.5605V15.5002H23.7923V13.993ZM13.7688 4.79851V0.954834H15.2007V4.79851H13.7688Z" fill="#FEFEFE"/>
</svg>