<svg width="44" height="44" viewBox="0 0 44 44" fill="none" xmlns="http://www.w3.org/2000/svg">
<path fill-rule="evenodd" clip-rule="evenodd" d="M21.8406 2.84192C32.3163 2.84192 40.8324 11.3582 40.8324 21.8339C40.8324 32.3096 32.3163 40.8258 21.8406 40.8258C11.3649 40.8258 2.84875 32.3096 2.84875 21.8339C2.84875 11.3582 11.3649 2.84192 21.8406 2.84192ZM21.8406 0.279541C33.7482 0.279541 43.395 9.92623 43.395 21.8339C43.395 33.7415 33.7482 43.3881 21.8406 43.3881C9.93295 43.3881 0.286377 33.7415 0.286377 21.8339C0.286377 9.92623 9.93295 0.279541 21.8406 0.279541ZM21.8406 6.0826L26.9653 14.8249L36.8381 16.9351L30.1308 24.4716L31.1105 34.5705L21.8406 30.5008L12.5706 34.5705L13.6259 24.4716L6.84307 16.9351L16.7913 14.8249L21.8406 6.0826ZM21.8406 17.1612L22.971 19.1207L25.1567 19.5729L23.6493 21.2309L23.8754 23.4918L21.8406 22.5875L19.8058 23.4918L20.0319 21.2309L18.5245 19.5729L20.7102 19.1207L21.8406 17.1612Z" fill="#575BB8"/>
</svg>