<svg width="31" height="31" viewBox="0 0 31 31" fill="none" xmlns="http://www.w3.org/2000/svg">
<path fill-rule="evenodd" clip-rule="evenodd" d="M18.9027 10.7039H21.1636L18.9027 12.8895V10.7039ZM22.5955 15.4519V24.4956H18.9027V19.1448L22.5955 15.4519ZM8.05014 16.8084H9.55747L8.05014 18.3157V16.8084ZM11.743 21.0289V24.4956H8.35161L11.743 21.0289ZM14.0793 13.9446H17.1693V14.5475L15.9635 15.7533L14.0793 13.9446ZM17.1693 20.8781V24.4956H13.4764V19.5969L16.1142 21.9332L17.1693 20.8781ZM5.48777 22.084L13.1749 14.3968L15.8881 16.9592L22.2941 10.6285L19.2795 7.61393L26.6652 8.44294L27.2682 15.678L24.1782 12.6634L16.0388 20.8028L13.2503 18.2404L7.44721 24.1942L5.48777 22.084ZM15.662 1.35867C23.3492 1.35867 29.5291 7.53856 29.5291 15.1504C29.5291 22.8376 23.3492 29.0175 15.662 29.0175C8.05016 29.0175 1.87023 22.8376 1.87023 15.1504C1.87023 7.53856 8.05016 1.35867 15.662 1.35867ZM15.662 0.152832C23.9521 0.152832 30.735 6.86028 30.735 15.1504C30.735 23.5159 23.9521 30.2234 15.662 30.2234C7.37188 30.2234 0.664429 23.5159 0.664429 15.1504C0.664429 6.86028 7.37188 0.152832 15.662 0.152832ZM13.0996 3.77034L14.7576 6.48347L17.9229 7.23711L15.8127 9.64878L16.0388 12.8895L13.0996 11.6083L10.1603 12.8895L10.3864 9.64878L8.35161 7.23711L11.4416 6.48347L13.0996 3.77034Z" fill="#1193AD"/>
</svg>