<svg width="31" height="32" viewBox="0 0 31 32" fill="none" xmlns="http://www.w3.org/2000/svg">
<path fill-rule="evenodd" clip-rule="evenodd" d="M15.5229 0.875732C23.813 0.875732 30.5205 7.65856 30.5205 15.9487C30.5205 24.2388 23.813 31.0216 15.5229 31.0216C7.15741 31.0216 0.449951 24.2388 0.449951 15.9487C0.449951 7.65856 7.15741 0.875732 15.5229 0.875732ZM15.5229 2.15695C23.1347 2.15695 29.3147 8.33684 29.3147 15.9487C29.3147 23.5605 23.1347 29.7404 15.5229 29.7404C7.8357 29.7404 1.65579 23.5605 1.65579 15.9487C1.65579 8.33684 7.8357 2.15695 15.5229 2.15695ZM15.5229 10.3717L17.407 13.2356L20.7984 14.1399L18.6129 16.8531L18.7636 20.3952L15.5229 19.114L12.2069 20.3952L12.4329 16.8531L10.2474 14.1399L13.5634 13.2356L15.5229 10.3717ZM15.5229 5.39763C21.326 5.39763 25.9986 10.1456 25.9986 15.9487C25.9986 16.627 25.9986 17.2299 25.8479 17.8328L24.1898 17.1545C24.2652 16.7777 24.2652 16.3255 24.2652 15.9487C24.2652 11.1253 20.3462 7.13102 15.5229 7.13102C13.0359 7.13102 10.7749 8.18612 9.19226 9.76878L10.3227 9.54269C10.3227 9.54269 11.3025 9.54269 11.4532 10.221C11.6039 10.8993 11.1518 11.2761 10.6996 11.4268L6.40377 12.4819L5.72549 8.11077C5.72549 8.11077 5.95159 7.28174 6.40377 7.20637H6.47914C7.08206 7.13101 7.53424 7.35712 7.60961 7.80931L7.76034 8.78905C9.71983 6.67884 12.4329 5.39763 15.5229 5.39763ZM23.4362 24.4649L23.2101 23.1083C21.326 25.2186 18.5375 26.4998 15.5229 26.4998C9.64445 26.4998 4.97184 21.7518 4.97184 15.9487C4.97184 15.4211 4.97184 14.8182 5.12257 14.2907L6.78059 14.969C6.70523 15.2704 6.70523 15.6472 6.70523 15.9487C6.70523 20.8474 10.6242 24.7664 15.5229 24.7664C17.7085 24.7664 19.7433 23.9374 21.326 22.5808L20.7231 22.6562C20.7231 22.6562 19.7433 22.6562 19.5926 21.9779C19.4419 21.2996 19.8941 20.9228 20.3463 20.7721L24.642 19.7169L25.3203 24.0881C25.3203 24.1635 25.0942 24.9171 24.642 24.9925L24.4913 25.0678C23.9638 25.0678 23.4362 24.8417 23.4362 24.4649Z" fill="#1193AD"/>
</svg>