<svg width="31" height="32" viewBox="0 0 31 32" fill="none" xmlns="http://www.w3.org/2000/svg">
<path fill-rule="evenodd" clip-rule="evenodd" d="M15.5256 0.875732C23.8158 0.875732 30.5986 7.65856 30.5986 15.9487C30.5986 24.2388 23.8158 31.0216 15.5256 31.0216C7.23552 31.0216 0.528076 24.2388 0.528076 15.9487C0.528076 7.65856 7.23552 0.875732 15.5256 0.875732ZM15.5256 2.15695C23.1375 2.15695 29.3174 8.33684 29.3174 15.9487C29.3174 23.5605 23.1375 29.7404 15.5256 29.7404C7.91381 29.7404 1.73391 23.5605 1.73391 15.9487C1.73391 8.33684 7.91381 2.15695 15.5256 2.15695ZM6.18043 11.5022C6.18043 9.99487 6.55726 8.93977 7.16018 8.18612C7.83847 7.43248 8.74282 7.13102 9.87329 7.13102C11.0038 7.13102 11.9081 7.43248 12.5864 8.18612C13.2647 8.86441 13.5662 9.99487 13.5662 11.5022C13.5662 13.0095 13.2647 14.1399 12.5864 14.8182C11.9081 15.5719 11.0791 15.8733 9.94867 15.8733C8.74284 15.8733 7.83847 15.5719 7.16018 14.8182C6.55726 14.1399 6.18043 13.0095 6.18043 11.5022ZM8.66745 11.5022C8.66745 12.5573 8.81821 13.3109 9.0443 13.6877C9.2704 13.9138 9.57183 14.0646 9.87329 14.0646C10.1747 14.0646 10.4762 13.9138 10.7023 13.6877C10.9284 13.3109 11.0038 12.5573 11.0038 11.5022C11.0038 10.4471 10.9284 9.69343 10.7023 9.31661C10.4762 9.09051 10.1747 8.93976 9.87329 8.93976C9.57183 8.93976 9.2704 9.09051 9.0443 9.31661C8.81821 9.69343 8.66745 10.4471 8.66745 11.5022ZM12.285 24.7664H9.94867L18.8417 7.13102H21.178L12.285 24.7664ZM17.4851 20.3952C17.4851 18.8879 17.7866 17.7575 18.4649 17.0038C19.1432 16.3255 20.0475 15.9487 21.178 15.9487C22.3085 15.9487 23.2129 16.3255 23.8911 17.0038C24.4941 17.7575 24.8709 18.8879 24.8709 20.3952C24.8709 21.9025 24.4941 22.9576 23.8911 23.7113C23.2129 24.4649 22.3085 24.7664 21.178 24.7664C20.0475 24.7664 19.1432 24.4649 18.4649 23.7113C17.7866 22.9576 17.4851 21.9025 17.4851 20.3952ZM19.9722 20.3952C19.9722 21.4503 20.1229 22.204 20.349 22.5808C20.5751 22.8069 20.8012 22.9576 21.178 22.9576C21.4795 22.9576 21.7809 22.8069 21.9317 22.5808C22.1578 22.204 22.3085 21.4503 22.3085 20.3952C22.3085 19.2647 22.1578 18.5865 21.9317 18.2097C21.7809 17.9082 21.4795 17.7575 21.178 17.7575C20.8012 17.7575 20.4997 17.9082 20.349 18.2097C20.1229 18.5865 19.9722 19.2647 19.9722 20.3952Z" fill="#1193AD"/>
</svg>