<svg width="32" height="32" viewBox="0 0 32 32" fill="none" xmlns="http://www.w3.org/2000/svg">
<path fill-rule="evenodd" clip-rule="evenodd" d="M16.0228 0.875732C24.3129 0.875732 31.0204 7.65856 31.0204 15.9487C31.0204 24.2388 24.3129 31.0216 16.0228 31.0216C7.65729 31.0216 0.949829 24.2388 0.949829 15.9487C0.949829 7.65856 7.65729 0.875732 16.0228 0.875732ZM16.0228 2.15695C23.6346 2.15695 29.8145 8.33684 29.8145 15.9487C29.8145 23.5605 23.6346 29.7404 16.0228 29.7404C8.33558 29.7404 2.15566 23.5605 2.15566 15.9487C2.15566 8.33684 8.33558 2.15695 16.0228 2.15695ZM16.0228 4.71935C20.8461 4.71935 24.6897 8.63832 24.6897 13.4617C24.6897 17.0792 22.5041 20.1691 19.4142 21.5257L21.3737 27.178L16.0228 24.5403L10.5965 27.178L12.556 21.5257C9.46605 20.1691 7.28047 17.0792 7.28047 13.4617C7.28047 8.63832 11.1994 4.71935 16.0228 4.71935ZM16.0981 8.71367L17.2286 12.2558H20.9215L17.9069 14.366L19.1127 17.9082L16.0981 15.7226L13.1589 17.9082L14.2894 14.366L11.2748 12.2558H14.9677L16.0981 8.71367ZM16.0228 7.20637C19.4896 7.20637 22.2781 9.99488 22.2781 13.4617C22.2781 16.9284 19.4896 19.7923 16.0228 19.7923C12.4806 19.7923 9.69214 16.9284 9.69214 13.4617C9.69214 9.99488 12.4806 7.20637 16.0228 7.20637Z" fill="#1193AD"/>
</svg>