<svg width="26" height="30" viewBox="0 0 26 30" fill="none" xmlns="http://www.w3.org/2000/svg">
<path fill-rule="evenodd" clip-rule="evenodd" d="M12.9757 28.7806C11.9206 28.7806 10.9409 27.8762 10.9409 26.7457C10.9409 25.6153 11.9206 24.7109 12.9757 24.7109C14.1062 24.7109 15.0106 25.6153 15.0106 26.7457C15.0106 27.8762 14.1062 28.7806 12.9757 28.7806ZM12.9757 1.57389C14.1062 1.57389 15.0106 2.4783 15.0106 3.60877C15.0106 4.73924 14.1062 5.64359 12.9757 5.64359C11.9206 5.64359 10.9409 4.73924 10.9409 3.60877C10.9409 2.4783 11.9206 1.57389 12.9757 1.57389ZM24.3558 22.6007C23.7529 23.5804 22.4717 23.8065 21.5673 23.2036C20.6629 22.6007 20.3615 21.3195 20.9644 20.4151C21.5673 19.4353 22.8485 19.2093 23.8283 19.8122C24.7326 20.4151 24.9587 21.6963 24.3558 22.6007ZM1.67102 7.67847C2.27394 6.7741 3.47978 6.54801 4.45952 7.15092C5.36389 7.75384 5.66536 9.03501 5.06244 9.93938C4.38416 10.9191 3.17832 11.1452 2.19858 10.5423C1.2942 9.9394 0.992739 8.65822 1.67102 7.67847ZM12.9757 11.4467C15.0859 11.4467 16.744 13.1047 16.744 15.1396C16.744 17.2498 15.0859 18.9078 12.9757 18.9078C10.9409 18.9078 9.28286 17.2498 9.28286 15.1396C9.28286 13.1047 10.9409 11.4467 12.9757 11.4467ZM12.9757 12.5018C14.483 12.5018 15.6135 13.7076 15.6135 15.1396C15.6135 16.6469 14.483 17.7773 12.9757 17.7773C11.5438 17.7773 10.338 16.6469 10.338 15.1396C10.338 13.7076 11.5438 12.5018 12.9757 12.5018ZM1.67102 22.6007C2.27394 23.5804 3.47978 23.8065 4.45952 23.2036C5.36389 22.6007 5.66536 21.3195 5.06244 20.4151C4.38416 19.4353 3.17832 19.2093 2.19858 19.8122C1.2942 20.4151 0.992739 21.6963 1.67102 22.6007ZM24.3558 7.67847C23.7529 6.7741 22.4717 6.54801 21.5673 7.15092C20.6629 7.75384 20.3615 9.03501 20.9644 9.93938C21.5673 10.9191 22.8485 11.1452 23.8283 10.5423C24.7326 9.9394 24.9587 8.65822 24.3558 7.67847ZM12.0714 13.0294C12.5989 13.0294 13.0511 13.4815 13.0511 14.0845C13.0511 14.612 12.5989 15.0642 12.0714 15.0642C11.4684 15.0642 11.0163 14.612 11.0163 14.0845C11.0163 13.4815 11.4684 13.0294 12.0714 13.0294ZM12.9757 0.744873C14.5584 0.744873 15.915 2.02611 15.915 3.60877C15.915 5.0407 14.8599 6.24652 13.5033 6.47261V10.2408C14.8599 10.3916 16.0657 11.0699 16.8193 12.125L20.06 10.0148C19.4571 8.73356 19.9093 7.22624 21.1151 6.39723C22.3963 5.56822 24.2051 5.94505 25.1095 7.22625C25.9385 8.58281 25.5617 10.3916 24.2805 11.2206C23.0746 12.0496 21.492 11.8235 20.5876 10.7684L17.3469 12.8786C17.7237 13.5569 17.9498 14.3106 17.9498 15.1396C17.9498 15.9686 17.7237 16.7976 17.3469 17.4759L20.5876 19.5861C21.492 18.531 23.0746 18.3049 24.2805 19.1339C25.5617 19.9629 25.9385 21.7717 25.1095 23.0529C24.2051 24.4095 22.3963 24.7862 21.1151 23.8819C19.9093 23.1282 19.4571 21.621 20.06 20.3398L16.8193 18.2295C16.0657 19.2846 14.8599 19.9629 13.5033 20.0383V23.8819C14.8599 24.1079 15.915 25.3138 15.915 26.7457C15.915 28.3284 14.5584 29.6096 12.9757 29.6096C11.3931 29.6096 10.1119 28.3284 10.1119 26.7457C10.1119 25.3138 11.167 24.1079 12.5235 23.8819V20.0383C11.167 19.9629 9.96115 19.2846 9.2075 18.2295L5.96681 20.3398C6.49437 21.621 6.11754 23.1282 4.91171 23.8819C3.55514 24.7862 1.82175 24.4095 0.917375 23.0529C0.0883631 21.7717 0.465188 19.9629 1.74639 19.1339C2.95222 18.3049 4.53488 18.531 5.43926 19.5861L8.67994 17.4759C8.30312 16.7976 8.07703 15.9686 8.07703 15.1396C8.07703 14.3106 8.30312 13.5569 8.67994 12.8786L5.43926 10.7684C4.53488 11.8235 2.95222 12.0496 1.74639 11.2206C0.465188 10.3916 0.0883631 8.58281 0.917375 7.22625C1.82175 5.94505 3.55514 5.56822 4.91171 6.39723C6.11754 7.22624 6.49437 8.73356 5.96681 10.0148L9.2075 12.125C9.96115 11.0699 11.167 10.3916 12.5235 10.2408V6.47261C11.167 6.24652 10.1119 5.0407 10.1119 3.60877C10.1119 2.02611 11.3931 0.744873 12.9757 0.744873Z" fill="#FEFEFE"/>
</svg>