<svg viewBox="0 0 143 11" fill="none" xmlns="http://www.w3.org/2000/svg">
<path d="M66.7338 2.72279C57.3132 5.43592 44.9533 5.13468 32.9703 4.83322C23.2483 4.68249 13.7523 4.45643 6.36656 5.813C2.14613 6.64201 1.16631 9.58105 0.864848 10.3347C0.563389 7.32011 2.59833 5.20975 6.14047 4.53147C13.6016 3.09954 23.173 3.32559 33.0457 3.55169C46.8375 3.85315 61.0813 4.23019 70.5772 0.00976562C70.5019 0.838778 68.9194 2.11987 66.7338 2.72279ZM76.9833 2.72279C86.4039 5.43592 98.7637 5.13468 110.671 4.83322C120.469 4.68249 129.965 4.45643 137.351 5.813C141.571 6.64201 142.551 9.58105 142.852 10.3347C143.153 7.32011 141.119 5.20975 137.577 4.53147C130.116 3.09954 120.544 3.32559 110.671 3.55169C96.8796 3.85315 82.6356 4.23019 73.1396 0.00976562C73.1396 0.838778 74.7977 2.11987 76.9833 2.72279V2.72279Z" fill="#BDBFC1"/>
</svg>