<svg width="44" height="44" viewBox="0 0 44 44" fill="none" xmlns="http://www.w3.org/2000/svg">
<path fill-rule="evenodd" clip-rule="evenodd" d="M21.7451 0.474731C33.6528 0.474731 43.2996 10.1214 43.2996 22.0291C43.2996 33.9367 33.6528 43.5834 21.7451 43.5834C9.8375 43.5834 0.190918 33.9367 0.190918 22.0291C0.190918 10.1214 9.8375 0.474731 21.7451 0.474731ZM21.7451 3.03716C32.2208 3.03716 40.7372 11.5534 40.7372 22.0291C40.7372 32.5048 32.2208 41.021 21.7451 41.021C11.2694 41.021 2.75329 32.5048 2.75329 22.0291C2.75329 11.5534 11.2694 3.03716 21.7451 3.03716ZM21.7451 8.9156C28.9801 8.9156 34.8588 14.794 34.8588 22.0291C34.8588 29.3394 28.9801 35.2179 21.7451 35.2179C14.5101 35.2179 8.5563 29.3394 8.5563 22.0291C8.5563 14.794 14.5101 8.9156 21.7451 8.9156ZM13.3798 18.0347C13.3798 16.7535 13.6812 15.6984 14.2841 15.0955C14.887 14.4172 15.6407 14.1158 16.6958 14.1158C17.6756 14.1158 18.5046 14.4172 19.1075 15.0955C19.7105 15.6984 20.0119 16.6782 20.0119 18.0347C20.0119 19.3913 19.7105 20.3711 19.1075 21.0493C18.5046 21.6523 17.7509 22.0291 16.6958 22.0291C15.6407 22.0291 14.887 21.6523 14.2841 21.0493C13.6812 20.3711 13.3798 19.3913 13.3798 18.0347ZM15.6406 18.0347C15.6406 19.0145 15.716 19.6928 15.9421 19.9942C16.1682 20.2203 16.3944 20.371 16.6958 20.371C16.9973 20.371 17.2233 20.2203 17.3741 19.9942C17.6002 19.6928 17.7508 19.0145 17.7508 18.0347C17.7508 17.1304 17.6002 16.4521 17.3741 16.1506C17.2233 15.8492 16.9973 15.7738 16.6958 15.7738C16.3944 15.7738 16.1682 15.8492 15.9421 16.1506C15.716 16.4521 15.6406 17.1304 15.6406 18.0347ZM18.8815 29.9424H16.6958L24.6845 14.1158H26.7947L18.8815 29.9424ZM23.4786 26.0234C23.4786 24.6668 23.78 23.6871 24.3829 23.0088C24.9859 22.3306 25.7396 22.0291 26.7947 22.0291C27.7744 22.0291 28.6035 22.3306 29.2064 23.0088C29.8093 23.6871 30.1107 24.6668 30.1107 26.0234C30.1107 27.3799 29.8093 28.3597 29.2064 28.9627C28.6035 29.6409 27.8498 29.9424 26.7947 29.9424C25.7396 29.9424 24.9859 29.6409 24.3829 28.9627C23.78 28.3597 23.4786 27.3799 23.4786 26.0234ZM25.7397 26.0234C25.7397 27.0031 25.8149 27.6061 26.041 27.9829C26.1917 28.209 26.4932 28.3597 26.7947 28.3597C27.0961 28.3597 27.3222 28.209 27.4729 27.9829C27.699 27.6061 27.7744 27.0031 27.7744 26.0234C27.7744 25.0436 27.699 24.3654 27.4729 24.0639C27.3222 23.7625 27.0961 23.6871 26.7947 23.6871C26.4932 23.6871 26.1917 23.7625 26.041 24.0639C25.8149 24.3654 25.7397 25.0436 25.7397 26.0234Z" fill="#62B354"/>
</svg>