<svg width="20" height="24" viewBox="0 0 20 24" fill="none" xmlns="http://www.w3.org/2000/svg">
<path fill-rule="evenodd" clip-rule="evenodd" d="M2.54516 0.09729H17.3167C18.6733 0.09729 19.8037 1.22778 19.8037 2.58434V20.7473C19.8037 22.1038 18.6733 23.2343 17.3167 23.2343H2.54516C1.18859 23.2343 0.0581055 22.1038 0.0581055 20.7473V2.58434C0.0581055 1.22778 1.18859 0.09729 2.54516 0.09729ZM2.09299 3.11195H16.7891V4.01629H2.09299V3.11195ZM2.09299 5.90041H16.7891V6.80475H2.09299V5.90041ZM2.09299 8.68887H9.17729V9.59332H2.09299V8.68887ZM2.09299 11.4774H9.17729V12.3065H2.09299V11.4774ZM2.09299 14.2659H9.17729V15.0949H2.09299V14.2659ZM2.09299 16.979H9.17729V17.8834H2.09299V16.979ZM2.09299 19.7675H9.17729V20.672H2.09299V19.7675ZM13.473 16.979C13.3977 16.8283 13.3977 16.6776 13.3977 16.6022C13.3977 16.15 13.4731 15.6978 13.6238 15.321C13.7745 15.0949 13.9253 14.7934 14.1514 14.492C14.3021 14.3413 14.6035 14.0398 15.0557 13.5876C15.5079 13.2108 15.8094 12.9094 15.8847 12.6833C16.0355 12.4572 16.1108 12.2311 16.1108 11.9296C16.1108 11.4021 15.9601 11.0252 15.5079 10.6484C15.1311 10.2716 14.6789 10.0455 14.1514 10.0455C13.5485 10.0455 13.0962 10.1962 12.7948 10.573C12.4179 10.9498 12.1919 11.4774 12.0412 12.1557L10.7599 12.0049C10.8353 11.0252 11.2121 10.2716 11.815 9.81941C12.3425 9.29185 13.1716 8.99039 14.076 8.99039C15.1311 8.99039 15.8848 9.29185 16.4877 9.81941C17.0906 10.4223 17.392 11.1006 17.392 11.8543C17.392 12.3065 17.3167 12.7587 17.0906 13.1355C16.8645 13.5123 16.4877 13.9644 15.8847 14.492C15.4326 14.8688 15.2065 15.0949 15.0557 15.321C14.905 15.4717 14.8297 15.6978 14.7543 15.9239C14.679 16.15 14.6789 16.5268 14.6789 16.979H13.473ZM13.1716 19.5414V18.1095H14.6789V19.5414H13.1716Z" fill="#FEFEFE"/>
</svg>