<svg width="31" height="31" viewBox="0 0 31 31" fill="none" xmlns="http://www.w3.org/2000/svg">
<path fill-rule="evenodd" clip-rule="evenodd" d="M15.6143 1.95947C23.2262 1.95947 29.4061 8.13939 29.4061 15.7512C29.4061 23.4384 23.2262 29.6184 15.6143 29.6184C7.92713 29.6184 1.74722 23.4384 1.74722 15.7512C1.74722 8.13939 7.92713 1.95947 15.6143 1.95947ZM15.6143 0.753662C23.9045 0.753662 30.6119 7.46111 30.6119 15.7512C30.6119 24.1167 23.9045 30.8242 15.6143 30.8242C7.32421 30.8242 0.541382 24.1167 0.541382 15.7512C0.541382 7.46111 7.32421 0.753662 15.6143 0.753662ZM14.3331 21.0268C14.3331 20.7253 14.3331 20.4992 14.3331 20.2731C14.3331 19.3687 14.4839 18.5398 14.7853 17.7861C14.9361 17.2586 15.2375 16.731 15.6897 16.2034C16.0665 15.8266 16.6694 15.2237 17.4985 14.47C18.3275 13.7918 18.855 13.1888 19.1565 12.7366C19.3826 12.2844 19.5333 11.7569 19.5333 11.2294C19.5333 10.2496 19.1565 9.42059 18.4028 8.74231C17.6492 7.98866 16.7448 7.61182 15.6897 7.61182C14.6346 7.61182 13.7302 7.98869 13.0519 8.5916C12.3737 9.26989 11.9215 10.325 11.6954 11.6815L9.13297 11.3801C9.35906 9.49594 10.0373 8.06402 11.1678 7.08427C12.2983 6.10453 13.8056 5.65238 15.6143 5.65238C17.5738 5.65238 19.1565 6.17993 20.2869 7.23504C21.4928 8.29014 22.0203 9.57136 22.0203 11.0787C22.0203 11.983 21.8696 12.7367 21.4174 13.4903C21.0406 14.244 20.2116 15.1483 19.0058 16.2034C18.2521 16.8817 17.7246 17.4093 17.4231 17.7861C17.197 18.0876 17.0463 18.4643 16.8955 18.9165C16.8202 19.3687 16.7448 20.0471 16.6694 21.0268H14.3331ZM13.8809 25.9255V23.137H16.6694V25.9255H13.8809Z" fill="#1193AD"/>
</svg>