<svg width="105" height="218" viewBox="0 0 105 218" fill="none" xmlns="http://www.w3.org/2000/svg">
   <path fill-rule="evenodd" clip-rule="evenodd" d="M52.5419 187.105C57.2899 187.105 61.9625 187.331 66.409 187.708H104.845V202.329C104.845 210.694 81.4066 217.477 52.5419 217.477C23.6019 217.477 0.16333 210.694 0.16333 202.329V187.708H14.8595H38.6748C43.046 187.331 47.7186 187.105 52.5419 187.105Z" fill="#CD1813"/>
   <path d="M52.5419 202.856C81.4698 202.856 104.921 196.074 104.921 187.708C104.921 179.342 81.4698 172.56 52.5419 172.56C23.6141 172.56 0.16333 179.342 0.16333 187.708C0.16333 196.074 23.6141 202.856 52.5419 202.856Z" fill="#ED423D"/>
   <path fill-rule="evenodd" clip-rule="evenodd" d="M52.5419 163.666C57.2899 163.666 61.9625 163.817 66.409 164.194H104.845V178.815C104.845 187.256 81.4066 194.038 52.5419 194.038C23.6019 194.038 0.16333 187.256 0.16333 178.815V164.194H14.8595H38.6748C43.046 163.817 47.7186 163.666 52.5419 163.666Z" fill="#CD1813"/>
   <path d="M52.5419 179.342C81.4698 179.342 104.921 172.56 104.921 164.194C104.921 155.828 81.4698 149.046 52.5419 149.046C23.6141 149.046 0.16333 155.828 0.16333 164.194C0.16333 172.56 23.6141 179.342 52.5419 179.342Z" fill="#ED423D"/>
   <path fill-rule="evenodd" clip-rule="evenodd" d="M52.5419 140.153C57.2899 140.153 61.9625 140.379 66.409 140.68H104.845V155.376C104.845 163.742 81.4066 170.525 52.5419 170.525C23.6019 170.525 0.16333 163.742 0.16333 155.376V140.68H14.8595H38.6748C43.046 140.379 47.7186 140.153 52.5419 140.153Z" fill="#CD1813"/>
   <path d="M52.5419 155.829C81.4698 155.829 104.921 149.046 104.921 140.68C104.921 132.314 81.4698 125.532 52.5419 125.532C23.6141 125.532 0.16333 132.314 0.16333 140.68C0.16333 149.046 23.6141 155.829 52.5419 155.829Z" fill="#ED423D"/>
   <path fill-rule="evenodd" clip-rule="evenodd" d="M52.5419 116.714C57.2899 116.714 61.9625 116.865 66.409 117.242H104.845V131.863C104.845 140.228 81.4066 147.086 52.5419 147.086C23.6019 147.086 0.16333 140.228 0.16333 131.863V117.242H14.8595H38.6748C43.046 116.865 47.7186 116.714 52.5419 116.714Z" fill="#CD1813"/>
   <path d="M52.5419 132.39C81.4698 132.39 104.921 125.608 104.921 117.242C104.921 108.875 81.4698 102.093 52.5419 102.093C23.6141 102.093 0.16333 108.875 0.16333 117.242C0.16333 125.608 23.6141 132.39 52.5419 132.39Z" fill="#ED423D"/>
   <path fill-rule="evenodd" clip-rule="evenodd" d="M52.2403 85.8146H52.8434V114.679C53.9738 114.755 54.8781 115.132 54.8781 115.659C54.8781 116.187 53.8231 116.639 52.5419 116.639C51.1853 116.639 50.1301 116.187 50.1301 115.659C50.1301 115.132 51.0345 114.755 52.2403 114.679V85.8146Z" fill="#373435"/>
   <path fill-rule="evenodd" clip-rule="evenodd" d="M52.2404 2.61191C71.0816 2.61191 86.3054 17.8356 86.3054 36.6768C86.3054 55.518 71.0816 70.7416 52.2404 70.7416C33.3992 70.7416 18.1756 55.518 18.1756 36.6768C18.1756 17.8356 33.3992 2.61191 52.2404 2.61191ZM52.2404 0.652466C72.1367 0.652466 88.2648 16.7805 88.2648 36.6768C88.2648 45.7206 84.9488 54.0107 79.3718 60.3413C71.986 68.8576 60.606 78.5796 52.5419 86.4929C44.9301 79.1825 31.7412 68.1038 24.883 60.0398C19.4567 53.7845 16.2161 45.5699 16.2161 36.6768C16.2161 16.7805 32.3441 0.652466 52.2404 0.652466Z" fill="#CD1813"/>
   <path fill-rule="evenodd" clip-rule="evenodd" d="M31.7412 24.9954H39.7299V44.5901H31.7412V24.9954ZM32.7964 26.2765H38.6749V43.3089H32.7964V26.2765Z" fill="#373435"/>
   <path fill-rule="evenodd" clip-rule="evenodd" d="M45.1562 9.09338C45.8345 8.41509 48.8491 10.2238 52.2405 13.3138C55.6319 10.2238 58.6465 8.41509 59.3248 9.09338C60.0784 9.84702 58.2698 12.8616 55.1798 16.253C58.2698 19.5691 60.0784 22.5837 59.3248 23.3373C58.6465 24.0156 55.6319 22.2069 52.2405 19.1169C48.8491 22.2069 45.8345 24.0156 45.1562 23.3373C44.4025 22.5837 46.2866 19.5691 49.3766 16.253C46.2866 12.8616 44.4025 9.84702 45.1562 9.09338Z" fill="#CD1813"/>
</svg>
   