<svg viewBox="0 0 1078 177" fill="none" xmlns="http://www.w3.org/2000/svg">
<path fill-rule="evenodd" clip-rule="evenodd" d="M0 0V153.97C0 153.97 74.0835 139.576 131.21 145.68C188.336 151.709 244.182 174.469 336.051 176.504C427.318 178.464 473.818 157.663 539.009 157.437C604.124 157.663 650.624 178.464 741.966 176.504C833.76 174.469 889.681 151.709 946.732 145.68C1003.86 139.576 1077.94 153.97 1077.94 153.97V0H0Z" fill="url(#paint0_linear)"/>
<path fill-rule="evenodd" clip-rule="evenodd" d="M860.816 0C927.439 38.5868 911.688 62.5527 936.106 98.8785C971.603 151.709 1050.13 130.306 1077.94 122.92V0H860.816Z" fill="#D3F5FC"/>
<path fill-rule="evenodd" clip-rule="evenodd" d="M967.005 17.5601H1020.97L1034.46 31.5026V112.67H967.005V17.5601Z" fill="#FEFEFE"/>
<path fill-rule="evenodd" clip-rule="evenodd" d="M972.432 63.0805H1013.88V36.1753L1009.13 46.651L1002.5 42.5812L996.624 46.651H990.368L987.881 55.4687L979.516 52.228L972.432 63.0805Z" fill="#44B1F5"/>
<path d="M1030.69 67.8284H969.944V71.0691H1030.69V67.8284Z" fill="#44B1F5"/>
<path d="M993.308 77.3997H972.356V79.133H993.308V77.3997Z" fill="#44B1F5"/>
<path d="M993.308 80.9419H972.356V82.6753H993.308V80.9419Z" fill="#44B1F5"/>
<path d="M993.308 84.5593H972.356V86.2927H993.308V84.5593Z" fill="#44B1F5"/>
<path d="M993.308 88.1768H972.356V89.9102H993.308V88.1768Z" fill="#44B1F5"/>
<path d="M993.308 91.7944H972.356V93.5278H993.308V91.7944Z" fill="#44B1F5"/>
<path d="M993.308 95.3364H972.356V97.0699H993.308V95.3364Z" fill="#44B1F5"/>
<path d="M993.308 98.9541H972.356V100.687H993.308V98.9541Z" fill="#44B1F5"/>
<path d="M1030.69 36.8535H1016.07V38.5869H1030.69V36.8535Z" fill="#44B1F5"/>
<path d="M1030.69 40.3955H1016.07V42.1289H1030.69V40.3955Z" fill="#44B1F5"/>
<path d="M1030.69 44.0129H1016.07V45.7464H1030.69V44.0129Z" fill="#44B1F5"/>
<path d="M1030.69 47.6306H1016.07V49.364H1030.69V47.6306Z" fill="#44B1F5"/>
<path d="M1030.69 51.248H1016.07V52.9814H1030.69V51.248Z" fill="#44B1F5"/>
<path d="M1030.69 54.7903H1016.07V56.5236H1030.69V54.7903Z" fill="#44B1F5"/>
<path d="M1030.69 58.4077H1016.07V60.1411H1030.69V58.4077Z" fill="#44B1F5"/>
<path d="M1008.76 22.082H972.356V25.2473H1008.76V22.082Z" fill="#44B1F5"/>
<path d="M993.308 31.804H972.356V33.5373H993.308V31.804Z" fill="#44B1F5"/>
<path d="M993.308 35.4214H972.356V37.1549H993.308V35.4214Z" fill="#44B1F5"/>
<path fill-rule="evenodd" clip-rule="evenodd" d="M1013.13 74.0837C1013.81 74.0837 1014.41 74.1591 1015.09 74.2345L1012.98 91.3422L1029.18 94.9598C1027.3 102.044 1020.82 107.32 1013.13 107.32C1003.93 107.32 996.548 99.8585 996.548 90.7394C996.548 81.5449 1003.93 74.0837 1013.13 74.0837ZM1016.44 74.4606C1022.55 75.6664 1027.45 80.339 1029.11 86.2928L1014.64 89.4581L1016.44 74.4606ZM1029.41 87.574C1029.63 88.6291 1029.71 89.6843 1029.71 90.7394C1029.71 91.7191 1029.63 92.6988 1029.48 93.6032L1015.99 90.5886L1029.41 87.574Z" fill="#44B1F5"/>
<path fill-rule="evenodd" clip-rule="evenodd" d="M1034.46 31.5026L1020.97 17.5601V31.5026H1034.46Z" fill="#D2D3D5"/>
<defs>
<linearGradient id="paint0_linear" x1="556.493" y1="-97.1452" x2="556.493" y2="252.999" gradientUnits="userSpaceOnUse">
<stop stop-color="#62D6ED"/>
<stop offset="1" stop-color="#FEFEFE"/>
</linearGradient>
</defs>
</svg>