<svg width="21" height="21" viewBox="0 0 21 21" fill="none" xmlns="http://www.w3.org/2000/svg">
<path fill-rule="evenodd" clip-rule="evenodd" d="M10.5641 0.504639C16.2164 0.504639 20.8137 5.10189 20.8137 10.7542C20.8137 16.4066 16.2164 20.9285 10.5641 20.9285C4.9117 20.9285 0.314453 16.4066 0.314453 10.7542C0.314453 5.10189 4.9117 0.504639 10.5641 0.504639ZM10.5641 1.33366C15.7642 1.33366 19.9847 5.55408 19.9847 10.7542C19.9847 15.9544 15.7642 20.0995 10.5641 20.0995C5.36389 20.0995 1.14346 15.9544 1.14346 10.7542C1.14346 5.55408 5.36389 1.33366 10.5641 1.33366ZM4.83634 8.79481L6.64509 13.5428L17.7237 8.11649L18.3266 9.39768L5.81608 15.5023L3.55514 9.24698L4.83634 8.79481Z" fill="#00A859"/>
</svg>