<svg width="25" height="22" viewBox="0 0 25 22" fill="none" xmlns="http://www.w3.org/2000/svg">
<path fill-rule="evenodd" clip-rule="evenodd" d="M22.9643 5.65771H13.6191C13.6191 5.65771 13.0916 5.65769 13.0916 6.33597C13.0916 6.93889 13.9206 6.86358 13.9206 6.86358H19.1961V20.4293C19.1961 20.4293 19.4222 21.1828 20.1005 21.1828C20.7034 21.1828 20.9295 20.4293 20.9295 20.4293V12.9681H21.3063V20.4293C21.3063 20.4293 21.5324 21.1828 22.2107 21.1828C22.889 21.1828 23.0397 20.3538 23.0397 20.3538V7.76792H23.4165V12.8173C23.4165 12.8173 23.4919 13.345 24.0948 13.345C24.6977 13.345 24.6977 12.742 24.6977 12.742V7.54183C24.6977 7.54183 24.6224 5.80844 22.9643 5.65771Z" fill="#FEFEFE"/>
<path d="M21.0803 5.2809C21.9127 5.2809 22.5876 4.60609 22.5876 3.77363C22.5876 2.94117 21.9127 2.26636 21.0803 2.26636C20.2478 2.26636 19.573 2.94117 19.573 3.77363C19.573 4.60609 20.2478 5.2809 21.0803 5.2809Z" fill="#FEFEFE"/>
<path fill-rule="evenodd" clip-rule="evenodd" d="M8.56974 14.3248C5.32905 14.2494 2.69128 11.6116 2.69128 8.29555C2.69128 8.22018 2.76665 8.06943 2.76665 7.9187L8.56974 8.44631V14.3248Z" fill="#FEFEFE"/>
<path fill-rule="evenodd" clip-rule="evenodd" d="M13.6945 11.8377C12.6394 13.345 10.906 14.3247 8.94653 14.3247V8.67236L13.6945 11.8377Z" fill="#FEFEFE"/>
<path fill-rule="evenodd" clip-rule="evenodd" d="M12.4133 3.47217C12.9408 3.84899 13.4684 4.37652 13.8452 4.97944H13.2423C13.2423 4.97944 12.4133 5.13011 12.4133 6.33595C12.4133 7.54179 13.6191 7.54181 13.6191 7.54181H14.8249C14.8249 7.84327 14.8249 8.06941 14.8249 8.29551C14.8249 9.50134 14.5235 10.5564 13.9206 11.5361L9.02185 8.22007L12.4133 3.47217Z" fill="#FEFEFE"/>
<path fill-rule="evenodd" clip-rule="evenodd" d="M8.79578 2.26636C10.0016 2.26636 11.1321 2.64322 12.1118 3.24614L8.72042 8.06948H8.56969L2.7666 7.54187C3.14343 4.60264 5.70582 2.26636 8.79578 2.26636Z" fill="#FEFEFE"/>
<path fill-rule="evenodd" clip-rule="evenodd" d="M2.842 1.21124H18.6686C19.1208 1.21124 19.4976 1.43734 19.7237 1.81417C19.7991 1.7388 19.9498 1.66345 20.1005 1.58808C20.3266 1.43735 20.7788 1.43732 20.7788 1.43732C20.4773 0.683673 19.7237 0.0808105 18.8947 0.0808105H2.6159C1.48543 0.0808105 0.581055 0.985105 0.581055 2.11558V14.4001C0.581055 15.4552 1.48543 16.3595 2.6159 16.3595H10.077L6.23341 20.2032C6.23341 20.2032 6.08268 20.5046 6.38414 20.8814C6.61024 21.2583 7.21315 20.8814 7.21315 20.8814L10.6046 17.4146V20.58C10.6046 20.58 10.7553 20.9568 10.9814 21.0322C11.2075 21.1076 11.2829 21.0322 11.2829 21.0322C11.2829 21.0322 11.2828 21.1076 11.5089 21.0322C11.735 20.9568 11.8858 20.58 11.8858 20.58V17.4146L15.3525 20.8814C15.3525 20.8814 15.8801 21.2583 16.1062 20.8814C16.4077 20.5046 16.2569 20.2032 16.2569 20.2032L12.4133 16.3595H18.5179V15.3044H2.842C2.23908 15.3044 1.63616 14.7769 1.63616 14.0987V2.34166C1.63616 1.73874 2.23908 1.21124 2.842 1.21124Z" fill="#FEFEFE"/>
</svg>