<svg width="60" height="59" viewBox="0 0 60 59" fill="none" xmlns="http://www.w3.org/2000/svg">
<path d="M29.6996 58.6692C45.8908 58.6692 59.0163 45.5434 59.0163 29.3522C59.0163 13.1609 45.8908 0.0354004 29.6996 0.0354004C13.5083 0.0354004 0.382568 13.1609 0.382568 29.3522C0.382568 45.5434 13.5083 58.6692 29.6996 58.6692Z" fill="url(#paint0_radial)"/>
<path fill-rule="evenodd" clip-rule="evenodd" d="M17.792 32.216C18.6964 31.387 20.5805 30.3319 24.3487 31.0855C29.9257 32.1406 33.091 33.4971 36.3317 32.6681C38.5926 32.0652 40.1753 29.9551 40.8536 28.7493C39.1202 24.3027 34.8245 22.1171 34.7491 22.1171L34.4476 21.9665V14.7313L34.7491 14.5806C34.7491 14.5806 34.8997 14.43 35.2765 13.9778C35.2765 13.9778 35.2765 13.9777 35.2765 13.9024H24.1226C24.1226 13.9777 24.1226 13.9778 24.1226 13.9778C24.4241 14.43 24.65 14.5806 24.65 14.5806L24.8761 14.7313V21.9665L24.5748 22.1171C24.5748 22.1171 18.0181 25.3578 17.792 32.216ZM39.1956 42.0135C41.3812 39.6772 42.6623 36.3612 42.6623 32.5929C42.6623 25.7347 36.9346 22.1171 35.578 21.3634V15.2589C35.7287 15.1082 35.8795 14.8822 36.1056 14.6561C36.8593 13.601 35.8041 12.9226 35.8041 12.9226L35.5026 12.8472H23.8966L23.595 12.9226C23.595 12.9226 22.4644 13.601 23.2181 14.6561C23.4442 14.8822 23.6704 15.1082 23.8211 15.2589V21.3634C22.4646 22.1171 16.7368 25.7347 16.7368 32.5929C16.7368 36.3612 18.0181 39.6772 20.1283 42.0135C24.8763 47.2137 34.4476 47.2137 39.1956 42.0135ZM23.5196 33.3464C24.3486 33.3464 25.027 34.0248 25.027 34.9292C25.027 35.7582 24.3486 36.4364 23.5196 36.4364C22.6152 36.4364 21.937 35.7582 21.937 34.9292C21.937 34.0248 22.6152 33.3464 23.5196 33.3464ZM28.8704 40.8829C29.398 40.8829 29.8502 41.3351 29.8502 41.8626C29.8502 42.3902 29.398 42.8424 28.8704 42.8424C28.3429 42.8424 27.8909 42.3902 27.8909 41.8626C27.8909 41.3351 28.3429 40.8829 28.8704 40.8829ZM36.4069 35.7581C36.9345 35.7581 37.3115 36.1349 37.3115 36.6625C37.3115 37.2654 36.9345 37.6422 36.4069 37.6422C35.804 37.6422 35.4274 37.2654 35.4274 36.6625C35.4274 36.1349 35.804 35.7581 36.4069 35.7581Z" fill="#FEFEFE"/>
<defs>
<radialGradient id="paint0_radial" cx="0" cy="0" r="1" gradientUnits="userSpaceOnUse" gradientTransform="translate(29.6995 29.3523) scale(50.4944)">
<stop stop-color="#42D4F1"/>
<stop offset="0.541176" stop-color="#24BBD9"/>
<stop offset="1" stop-color="#06A3C2"/>
</radialGradient>
</defs>
</svg>