<svg width="399" height="307" viewBox="0 0 399 307" fill="none" xmlns="http://www.w3.org/2000/svg">
<style>
	#val{
    	font-family:Arial;
        font-weight:700;
    }
</style>
<path fill-rule="evenodd" clip-rule="evenodd" d="M310.89 43.2114C322.271 43.2114 331.465 52.406 331.465 63.7861C331.465 73.2067 325.134 81.12 316.543 83.6071C320.537 95.364 322.723 107.95 322.723 120.988C322.723 140.658 317.824 159.198 309.157 175.401C296.646 168.166 284.362 161.233 271.927 154.45C271.851 154.375 271.701 148.948 271.626 148.873C298.983 101.996 252.181 51.2002 211.71 48.7131V5.60449C246.228 6.88569 276.826 23.3152 297.174 48.4871C300.792 45.2464 305.615 43.2114 310.89 43.2114Z" fill="#B02C2C"/>
<path fill-rule="evenodd" clip-rule="evenodd" d="M227.688 234.789C227.763 235.316 227.763 235.919 227.763 236.597C227.763 247.902 218.569 257.172 207.189 257.172C195.808 257.172 186.614 247.902 186.614 236.597C186.614 235.919 186.689 235.316 186.689 234.789C154.358 228.986 126.699 209.692 109.667 183.013V177.662L147.048 161.459C160.086 180.752 182.167 193.489 207.189 193.489C232.21 193.489 254.292 180.828 267.33 161.534L267.556 161.609L304.711 177.662V183.088C287.678 209.768 260.019 228.986 227.688 234.789Z" fill="#4D5091"/>
<path fill-rule="evenodd" clip-rule="evenodd" d="M105.144 175.326C96.5528 159.122 91.6543 140.658 91.6543 120.988C91.6543 107.498 93.9906 94.4596 98.2864 82.4012C91.2775 79.0852 86.4541 72.0009 86.4541 63.7861C86.4541 52.406 95.7238 43.2114 107.029 43.2114C111.324 43.2114 115.394 44.4926 118.635 46.7536C138.983 22.6369 168.978 6.88569 202.742 5.60449V48.7131C160.085 51.2755 119.765 100.413 142.525 148.345L142.224 153.922L105.144 175.326Z" fill="#05839C"/>
<path fill-rule="evenodd" clip-rule="evenodd" d="M105.144 169.9C96.5528 153.696 91.6543 135.232 91.6543 115.637C91.6543 53.3104 140.943 2.51453 202.742 0.178223V43.2869C164.758 45.6232 134.763 77.1257 134.763 115.637C134.763 127.394 137.551 138.473 142.526 148.345L142.224 148.571L105.144 169.9Z" fill="#00C9F3"/>
<path fill-rule="evenodd" clip-rule="evenodd" d="M304.711 177.662C284.136 209.843 248.187 231.171 207.189 231.171C166.19 231.171 130.166 209.843 109.667 177.662L147.048 156.032C160.086 175.401 182.167 188.062 207.189 188.062C232.21 188.062 254.292 175.401 267.33 156.108L267.556 156.259L304.711 177.662Z" fill="#8C8FD2"/>
<path fill-rule="evenodd" clip-rule="evenodd" d="M211.71 0.178223C273.434 2.51453 322.723 53.3104 322.723 115.637C322.723 135.307 317.824 153.772 309.157 169.975C296.496 162.74 284.136 155.731 271.626 148.873C276.75 138.925 279.689 127.62 279.689 115.637C279.689 77.1257 249.619 45.6232 211.71 43.2869V0.178223Z" fill="#F75656"/>
<path fill-rule="evenodd" clip-rule="evenodd" d="M107.029 37.7852C118.409 37.7852 127.603 46.9797 127.603 58.3598C127.603 69.7399 118.409 78.9342 107.029 78.9342C95.7238 78.9342 86.4541 69.7399 86.4541 58.3598C86.4541 46.9797 95.7238 37.7852 107.029 37.7852Z" fill="#06A4C4"/>
<path fill-rule="evenodd" clip-rule="evenodd" d="M98.8892 61.6759C99.4921 61.1484 100.849 60.3946 103.562 60.8468C107.631 61.6004 109.968 62.6556 112.229 62.0527C113.887 61.6005 115.017 60.0931 115.545 59.1888C114.264 55.9481 111.174 54.4407 111.098 54.4407L110.948 54.2901V49.0145L111.098 48.9393C111.098 48.9393 111.249 48.8639 111.475 48.4871H103.411C103.637 48.8639 103.788 48.9393 103.788 48.9393L103.939 49.0145V54.2901L103.788 54.4407C103.713 54.4407 99.0399 56.7772 98.8892 61.6759ZM114.339 68.7602C115.922 67.1022 116.826 64.7657 116.826 61.9772C116.826 57.0031 112.681 54.4408 111.701 53.8379V49.4669C111.777 49.3161 111.927 49.1652 112.078 49.0145C112.681 48.2608 111.852 47.8088 111.852 47.8088L111.626 47.7334H103.26L103.034 47.8088C103.034 47.8088 102.281 48.2608 102.808 49.0145C102.959 49.1652 103.11 49.3161 103.185 49.4669V53.8379C102.205 54.4408 98.0603 57.0031 98.0603 61.9772C98.0603 64.7657 98.9646 67.1022 100.547 68.7602C104.014 72.5285 110.872 72.5285 114.339 68.7602ZM102.959 62.5803C103.562 62.5803 104.089 63.0323 104.089 63.6353C104.089 64.2382 103.562 64.7659 102.959 64.7659C102.356 64.7659 101.829 64.2382 101.829 63.6353C101.829 63.0323 102.356 62.5803 102.959 62.5803ZM106.878 68.0065C107.255 68.0065 107.556 68.308 107.556 68.6848C107.556 69.0616 107.255 69.363 106.878 69.363C106.501 69.363 106.2 69.0616 106.2 68.6848C106.2 68.308 106.501 68.0065 106.878 68.0065ZM112.304 64.2383C112.681 64.2383 112.982 64.5397 112.982 64.9166C112.982 65.3687 112.681 65.6702 112.304 65.6702C111.927 65.6702 111.55 65.3687 111.55 64.9166C111.55 64.5397 111.927 64.2383 112.304 64.2383Z" fill="#FEFEFE"/>
<path fill-rule="evenodd" clip-rule="evenodd" d="M310.89 37.8606C322.27 37.8606 331.465 47.0549 331.465 58.435C331.465 69.8151 322.27 79.0097 310.89 79.0097C299.51 79.0097 290.316 69.8151 290.316 58.435C290.316 47.0549 299.51 37.8606 310.89 37.8606Z" fill="#D93B3B"/>
<path fill-rule="evenodd" clip-rule="evenodd" d="M301.093 49.542V49.6175V59.0381C301.093 59.2642 300.942 59.4148 300.716 59.4148C300.49 59.4148 300.339 59.2642 300.339 59.0381V49.7681C300.339 49.6927 300.339 49.6175 300.339 49.4668C300.339 47.2059 301.922 45.2463 303.957 44.6434V45.3971C302.299 46 301.093 47.5827 301.093 49.4668V49.542ZM310.513 66.4239C310.513 66.4239 310.513 66.4238 310.513 66.3484V59.0381V56.9279V49.7681C310.513 49.6927 310.513 49.6175 310.513 49.4668C310.513 47.2059 309.006 45.2463 306.896 44.6434V45.3971C308.554 46 309.76 47.5827 309.76 49.4668V49.542V49.6175V56.9279V59.0381V66.1976C309.76 66.3483 309.76 66.4237 309.76 66.4991C309.76 68.8354 311.267 70.7195 313.377 71.3978V70.5689C311.719 69.9659 310.513 68.3832 310.513 66.4991V66.4239ZM314.809 62.2033C313.076 62.2033 311.569 63.2586 310.89 64.7659V64.6904V63.7861V63.3339C311.795 62.1281 313.227 61.3743 314.809 61.3743C316.392 61.3743 317.824 62.1281 318.804 63.3339V63.9367V64.7659C318.125 63.2586 316.618 62.2033 314.809 62.2033ZM316.241 69.9658C317.598 69.3629 318.577 68.0064 318.577 66.4991C318.577 64.4642 316.919 62.7309 314.809 62.7309C312.774 62.7309 311.116 64.4642 311.116 66.4991C311.116 68.0064 312.021 69.3629 313.377 69.9658V66.5745V66.4991C313.377 65.6701 314.056 65.0671 314.809 65.0671C315.638 65.0671 316.241 65.6701 316.241 66.4991V69.9658ZM315.714 71.3978V66.9513C315.714 66.273 315.337 65.7454 314.809 65.7454C314.357 65.7454 313.98 66.273 313.98 66.9513C313.98 67.0266 313.98 67.0267 313.98 67.0267V71.3226C313.98 71.3226 313.98 71.3224 313.98 71.3978C313.98 72.076 314.357 72.6036 314.809 72.6036C315.337 72.6036 315.714 72.076 315.714 71.3978ZM316.241 71.3978C318.351 70.7195 319.934 68.8354 319.934 66.4991C319.934 66.4237 319.934 66.3483 319.934 66.1976V56.9279C319.934 56.7018 319.708 56.5509 319.557 56.5509C319.331 56.5509 319.181 56.7018 319.181 56.9279V66.3484C319.181 66.4238 319.181 66.4239 319.181 66.4239V66.4991C319.181 68.3832 317.975 69.9659 316.241 70.5689V71.3978ZM305.464 53.8379C303.655 53.8379 302.148 52.7828 301.47 51.2755V52.1798V52.7074C302.374 53.8379 303.806 54.5916 305.464 54.5916C307.047 54.5916 308.479 53.8379 309.383 52.7074V52.0292V51.2755C308.705 52.7828 307.197 53.8379 305.464 53.8379ZM306.896 46.0753C308.177 46.6029 309.157 47.9595 309.157 49.4668C309.157 51.577 307.499 53.2351 305.464 53.2351C303.354 53.2351 301.696 51.577 301.696 49.4668C301.696 47.9595 302.676 46.6029 303.957 46.0753V49.3914V49.4668C303.957 50.2958 304.635 50.8985 305.464 50.8985C306.218 50.8985 306.896 50.2958 306.896 49.4668V46.0753ZM306.293 44.5679V49.0144C306.293 49.6927 305.916 50.2203 305.464 50.2203C304.937 50.2203 304.56 49.6927 304.56 49.0144V48.9392V44.7188C304.56 44.6434 304.56 44.6433 304.56 44.5679C304.56 43.965 304.937 43.4375 305.464 43.4375C305.916 43.4375 306.293 43.965 306.293 44.5679Z" fill="#FEFEFE"/>
<path fill-rule="evenodd" clip-rule="evenodd" d="M207.188 210.596C218.569 210.596 227.763 219.791 227.763 231.171C227.763 242.551 218.569 251.746 207.188 251.746C195.808 251.746 186.614 242.551 186.614 231.171C186.614 219.791 195.808 210.596 207.188 210.596Z" fill="#6367B5"/>
<path d="M8.70794 30.4802L10.1215 30.8372C9.82516 31.9982 9.29084 32.8847 8.51849 33.4967C7.75101 34.1039 6.81109 34.4075 5.69872 34.4075C4.54749 34.4075 3.61 34.1743 2.88623 33.708C2.16732 33.2368 1.61842 32.5568 1.23954 31.6679C0.865513 30.7789 0.678499 29.8245 0.678499 28.8044C0.678499 27.692 0.8898 26.7229 1.3124 25.8972C1.73986 25.0665 2.34462 24.4375 3.12668 24.01C3.91359 23.5777 4.77822 23.3616 5.72058 23.3616C6.78923 23.3616 7.68786 23.6336 8.41649 24.1776C9.14511 24.7217 9.65272 25.4867 9.93931 26.4728L8.54764 26.8007C8.29991 26.0235 7.94045 25.4576 7.46928 25.103C6.9981 24.7484 6.40548 24.5711 5.69143 24.5711C4.87052 24.5711 4.18318 24.7678 3.62943 25.1613C3.08053 25.5547 2.69436 26.0842 2.47091 26.7497C2.24747 27.4103 2.13575 28.0928 2.13575 28.7971C2.13575 29.7054 2.2669 30.4996 2.5292 31.1797C2.79637 31.8549 3.20925 32.3601 3.76787 32.6952C4.32648 33.0304 4.93124 33.198 5.58214 33.198C6.37391 33.198 7.04425 32.9697 7.59314 32.5131C8.14204 32.0565 8.51364 31.3789 8.70794 30.4802ZM11.7026 34.2253V23.5437H13.0141V27.3763C13.6262 26.6671 14.3985 26.3125 15.3311 26.3125C15.9043 26.3125 16.4022 26.4266 16.8248 26.6549C17.2474 26.8784 17.5486 27.1893 17.7283 27.5876C17.9129 27.9859 18.0052 28.5639 18.0052 29.3217V34.2253H16.6937V29.3217C16.6937 28.6659 16.5504 28.1899 16.2638 27.8936C15.982 27.5924 15.5813 27.4419 15.0615 27.4419C14.6729 27.4419 14.3062 27.5439 13.9613 27.7479C13.6213 27.947 13.3784 28.2191 13.2327 28.5639C13.087 28.9088 13.0141 29.3848 13.0141 29.992V34.2253H11.7026ZM25.306 31.7334L26.6612 31.901C26.4475 32.6928 26.0516 33.3073 25.4736 33.7444C24.8955 34.1816 24.1572 34.4002 23.2586 34.4002C22.1268 34.4002 21.2281 34.0529 20.5627 33.3583C19.902 32.6588 19.5717 31.68 19.5717 30.4219C19.5717 29.1201 19.9069 28.1098 20.5772 27.3908C21.2476 26.6719 22.1171 26.3125 23.1857 26.3125C24.2203 26.3125 25.0655 26.6647 25.7213 27.369C26.3771 28.0733 26.705 29.0643 26.705 30.3418C26.705 30.4195 26.7025 30.5361 26.6977 30.6915H20.927C20.9755 31.5416 21.216 32.1925 21.6483 32.6442C22.0806 33.096 22.6198 33.3218 23.2658 33.3218C23.7467 33.3218 24.1572 33.1956 24.4972 32.943C24.8372 32.6904 25.1068 32.2872 25.306 31.7334ZM20.9998 29.6132H25.3206C25.2623 28.9622 25.0971 28.4741 24.8251 28.1486C24.4074 27.6434 23.8657 27.3908 23.2003 27.3908C22.5979 27.3908 22.0903 27.5924 21.6774 27.9956C21.2694 28.3988 21.0435 28.938 20.9998 29.6132ZM28.3152 34.2253V26.4874H29.4883V27.573C29.7312 27.1941 30.0542 26.8905 30.4574 26.6622C30.8605 26.4291 31.3196 26.3125 31.8345 26.3125C32.4077 26.3125 32.8764 26.4315 33.2407 26.6695C33.6099 26.9075 33.8698 27.2403 34.0203 27.6677C34.6324 26.7642 35.429 26.3125 36.4102 26.3125C37.1777 26.3125 37.7679 26.5262 38.1808 26.9537C38.5937 27.3763 38.8001 28.0296 38.8001 28.9137V34.2253H37.4959V29.3508C37.4959 28.8262 37.4522 28.4498 37.3647 28.2215C37.2821 27.9883 37.1291 27.8013 36.9057 27.6604C36.6822 27.5196 36.4199 27.4491 36.1188 27.4491C35.5747 27.4491 35.123 27.6313 34.7635 27.9956C34.4041 28.3551 34.2244 28.9331 34.2244 29.7297V34.2253H32.9128V29.1978C32.9128 28.6149 32.806 28.1778 32.5922 27.8863C32.3785 27.5949 32.0288 27.4491 31.543 27.4491C31.1738 27.4491 30.8314 27.5463 30.5157 27.7406C30.2048 27.9349 29.9789 28.2191 29.838 28.5931C29.6972 28.9671 29.6267 29.5063 29.6267 30.2106V34.2253H28.3152ZM40.7528 25.052V23.5437H42.0644V25.052H40.7528ZM40.7528 34.2253V26.4874H42.0644V34.2253H40.7528ZM43.5435 31.9156L44.8404 31.7116C44.9133 32.2313 45.1149 32.6297 45.4452 32.9065C45.7803 33.1834 46.2467 33.3218 46.8441 33.3218C47.4465 33.3218 47.8933 33.2004 48.1848 32.9575C48.4762 32.7098 48.622 32.4208 48.622 32.0905C48.622 31.7942 48.4932 31.561 48.2358 31.391C48.0561 31.2744 47.6092 31.1263 46.8951 30.9465C45.9333 30.7037 45.2654 30.4948 44.8914 30.3199C44.5222 30.1402 44.2405 29.8949 44.0462 29.584C43.8568 29.2683 43.762 28.921 43.762 28.5421C43.762 28.1972 43.8398 27.879 43.9952 27.5876C44.1555 27.2913 44.3717 27.046 44.6437 26.8517C44.8477 26.7011 45.1246 26.5748 45.4743 26.4728C45.8289 26.3659 46.2078 26.3125 46.611 26.3125C47.2182 26.3125 47.75 26.3999 48.2067 26.5748C48.6681 26.7497 49.0081 26.9877 49.2267 27.2888C49.4453 27.5851 49.5959 27.9835 49.6785 28.4838L48.3961 28.6587C48.3378 28.2603 48.1678 27.9495 47.8861 27.726C47.6092 27.5026 47.2157 27.3908 46.7057 27.3908C46.1034 27.3908 45.6735 27.4904 45.416 27.6896C45.1586 27.8887 45.0298 28.1219 45.0298 28.3891C45.0298 28.5591 45.0833 28.7121 45.1901 28.8481C45.297 28.989 45.4646 29.1055 45.6929 29.1978C45.824 29.2464 46.2102 29.3581 46.8514 29.533C47.7792 29.7807 48.4252 29.9847 48.7895 30.145C49.1587 30.3005 49.4477 30.5288 49.6566 30.83C49.8655 31.1311 49.9699 31.5051 49.9699 31.952C49.9699 32.3892 49.8412 32.8021 49.5838 33.1907C49.3312 33.5744 48.9644 33.8732 48.4835 34.0869C48.0026 34.2958 47.4586 34.4002 46.8514 34.4002C45.8459 34.4002 45.0784 34.1913 44.549 33.7736C44.0243 33.3559 43.6892 32.7365 43.5435 31.9156ZM54.3927 33.0523L54.5821 34.2108C54.2129 34.2885 53.8826 34.3273 53.5912 34.3273C53.1152 34.3273 52.746 34.2521 52.4837 34.1015C52.2214 33.9509 52.0368 33.7542 51.9299 33.5113C51.8231 33.2636 51.7696 32.7462 51.7696 31.9593V27.5074H50.8078V26.4874H51.7696V24.5711L53.0739 23.7842V26.4874H54.3927V27.5074H53.0739V32.0322C53.0739 32.4062 53.0957 32.6467 53.1394 32.7535C53.188 32.8604 53.2633 32.9454 53.3653 33.0085C53.4722 33.0717 53.6228 33.1033 53.8171 33.1033C53.9628 33.1033 54.1547 33.0863 54.3927 33.0523ZM55.6678 34.2253V26.4874H56.8481V27.6604C57.1493 27.1115 57.4262 26.7497 57.6788 26.5748C57.9362 26.3999 58.2179 26.3125 58.524 26.3125C58.966 26.3125 59.4153 26.4534 59.8719 26.7351L59.4202 27.9519C59.0996 27.7624 58.779 27.6677 58.4584 27.6677C58.1718 27.6677 57.9144 27.7552 57.6861 27.93C57.4577 28.1 57.295 28.3381 57.1979 28.6441C57.0521 29.1104 56.9793 29.6204 56.9793 30.1742V34.2253H55.6678ZM60.5933 37.2054L60.4475 35.974C60.7341 36.0518 60.9843 36.0906 61.198 36.0906C61.4895 36.0906 61.7226 36.042 61.8975 35.9449C62.0724 35.8477 62.2157 35.7117 62.3274 35.5369C62.41 35.4057 62.5435 35.0803 62.7281 34.5605C62.7524 34.4876 62.7913 34.3808 62.8447 34.2399L59.9084 26.4874H61.3219L62.9321 30.9684C63.141 31.5367 63.328 32.1342 63.4932 32.7608C63.6438 32.1585 63.8235 31.5707 64.0324 30.9975L65.6863 26.4874H66.9979L64.0542 34.3565C63.7385 35.2066 63.4932 35.7919 63.3183 36.1125C63.0852 36.5448 62.818 36.8605 62.5168 37.0597C62.2157 37.2637 61.8562 37.3657 61.4385 37.3657C61.1859 37.3657 60.9041 37.3123 60.5933 37.2054Z" fill="#373435"/>
<path fill-rule="evenodd" clip-rule="evenodd" d="M23.1477 41.6289C29.4783 54.3656 40.783 69.5139 64.2968 71.3226V77.2763L80.4247 67.2529L64.3722 58.9627V65.0672C64.3722 65.0672 46.134 66.4993 23.1477 41.6289Z" fill="#00C9F3"/>
<path d="M349.196 34.1499V23.4683H353.226C353.935 23.4683 354.476 23.5023 354.851 23.5703C355.375 23.6577 355.815 23.8253 356.169 24.073C356.524 24.3159 356.808 24.6584 357.022 25.1004C357.24 25.5424 357.35 26.0282 357.35 26.5576C357.35 27.466 357.061 28.2359 356.483 28.8674C355.905 29.494 354.86 29.8073 353.35 29.8073H350.61V34.1499H349.196ZM350.61 28.5468H353.371C354.285 28.5468 354.933 28.3768 355.317 28.0367C355.701 27.6967 355.892 27.2183 355.892 26.6014C355.892 26.1545 355.778 25.7732 355.55 25.4574C355.327 25.1368 355.03 24.9255 354.661 24.8235C354.423 24.7604 353.983 24.7288 353.342 24.7288H350.61V28.5468ZM358.982 34.1499V23.4683H360.293V27.3008C360.905 26.5916 361.678 26.237 362.61 26.237C363.184 26.237 363.681 26.3512 364.104 26.5795C364.527 26.8029 364.828 27.1138 365.008 27.5121C365.192 27.9105 365.284 28.4885 365.284 29.2463V34.1499H363.973V29.2463C363.973 28.5905 363.83 28.1145 363.543 27.8182C363.261 27.517 362.861 27.3664 362.341 27.3664C361.952 27.3664 361.585 27.4684 361.241 27.6724C360.901 27.8716 360.658 28.1436 360.512 28.4885C360.366 28.8334 360.293 29.3094 360.293 29.9166V34.1499H358.982ZM367.23 37.13L367.084 35.8986C367.371 35.9763 367.621 36.0152 367.835 36.0152C368.126 36.0152 368.359 35.9666 368.534 35.8695C368.709 35.7723 368.852 35.6363 368.964 35.4614C369.047 35.3303 369.18 35.0048 369.365 34.4851C369.389 34.4122 369.428 34.3053 369.481 34.1645L366.545 26.4119H367.958L369.569 30.893C369.778 31.4613 369.965 32.0588 370.13 32.6854C370.28 32.083 370.46 31.4953 370.669 30.9221L372.323 26.4119H373.634L370.691 34.2811C370.375 35.1311 370.13 35.7164 369.955 36.037C369.722 36.4694 369.455 36.7851 369.153 36.9843C368.852 37.1883 368.493 37.2903 368.075 37.2903C367.822 37.2903 367.541 37.2368 367.23 37.13ZM374.225 31.8402L375.522 31.6361C375.594 32.1559 375.796 32.5542 376.126 32.8311C376.462 33.108 376.928 33.2464 377.525 33.2464C378.128 33.2464 378.575 33.125 378.866 32.8821C379.157 32.6344 379.303 32.3453 379.303 32.015C379.303 31.7187 379.174 31.4856 378.917 31.3156C378.737 31.199 378.29 31.0508 377.576 30.8711C376.615 30.6282 375.947 30.4193 375.573 30.2445C375.203 30.0647 374.922 29.8194 374.727 29.5086C374.538 29.1928 374.443 28.8455 374.443 28.4666C374.443 28.1218 374.521 27.8036 374.676 27.5121C374.837 27.2158 375.053 26.9705 375.325 26.7762C375.529 26.6256 375.806 26.4993 376.155 26.3973C376.51 26.2905 376.889 26.237 377.292 26.237C377.899 26.237 378.431 26.3245 378.888 26.4993C379.349 26.6742 379.689 26.9122 379.908 27.2134C380.126 27.5097 380.277 27.908 380.36 28.4083L379.077 28.5832C379.019 28.1849 378.849 27.874 378.567 27.6506C378.29 27.4271 377.897 27.3154 377.387 27.3154C376.785 27.3154 376.355 27.415 376.097 27.6141C375.84 27.8133 375.711 28.0465 375.711 28.3136C375.711 28.4836 375.764 28.6366 375.871 28.7727C375.978 28.9135 376.146 29.0301 376.374 29.1224C376.505 29.171 376.891 29.2827 377.533 29.4576C378.46 29.7053 379.106 29.9093 379.471 30.0696C379.84 30.225 380.129 30.4533 380.338 30.7545C380.547 31.0557 380.651 31.4297 380.651 31.8766C380.651 32.3138 380.522 32.7267 380.265 33.1153C380.012 33.499 379.646 33.7977 379.165 34.0115C378.684 34.2203 378.14 34.3248 377.533 34.3248C376.527 34.3248 375.76 34.1159 375.23 33.6982C374.706 33.2804 374.37 32.6611 374.225 31.8402ZM382.218 24.9765V23.4683H383.529V24.9765H382.218ZM382.218 34.1499V26.4119H383.529V34.1499H382.218ZM390.582 31.3156L391.872 31.4831C391.731 32.3721 391.369 33.0691 390.786 33.5743C390.208 34.0746 389.497 34.3248 388.651 34.3248C387.592 34.3248 386.74 33.9799 386.094 33.2901C385.453 32.5955 385.132 31.6021 385.132 30.3101C385.132 29.4746 385.271 28.7435 385.547 28.1169C385.824 27.4903 386.245 27.0215 386.808 26.7106C387.376 26.3949 387.993 26.237 388.659 26.237C389.499 26.237 390.186 26.4508 390.721 26.8782C391.255 27.3008 391.597 27.9032 391.748 28.6852L390.473 28.8819C390.352 28.3622 390.135 27.9712 389.824 27.7089C389.518 27.4466 389.147 27.3154 388.71 27.3154C388.049 27.3154 387.512 27.5534 387.099 28.0295C386.687 28.5006 386.48 29.2487 386.48 30.2736C386.48 31.3131 386.679 32.0685 387.078 32.5396C387.476 33.0108 387.996 33.2464 388.637 33.2464C389.152 33.2464 389.582 33.0885 389.926 32.7728C390.271 32.4571 390.49 31.9713 390.582 31.3156ZM392.469 31.8402L393.766 31.6361C393.839 32.1559 394.041 32.5542 394.371 32.8311C394.706 33.108 395.173 33.2464 395.77 33.2464C396.372 33.2464 396.819 33.125 397.111 32.8821C397.402 32.6344 397.548 32.3453 397.548 32.015C397.548 31.7187 397.419 31.4856 397.162 31.3156C396.982 31.199 396.535 31.0508 395.821 30.8711C394.859 30.6282 394.191 30.4193 393.817 30.2445C393.448 30.0647 393.166 29.8194 392.972 29.5086C392.783 29.1928 392.688 28.8455 392.688 28.4666C392.688 28.1218 392.766 27.8036 392.921 27.5121C393.081 27.2158 393.298 26.9705 393.57 26.7762C393.774 26.6256 394.05 26.4993 394.4 26.3973C394.755 26.2905 395.134 26.237 395.537 26.237C396.144 26.237 396.676 26.3245 397.133 26.4993C397.594 26.6742 397.934 26.9122 398.153 27.2134C398.371 27.5097 398.522 27.908 398.604 28.4083L397.322 28.5832C397.264 28.1849 397.094 27.874 396.812 27.6506C396.535 27.4271 396.142 27.3154 395.632 27.3154C395.029 27.3154 394.599 27.415 394.342 27.6141C394.084 27.8133 393.956 28.0465 393.956 28.3136C393.956 28.4836 394.009 28.6366 394.116 28.7727C394.223 28.9135 394.391 29.0301 394.619 29.1224C394.75 29.171 395.136 29.2827 395.777 29.4576C396.705 29.7053 397.351 29.9093 397.715 30.0696C398.085 30.225 398.374 30.4533 398.583 30.7545C398.791 31.0557 398.896 31.4297 398.896 31.8766C398.896 32.3138 398.767 32.7267 398.51 33.1153C398.257 33.499 397.89 33.7977 397.409 34.0115C396.929 34.2203 396.385 34.3248 395.777 34.3248C394.772 34.3248 394.004 34.1159 393.475 33.6982C392.95 33.2804 392.615 32.6611 392.469 31.8402Z" fill="#373435"/>
<path fill-rule="evenodd" clip-rule="evenodd" d="M394.244 37.7852C387.913 50.4464 376.609 65.6701 353.095 67.4789V73.4328L336.967 63.4091L353.095 55.1192V61.2237C353.095 61.2237 371.258 62.6555 394.244 37.7852Z" fill="#F75656"/>
<path fill-rule="evenodd" clip-rule="evenodd" d="M210.052 291.915C222.714 285.509 237.937 274.28 239.746 250.691H245.7L235.676 234.563L227.311 250.691H233.491C233.491 250.691 234.923 268.854 210.052 291.915Z" fill="#6367B5"/>
<path d="M136.925 305.915V295.234H139.053L141.581 302.797C141.814 303.501 141.984 304.028 142.091 304.378C142.213 303.989 142.402 303.419 142.66 302.666L145.217 295.234H147.119V305.915H145.756V296.975L142.652 305.915H141.377L138.288 296.822V305.915H136.925ZM154.281 304.961C153.795 305.374 153.327 305.665 152.875 305.835C152.428 306.005 151.947 306.09 151.432 306.09C150.582 306.09 149.929 305.884 149.472 305.471C149.016 305.053 148.787 304.521 148.787 303.875C148.787 303.496 148.872 303.151 149.042 302.84C149.217 302.525 149.443 302.272 149.72 302.083C150.002 301.893 150.317 301.75 150.667 301.653C150.925 301.585 151.313 301.519 151.833 301.456C152.892 301.33 153.672 301.179 154.172 301.004C154.177 300.825 154.179 300.71 154.179 300.662C154.179 300.128 154.055 299.751 153.808 299.533C153.472 299.236 152.975 299.088 152.314 299.088C151.697 299.088 151.24 299.197 150.944 299.416C150.653 299.63 150.436 300.011 150.296 300.56L149.013 300.385C149.13 299.836 149.322 299.394 149.589 299.059C149.856 298.719 150.242 298.459 150.747 298.279C151.253 298.095 151.838 298.002 152.503 298.002C153.164 298.002 153.701 298.08 154.114 298.236C154.527 298.391 154.83 298.588 155.024 298.826C155.219 299.059 155.355 299.355 155.432 299.715C155.476 299.938 155.498 300.341 155.498 300.924V302.673C155.498 303.892 155.525 304.664 155.578 304.99C155.636 305.311 155.748 305.619 155.913 305.915H154.544C154.408 305.643 154.32 305.325 154.281 304.961ZM154.172 302.032C153.696 302.226 152.982 302.391 152.03 302.527C151.491 302.605 151.109 302.692 150.886 302.789C150.662 302.887 150.49 303.03 150.368 303.219C150.247 303.404 150.186 303.61 150.186 303.839C150.186 304.188 150.317 304.48 150.58 304.713C150.847 304.946 151.236 305.063 151.746 305.063C152.251 305.063 152.7 304.953 153.094 304.735C153.487 304.511 153.776 304.208 153.961 303.824C154.101 303.528 154.172 303.091 154.172 302.513V302.032ZM160.402 304.742L160.591 305.901C160.222 305.978 159.892 306.017 159.6 306.017C159.124 306.017 158.755 305.942 158.493 305.791C158.23 305.641 158.046 305.444 157.939 305.201C157.832 304.953 157.779 304.436 157.779 303.649V299.197H156.817V298.177H157.779V296.261L159.083 295.474V298.177H160.402V299.197H159.083V303.722C159.083 304.096 159.105 304.337 159.148 304.443C159.197 304.55 159.272 304.635 159.374 304.698C159.481 304.762 159.632 304.793 159.826 304.793C159.972 304.793 160.164 304.776 160.402 304.742ZM161.691 305.915V295.234H163.003V299.066C163.615 298.357 164.387 298.002 165.32 298.002C165.893 298.002 166.391 298.117 166.814 298.345C167.236 298.568 167.537 298.879 167.717 299.278C167.902 299.676 167.994 300.254 167.994 301.012V305.915H166.682V301.012C166.682 300.356 166.539 299.88 166.253 299.584C165.971 299.282 165.57 299.132 165.05 299.132C164.662 299.132 164.295 299.234 163.95 299.438C163.61 299.637 163.367 299.909 163.221 300.254C163.076 300.599 163.003 301.075 163.003 301.682V305.915H161.691ZM175.295 303.423L176.65 303.591C176.436 304.383 176.04 304.997 175.462 305.434C174.884 305.872 174.146 306.09 173.247 306.09C172.115 306.09 171.217 305.743 170.551 305.048C169.891 304.349 169.56 303.37 169.56 302.112C169.56 300.81 169.896 299.8 170.566 299.081C171.236 298.362 172.106 298.002 173.174 298.002C174.209 298.002 175.054 298.355 175.71 299.059C176.366 299.763 176.694 300.754 176.694 302.032C176.694 302.109 176.691 302.226 176.686 302.381H170.916C170.964 303.232 171.205 303.882 171.637 304.334C172.069 304.786 172.609 305.012 173.255 305.012C173.735 305.012 174.146 304.885 174.486 304.633C174.826 304.38 175.096 303.977 175.295 303.423ZM170.989 301.303H175.309C175.251 300.652 175.086 300.164 174.814 299.839C174.396 299.333 173.854 299.081 173.189 299.081C172.587 299.081 172.079 299.282 171.666 299.686C171.258 300.089 171.032 300.628 170.989 301.303ZM178.304 305.915V298.177H179.477V299.263C179.72 298.884 180.043 298.58 180.446 298.352C180.849 298.119 181.308 298.002 181.823 298.002C182.396 298.002 182.865 298.121 183.229 298.359C183.599 298.597 183.858 298.93 184.009 299.358C184.621 298.454 185.418 298.002 186.399 298.002C187.166 298.002 187.757 298.216 188.17 298.644C188.582 299.066 188.789 299.72 188.789 300.604V305.915H187.485V301.041C187.485 300.516 187.441 300.14 187.353 299.911C187.271 299.678 187.118 299.491 186.894 299.35C186.671 299.21 186.409 299.139 186.108 299.139C185.563 299.139 185.112 299.321 184.752 299.686C184.393 300.045 184.213 300.623 184.213 301.42V305.915H182.902V300.888C182.902 300.305 182.795 299.868 182.581 299.576C182.367 299.285 182.017 299.139 181.532 299.139C181.163 299.139 180.82 299.236 180.504 299.431C180.194 299.625 179.968 299.909 179.827 300.283C179.686 300.657 179.615 301.196 179.615 301.901V305.915H178.304ZM195.784 304.961C195.298 305.374 194.829 305.665 194.377 305.835C193.931 306.005 193.45 306.09 192.935 306.09C192.085 306.09 191.431 305.884 190.975 305.471C190.518 305.053 190.29 304.521 190.29 303.875C190.29 303.496 190.375 303.151 190.545 302.84C190.72 302.525 190.946 302.272 191.222 302.083C191.504 301.893 191.82 301.75 192.17 301.653C192.427 301.585 192.816 301.519 193.335 301.456C194.394 301.33 195.174 301.179 195.674 301.004C195.679 300.825 195.682 300.71 195.682 300.662C195.682 300.128 195.558 299.751 195.31 299.533C194.975 299.236 194.477 299.088 193.816 299.088C193.199 299.088 192.743 299.197 192.447 299.416C192.155 299.63 191.939 300.011 191.798 300.56L190.516 300.385C190.632 299.836 190.824 299.394 191.091 299.059C191.358 298.719 191.745 298.459 192.25 298.279C192.755 298.095 193.34 298.002 194.006 298.002C194.666 298.002 195.203 298.08 195.616 298.236C196.029 298.391 196.333 298.588 196.527 298.826C196.721 299.059 196.857 299.355 196.935 299.715C196.979 299.938 197 300.341 197 300.924V302.673C197 303.892 197.027 304.664 197.081 304.99C197.139 305.311 197.251 305.619 197.416 305.915H196.046C195.91 305.643 195.822 305.325 195.784 304.961ZM195.674 302.032C195.198 302.226 194.484 302.391 193.532 302.527C192.993 302.605 192.612 302.692 192.388 302.789C192.165 302.887 191.992 303.03 191.871 303.219C191.749 303.404 191.689 303.61 191.689 303.839C191.689 304.188 191.82 304.48 192.082 304.713C192.349 304.946 192.738 305.063 193.248 305.063C193.753 305.063 194.203 304.953 194.596 304.735C194.989 304.511 195.278 304.208 195.463 303.824C195.604 303.528 195.674 303.091 195.674 302.513V302.032ZM201.904 304.742L202.094 305.901C201.724 305.978 201.394 306.017 201.103 306.017C200.627 306.017 200.257 305.942 199.995 305.791C199.733 305.641 199.548 305.444 199.441 305.201C199.334 304.953 199.281 304.436 199.281 303.649V299.197H198.319V298.177H199.281V296.261L200.585 295.474V298.177H201.904V299.197H200.585V303.722C200.585 304.096 200.607 304.337 200.651 304.443C200.699 304.55 200.775 304.635 200.877 304.698C200.984 304.762 201.134 304.793 201.328 304.793C201.474 304.793 201.666 304.776 201.904 304.742ZM203.201 296.742V295.234H204.513V296.742H203.201ZM203.201 305.915V298.177H204.513V305.915H203.201ZM211.566 303.081L212.855 303.249C212.714 304.137 212.353 304.834 211.77 305.34C211.192 305.84 210.48 306.09 209.635 306.09C208.576 306.09 207.723 305.745 207.077 305.056C206.436 304.361 206.116 303.368 206.116 302.075C206.116 301.24 206.254 300.509 206.531 299.882C206.808 299.256 207.228 298.787 207.791 298.476C208.36 298.16 208.977 298.002 209.642 298.002C210.482 298.002 211.17 298.216 211.704 298.644C212.238 299.066 212.581 299.669 212.731 300.451L211.456 300.647C211.335 300.128 211.119 299.737 210.808 299.474C210.502 299.212 210.13 299.081 209.693 299.081C209.032 299.081 208.496 299.319 208.083 299.795C207.67 300.266 207.463 301.014 207.463 302.039C207.463 303.079 207.663 303.834 208.061 304.305C208.459 304.776 208.979 305.012 209.62 305.012C210.135 305.012 210.565 304.854 210.91 304.538C211.255 304.222 211.473 303.737 211.566 303.081ZM213.453 303.606L214.75 303.402C214.823 303.921 215.024 304.32 215.354 304.596C215.69 304.873 216.156 305.012 216.753 305.012C217.356 305.012 217.803 304.89 218.094 304.647C218.386 304.4 218.531 304.111 218.531 303.78C218.531 303.484 218.403 303.251 218.145 303.081C217.965 302.964 217.518 302.816 216.804 302.636C215.843 302.394 215.175 302.185 214.801 302.01C214.432 301.83 214.15 301.585 213.956 301.274C213.766 300.958 213.671 300.611 213.671 300.232C213.671 299.887 213.749 299.569 213.905 299.278C214.065 298.981 214.281 298.736 214.553 298.542C214.757 298.391 215.034 298.265 215.384 298.163C215.738 298.056 216.117 298.002 216.52 298.002C217.127 298.002 217.659 298.09 218.116 298.265C218.577 298.44 218.917 298.678 219.136 298.979C219.355 299.275 219.505 299.673 219.588 300.174L218.305 300.349C218.247 299.95 218.077 299.639 217.795 299.416C217.518 299.193 217.125 299.081 216.615 299.081C216.013 299.081 215.583 299.18 215.325 299.38C215.068 299.579 214.939 299.812 214.939 300.079C214.939 300.249 214.993 300.402 215.099 300.538C215.206 300.679 215.374 300.795 215.602 300.888C215.733 300.936 216.12 301.048 216.761 301.223C217.689 301.471 218.335 301.675 218.699 301.835C219.068 301.99 219.357 302.219 219.566 302.52C219.775 302.821 219.879 303.195 219.879 303.642C219.879 304.079 219.751 304.492 219.493 304.881C219.24 305.264 218.874 305.563 218.393 305.777C217.912 305.986 217.368 306.09 216.761 306.09C215.755 306.09 214.988 305.881 214.458 305.464C213.934 305.046 213.599 304.426 213.453 303.606Z" fill="#373435"/>
<path fill-rule="evenodd" clip-rule="evenodd" d="M199.124 226.122C199.124 225.82 199.124 225.519 199.2 225.293C199.351 225.067 199.426 224.916 199.577 224.765C199.728 224.614 199.953 224.464 200.104 224.388C200.33 224.313 200.556 224.313 200.782 224.237C200.858 224.237 200.933 224.237 201.009 224.313C201.084 224.313 201.235 224.313 201.31 224.313C201.385 224.313 201.536 224.388 201.612 224.464C201.687 224.539 201.687 224.614 201.687 224.69C201.687 224.841 201.687 224.916 201.612 224.991C201.536 225.066 201.461 225.067 201.31 225.067C201.235 225.067 201.159 225.067 201.084 225.067C201.009 224.991 200.858 224.991 200.707 224.991C200.406 224.991 200.255 225.067 200.104 225.293C199.953 225.519 199.878 225.745 199.878 226.046V226.649H200.858C201.009 226.649 201.084 226.649 201.159 226.725C201.159 226.8 201.235 226.875 201.235 227.026C201.235 227.101 201.159 227.177 201.159 227.252C201.084 227.328 201.009 227.327 200.858 227.327H199.878V231.02C199.878 231.096 199.803 231.247 199.803 231.247C199.728 231.322 199.577 231.397 199.501 231.397C199.351 231.397 199.275 231.322 199.2 231.247C199.124 231.247 199.124 231.096 199.124 231.02V226.122ZM197.466 221.675H216.911C217.212 221.675 217.513 221.75 217.74 221.977C217.966 222.203 218.116 222.504 218.116 222.806V234.638C218.116 235.015 217.966 235.316 217.74 235.542C217.513 235.693 217.212 235.844 216.911 235.844H210.052L214.273 241.722C214.574 242.024 214.499 242.551 214.122 242.777C213.821 243.079 213.293 243.003 213.067 242.626L210.278 238.858L208.018 239.989V244.058C208.018 244.511 207.641 244.888 207.188 244.888C206.812 244.888 206.435 244.511 206.435 244.058V239.913L204.249 238.783L201.385 242.626C201.159 243.003 200.632 243.079 200.255 242.777C199.954 242.551 199.878 242.024 200.104 241.722L204.4 235.844H197.466C197.165 235.844 196.864 235.693 196.637 235.542C196.411 235.316 196.336 235.015 196.336 234.638V222.806C196.336 222.504 196.411 222.203 196.637 221.977C196.864 221.75 197.165 221.675 197.466 221.675ZM208.093 235.844H208.018V239.235L209.826 238.255L208.093 235.844ZM206.435 235.844H206.36L204.626 238.18L206.435 239.16V235.844ZM216.911 222.353H197.466C197.391 222.353 197.24 222.429 197.165 222.504C197.09 222.58 197.014 222.73 197.014 222.806V234.638C197.014 234.789 197.09 234.939 197.165 235.015C197.24 235.09 197.391 235.165 197.466 235.165H216.911C217.061 235.165 217.137 235.09 217.212 235.015C217.287 234.939 217.363 234.789 217.363 234.638V222.806C217.363 222.73 217.287 222.58 217.212 222.504C217.137 222.429 217.061 222.353 216.911 222.353ZM215.177 228.383C215.252 228.383 215.328 228.458 215.403 228.458C215.479 228.533 215.554 228.684 215.554 228.759C215.554 228.91 215.479 228.986 215.403 229.061C215.328 229.136 215.252 229.136 215.177 229.136H212.087C211.936 229.136 211.861 229.136 211.786 229.061C211.71 228.986 211.635 228.91 211.635 228.759C211.635 228.684 211.71 228.533 211.786 228.458C211.861 228.458 211.936 228.383 212.087 228.383H215.177ZM215.177 226.649C215.252 226.649 215.328 226.649 215.403 226.725C215.479 226.8 215.554 226.875 215.554 227.026C215.554 227.101 215.479 227.177 215.403 227.252C215.328 227.328 215.252 227.403 215.177 227.403H212.087C211.936 227.403 211.861 227.328 211.786 227.252C211.71 227.177 211.635 227.101 211.635 227.026C211.635 226.875 211.71 226.8 211.786 226.725C211.861 226.649 211.936 226.649 212.087 226.649H215.177ZM209.751 229.212C209.751 228.533 209.675 227.855 209.525 227.177C209.374 226.574 209.148 225.971 208.847 225.368C208.771 225.293 208.771 225.293 208.771 225.217C208.771 225.217 208.696 225.142 208.696 225.067C208.696 224.991 208.771 224.916 208.847 224.84C208.847 224.765 208.997 224.69 209.073 224.69C209.223 224.69 209.374 224.765 209.45 224.84C209.826 225.519 210.128 226.197 210.278 226.951C210.429 227.704 210.505 228.458 210.505 229.212C210.505 229.89 210.429 230.644 210.278 231.397C210.128 232.151 209.826 232.829 209.45 233.507C209.374 233.583 209.223 233.658 209.073 233.658C208.997 233.658 208.847 233.658 208.847 233.583C208.771 233.507 208.696 233.357 208.696 233.281C208.696 233.206 208.771 233.206 208.771 233.131C208.771 233.131 208.771 233.055 208.847 232.98C209.148 232.452 209.374 231.774 209.525 231.171C209.675 230.493 209.751 229.89 209.751 229.212ZM208.168 230.87C208.244 230.87 208.244 230.945 208.244 231.02C208.244 231.096 208.168 231.246 208.168 231.322C208.093 231.397 207.942 231.397 207.867 231.397C207.791 231.397 207.716 231.397 207.641 231.322C207.565 231.322 207.565 231.246 207.49 231.171L206.36 229.438L205.229 231.247C205.154 231.322 205.003 231.397 204.928 231.397C204.777 231.397 204.701 231.397 204.626 231.322C204.551 231.246 204.551 231.171 204.551 231.02C204.551 230.945 204.551 230.945 204.551 230.87L205.907 228.835L204.626 226.951C204.626 226.875 204.626 226.8 204.626 226.725C204.626 226.649 204.626 226.574 204.702 226.499C204.777 226.423 204.852 226.348 205.003 226.348C205.078 226.348 205.154 226.423 205.229 226.499C205.305 226.574 205.38 226.649 205.38 226.725L206.36 228.232L207.415 226.649C207.49 226.498 207.49 226.498 207.565 226.423C207.641 226.348 207.716 226.348 207.792 226.348C207.867 226.348 207.942 226.423 208.018 226.499C208.093 226.499 208.168 226.649 208.168 226.725V226.8C208.168 226.875 208.093 226.875 208.093 226.875L206.812 228.835L208.168 230.87ZM202.968 229.212C202.968 229.89 203.043 230.493 203.194 231.171C203.345 231.774 203.571 232.452 203.948 232.98C203.948 233.055 203.948 233.131 204.023 233.131C204.023 233.206 204.023 233.206 204.023 233.281C204.023 233.357 204.023 233.507 203.948 233.583C203.872 233.658 203.797 233.658 203.646 233.658C203.496 233.658 203.42 233.583 203.345 233.507C202.968 232.829 202.667 232.151 202.516 231.397C202.29 230.644 202.214 229.89 202.214 229.212C202.214 228.458 202.29 227.704 202.516 226.951C202.667 226.197 202.968 225.519 203.345 224.84C203.42 224.765 203.496 224.69 203.646 224.69C203.797 224.69 203.872 224.765 203.948 224.84C204.023 224.916 204.023 224.991 204.023 225.067C204.023 225.142 204.023 225.217 204.023 225.217C203.948 225.293 203.948 225.293 203.948 225.368C203.571 225.971 203.345 226.574 203.194 227.177C203.043 227.855 202.968 228.533 202.968 229.212Z" fill="#FEFEFE"/>
<path fill-rule="evenodd" clip-rule="evenodd" d="M206.765 85.7058C224.177 85.7058 238.294 99.8235 238.294 117.235C238.294 134.176 224.177 148.294 206.765 148.294C189.824 148.294 175.706 134.176 175.706 117.235C175.706 99.8235 189.824 85.7058 206.765 85.7058Z" fill="#E6E7E8"/>
<path fill-rule="evenodd" clip-rule="evenodd" d="M208.176 88.9999C210.059 88.9999 211.941 89.4705 213.824 89.4705C215.706 90.4117 229.824 100.765 230.765 115.353C231.706 130.412 226.529 137.941 226.529 137.941C221.824 142.176 215.235 145 208.176 145C192.647 145 179.941 132.294 179.941 116.765C179.941 101.706 192.647 88.9999 208.176 88.9999Z" fill="#FEFEFE"/>
<path fill-rule="evenodd" clip-rule="evenodd" d="M213.824 89.4705C212.412 89.4705 211.471 88.9999 210.059 88.9999C209.588 88.9999 208.647 88.9999 208.176 88.9999C208.176 88.9999 207.706 88.9999 207.706 89.4705C205.824 90.4117 200.647 95.1176 205.824 99.8235C209.588 103.118 215.235 105.941 219.941 110.176C220.882 111.118 221.824 112.059 222.765 113C223.706 113.941 224.647 114.882 225.118 115.823C225.588 116.765 226.059 117.706 226.529 118.176C227 119.118 227 119.588 227.471 120.059C230.294 129.941 226.529 137.941 226.529 137.941C226.529 137.941 231.235 130.882 230.765 116.765C230.765 116.294 230.765 115.823 230.765 115.353C230.765 113.941 230.294 112.529 230.294 111.118C229.824 110.647 229.824 110.176 229.824 110.176C226.529 98.4117 215.235 90.4117 213.824 89.4705Z" fill="#E6E7E8"/>
<path d="M182.776 103.048L182.818 103.044C182.82 103.058 182.825 103.068 182.833 103.075C182.841 103.081 182.851 103.085 182.865 103.085C182.879 103.085 182.889 103.082 182.896 103.076C182.903 103.07 182.907 103.063 182.907 103.055C182.907 103.05 182.905 103.046 182.902 103.042C182.899 103.039 182.894 103.036 182.887 103.033C182.882 103.031 182.87 103.028 182.852 103.024C182.829 103.018 182.813 103.011 182.803 103.002C182.79 102.99 182.783 102.976 182.783 102.959C182.783 102.948 182.786 102.938 182.793 102.928C182.799 102.919 182.808 102.912 182.819 102.907C182.831 102.902 182.845 102.899 182.862 102.899C182.889 102.899 182.909 102.905 182.923 102.917C182.936 102.929 182.943 102.944 182.944 102.964L182.901 102.966C182.899 102.955 182.895 102.947 182.889 102.942C182.883 102.937 182.874 102.935 182.861 102.935C182.849 102.935 182.839 102.938 182.832 102.943C182.827 102.946 182.825 102.951 182.825 102.956C182.825 102.961 182.827 102.966 182.831 102.969C182.837 102.974 182.85 102.979 182.871 102.984C182.892 102.989 182.908 102.994 182.918 102.999C182.928 103.004 182.936 103.012 182.942 103.021C182.947 103.03 182.95 103.041 182.95 103.055C182.95 103.067 182.947 103.079 182.94 103.09C182.933 103.1 182.923 103.108 182.911 103.114C182.898 103.119 182.883 103.121 182.864 103.121C182.837 103.121 182.816 103.115 182.802 103.103C182.787 103.09 182.778 103.072 182.776 103.048ZM183.015 103.118L182.966 102.962H183.006L183.035 103.064L183.062 102.962H183.102L183.128 103.064L183.157 102.962H183.198L183.148 103.118H183.109L183.082 103.018L183.055 103.118H183.015ZM183.251 103.009L183.213 103.003C183.218 102.988 183.225 102.977 183.235 102.969C183.245 102.962 183.26 102.958 183.281 102.958C183.299 102.958 183.313 102.961 183.322 102.965C183.331 102.969 183.337 102.975 183.341 102.982C183.344 102.988 183.346 103.001 183.346 103.018L183.346 103.066C183.346 103.08 183.346 103.09 183.348 103.097C183.349 103.103 183.351 103.11 183.355 103.118H183.314C183.313 103.115 183.312 103.111 183.31 103.105C183.31 103.103 183.309 103.101 183.309 103.101C183.302 103.107 183.294 103.113 183.286 103.116C183.278 103.119 183.27 103.121 183.261 103.121C183.245 103.121 183.232 103.117 183.223 103.108C183.214 103.099 183.209 103.088 183.209 103.075C183.209 103.066 183.211 103.058 183.215 103.052C183.22 103.045 183.225 103.039 183.233 103.036C183.241 103.032 183.251 103.029 183.266 103.026C183.285 103.023 183.298 103.019 183.306 103.016V103.012C183.306 103.004 183.304 102.998 183.3 102.995C183.296 102.992 183.289 102.99 183.278 102.99C183.27 102.99 183.265 102.991 183.261 102.994C183.257 102.997 183.253 103.002 183.251 103.009ZM183.306 103.043C183.3 103.045 183.292 103.047 183.281 103.049C183.269 103.052 183.262 103.054 183.258 103.056C183.253 103.06 183.25 103.065 183.25 103.071C183.25 103.077 183.252 103.082 183.257 103.086C183.261 103.09 183.266 103.092 183.273 103.092C183.28 103.092 183.288 103.09 183.294 103.085C183.299 103.081 183.303 103.076 183.304 103.071C183.305 103.068 183.306 103.061 183.306 103.051V103.043ZM183.386 102.962H183.424V102.985C183.429 102.977 183.436 102.971 183.444 102.966C183.453 102.961 183.462 102.958 183.473 102.958C183.491 102.958 183.506 102.966 183.519 102.98C183.531 102.994 183.537 103.014 183.537 103.039C183.537 103.065 183.531 103.085 183.518 103.1C183.506 103.114 183.49 103.121 183.472 103.121C183.464 103.121 183.456 103.119 183.449 103.116C183.442 103.113 183.435 103.107 183.427 103.098V103.177H183.386V102.962ZM183.426 103.037C183.426 103.055 183.43 103.068 183.437 103.076C183.444 103.084 183.452 103.088 183.462 103.088C183.472 103.088 183.48 103.085 183.486 103.077C183.492 103.069 183.496 103.057 183.496 103.039C183.496 103.023 183.492 103.011 183.486 103.003C183.479 102.995 183.471 102.991 183.461 102.991C183.451 102.991 183.443 102.995 183.436 103.003C183.43 103.01 183.426 103.022 183.426 103.037Z" fill="#1B9EB1"/>
<path d="M197.366 119.062L197.407 119.058C197.408 119.067 197.412 119.075 197.418 119.08C197.423 119.086 197.43 119.088 197.438 119.088C197.446 119.088 197.453 119.085 197.459 119.078C197.465 119.071 197.468 119.06 197.468 119.046C197.468 119.033 197.465 119.023 197.459 119.017C197.454 119.01 197.446 119.007 197.436 119.007C197.425 119.007 197.414 119.012 197.405 119.022L197.371 119.018L197.392 118.906H197.501V118.944H197.424L197.417 118.981C197.426 118.976 197.436 118.974 197.445 118.974C197.463 118.974 197.479 118.98 197.492 118.994C197.504 119.007 197.511 119.024 197.511 119.045C197.511 119.063 197.506 119.079 197.495 119.093C197.481 119.112 197.462 119.121 197.437 119.121C197.417 119.121 197.401 119.116 197.389 119.105C197.376 119.095 197.369 119.08 197.366 119.062Z" fill="#1B9EB1"/>
<path fill-rule="evenodd" clip-rule="evenodd" d="M155 84.7646C144.647 101.706 143.235 123.353 152.176 142.647C167.235 172.765 203.471 185.471 233.588 170.412C235 169.941 236.412 169 237.824 168.529C212.882 177.941 184.176 167.118 172.412 142.647C164.882 127.118 165.824 110.176 172.882 96.0587L178.059 99.8234L187.471 66.4117L150.765 81.4705L155 84.7646Z" fill="#BDBFC1"/>
<path fill-rule="evenodd" clip-rule="evenodd" d="M259.471 149.235C269.353 132.294 271.235 110.647 261.824 91.3529C247.235 61.2352 210.529 48.5293 180.412 63.1176C179 63.5882 177.588 64.5293 176.177 65.4705C201.118 55.5882 229.824 66.4117 242.059 90.8823C249.118 106.412 248.647 123.823 241.118 137.941L235.941 134.176L227 167.588L263.706 152.529L259.471 149.235Z" fill="#17A8B4"/>
<path fill-rule="evenodd" clip-rule="evenodd" d="M194.059 64.0588C212.882 64.0588 231.235 74.8823 240.177 93.2352C241.588 96.0588 242.529 99.3529 243.471 102.176C224.647 65.9411 190.294 79.5882 190.294 79.5882L194.059 64.0588Z" fill="#17A8B4"/>
<path fill-rule="evenodd" clip-rule="evenodd" d="M253.824 156.294L227 167.588C227 167.588 272.176 131.353 253.824 78.647C255.706 80.9999 259.941 87.1176 261.824 91.3529C263.706 95.5882 266.529 103.588 267.471 109.706C269.353 123.353 266.059 137.471 259.471 149.235L263.706 152.529L253.824 156.294Z" fill="#3E469E"/>
<path fill-rule="evenodd" clip-rule="evenodd" d="M154.529 84.7646C144.647 101.706 142.765 123.353 152.176 142.647C166.765 172.765 203.471 185.471 233.588 170.882C235 170.412 236.412 169.47 237.824 168.529C212.882 178.412 184.176 167.588 171.941 143.118C164.412 127.588 165.353 110.176 172.882 96.0587L178.059 99.8234L187 66.4117L150.294 81.4705L154.529 84.7646Z" fill="#EECC15"/>
<path fill-rule="evenodd" clip-rule="evenodd" d="M219.941 169.941C201.118 169.941 182.765 159.118 173.824 140.765C172.412 137.941 171 134.647 170.529 131.823C189.353 168.529 223.706 154.412 223.706 154.412L219.941 169.941Z" fill="#EEAA27"/>
<path fill-rule="evenodd" clip-rule="evenodd" d="M160.176 77.7058L187 66.4117C187 66.4117 141.824 102.647 160.176 155.353C158.294 153 154.059 146.882 152.176 142.647C150.294 138.412 147.471 130.412 146.529 124.294C144.647 110.647 147.941 96.5293 154.529 84.7646L150.294 81.4705L160.176 77.7058Z" fill="#EEAA27"/>
<path d="M185.512 115.7L187.504 115.506C187.624 116.175 187.866 116.666 188.231 116.98C188.6 117.293 189.096 117.45 189.718 117.45C190.378 117.45 190.874 117.312 191.206 117.035C191.542 116.754 191.711 116.426 191.711 116.053C191.711 115.813 191.639 115.61 191.496 115.444C191.358 115.273 191.113 115.126 190.763 115.001C190.523 114.918 189.977 114.771 189.123 114.558C188.026 114.286 187.255 113.952 186.813 113.555C186.19 112.997 185.879 112.317 185.879 111.514C185.879 110.998 186.024 110.516 186.314 110.069C186.61 109.617 187.032 109.273 187.581 109.038C188.134 108.803 188.8 108.685 189.58 108.685C190.853 108.685 191.81 108.964 192.451 109.522C193.097 110.08 193.436 110.825 193.468 111.757L191.42 111.847C191.333 111.325 191.143 110.952 190.853 110.726C190.567 110.495 190.136 110.38 189.559 110.38C188.964 110.38 188.498 110.502 188.162 110.747C187.945 110.903 187.836 111.113 187.836 111.376C187.836 111.616 187.938 111.821 188.141 111.992C188.399 112.209 189.026 112.435 190.023 112.67C191.019 112.905 191.755 113.149 192.23 113.403C192.709 113.652 193.083 113.996 193.35 114.434C193.622 114.867 193.759 115.405 193.759 116.046C193.759 116.627 193.597 117.171 193.274 117.679C192.951 118.186 192.495 118.564 191.904 118.813C191.314 119.058 190.578 119.18 189.697 119.18C188.415 119.18 187.431 118.885 186.743 118.294C186.056 117.699 185.646 116.835 185.512 115.7ZM196.837 119L194.513 111.653H196.401L197.778 116.468L199.044 111.653H200.919L202.143 116.468L203.548 111.653H205.464L203.105 119H201.237L199.971 114.275L198.726 119H196.837ZM207.948 113.894L206.184 113.576C206.382 112.866 206.723 112.34 207.208 111.999C207.692 111.657 208.411 111.487 209.366 111.487C210.233 111.487 210.879 111.591 211.303 111.798C211.728 112.001 212.025 112.262 212.196 112.58C212.371 112.893 212.459 113.472 212.459 114.316L212.438 116.586C212.438 117.231 212.468 117.709 212.528 118.018C212.592 118.322 212.71 118.649 212.881 119H210.957C210.907 118.871 210.844 118.679 210.77 118.426C210.738 118.31 210.715 118.234 210.701 118.197C210.369 118.52 210.014 118.762 209.636 118.924C209.258 119.085 208.854 119.166 208.425 119.166C207.669 119.166 207.072 118.961 206.633 118.55C206.2 118.14 205.983 117.621 205.983 116.994C205.983 116.579 206.082 116.21 206.281 115.887C206.479 115.559 206.756 115.31 207.111 115.14C207.47 114.964 207.987 114.812 208.66 114.683C209.569 114.512 210.199 114.353 210.549 114.206V114.012C210.549 113.638 210.457 113.373 210.272 113.216C210.088 113.055 209.74 112.974 209.228 112.974C208.882 112.974 208.612 113.043 208.418 113.182C208.225 113.316 208.068 113.553 207.948 113.894ZM210.549 115.472C210.3 115.555 209.906 115.654 209.366 115.769C208.826 115.884 208.474 115.997 208.308 116.108C208.054 116.288 207.927 116.516 207.927 116.793C207.927 117.065 208.029 117.3 208.231 117.499C208.434 117.697 208.693 117.796 209.006 117.796C209.357 117.796 209.691 117.681 210.009 117.45C210.245 117.275 210.399 117.061 210.473 116.807C210.524 116.641 210.549 116.325 210.549 115.859V115.472ZM214.326 111.653H216.139V112.732C216.374 112.363 216.693 112.063 217.094 111.833C217.495 111.602 217.94 111.487 218.429 111.487C219.282 111.487 220.006 111.821 220.601 112.49C221.196 113.159 221.494 114.09 221.494 115.285C221.494 116.512 221.194 117.466 220.594 118.149C219.995 118.827 219.268 119.166 218.415 119.166C218.009 119.166 217.64 119.085 217.308 118.924C216.981 118.762 216.635 118.486 216.27 118.094V121.795H214.326V111.653ZM216.25 115.202C216.25 116.027 216.413 116.639 216.741 117.035C217.068 117.427 217.467 117.623 217.938 117.623C218.39 117.623 218.766 117.443 219.065 117.084C219.365 116.719 219.515 116.124 219.515 115.299C219.515 114.529 219.361 113.957 219.052 113.583C218.743 113.209 218.36 113.023 217.903 113.023C217.428 113.023 217.034 113.207 216.72 113.576C216.407 113.94 216.25 114.482 216.25 115.202Z" fill="#17A8B4"/>
<text id="val" x="200" y="135" fill="#17A8B4" >5</text>
</svg>