<svg  viewBox="0 0 440 322" fill="none" xmlns="http://www.w3.org/2000/svg">
<path d="M426.839 288.489H33.0583V294.216H426.839V288.489Z" fill="#025B85"/>
<path d="M426.839 303.637C433.624 303.637 439.123 298.137 439.123 291.352C439.123 284.568 433.624 279.068 426.839 279.068C420.055 279.068 414.555 284.568 414.555 291.352C414.555 298.137 420.055 303.637 426.839 303.637Z" fill="#025B85"/>
<path fill-rule="evenodd" clip-rule="evenodd" d="M42.1774 257.739C55.5924 261.734 65.3897 274.244 65.3897 289.016C65.3897 306.953 50.7691 321.573 32.8323 321.573C14.8201 321.573 0.199219 306.953 0.199219 289.016C0.199219 274.244 9.99677 261.734 23.4117 257.739V10.2416C23.4117 5.04147 27.6321 0.821045 32.8323 0.821045C37.9571 0.821045 42.1774 5.04147 42.1774 10.2416V257.739Z" fill="#025B85"/>
<path fill-rule="evenodd" clip-rule="evenodd" d="M50.8444 300.773C53.4822 300.773 55.6679 302.959 55.6679 305.596C55.6679 308.309 53.4822 310.495 50.8444 310.495C48.1313 310.495 46.0212 308.309 46.0212 305.596C46.0212 302.959 48.1313 300.773 50.8444 300.773ZM39.1629 13.2563C39.8412 13.2563 40.3688 17.0247 40.3688 21.622V253.293C40.3688 257.89 39.8412 261.659 39.1629 261.659C38.4847 261.659 37.9571 257.89 37.9571 253.293V21.622C37.9571 17.0247 38.4847 13.2563 39.1629 13.2563ZM29.2902 13.2563C31.0236 13.2563 32.4554 17.0247 32.4554 21.622V253.293C32.4554 257.89 31.0236 261.659 29.2902 261.659C27.4814 261.659 26.0493 257.89 26.0493 253.293V21.622C26.0493 17.0247 27.4814 13.2563 29.2902 13.2563ZM19.1159 265.728C24.2407 265.728 28.3856 269.873 28.3856 274.998C28.3856 280.048 24.2407 284.193 19.1159 284.193C14.0665 284.193 9.92139 280.048 9.92139 274.998C9.92139 269.873 14.0665 265.728 19.1159 265.728ZM42.2529 309.063C43.6095 309.063 44.7399 310.118 44.7399 311.475C44.7399 312.831 43.6095 313.886 42.2529 313.886C40.9717 313.886 39.8412 312.831 39.8412 311.475C39.8412 310.118 40.9717 309.063 42.2529 309.063Z" fill="#FEFEFE" fill-opacity="0.380392"/>
</svg>
