<svg width="59" height="59" viewBox="0 0 59 59" fill="none" xmlns="http://www.w3.org/2000/svg">
<path d="M29.5323 58.7619C45.7236 58.7619 58.8491 45.6362 58.8491 29.4449C58.8491 13.2537 45.7236 0.128174 29.5323 0.128174C13.3411 0.128174 0.215332 13.2537 0.215332 29.4449C0.215332 45.6362 13.3411 58.7619 29.5323 58.7619Z" fill="url(#paint0_radial)"/>
<path fill-rule="evenodd" clip-rule="evenodd" d="M18.8188 19.3287C18.8188 18.8765 18.8943 18.4997 18.9697 18.1982C19.1204 17.8214 19.2709 17.5952 19.497 17.3691C19.7231 17.143 19.9493 16.9923 20.2507 16.9169C20.5522 16.7662 20.8537 16.7662 21.2305 16.6908C21.3059 16.6908 21.3813 16.6909 21.532 16.7663C21.6828 16.7663 21.758 16.7663 21.9088 16.7663C22.0595 16.8416 22.2104 16.917 22.2857 16.9924C22.4365 17.0677 22.4364 17.2184 22.4364 17.3691C22.4364 17.5198 22.4365 17.5953 22.2857 17.7461C22.2104 17.8214 22.0596 17.8213 21.9842 17.8213C21.8335 17.8213 21.6828 17.8213 21.6075 17.8213C21.4567 17.7459 21.306 17.7461 21.0799 17.7461C20.703 17.7461 20.4016 17.8968 20.1755 18.1982C20.0248 18.4997 19.874 18.8012 19.874 19.178V20.0824H21.306C21.4567 20.0824 21.6073 20.0822 21.6827 20.1576C21.758 20.3083 21.8336 20.3838 21.8336 20.5345C21.8336 20.6853 21.758 20.8359 21.6827 20.9113C21.6073 20.9866 21.4567 21.0621 21.306 21.0621H19.874V26.2621C19.874 26.4128 19.8741 26.4883 19.7234 26.639C19.648 26.7144 19.4971 26.7897 19.3464 26.7897C19.1957 26.7897 19.045 26.7144 18.9697 26.639C18.8943 26.4883 18.8188 26.4128 18.8188 26.2621V19.3287ZM16.5579 12.998H43.9154C44.3676 12.998 44.7443 13.2242 45.0458 13.5257C45.3473 13.8271 45.5734 14.2037 45.5734 14.7313V31.3871C45.5734 31.8393 45.3473 32.2915 45.0458 32.5929C44.7443 32.8944 44.3676 33.0451 43.9154 33.0451H34.2687L40.2224 41.2598C40.5992 41.7874 40.5238 42.4656 39.9963 42.8424C39.5441 43.1439 38.7906 43.0685 38.4891 42.5409L34.57 37.2655L31.3294 38.9235V44.6511C31.3294 45.254 30.8773 45.7818 30.2744 45.7818C29.6715 45.7818 29.144 45.254 29.144 44.6511V38.7727L26.054 37.1146L22.0596 42.5409C21.6828 43.0685 21.0044 43.1439 20.4768 42.8424C20.0246 42.4656 19.8739 41.7874 20.2507 41.2598L26.2801 33.0451H16.5579C16.1057 33.0451 15.6535 32.8944 15.3521 32.5929C15.0506 32.2915 14.8999 31.8393 14.8999 31.3871V14.7313C14.8999 14.2037 15.0506 13.8271 15.3521 13.5257C15.6535 13.2242 16.1057 12.998 16.5579 12.998ZM31.4802 33.0451H31.3294V37.7931L33.9672 36.4364L31.4802 33.0451ZM29.144 33.0451H28.9931L26.5813 36.2857L29.144 37.6422V33.0451ZM43.9154 14.053H16.5579C16.4072 14.053 16.1811 14.1285 16.1058 14.2039C15.955 14.3546 15.8797 14.5052 15.8797 14.7313V31.3871C15.8797 31.5378 15.955 31.7639 16.1058 31.8392C16.1811 31.99 16.4072 32.0653 16.5579 32.0653H43.9154C44.0661 32.0653 44.2168 31.99 44.3675 31.8392C44.5183 31.7639 44.5936 31.5378 44.5936 31.3871V14.7313C44.5936 14.5052 44.5183 14.3546 44.3675 14.2039C44.2168 14.1285 44.0661 14.053 43.9154 14.053ZM41.4282 22.4938C41.5789 22.4938 41.7298 22.5694 41.8052 22.6447C41.8805 22.7955 41.9558 22.8707 41.9558 23.0215C41.9558 23.2476 41.8805 23.3229 41.8052 23.4736C41.7298 23.549 41.5789 23.6245 41.4282 23.6245H37.0572C36.9064 23.6245 36.7558 23.549 36.6804 23.4736C36.6051 23.3229 36.5296 23.2476 36.5296 23.0215C36.5296 22.8707 36.6051 22.7955 36.6804 22.6447C36.8312 22.5694 36.9064 22.4938 37.0572 22.4938H41.4282ZM41.4282 20.0824C41.5789 20.0824 41.7298 20.0823 41.8052 20.233C41.8805 20.3084 41.9558 20.459 41.9558 20.6097C41.9558 20.7605 41.8805 20.836 41.8052 20.9867C41.7298 21.0621 41.5789 21.1373 41.4282 21.1373H37.0572C36.9064 21.1373 36.7558 21.0621 36.6804 20.9867C36.6051 20.836 36.5296 20.7605 36.5296 20.6097C36.5296 20.459 36.6051 20.3084 36.6804 20.233C36.8312 20.0823 36.9064 20.0824 37.0572 20.0824H41.4282ZM33.8165 23.6245C33.8165 22.7201 33.7411 21.7404 33.515 20.836C33.2889 19.9317 32.9874 19.1025 32.5352 18.2734C32.4599 18.1981 32.4599 18.1227 32.3846 18.0474C32.3846 18.0474 32.3846 17.9721 32.3846 17.8967C32.3846 17.746 32.3845 17.5953 32.5352 17.52C32.6106 17.3692 32.6861 17.2939 32.9122 17.2939C33.0629 17.2939 33.2136 17.3691 33.3644 17.5952C33.8919 18.4996 34.2685 19.4794 34.57 20.5345C34.7961 21.5896 34.947 22.6448 34.947 23.6245C34.947 24.6796 34.7961 25.7346 34.57 26.7897C34.2685 27.8448 33.8919 28.8247 33.3644 29.729C33.2136 29.8798 33.0629 29.9551 32.9122 29.9551C32.6861 29.9551 32.6106 29.955 32.5352 29.8042C32.3845 29.6535 32.3846 29.5782 32.3846 29.4275C32.3846 29.3521 32.3846 29.2768 32.3846 29.2014C32.4599 29.1261 32.4599 29.1261 32.5352 29.0508C32.9874 28.2218 33.2889 27.3173 33.515 26.413C33.7411 25.5086 33.8165 24.6042 33.8165 23.6245ZM31.6309 25.9608C31.6309 26.0362 31.7063 26.1114 31.7063 26.2621C31.7063 26.4128 31.6308 26.4883 31.5554 26.639C31.4047 26.7144 31.3294 26.7897 31.1787 26.7897C31.028 26.7897 30.8772 26.7899 30.8772 26.7145C30.8018 26.6391 30.7265 26.5637 30.6511 26.413L29.0685 24.0012L27.4105 26.4884C27.3351 26.7145 27.1842 26.7897 27.0335 26.7897C26.8828 26.7897 26.7321 26.7144 26.5813 26.639C26.506 26.5637 26.4307 26.4128 26.4307 26.2621C26.4307 26.1867 26.5061 26.1114 26.5061 26.036L28.4655 23.1723L26.6568 20.4591C26.5814 20.3837 26.5813 20.3084 26.5813 20.233C26.5813 20.0823 26.5815 19.9316 26.7322 19.8563C26.8076 19.7055 26.9582 19.6302 27.109 19.6302C27.2597 19.6302 27.4106 19.7055 27.4859 19.8563C27.5613 19.9316 27.6366 20.0068 27.712 20.1576L29.0685 22.2678L30.5005 20.0069C30.5758 19.9315 30.6512 19.8562 30.7265 19.7808C30.8019 19.7055 30.9527 19.6302 31.0281 19.6302C31.1788 19.6302 31.3294 19.7055 31.4048 19.7808C31.4802 19.9316 31.5554 20.0068 31.5554 20.1576C31.5554 20.2329 31.5554 20.2331 31.5554 20.3084C31.5554 20.3084 31.5556 20.3837 31.4802 20.4591L29.6713 23.1723L31.6309 25.9608ZM24.3205 23.6245C24.3205 24.6042 24.3959 25.5086 24.622 26.413C24.8481 27.3173 25.1496 28.2218 25.6018 29.0508C25.6772 29.1261 25.677 29.1261 25.677 29.2014C25.7524 29.2768 25.7524 29.3521 25.7524 29.4275C25.7524 29.5782 25.6772 29.6535 25.6018 29.8042C25.5264 29.955 25.4509 29.9551 25.2248 29.9551C25.0741 29.9551 24.9234 29.8798 24.7727 29.729C24.2451 28.8247 23.8683 27.8448 23.5668 26.7897C23.3407 25.7346 23.1901 24.6796 23.1901 23.6245C23.1901 22.6448 23.3407 21.5896 23.5668 20.5345C23.8683 19.4794 24.2451 18.4996 24.7727 17.5952C24.9234 17.3691 25.0741 17.2939 25.2248 17.2939C25.4509 17.2939 25.5264 17.3692 25.6018 17.52C25.6772 17.5953 25.7524 17.746 25.7524 17.8967C25.7524 17.9721 25.7524 18.0474 25.677 18.0474C25.677 18.1227 25.6772 18.1981 25.6018 18.2734C25.1496 19.1025 24.8481 19.9317 24.622 20.836C24.3959 21.7404 24.3205 22.7201 24.3205 23.6245Z" fill="#FEFEFE"/>
<defs>
<radialGradient id="paint0_radial" cx="0" cy="0" r="1" gradientUnits="userSpaceOnUse" gradientTransform="translate(29.5322 29.4451) scale(50.4944)">
<stop stop-color="#A9ACF2"/>
<stop offset="0.9999" stop-color="#797DC7"/>
<stop offset="1" stop-color="#06A3C2"/>
</radialGradient>
</defs>
</svg>