<svg width="60" height="59" viewBox="0 0 60 59" fill="none" xmlns="http://www.w3.org/2000/svg">
<path d="M30.1249 58.6692C46.3161 58.6692 59.4419 45.5434 59.4419 29.3522C59.4419 13.1609 46.3161 0.0354004 30.1249 0.0354004C13.9336 0.0354004 0.808105 13.1609 0.808105 29.3522C0.808105 45.5434 13.9336 58.6692 30.1249 58.6692Z" fill="url(#paint0_radial)"/>
<path fill-rule="evenodd" clip-rule="evenodd" d="M17.9913 20.4591C17.9913 20.5344 17.9913 20.5345 17.9913 20.5345V31.8392C17.9913 32.1407 17.7652 32.2914 17.5391 32.2914C17.2376 32.2914 17.0869 32.1407 17.0869 31.8392V20.7606C17.0869 20.6099 17.0869 20.5344 17.0869 20.4591C17.0869 17.6706 18.8956 15.3343 21.458 14.5806V15.5604C19.4231 16.2387 17.9913 18.1981 17.9913 20.4591ZM29.2205 40.7322V40.6568V31.8392V29.3521V20.7606C29.2205 20.6099 29.2205 20.5344 29.2205 20.4591C29.2205 17.6706 27.4119 15.3343 24.8495 14.5806V15.5604C26.8843 16.2387 28.3162 18.1981 28.3162 20.4591C28.3162 20.5344 28.3162 20.5345 28.3162 20.5345V29.3521V31.8392V40.5061C28.3162 40.5815 28.3162 40.6569 28.3162 40.8076C28.3162 43.5961 30.2002 45.9324 32.6872 46.6107V45.7063C30.6524 44.9527 29.2205 43.0686 29.2205 40.8076V40.7322ZM34.4207 35.6075C32.3105 35.6075 30.5017 36.8887 29.6727 38.6974V38.622V37.5668V36.964C30.8032 35.6074 32.5366 34.7031 34.4207 34.7031C36.3048 34.7031 38.0383 35.6074 39.1687 36.964V37.7177V38.6974C38.3397 36.8887 36.5309 35.6075 34.4207 35.6075ZM36.1542 44.8772C37.7368 44.2743 38.8672 42.6164 38.8672 40.8076C38.8672 38.3206 36.9078 36.3612 34.4207 36.3612C31.9337 36.3612 29.9742 38.3206 29.9742 40.8076C29.9742 42.6164 31.1046 44.2743 32.6872 44.9526V40.9583C32.6872 40.8829 32.6872 40.8076 32.6872 40.8076C32.6872 39.8279 33.441 39.0742 34.4207 39.0742C35.4005 39.0742 36.1542 39.8279 36.1542 40.8076V44.8772ZM35.4757 46.6861V41.335C35.4757 40.5814 35.0236 39.9033 34.4207 39.9033C33.8178 39.9033 33.3655 40.5814 33.3655 41.335C33.3655 41.4104 33.3655 41.4105 33.3655 41.4859V46.5352C33.3655 46.6106 33.3655 46.6107 33.3655 46.6861C33.3655 47.4397 33.8178 48.118 34.4207 48.118C35.0236 48.118 35.4757 47.4397 35.4757 46.6861ZM36.1542 46.6107C38.6412 45.857 40.5252 43.5961 40.5252 40.8076C40.5252 40.6569 40.5252 40.5815 40.5252 40.5061V29.3521C40.5252 29.126 40.2992 28.8999 40.0731 28.8999C39.7716 28.8999 39.6209 29.126 39.6209 29.3521V40.6568V40.7322V40.8076C39.6209 43.0686 38.189 44.9527 36.1542 45.7063V46.6107ZM23.1914 25.5838C21.0059 25.5838 19.1971 24.378 18.4434 22.4938V22.5693V23.6245V24.2273C19.4985 25.6592 21.232 26.4884 23.1914 26.4884C25.0756 26.4884 26.8089 25.6592 27.864 24.2273V23.4736V22.4938C27.1104 24.3026 25.3017 25.5838 23.1914 25.5838ZM24.8495 16.3141C26.5075 16.9924 27.6379 18.575 27.6379 20.4591C27.6379 22.8707 25.6031 24.9056 23.1914 24.9056C20.7044 24.9056 18.6695 22.8707 18.6695 20.4591C18.6695 18.575 19.7999 16.9924 21.458 16.3141V20.3084C21.458 20.3084 21.458 20.3837 21.458 20.4591C21.458 21.3634 22.2117 22.1171 23.1914 22.1171C24.0958 22.1171 24.8495 21.3634 24.8495 20.4591V20.3836V16.3141ZM24.2464 14.5806V19.8563C24.2464 20.6099 23.719 21.2882 23.1914 21.2882C22.5885 21.2882 22.0608 20.6099 22.0608 19.8563L22.1362 19.7808V14.6561L22.0608 14.5806C22.0608 13.7516 22.5885 13.1487 23.1914 13.1487C23.719 13.1487 24.2464 13.7516 24.2464 14.5806Z" fill="#FEFEFE"/>
<defs>
<radialGradient id="paint0_radial" cx="0" cy="0" r="1" gradientUnits="userSpaceOnUse" gradientTransform="translate(30.125 29.3523) scale(50.4944)">
<stop stop-color="#F78888"/>
<stop offset="0.541176" stop-color="#E86161"/>
<stop offset="1" stop-color="#D93B3B"/>
</radialGradient>
</defs>
</svg>