<svg width="132" height="147" viewBox="0 0 132 147" fill="none" xmlns="http://www.w3.org/2000/svg">
                <path fill-rule="evenodd" clip-rule="evenodd"
                    d="M8.82685 140.678L2.57168 141.884C2.57168 141.884 1.74261 138.568 5.8123 133.744C9.80664 128.921 10.0327 128.846 10.0327 128.846C10.0327 128.846 22.9201 124.927 23.2215 120.405C23.523 115.958 23.5231 115.958 23.5231 115.958L30.5319 122.666C30.5319 122.666 23.4476 140.452 8.82685 140.678Z"
                    fill="#F7A18E" />
                <path fill-rule="evenodd" clip-rule="evenodd"
                    d="M122.779 140.678L129.034 141.884C129.034 141.884 129.787 138.568 125.793 133.744C121.799 128.921 121.573 128.846 121.573 128.846C121.573 128.846 108.685 124.927 108.384 120.405C108.082 115.958 108.082 115.958 108.082 115.958L101.073 122.666C101.073 122.666 108.158 140.452 122.779 140.678Z"
                    fill="#F2795D" />
                <path fill-rule="evenodd" clip-rule="evenodd"
                    d="M127.225 146.255H116.146C116.146 144.597 114.79 143.241 113.132 143.241H18.3983C16.7403 143.241 15.3838 144.597 15.3838 146.255H4.30512C-6.32131 131.031 37.164 137.362 20.4331 116.184C17.7199 112.642 14.1025 107.141 11.5401 102.92C10.2589 101.111 9.12847 99.2274 8.07336 97.3433V97.2679C2.94856 87.9226 0.0847168 77.2964 0.0847168 65.9163C0.0847168 29.5905 29.477 0.198412 65.8028 0.123047C102.053 0.198412 131.445 29.5905 131.445 65.9163C131.445 77.2964 128.582 87.9226 123.457 97.2679V97.3433C122.402 99.2274 121.271 101.111 119.99 102.92C117.427 107.141 113.81 112.642 111.097 116.184C94.3659 137.362 137.851 131.031 127.225 146.255Z"
                    fill="url(#paint0_linear)" />
                <path
                    d="M65.878 99.6796C84.525 99.6796 99.6415 84.5634 99.6415 65.9163C99.6415 47.2693 84.525 32.1531 65.878 32.1531C47.231 32.1531 32.1147 47.2693 32.1147 65.9163C32.1147 84.5634 47.231 99.6796 65.878 99.6796Z"
                    fill="#A32727" />
                <path
                    d="M65.878 98.6248C83.9423 98.6248 98.5862 83.9806 98.5862 65.9163C98.5862 47.852 83.9423 33.2078 65.878 33.2078C47.8137 33.2078 33.1697 47.852 33.1697 65.9163C33.1697 83.9806 47.8137 98.6248 65.878 98.6248Z"
                    fill="url(#paint1_radial)" />
                <path d="M118.709 139.774H13.9519V146.255H118.709V139.774Z" fill="#953132" />
                <path fill-rule="evenodd" clip-rule="evenodd"
                    d="M26.8264 81.6922C24.8669 76.8688 23.7364 71.5177 23.7364 65.9407C23.7364 60.1377 24.9423 54.6362 27.0525 49.5867C23.5857 49.0592 20.2697 47.7026 17.4058 45.3663C21.0233 45.8939 24.3394 47.2502 27.1279 49.3604C31.4237 39.3369 39.4878 31.2731 49.5867 26.9773C47.3258 23.9627 45.8939 20.3449 45.5924 16.3506C48.1548 19.3652 49.7373 22.9827 50.1895 26.751C55.0882 24.7915 60.3638 23.7367 65.9407 23.7367C71.5931 23.7367 77.0194 24.867 81.9935 26.9019C82.4457 23.4351 83.8023 20.1188 86.0632 17.2549C85.611 20.8725 84.2543 24.1888 82.1441 26.9773C92.3937 31.2731 100.609 39.4875 104.904 49.7371C107.693 47.6269 111.009 46.2707 114.627 45.8185C111.763 48.0794 108.447 49.4358 104.98 49.888C107.015 54.8621 108.145 60.2884 108.145 65.9407C108.145 71.6685 107.015 77.0948 104.904 82.0689C108.371 82.5211 111.687 83.9529 114.551 86.2139C110.934 85.7617 107.617 84.3296 104.829 82.2948C100.533 92.469 92.3185 100.684 82.0689 104.904C84.1038 107.693 85.4602 111.009 85.9124 114.702C83.6514 111.762 82.295 108.446 81.8428 104.98C76.9441 107.014 71.5931 108.07 65.9407 108.07C60.1377 108.07 54.7114 106.939 49.6619 104.904C49.2097 108.296 47.7779 111.612 45.517 114.476C45.9691 110.858 47.4011 107.542 49.5113 104.754C39.2617 100.458 31.1223 92.243 26.9019 81.918C24.1134 84.0282 20.722 85.3849 17.1045 85.7617C20.0438 83.5761 23.3596 82.2197 26.8264 81.6922ZM17.4058 45.3663C16.6522 45.2909 15.8233 45.2154 14.9943 45.2154C12.4319 51.6214 11 58.6304 11 65.9407C11 72.9497 12.3566 79.7327 14.7682 85.9126C15.5219 85.9126 16.3509 85.8371 17.1045 85.7617C16.5016 86.2893 15.8985 86.817 15.2956 87.3445C20.7972 100.307 31.1224 110.632 43.9344 116.284C44.5373 115.681 45.0648 115.079 45.517 114.476C45.4416 115.305 45.3663 116.058 45.3663 116.887C51.6969 119.45 58.6304 120.881 65.9407 120.881C73.025 120.881 79.808 119.525 86.0632 117.038C86.0632 116.209 85.9877 115.455 85.9124 114.702C86.3645 115.304 86.8923 115.908 87.4952 116.435C100.383 110.934 110.783 100.609 116.36 87.7967C115.757 87.1938 115.154 86.6661 114.551 86.2139C115.305 86.2892 116.134 86.3648 116.963 86.3648C119.45 80.0341 120.882 73.1758 120.882 65.9407C120.882 58.7811 119.525 51.9229 117.038 45.6676C116.209 45.6676 115.38 45.7431 114.627 45.8185C115.229 45.2909 115.832 44.7632 116.435 44.2357C110.858 31.3483 100.533 21.0233 87.6458 15.4463C87.1183 16.0492 86.5908 16.652 86.0632 17.2549C86.1386 16.4259 86.2139 15.6722 86.2139 14.8432C79.9586 12.3562 73.1004 11 65.9407 11C58.7057 11 51.8476 12.3563 45.517 14.9187C45.517 15.3708 45.5924 15.8231 45.5924 16.3506C45.2909 15.9738 44.9894 15.5968 44.6126 15.2954C31.7252 20.7216 21.2495 30.9715 15.5971 43.7835C16.2001 44.3864 16.8029 44.9141 17.4058 45.3663Z"
                    fill="url(#paint2_linear)" />
                <defs>
                    <linearGradient id="paint0_linear" x1="0.0847168" y1="73.1513" x2="131.445" y2="73.1513"
                        gradientUnits="userSpaceOnUse">
                        <stop stop-color="#CC1B0A" />
                        <stop offset="1" stop-color="#F37A5E" />
                    </linearGradient>
                    <radialGradient id="paint1_radial" cx="0" cy="0" r="1" gradientUnits="userSpaceOnUse"
                        gradientTransform="translate(65.1709 69.2259) rotate(-0.00911957) scale(369.48 369.483)">
                        <stop stop-color="#F37A5E" />
                        <stop offset="1" stop-color="#CC1B0A" />
                    </radialGradient>
                    <linearGradient id="paint2_linear" x1="69.0308" y1="11" x2="69.0308" y2="126.609"
                        gradientUnits="userSpaceOnUse">
                        <stop stop-color="#FBDE82" />
                        <stop offset="0.219608" stop-color="#FCA49A" />
                        <stop offset="0.470588" stop-color="#FBB0F1" />
                        <stop offset="0.701961" stop-color="#6EDBFC" />
                        <stop offset="1" stop-color="#BFFFB0" />
                    </linearGradient>
                </defs>
            </svg>