<svg width="133" height="147" viewBox="0 0 133 147" fill="none" xmlns="http://www.w3.org/2000/svg">
                <path fill-rule="evenodd" clip-rule="evenodd"
                    d="M9.62395 140.678L3.36855 141.884C3.36855 141.884 2.53948 138.568 6.60918 133.744C10.6035 128.921 10.8296 128.846 10.8296 128.846C10.8296 128.846 23.717 124.927 24.0184 120.405C24.3199 115.958 24.3199 115.958 24.3199 115.958L31.3288 122.666C31.3288 122.666 24.2447 140.452 9.62395 140.678Z"
                    fill="#51A0D4" />
                <path fill-rule="evenodd" clip-rule="evenodd"
                    d="M123.575 140.678L129.755 141.884C129.755 141.884 130.584 138.568 126.59 133.744C122.596 128.921 122.37 128.846 122.37 128.846C122.37 128.846 109.482 124.927 109.181 120.405C108.879 115.958 108.879 115.958 108.879 115.958L101.87 122.666C101.87 122.666 108.955 140.452 123.575 140.678Z"
                    fill="#51A0D4" />
                <path fill-rule="evenodd" clip-rule="evenodd"
                    d="M128.022 146.255H116.943C116.943 144.597 115.587 143.241 113.929 143.241H19.1952C17.5371 143.241 16.1052 144.597 16.1052 146.255H5.102C-5.52443 131.031 37.9609 137.362 21.2299 116.184C18.5168 112.642 14.8993 107.141 12.2615 102.92C11.0557 101.111 9.92534 99.2274 8.87024 97.3433V97.2679C3.74543 87.9226 0.881592 77.2964 0.881592 65.9163C0.881592 29.5905 30.2738 0.198412 66.5242 0.123047C102.85 0.198412 132.242 29.5905 132.242 65.9163C132.242 77.2964 129.303 87.9226 124.254 97.2679V97.3433C123.199 99.2274 122.068 101.111 120.787 102.92C118.225 107.141 114.607 112.642 111.819 116.184C95.1629 137.362 138.573 131.031 128.022 146.255Z"
                    fill="url(#paint0_linear)" />
                <path
                    d="M66.6749 120.857C97.0179 120.857 121.616 96.2594 121.616 65.9163C121.616 35.5733 97.0179 10.9756 66.6749 10.9756C36.3318 10.9756 11.7341 35.5733 11.7341 65.9163C11.7341 96.2594 36.3318 120.857 66.6749 120.857Z"
                    fill="#FEFEFE" />
                <path fill-rule="evenodd" clip-rule="evenodd"
                    d="M27.5605 81.6678C25.6011 76.8444 24.4706 71.4933 24.4706 65.9163C24.4706 60.1132 25.6764 54.6117 27.7866 49.5623C24.3199 49.0348 21.0038 47.6782 18.14 45.3419C21.7575 45.8694 25.0736 47.2258 27.8621 49.336C32.1579 39.3125 40.222 31.2487 50.3209 26.9529C48.0599 23.9383 46.628 20.3205 46.3265 16.3262C48.8889 19.3408 50.4715 22.9583 50.9237 26.7266C55.8224 24.7671 61.0979 23.7122 66.6749 23.7122C72.3272 23.7122 77.7535 24.8426 82.7276 26.8774C83.1798 23.4107 84.5364 20.0944 86.7974 17.2305C86.3452 20.848 84.9885 24.1644 82.8783 26.9529C93.1279 31.2487 101.343 39.4631 105.639 49.7127C108.427 47.6025 111.743 46.2463 115.361 45.7941C112.497 48.055 109.181 49.4114 105.714 49.8636C107.749 54.8377 108.879 60.264 108.879 65.9163C108.879 71.6441 107.749 77.0704 105.639 82.0445C109.105 82.4967 112.421 83.9285 115.285 86.1895C111.668 85.7373 108.352 84.3052 105.563 82.2703C101.267 92.4446 93.0527 100.659 82.803 104.88C84.8379 107.668 86.1943 110.984 86.6465 114.677C84.3855 111.738 83.0291 108.422 82.577 104.955C77.6782 106.99 72.3272 108.045 66.6749 108.045C60.8718 108.045 55.4455 106.915 50.3961 104.88C49.9439 108.271 48.512 111.587 46.2511 114.451C46.7033 110.834 48.1352 107.518 50.2454 104.729C39.9958 100.434 31.8564 92.2186 27.636 81.8936C24.8475 84.0038 21.4562 85.3605 17.8387 85.7373C20.7779 83.5517 24.0938 82.1953 27.5605 81.6678ZM18.14 45.3419C17.3863 45.2665 16.5575 45.191 15.7285 45.191C13.1661 51.597 11.7341 58.6059 11.7341 65.9163C11.7341 72.9253 13.0907 79.7083 15.5024 85.8882C16.256 85.8882 17.085 85.8127 17.8387 85.7373C17.2357 86.2648 16.6327 86.7926 16.0297 87.3201C21.5314 100.283 31.8565 110.608 44.6685 116.26C45.2714 115.657 45.7989 115.054 46.2511 114.451C46.1757 115.28 46.1004 116.034 46.1004 116.863C52.4311 119.425 59.3645 120.857 66.6749 120.857C73.7592 120.857 80.5421 119.5 86.7974 117.013C86.7974 116.184 86.7219 115.431 86.6465 114.677C87.0987 115.28 87.6264 115.883 88.2293 116.411C101.117 110.909 111.517 100.584 117.094 87.7723C116.491 87.1694 115.888 86.6417 115.285 86.1895C116.039 86.2648 116.868 86.3403 117.697 86.3403C120.184 80.0097 121.616 73.1513 121.616 65.9163C121.616 58.7567 120.259 51.8985 117.772 45.6432C116.943 45.6432 116.114 45.7187 115.361 45.7941C115.964 45.2665 116.566 44.7388 117.169 44.2112C111.592 31.3239 101.267 20.9988 88.38 15.4218C87.8524 16.0248 87.3249 16.6276 86.7974 17.2305C86.8727 16.4015 86.948 15.6478 86.948 14.8188C80.6927 12.3318 73.8345 10.9756 66.6749 10.9756C59.4399 10.9756 52.5817 12.3318 46.2511 14.8942C46.2511 15.3464 46.3265 15.7986 46.3265 16.3262C46.0251 15.9494 45.7236 15.5724 45.3467 15.271C32.4594 20.6972 21.9836 30.9471 16.3313 43.7591C16.9342 44.362 17.537 44.8897 18.14 45.3419Z"
                    fill="url(#paint1_linear)" />
                <path
                    d="M66.6748 98.6248C84.7391 98.6248 99.3831 83.9806 99.3831 65.9163C99.3831 47.852 84.7391 33.2078 66.6748 33.2078C48.6105 33.2078 33.9666 47.852 33.9666 65.9163C33.9666 83.9806 48.6105 98.6248 66.6748 98.6248Z"
                    fill="url(#paint2_radial)" />
                <defs>
                    <linearGradient id="paint0_linear" x1="0.881592" y1="73.1513" x2="132.242" y2="73.1513"
                        gradientUnits="userSpaceOnUse">
                        <stop stop-color="#025B85" />
                        <stop offset="1" stop-color="#2E8CCB" />
                    </linearGradient>
                    <linearGradient id="paint1_linear" x1="69.7649" y1="10.9756" x2="69.7649" y2="126.585"
                        gradientUnits="userSpaceOnUse">
                        <stop stop-color="#FBDE82" />
                        <stop offset="0.219608" stop-color="#FCA49A" />
                        <stop offset="0.470588" stop-color="#FBB0F1" />
                        <stop offset="0.701961" stop-color="#6EDBFC" />
                        <stop offset="1" stop-color="#BFFFB0" />
                    </linearGradient>
                    <radialGradient id="paint2_radial" cx="0" cy="0" r="1" gradientUnits="userSpaceOnUse"
                        gradientTransform="translate(64.179 67.9052) rotate(-0.00859431) scale(392.062 392.065)">
                        <stop stop-color="#2E8CCB" />
                        <stop offset="1" stop-color="#025B85" />
                    </radialGradient>
                </defs>
            </svg>