<svg width="25" height="26" viewBox="0 0 25 26" fill="none" xmlns="http://www.w3.org/2000/svg">
<path d="M12.2845 25.3655C19.069 25.3655 24.5688 19.8655 24.5688 13.081C24.5688 6.29648 19.069 0.796509 12.2845 0.796509C5.49997 0.796509 0 6.29648 0 13.081C0 19.8655 5.49997 25.3655 12.2845 25.3655Z" fill="#025B85"/>
<path fill-rule="evenodd" clip-rule="evenodd" d="M11.1247 6.29825C11.2755 6.29825 11.3509 6.29825 11.4263 6.29825V7.35324C11.3509 7.35324 11.2755 7.35324 11.1247 7.35324C8.86381 7.35324 7.05499 9.23749 7.05499 11.4984C7.05499 13.684 8.86381 15.5682 11.1247 15.5682C12.4813 15.5682 13.6117 14.9651 14.3654 13.9854L15.1945 14.7391C14.8177 15.1913 14.3656 15.568 13.838 15.8695V17.6784C13.838 17.9045 13.6871 18.0551 13.461 18.0551C13.2349 18.0551 13.0843 17.9045 13.0843 17.6784V16.3217C12.7075 16.397 12.4059 16.5477 12.0291 16.5477V19.7132C12.0291 19.9393 11.8785 20.0899 11.6524 20.0899C11.4263 20.0899 11.2002 19.9393 11.2002 19.7132V16.6232C11.2002 16.6232 11.2001 16.6232 11.1247 16.6232C10.7479 16.6232 10.3712 16.6231 10.0698 16.5477V18.658C10.0698 18.884 9.84346 19.1104 9.61736 19.1104C9.39127 19.1104 9.24063 18.884 9.24063 18.658V16.3217C9.0899 16.2463 8.93926 16.1709 8.8639 16.0956V18.2812C8.8639 18.4319 8.71318 18.5073 8.63781 18.5073C8.56245 18.5073 8.41173 18.4319 8.41173 18.2812V15.8695C6.9798 14.9651 6 13.3072 6 11.4984C6 8.63458 8.26089 6.29825 11.1247 6.29825ZM15.496 14.9652C15.496 14.9652 15.5712 14.9652 15.5712 15.0406L15.7973 14.7391L16.0988 15.116L15.8728 15.3421C15.9481 15.4175 15.9482 15.4928 15.9482 15.5682H16.3249V16.0204H15.9482C15.9482 16.0957 15.9481 16.1711 15.8728 16.2465L16.0988 16.4725L15.7973 16.7738L15.5712 16.5477C15.4959 16.6231 15.4205 16.6233 15.3452 16.6986V17.0001H14.893V16.6986C14.8176 16.6233 14.6668 16.6231 14.5915 16.5477L14.3654 16.7738L14.0641 16.4725L14.2902 16.2465C14.2902 16.2465 14.2901 16.1709 14.2147 16.0956C14.3655 16.0956 14.5161 15.9449 14.5915 15.8695C14.6668 16.0956 14.8176 16.2465 15.1191 16.2465C15.3452 16.2465 15.5712 16.0957 15.5712 15.7943C15.5712 15.5682 15.4204 15.3421 15.2697 15.3421C15.3451 15.1914 15.4207 15.0405 15.496 14.9652ZM15.4206 17.3014H16.0234V17.7536C16.0988 17.7536 16.2496 17.8291 16.3249 17.9045L16.6265 17.603L17.0786 17.9797L16.7771 18.2812C16.7771 18.4319 16.8524 18.5072 16.9278 18.658H17.3047V19.261H16.9278C16.8524 19.3364 16.7771 19.4872 16.7771 19.5625L17.0786 19.8638L16.6265 20.316L16.3249 20.0147C16.2496 20.0901 16.0988 20.09 16.0234 20.1653V20.6175H15.4206V20.1653C15.2699 20.09 15.1944 20.0901 15.0436 20.0147L14.7423 20.316L14.2902 19.8638L14.6669 19.5625C14.5915 19.4872 14.5163 19.3364 14.5163 19.261H14.0641V18.658H14.5163C14.5163 18.5072 14.5915 18.4319 14.6669 18.2812L14.2902 17.9797L14.7423 17.603L15.0436 17.9045C15.1944 17.8291 15.2699 17.7536 15.4206 17.7536V17.3014ZM15.7221 18.2812C16.0989 18.2812 16.4004 18.5827 16.4004 18.9595C16.4004 19.3363 16.0989 19.6377 15.7221 19.6377C15.3453 19.6377 15.0436 19.3363 15.0436 18.9595C15.0436 18.5827 15.3453 18.2812 15.7221 18.2812ZM17.6062 11.8752C17.6062 13.081 17.1539 14.1362 16.4756 15.0406L15.6467 14.3623C16.0989 13.6841 16.4756 12.9304 16.4756 12.026L17.6062 11.8752ZM15.2697 14.0608L13.5365 12.5534L16.0988 12.1013C16.0235 12.4781 15.9481 12.7796 15.8728 13.081L15.4206 12.9304C15.3452 12.855 15.2697 12.9304 15.2697 12.9304C15.2697 13.0058 15.2698 13.081 15.3452 13.081L15.7973 13.2319C15.6466 13.5334 15.4958 13.8347 15.2697 14.0608ZM11.8784 5.62C13.7626 5.77072 15.3452 6.97651 16.0988 8.63454L15.0436 9.01127C14.4407 7.80544 13.2349 6.90108 11.803 6.67498L11.8784 5.62ZM11.803 7.12715V8.10693L12.1045 9.38823L12.7073 10.2171L13.9132 9.38823L14.6669 9.16215C14.5162 8.86069 14.3654 8.63455 14.1393 8.40845L13.7626 8.70998C13.7626 8.78534 13.6871 8.78534 13.6871 8.70998C13.6118 8.70998 13.6118 8.63447 13.6871 8.5591L13.9886 8.25781C13.7626 7.95635 13.3857 7.73021 13.0089 7.50411L12.8582 7.95628C12.7829 8.03165 12.7073 8.03172 12.7073 8.03172C12.632 7.95636 12.6321 7.88085 12.6321 7.88085L12.8582 7.42868C12.5568 7.27795 12.1798 7.20252 11.803 7.12715ZM15.7973 9.08671C16.1741 9.84036 16.3249 10.5941 16.3249 11.4984C16.3249 11.4984 16.3249 11.4985 16.3249 11.5739L15.1945 11.7245C15.2699 11.6492 15.2697 11.5738 15.2697 11.4984C15.2697 10.7448 15.0438 10.0664 14.7423 9.53888L15.7973 9.08671ZM11.1247 10.8202C11.5016 10.8202 11.803 11.1216 11.803 11.4984C11.803 11.7999 11.5016 12.1013 11.1247 12.1013C10.8233 12.1013 10.5219 11.7999 10.5219 11.4984C10.5219 11.1216 10.8233 10.8202 11.1247 10.8202ZM11.2754 7.80564C11.2754 7.80564 11.3509 7.80564 11.4263 7.80564V8.78519L11.803 10.0665L12.406 10.8202L13.6119 9.91584L14.3654 9.68976C14.3654 9.76512 14.4409 9.84032 14.5163 9.99105L14.0641 10.1419C13.9887 10.2173 13.9886 10.2172 13.9886 10.2926C13.9886 10.3679 14.0639 10.368 14.1393 10.368L14.5915 10.1419C14.7422 10.5188 14.8175 10.971 14.8175 11.3478H14.2902C14.2902 11.3478 14.2147 11.4231 14.2147 11.4984L14.2902 11.5739H14.8175C14.8175 11.6492 14.8175 11.7246 14.8175 11.8L12.2552 12.2521L13.9886 13.7593C13.9886 13.8347 13.9134 13.91 13.838 13.9854L13.461 13.6086C13.461 13.6086 13.3858 13.6086 13.3104 13.6086C13.3104 13.684 13.3104 13.7593 13.3104 13.7593L13.6871 14.1362C13.3857 14.4377 13.009 14.6638 12.6321 14.8145L12.4813 14.3623C12.4059 14.287 12.406 14.2869 12.3306 14.2869C12.2552 14.2869 12.2552 14.3622 12.2552 14.4375L12.4813 14.8897C12.1044 15.0404 11.6522 15.116 11.2754 15.116V14.6636C11.2754 14.5883 11.2001 14.513 11.1247 14.513C11.1247 14.513 11.0493 14.5883 11.0493 14.6636V15.116C10.5971 15.116 10.2205 15.0404 9.84368 14.8897L10.0698 14.4375C10.0698 14.3622 9.99432 14.2869 9.99432 14.2869C9.91896 14.2869 9.84368 14.287 9.84368 14.3623L9.6928 14.8145C9.31598 14.6638 8.93927 14.4377 8.63781 14.1362L9.01454 13.7593C9.01454 13.7593 9.01454 13.684 9.01454 13.6086C8.93918 13.6086 8.8639 13.6086 8.8639 13.6086L8.48694 13.9854C8.18548 13.6839 7.95941 13.3072 7.80868 12.9304L8.26085 12.7795C8.33622 12.7795 8.33629 12.7042 8.33629 12.6289C8.26092 12.5535 8.26101 12.5534 8.18564 12.5534L7.73324 12.7795C7.58251 12.4027 7.50716 12.0261 7.50716 11.5739H7.95956C8.03492 11.5739 8.1102 11.4984 8.1102 11.4984C8.1102 11.4231 8.03492 11.3478 7.95956 11.3478H7.50716C7.50716 10.971 7.58251 10.5188 7.73324 10.1419L8.18564 10.368C8.26101 10.368 8.26092 10.3679 8.33629 10.2926C8.33629 10.2172 8.33622 10.2173 8.26085 10.1419L7.80868 9.99105C7.95941 9.61423 8.18548 9.23752 8.48694 8.93606L8.8639 9.31279C8.8639 9.31279 8.93918 9.31279 9.01454 9.31279C9.01454 9.23743 9.01454 9.16215 9.01454 9.16215L8.63781 8.78519C8.93927 8.55909 9.31598 8.25766 9.6928 8.10693L9.84368 8.5591C9.84368 8.63447 9.91896 8.63454 9.99432 8.63454C9.99432 8.63454 10.0698 8.55926 10.0698 8.48389L9.84368 8.03172C10.2205 7.88099 10.5971 7.80564 11.0493 7.80564V8.33302L11.1247 8.40845C11.2001 8.40845 11.2754 8.33302 11.2754 8.33302V7.80564ZM9.46671 9.16215C9.39135 9.08678 9.39135 9.01143 9.46671 8.93606C9.54208 8.93606 9.61743 8.93591 9.6928 9.01127C9.6928 9.01127 10.2204 9.84038 10.6726 10.5187C10.8233 10.4433 10.974 10.368 11.1247 10.368C11.7277 10.368 12.18 10.8955 12.18 11.4984C12.18 12.026 11.7277 12.5534 11.1247 12.5534C10.8233 12.5534 10.5218 12.4028 10.3711 12.1767C9.91887 12.4028 9.31607 12.7043 9.31607 12.7043C9.2407 12.7043 9.16535 12.7042 9.08998 12.6289C9.08998 12.5535 9.08983 12.4781 9.16519 12.4028C9.16519 12.4028 9.76822 12.1013 10.2204 11.8752C10.145 11.7998 10.0698 11.6492 10.0698 11.4984C10.0698 11.1216 10.2204 10.82 10.4465 10.6693C9.9943 9.99102 9.46671 9.16215 9.46671 9.16215Z" fill="#FEFEFE"/>
</svg>