<svg width="25" height="26" viewBox="0 0 25 26" fill="none" xmlns="http://www.w3.org/2000/svg">
<path d="M12.2845 25.3655C19.069 25.3655 24.569 19.8655 24.569 13.081C24.569 6.29648 19.069 0.796509 12.2845 0.796509C5.49997 0.796509 0 6.29648 0 13.081C0 19.8655 5.49997 25.3655 12.2845 25.3655Z" fill="#E15151"/>
<path fill-rule="evenodd" clip-rule="evenodd" d="M7.61183 9.68981V14.0609C7.61183 14.1362 7.53654 14.2115 7.46118 14.2115C7.38581 14.2115 7.3103 14.1362 7.3103 14.0609V9.76502V9.68981C7.3103 8.63471 7.98859 7.73019 8.96834 7.42873V7.80569C8.21469 8.03179 7.61183 8.78544 7.61183 9.68981ZM11.9831 17.4524V14.0609V13.0811V9.76502V9.68981C11.9831 8.63471 11.2294 7.73019 10.2496 7.42873V7.80569C11.0787 8.03179 11.6061 8.78544 11.6061 9.68981V13.0811V14.0609V17.3769C11.6061 17.4523 11.6061 17.4522 11.6061 17.5276C11.6061 18.5827 12.2844 19.4871 13.2642 19.7132V19.4117C12.5105 19.1102 11.9831 18.3566 11.9831 17.5276V17.4524ZM13.9424 15.4928C13.1134 15.4928 12.4352 16.0204 12.1338 16.6987V16.2465V16.0204C12.5859 15.4929 13.1888 15.1913 13.9424 15.1913C14.6961 15.1913 15.2992 15.4929 15.7513 16.0204V16.3217V16.6987C15.4499 16.0204 14.7715 15.4928 13.9424 15.4928ZM14.6207 19.1104C15.2236 18.8089 15.6759 18.2059 15.6759 17.5276C15.6759 16.5478 14.9222 15.7943 13.9424 15.7943C12.9627 15.7943 12.2092 16.5478 12.2092 17.5276C12.2092 18.2059 12.6613 18.8089 13.2642 19.1104V17.5276C13.2642 17.1508 13.5656 16.8493 13.9424 16.8493C14.3193 16.8493 14.6207 17.1508 14.6207 17.5276V19.1104ZM14.3194 19.7132V17.6785C14.3194 17.377 14.1685 17.1509 13.9424 17.1509C13.7163 17.1509 13.5657 17.377 13.5657 17.6785C13.5657 17.7538 13.5657 17.7537 13.5657 17.7537V19.7132C13.5657 19.7132 13.5657 19.7133 13.5657 19.7887C13.5657 20.0901 13.7163 20.316 13.9424 20.316C14.1685 20.316 14.3194 20.0901 14.3194 19.7887V19.7132ZM14.6207 19.7132C15.6004 19.4871 16.2787 18.5827 16.2787 17.5276C16.2787 17.4522 16.2787 17.4523 16.2787 17.3769V13.0811C16.2787 13.0057 16.2034 12.9304 16.1281 12.9304C15.9774 12.9304 15.902 13.0057 15.902 13.0811V17.4524V17.5276C15.902 18.3566 15.3743 19.1102 14.6207 19.4117V19.7132ZM9.64682 11.6491C8.81781 11.6491 8.13953 11.197 7.7627 10.5187V10.8954V11.1215C8.21489 11.6491 8.89317 12.0261 9.64682 12.0261C10.3251 12.0261 11.0033 11.6491 11.4555 11.1215V10.8202V10.4433C11.154 11.1969 10.4005 11.6491 9.64682 11.6491ZM10.2496 8.10699C10.9279 8.33308 11.3046 8.93616 11.3046 9.68981C11.3046 10.5942 10.5512 11.4231 9.64682 11.4231C8.66708 11.4231 7.91335 10.5942 7.91335 9.68981C7.91335 8.93616 8.36542 8.33308 8.96834 8.10699V9.61437V9.68981C8.96834 10.0666 9.27 10.3681 9.64682 10.3681C9.94828 10.3681 10.2496 10.0666 10.2496 9.68981V8.10699ZM10.0236 7.42873V9.46373C10.0236 9.76519 9.87292 9.99111 9.64682 9.99111C9.42073 9.99111 9.19442 9.76519 9.19442 9.46373C9.19442 9.46373 9.19442 9.46365 9.19442 9.38829V7.42873C9.19442 7.12727 9.42073 6.90112 9.64682 6.90112C9.87292 6.90112 10.0236 7.12727 10.0236 7.42873Z" fill="#FEFEFE"/>
</svg>