<svg width="44" height="44" viewBox="0 0 44 44" fill="none" xmlns="http://www.w3.org/2000/svg">
<path fill-rule="evenodd" clip-rule="evenodd" d="M20.9709 11.5089C27.3769 10.906 32.1249 15.5032 32.8032 21.0048C33.6322 27.4862 28.8087 32.4603 23.2318 33.1386C16.9011 33.8922 11.7763 29.0688 11.1733 23.4918C10.5704 17.1612 15.2432 11.9611 20.9709 11.5089ZM31.8234 12.4133L33.0293 13.1669C33.4815 12.7901 33.4059 12.7901 33.7828 12.3379C34.3103 11.735 34.3859 11.9611 34.4613 11.2074C34.2352 10.9059 31.9742 8.87111 31.1452 8.56965C30.693 8.94648 30.0899 9.70011 29.7885 10.3784C30.0899 10.9813 30.2408 10.9059 30.6176 11.3581L30.2406 12.0364L29.9393 11.961C27.8291 10.303 25.7187 9.54937 22.4781 9.24791H21.4985C17.7303 9.7001 16.2982 10.4537 13.8112 11.961L13.4344 11.4335C13.962 10.9059 13.9619 11.0567 14.3388 10.3784C14.0373 9.62474 13.3589 8.94648 12.8314 8.56965C12.0024 8.87111 9.74141 10.9059 9.51531 11.4335C9.81677 11.961 10.5704 12.8654 11.1733 13.1669L12.2286 12.4886C12.3039 12.4886 12.6807 12.9408 12.6807 12.9408C11.3995 14.3728 10.5705 15.5032 9.81684 17.7642C9.06319 19.8744 8.76176 21.9846 9.13858 24.3209C10.043 30.8022 16.0722 35.5502 22.4029 35.3995C29.9393 35.1734 35.7423 28.5413 34.9886 21.0802C34.6118 16.6337 32.8031 14.8249 31.2958 12.9408C31.748 12.564 31.522 12.8655 31.8234 12.4133ZM22.7041 23.1151L21.2724 23.1904C20.368 20.7788 23.6839 20.7787 22.7041 23.1151ZM22.0259 15.5786C21.6491 16.1815 20.9709 19.1961 20.7448 20.1005C20.2926 21.8338 19.8403 24.0194 22.0259 24.0194C24.2115 24.0194 23.7594 21.7585 23.3072 20.1005C23.1565 19.2714 22.3273 16.1061 22.0259 15.5786ZM21.8752 6.15798C24.513 6.08262 24.287 7.816 21.9507 7.74064C19.9912 7.74064 19.3882 6.15798 21.8752 6.15798ZM21.4985 9.24791H22.4781L22.4029 8.56965C23.5333 8.34356 24.4377 8.19279 24.5131 7.06232C24.5131 5.70576 23.0811 5.32897 21.8752 5.32897C20.8955 5.2536 19.4635 5.70578 19.4635 6.91162C19.4635 7.66527 20.1419 8.49427 21.4985 8.49427V9.24791ZM22.7041 23.1151C23.6839 20.7787 20.368 20.7788 21.2724 23.1904L22.7041 23.1151ZM27.3015 16.4076L27.9043 17.0105C28.5072 16.709 28.9595 16.3322 29.1102 15.88C28.8841 15.5786 28.8088 15.4278 28.658 15.2017C27.829 15.4278 27.603 15.6539 27.3015 16.4076ZM15.017 16.1061C15.3938 16.6337 15.5445 16.8598 16.1474 17.0858L16.7505 16.5583C16.5244 15.88 16.2228 15.654 15.6953 15.3525C15.5445 15.5032 15.3938 15.5786 15.3938 15.5786C15.0169 15.9554 15.1678 15.7293 15.017 16.1061ZM15.017 28.7674L15.6201 29.4457C16.2984 29.2196 16.5996 28.9181 16.8257 28.3906L16.0722 27.7123L15.017 28.7674ZM21.4231 14.3727H22.4781L22.5535 12.8654L21.4231 12.7901V14.3727ZM30.1654 22.7382L31.5974 22.8136L31.6726 21.6077L30.09 21.6831L30.1654 22.7382ZM21.6492 31.8573H22.7796V30.3501H21.7246L21.6492 31.8573ZM12.6053 22.9643H14.1127L14.1881 21.9092L12.6053 21.8339V22.9643ZM27.4522 28.3152L28.5826 29.3703L29.3363 28.692L28.3565 27.5615L27.4522 28.3152ZM22.0259 0.279541C33.9335 0.279541 43.5803 9.92623 43.5803 21.8339C43.5803 33.7415 33.9335 43.3881 22.0259 43.3881C10.1183 43.3881 0.47168 33.7415 0.47168 21.8339C0.47168 9.92623 10.1183 0.279541 22.0259 0.279541ZM22.0259 2.84192C32.5016 2.84192 41.018 11.3582 41.018 21.8339C41.018 32.3096 32.5016 40.8258 22.0259 40.8258C11.4748 40.8258 3.03405 32.3096 3.03405 21.8339C3.03405 11.3582 11.4748 2.84192 22.0259 2.84192Z" fill="#1193AD"/>
</svg>
