<svg viewBox="0 0 448 253" fill="none" xmlns="http://www.w3.org/2000/svg">
<path fill-rule="evenodd" clip-rule="evenodd" d="M0.312256 71.3904H7.27556V88.5997C7.27556 90.2245 7.87241 91.7167 8.96665 92.9104C9.5635 93.5735 10.4919 94.2367 11.1883 94.8336L30.8513 112.076V140.924L11.1883 158.166C10.4919 158.763 9.5635 159.426 8.96665 160.09C7.87241 161.283 7.27556 162.776 7.27556 164.4V239.637C7.27556 243.152 10.1604 246.037 13.6752 246.037H83.1092C86.624 246.037 89.5088 243.152 89.5088 239.637V164.4C89.5088 162.776 88.912 161.283 87.8178 160.09C87.2209 159.426 86.2925 158.763 85.6293 158.166L65.9662 140.924V112.076L85.6293 94.8336C86.2925 94.2367 87.2209 93.5735 87.8178 92.9104H125.287C125.884 93.5735 126.812 94.2367 127.509 94.8336L147.172 112.076V140.924L127.509 158.166C126.812 158.763 125.884 159.426 125.287 160.09C124.226 161.283 123.629 162.776 123.629 164.4V239.637C123.629 243.152 126.514 246.037 129.995 246.037H199.463C202.944 246.037 205.829 243.152 205.829 239.637V164.4C205.829 162.776 205.232 161.283 204.171 160.09C203.574 159.426 202.646 158.763 201.95 158.166L182.287 140.924V112.076L201.95 94.8336C202.646 94.2367 203.574 93.5735 204.171 92.9104H241.64C242.237 93.5735 243.166 94.2367 243.829 94.8336L263.492 112.076V140.924L243.829 158.166C243.166 158.763 242.237 159.426 241.64 160.09C240.546 161.283 239.949 162.776 239.949 164.4V239.637C239.949 243.152 242.834 246.037 246.349 246.037H315.783C319.298 246.037 322.183 243.152 322.183 239.637V164.4C322.183 162.776 321.586 161.283 320.492 160.09C319.895 159.426 318.966 158.763 318.27 158.166L298.607 140.924V112.076L318.27 94.8336C318.966 94.2367 319.895 93.5735 320.492 92.9104H357.961C358.558 93.5735 359.486 94.2367 360.182 94.8336L379.845 112.076V140.924L360.182 158.166C359.486 158.763 358.558 159.426 357.961 160.09C356.9 161.283 356.303 162.776 356.303 164.4V239.637C356.303 243.152 359.188 246.037 362.669 246.037H434.325C437.807 246.037 440.691 243.152 440.691 239.637V164.4C440.691 162.776 440.095 161.283 439.033 160.09C438.437 159.46 437.541 158.73 436.812 158.166L414.96 140.924V112.076L434.623 94.8336C435.287 94.2367 436.215 93.5735 436.845 92.9104L438.503 88.1024V71.3904H447.688V253H0.312256V71.3904Z" fill="#FEFEFE"/>
<path fill-rule="evenodd" clip-rule="evenodd" d="M438.503 100.703L421.924 115.259V126.5V137.741L441.421 152.927C442.349 153.756 443.344 154.486 444.173 155.414C446.362 157.769 447.688 160.952 447.688 164.4V239.637C447.688 246.998 441.653 253 434.325 253H397.386H362.669C355.308 253 349.306 246.998 349.306 239.637V164.4C349.306 160.952 350.633 157.769 352.821 155.414C353.65 154.486 354.645 153.756 355.573 152.927L372.849 137.741V126.5V115.259L355.573 100.073L355.341 99.8737H323.111L322.879 100.073L305.603 115.259V126.5V137.741L322.879 152.927C323.807 153.756 324.802 154.486 325.664 155.414C327.82 157.769 329.146 160.952 329.146 164.4V239.637C329.146 246.998 323.144 253 315.783 253H281.066H246.349C238.988 253 232.986 246.998 232.986 239.637V164.4C232.986 160.952 234.312 157.769 236.468 155.414C237.297 154.486 238.291 153.756 239.253 152.927L256.529 137.741V126.5V115.259L239.253 100.073L239.021 99.8737H206.758L206.559 100.073L189.25 115.259V126.5V137.741L206.559 152.927C207.487 153.756 208.482 154.486 209.311 155.414C211.499 157.769 212.826 160.952 212.826 164.4V239.637C212.826 246.998 206.791 253 199.463 253H164.713H129.995C122.667 253 116.633 246.998 116.633 239.637V164.4C116.633 160.952 117.959 157.769 120.147 155.414C120.976 154.486 121.971 153.756 122.9 152.927L140.208 137.741V126.5V115.259L122.9 100.073L122.701 99.8737H90.4373L90.2052 100.073L72.9296 115.259V126.5V137.741L90.2052 152.927C91.1336 153.756 92.1615 154.486 92.9905 155.414C95.1458 157.769 96.4721 160.952 96.4721 164.4V239.637C96.4721 246.998 90.4704 253 83.1092 253H48.3922H13.6752C6.31396 253 0.312256 246.998 0.312256 239.637V164.4C0.312256 160.952 1.6386 157.769 3.79391 155.414C4.62287 154.486 5.65079 153.756 6.57923 152.927L23.8549 137.741V126.5V115.259L6.57923 100.073C5.65079 99.2436 4.62287 98.5142 3.79391 97.5857C1.6386 95.2315 0.312256 92.0482 0.312256 88.5997V13.3629C0.312256 6.0017 6.31396 0 13.6752 0H48.3922H53.5981H83.1092H129.995H199.463H246.349H315.783H362.669H432.136H436.082C437.409 0 438.901 0.0663172 440.061 0.762647C444.372 3.24954 447.688 7.42752 447.688 12.6334V86.9086C447.688 90.324 446.362 93.4409 444.173 95.762C443.344 96.6904 442.349 97.3868 441.421 98.2157L438.503 100.736V100.703ZM72.1006 6.9633H83.1092H129.995H199.463H246.349H315.783H362.669H432.136H433.363C433.363 6.9633 438.503 8.85334 438.503 12.7992V88.1024L436.845 92.9104C436.215 93.5735 435.287 94.2367 434.623 94.8335L414.96 112.076V140.924L436.812 158.166C437.541 158.73 438.437 159.46 439.033 160.09C440.095 161.283 440.691 162.775 440.691 164.4V239.637C440.691 243.152 437.807 246.037 434.325 246.037H362.669C359.188 246.037 356.303 243.152 356.303 239.637V164.4C356.303 162.775 356.9 161.283 357.961 160.09C358.558 159.426 359.486 158.763 360.182 158.166L379.845 140.924V112.076L360.182 94.8335C359.486 94.2367 358.558 93.5735 357.961 92.9104H320.492C319.895 93.5735 318.966 94.2367 318.27 94.8335L298.607 112.076V140.924L318.27 158.166C318.966 158.763 319.895 159.426 320.492 160.09C321.586 161.283 322.183 162.775 322.183 164.4V239.637C322.183 243.152 319.298 246.037 315.783 246.037H246.349C242.834 246.037 239.949 243.152 239.949 239.637V164.4C239.949 162.775 240.546 161.283 241.64 160.09C242.237 159.426 243.166 158.763 243.829 158.166L263.492 140.924V112.076L243.829 94.8335C243.166 94.2367 242.237 93.5735 241.64 92.9104H204.171C203.574 93.5735 202.646 94.2367 201.95 94.8335L182.287 112.076V140.924L201.95 158.166C202.646 158.763 203.574 159.426 204.171 160.09C205.232 161.283 205.829 162.775 205.829 164.4V239.637C205.829 243.152 202.944 246.037 199.463 246.037H129.995C126.514 246.037 123.629 243.152 123.629 239.637V164.4C123.629 162.775 124.226 161.283 125.287 160.09C125.884 159.426 126.812 158.763 127.509 158.166L147.172 140.924V112.076L127.509 94.8335C126.812 94.2367 125.884 93.5735 125.287 92.9104H87.8178C87.2209 93.5735 86.2925 94.2367 85.6293 94.8335L65.9662 112.076V140.924L85.6293 158.166C86.2925 158.763 87.2209 159.426 87.8178 160.09C88.912 161.283 89.5088 162.775 89.5088 164.4V239.637C89.5088 243.152 86.624 246.037 83.1092 246.037H13.6752C10.1604 246.037 7.27556 243.152 7.27556 239.637V164.4C7.27556 162.775 7.87241 161.283 8.96665 160.09C9.5635 159.426 10.4919 158.763 11.1883 158.166L30.8513 140.924V112.076L11.1883 94.8335C10.4919 94.2367 9.5635 93.5735 8.96665 92.9104C7.87241 91.7166 7.27556 90.2245 7.27556 88.5997V13.3629C7.27556 9.8481 10.1604 6.9633 13.6752 6.9633H72.1006Z" fill="#D2D3D5"/>
<path fill-rule="evenodd" clip-rule="evenodd" d="M65.9663 112.175V140.924L52.3049 128.556V127.329V124.975V124.544L65.9663 112.175ZM30.8513 140.924L44.4795 128.556V127.329V124.975V124.544L30.8513 112.175V140.924Z" fill="#E6E7E8"/>
<path fill-rule="evenodd" clip-rule="evenodd" d="M182.287 112.175V140.924L168.625 128.556V127.329V124.975V124.544L182.287 112.175ZM147.172 140.924L160.833 128.556V127.329V124.975V124.544L147.172 112.175V140.924Z" fill="#E6E7E8"/>
<path fill-rule="evenodd" clip-rule="evenodd" d="M298.607 112.175V140.924L284.946 128.556V127.329V124.975V124.544L298.607 112.175ZM263.492 140.924L277.153 128.556V127.329V124.975V124.544L263.492 112.175V140.924Z" fill="#E6E7E8"/>
<path fill-rule="evenodd" clip-rule="evenodd" d="M414.96 112.175V140.924L401.299 128.556V127.329V124.975V124.544L414.96 112.175ZM379.845 140.924L393.507 128.556V127.329V124.975V124.544L379.845 112.175V140.924Z" fill="#E6E7E8"/>
<path fill-rule="evenodd" clip-rule="evenodd" d="M16.8251 78.619V12.9981C16.8251 11.9039 17.1899 11.0418 20.6715 11.0418L57.9086 8.88647H20.7378C13.4098 8.88647 9.86182 9.54965 9.86182 11.8044V81.5038C9.86182 88.3676 11.354 88.9976 13.3435 90.0587C14.4377 90.6555 15.1672 91.6503 16.1288 92.4129L33.4044 106.903V123.648V127.064V143.842L16.1288 158.299C15.1672 159.095 14.4377 160.09 13.3435 160.653C11.354 161.748 9.86182 162.344 9.86182 169.208V238.941C9.86182 241.195 13.4098 241.826 20.7378 241.826H57.9086L20.6715 239.703C17.1899 239.703 16.8251 238.808 16.8251 237.747V172.126V169.208C16.8251 167.716 17.422 166.257 18.5162 165.13C19.1131 164.5 20.0415 163.87 20.7047 163.306L40.003 147.158L40.3677 146.826V127.064V123.648V103.886L40.003 103.587L20.7047 87.406C20.0415 86.8423 19.1131 86.2123 18.5162 85.5823C17.422 84.4549 16.8251 83.0291 16.8251 81.5038V78.619Z" fill="#FEFEFE" fill-opacity="0.490196"/>
<path fill-rule="evenodd" clip-rule="evenodd" d="M133.179 78.619V12.9981C133.179 11.9039 133.51 11.0418 137.025 11.0418L174.262 8.88647H137.058C129.73 8.88647 126.182 9.54965 126.182 11.8044V81.5038C126.182 88.3676 127.674 88.9976 129.697 90.0587C130.758 90.6555 131.521 91.6503 132.449 92.4129L149.725 106.903V123.648V127.064V143.842L132.449 158.299C131.521 159.095 130.758 160.09 129.697 160.653C127.674 161.748 126.182 162.344 126.182 169.208V238.941C126.182 241.195 129.73 241.826 137.058 241.826H174.262L137.025 239.703C133.51 239.703 133.179 238.808 133.179 237.747V172.126V169.208C133.179 167.716 133.775 166.257 134.837 165.13C135.433 164.5 136.362 163.87 137.058 163.306L156.356 147.158L156.688 146.826V127.064V123.648V103.886L156.356 103.587L137.058 87.406C136.362 86.8423 135.433 86.2123 134.837 85.5823C133.775 84.4549 133.179 83.0291 133.179 81.5038V78.619Z" fill="#FEFEFE" fill-opacity="0.490196"/>
<path fill-rule="evenodd" clip-rule="evenodd" d="M249.499 78.619V12.9981C249.499 11.9039 249.864 11.0418 253.345 11.0418L290.582 8.88647H253.412C246.084 8.88647 242.536 9.54965 242.536 11.8044V81.5038C242.536 88.3676 244.028 88.9976 246.017 90.0587C247.112 90.6555 247.841 91.6503 248.769 92.4129L266.078 106.903V123.648V127.064V143.842L248.769 158.299C247.841 159.095 247.112 160.09 246.017 160.653C244.028 161.748 242.536 162.344 242.536 169.208V238.941C242.536 241.195 246.084 241.826 253.412 241.826H290.582L253.345 239.703C249.864 239.703 249.499 238.808 249.499 237.747V172.126V169.208C249.499 167.716 250.096 166.257 251.157 165.13C251.787 164.5 252.715 163.87 253.378 163.306L272.677 147.158L273.042 146.826V127.064V123.648V103.886L272.677 103.587L253.378 87.406C252.715 86.8423 251.787 86.2123 251.157 85.5823C250.096 84.4549 249.499 83.0291 249.499 81.5038V78.619Z" fill="#FEFEFE" fill-opacity="0.490196"/>
<path fill-rule="evenodd" clip-rule="evenodd" d="M365.819 78.619V12.9981C365.819 11.9039 366.184 11.0418 369.666 11.0418L406.903 8.88647H369.732C362.404 8.88647 358.856 9.54965 358.856 11.8044V81.5038C358.856 88.3676 360.348 88.9976 362.338 90.0587C363.432 90.6555 364.194 91.6503 365.123 92.4129L382.399 106.903V123.648V127.064V143.842L365.123 158.299C364.194 159.095 363.432 160.09 362.338 160.653C360.348 161.748 358.856 162.344 358.856 169.208V238.941C358.856 241.195 362.404 241.826 369.732 241.826H406.903L369.666 239.703C366.184 239.703 365.819 238.808 365.819 237.747V172.126V169.208C365.819 167.716 366.416 166.257 367.51 165.13C368.107 164.5 369.036 163.87 369.732 163.306L388.997 147.158L389.362 146.826V127.064V123.648V103.886L388.997 103.587L369.732 87.406C369.036 86.8423 368.107 86.2123 367.51 85.5823C366.416 84.4549 365.819 83.0291 365.819 81.5038V78.619Z" fill="#FEFEFE" fill-opacity="0.490196"/>
</svg>