<svg width="25" height="26" viewBox="0 0 25 26" fill="none" xmlns="http://www.w3.org/2000/svg">
<path d="M12.6329 25.3655C19.4174 25.3655 24.9171 19.8655 24.9171 13.081C24.9171 6.29648 19.4174 0.796509 12.6329 0.796509C5.84836 0.796509 0.348389 6.29648 0.348389 13.081C0.348389 19.8655 5.84836 25.3655 12.6329 25.3655Z" fill="#7175C2"/>
<path fill-rule="evenodd" clip-rule="evenodd" d="M8.26155 9.23743C8.26155 9.0867 8.26162 8.93598 8.33699 8.78525C8.33699 8.63453 8.41227 8.55933 8.48764 8.48396C8.563 8.4086 8.63843 8.33308 8.78916 8.33308C8.86452 8.25772 9.01516 8.25788 9.16589 8.25788H9.24133C9.31669 8.25788 9.39198 8.25788 9.39198 8.25788C9.46734 8.25788 9.54285 8.33308 9.54285 8.33308C9.61822 8.33308 9.61806 8.4086 9.61806 8.48396C9.61806 8.55933 9.61822 8.55924 9.54285 8.63461H9.46741C9.39205 8.63461 9.31677 8.63461 9.31677 8.63461C9.2414 8.63461 9.16605 8.63461 9.09068 8.63461C8.93995 8.63461 8.86452 8.70989 8.78916 8.78525C8.71379 8.93598 8.63828 9.01149 8.63828 9.16222V9.53895H9.16589C9.24126 9.53895 9.31677 9.53895 9.31677 9.53895C9.39213 9.61431 9.39198 9.61446 9.39198 9.68983C9.39198 9.76519 9.39213 9.84047 9.31677 9.84047C9.31677 9.91584 9.24126 9.91591 9.16589 9.91591H8.63828V11.8752C8.63828 11.9506 8.63844 12.0261 8.56307 12.0261C8.56307 12.1015 8.48756 12.1013 8.4122 12.1013C8.33683 12.1013 8.33692 12.1015 8.26155 12.0261C8.26155 12.0261 8.26155 11.9506 8.26155 11.8752V9.23743ZM7.35721 6.82593H17.8328C18.0589 6.82593 18.2098 6.90121 18.2852 6.97657C18.4359 7.1273 18.5113 7.27802 18.5113 7.42874V13.8348C18.5113 14.0609 18.4359 14.2116 18.2852 14.287C18.2098 14.4377 18.0589 14.5131 17.8328 14.5131H14.14L16.4763 17.6785C16.627 17.8292 16.5518 18.1306 16.4011 18.2813C16.175 18.3567 15.8734 18.3567 15.798 18.1306L14.2906 16.0956L13.0096 16.7739V18.9595C13.0096 19.1856 12.8589 19.4117 12.6328 19.4117C12.4067 19.4117 12.1804 19.1856 12.1804 18.9595V16.6987L10.9748 16.0956L9.46741 18.1306C9.31668 18.3567 9.09069 18.3567 8.8646 18.2813C8.71387 18.1306 8.63843 17.8292 8.78916 17.6785L11.1254 14.5131H7.35721C7.20648 14.5131 7.05577 14.4377 6.90504 14.287C6.75431 14.2116 6.67896 14.0609 6.67896 13.8348V7.42874C6.67896 7.27802 6.75431 7.1273 6.90504 6.97657C7.05577 6.90121 7.20648 6.82593 7.35721 6.82593ZM13.085 14.5131H13.0096V16.3217L14.0646 15.7944L13.085 14.5131ZM12.1804 14.5131H12.1052L11.2009 15.7944L12.1804 16.2465V14.5131ZM17.8328 7.20266H7.35721C7.28185 7.20266 7.20656 7.20273 7.20656 7.2781C7.1312 7.35346 7.13113 7.35338 7.13113 7.42874V13.8348C7.13113 13.9102 7.1312 13.9855 7.20656 14.0609C7.20656 14.0609 7.28185 14.1363 7.35721 14.1363H17.8328C17.9082 14.1363 17.9835 14.0609 18.0589 14.0609C18.0589 13.9855 18.1343 13.9102 18.1343 13.8348V7.42874C18.1343 7.35338 18.0589 7.35346 18.0589 7.2781C17.9835 7.20273 17.9082 7.20266 17.8328 7.20266ZM16.9285 10.4433C17.0038 10.4433 17.004 10.4434 17.0793 10.5187C17.0793 10.5941 17.1545 10.594 17.1545 10.6694C17.1545 10.7447 17.0793 10.7449 17.0793 10.8203C17.004 10.8203 17.0038 10.8955 16.9285 10.8955H15.2704C15.1951 10.8955 15.1198 10.8203 15.1198 10.8203C15.0444 10.7449 15.0443 10.7447 15.0443 10.6694C15.0443 10.594 15.0444 10.5941 15.1198 10.5187C15.1198 10.4434 15.1951 10.4433 15.2704 10.4433H16.9285ZM16.9285 9.53895C17.0038 9.53895 17.004 9.53895 17.0793 9.53895C17.0793 9.61431 17.1545 9.68983 17.1545 9.68983C17.1545 9.76519 17.0793 9.84047 17.0793 9.84047C17.004 9.91584 17.0038 9.91591 16.9285 9.91591H15.2704C15.1951 9.91591 15.1198 9.91584 15.1198 9.84047C15.0444 9.84047 15.0443 9.76519 15.0443 9.68983C15.0443 9.68983 15.0444 9.61431 15.1198 9.53895C15.1198 9.53895 15.1951 9.53895 15.2704 9.53895H16.9285ZM13.9893 10.8955C13.9893 10.5186 13.9893 10.1419 13.9139 9.84047C13.7632 9.46365 13.6878 9.16215 13.4617 8.86069C13.4617 8.78533 13.4617 8.78525 13.4617 8.78525C13.4617 8.70989 13.4617 8.71005 13.4617 8.71005C13.4617 8.63468 13.4617 8.55917 13.4617 8.55917C13.5371 8.48381 13.537 8.48396 13.6124 8.48396C13.6877 8.48396 13.7631 8.48381 13.8385 8.55917C13.9892 8.93599 14.1399 9.313 14.2906 9.68983C14.366 10.0666 14.4415 10.5186 14.4415 10.8955C14.4415 11.2723 14.366 11.7245 14.2906 12.1013C14.1399 12.4781 13.9892 12.8552 13.8385 13.232C13.7631 13.3073 13.6877 13.3072 13.6124 13.3072C13.537 13.3072 13.5371 13.3073 13.4617 13.232C13.4617 13.232 13.4617 13.1565 13.4617 13.0811C13.4617 13.0811 13.4617 13.081 13.4617 13.0057C13.4617 13.0057 13.4617 13.0058 13.4617 12.9305C13.6878 12.629 13.7632 12.3275 13.9139 11.9507C13.9893 11.5739 13.9893 11.2723 13.9893 10.8955ZM13.1602 11.8V11.8752C13.1602 11.9506 13.1604 12.0261 13.085 12.0261C13.085 12.1015 13.0095 12.1013 12.9341 12.1013H12.8589C12.8589 12.026 12.7835 12.026 12.7835 11.9507L12.1804 11.0463L11.5776 12.0261C11.5023 12.1015 11.4269 12.1013 11.3515 12.1013C11.2762 12.1013 11.2763 12.1015 11.2009 12.0261C11.2009 12.0261 11.1254 11.9506 11.1254 11.8752L11.2009 11.8L11.9543 10.7448L11.2009 9.68983C11.2009 9.61446 11.2009 9.61431 11.2009 9.53895C11.2009 9.53895 11.2007 9.46374 11.2761 9.46374C11.2761 9.38838 11.3516 9.3883 11.427 9.3883C11.5023 9.3883 11.5023 9.3883 11.5776 9.3883C11.5776 9.46367 11.5777 9.53895 11.6531 9.53895L12.1804 10.3681L12.708 9.46374C12.7834 9.46374 12.7835 9.3883 12.7835 9.3883C12.8588 9.3883 12.8588 9.3883 12.9341 9.3883C13.0095 9.3883 13.0096 9.3883 13.085 9.3883C13.085 9.46367 13.1602 9.53895 13.1602 9.53895C13.1602 9.53895 13.1604 9.61439 13.085 9.61439C13.085 9.61439 13.085 9.61446 13.085 9.68983L12.4065 10.6694L13.1602 11.8ZM10.3718 10.8955C10.3718 11.2723 10.3718 11.5739 10.4472 11.9507C10.5226 12.3275 10.6732 12.629 10.8239 12.9305C10.8239 13.0058 10.8994 13.0057 10.8994 13.0057C10.8994 13.081 10.8994 13.0811 10.8994 13.0811C10.8994 13.1565 10.8993 13.232 10.8239 13.232C10.8239 13.3073 10.7486 13.3072 10.6733 13.3072C10.5979 13.3072 10.5978 13.3073 10.5224 13.232C10.2963 12.8552 10.1456 12.4781 10.0702 12.1013C9.99487 11.7245 9.91958 11.2723 9.91958 10.8955C9.91958 10.5186 9.99487 10.0666 10.0702 9.68983C10.1456 9.313 10.2963 8.93599 10.5224 8.55917C10.5978 8.48381 10.5979 8.48396 10.6733 8.48396C10.7486 8.48396 10.8239 8.48381 10.8239 8.55917C10.8993 8.55917 10.8994 8.63468 10.8994 8.71005C10.8994 8.71005 10.8994 8.70989 10.8994 8.78525C10.8994 8.78525 10.8239 8.78533 10.8239 8.86069C10.6732 9.16215 10.5226 9.46365 10.4472 9.84047C10.3718 10.1419 10.3718 10.5186 10.3718 10.8955Z" fill="#FEFEFE"/>
</svg>