<svg width="25" height="25" viewBox="0 0 25 25" fill="none" xmlns="http://www.w3.org/2000/svg">
<path d="M12.5 25C19.4036 25 25 19.4035 25 12.5C25 5.59639 19.4036 0 12.5 0C5.59649 0 0 5.59639 0 12.5C0 19.4035 5.59649 25 12.5 25Z" fill="#15B0CE"/>
<path fill-rule="evenodd" clip-rule="evenodd" d="M7.44772 13.2005C7.83144 12.8496 8.63084 12.4028 10.2297 12.7219C12.596 13.1687 13.939 13.743 15.314 13.392C16.2733 13.1367 16.9448 12.2433 17.2326 11.7328C16.4971 9.85016 14.6745 8.9248 14.6425 8.9248L14.5145 8.86102V5.79772L14.6425 5.73393C14.6425 5.73393 14.7064 5.67016 14.8662 5.47871C14.8662 5.47871 14.8662 5.47868 14.8662 5.44677H10.1338C10.1338 5.47868 10.1338 5.47871 10.1338 5.47871C10.2617 5.67016 10.3575 5.73393 10.3575 5.73393L10.4534 5.79772V8.86102L10.3256 8.9248C10.3256 8.9248 7.54365 10.2969 7.44772 13.2005ZM16.5291 17.3487C17.4564 16.3596 18 14.9556 18 13.3601C18 10.4565 15.5698 8.92478 14.9942 8.60569V6.0211C15.0581 5.95728 15.1221 5.8616 15.218 5.76587C15.5378 5.31915 15.0901 5.03194 15.0901 5.03194L14.9622 5H10.0378L9.90989 5.03194C9.90989 5.03194 9.43018 5.31915 9.74995 5.76587C9.84588 5.8616 9.94187 5.95728 10.0058 6.0211V8.60569C9.43024 8.92478 7 10.4565 7 13.3601C7 14.9556 7.54364 16.3596 8.43899 17.3487C10.4535 19.5504 14.5146 19.5504 16.5291 17.3487ZM9.87789 13.6792C10.2296 13.6792 10.5175 13.9664 10.5175 14.3493C10.5175 14.7003 10.2296 14.9874 9.87789 14.9874C9.49416 14.9874 9.2064 14.7003 9.2064 14.3493C9.2064 13.9664 9.49416 13.6792 9.87789 13.6792ZM12.1482 16.87C12.372 16.87 12.5639 17.0615 12.5639 17.2848C12.5639 17.5082 12.372 17.6997 12.1482 17.6997C11.9244 17.6997 11.7326 17.5082 11.7326 17.2848C11.7326 17.0615 11.9244 16.87 12.1482 16.87ZM15.3459 14.7003C15.5697 14.7003 15.7297 14.8598 15.7297 15.0831C15.7297 15.3384 15.5697 15.498 15.3459 15.498C15.0901 15.498 14.9303 15.3384 14.9303 15.0831C14.9303 14.8598 15.0901 14.7003 15.3459 14.7003Z" fill="#FEFEFE"/>
</svg>