<svg width="18" height="28" viewBox="0 0 18 28" fill="none" xmlns="http://www.w3.org/2000/svg">
<path fill-rule="evenodd" clip-rule="evenodd" d="M0.410156 13.6138C0.410156 13.6138 1.99282 12.7847 3.04792 14.6689C4.17839 16.4776 3.87693 17.4573 3.87693 17.4573C3.87693 17.4573 6.66543 19.4922 10.2829 18.4371C13.9004 17.382 15.1816 13.5383 15.257 12.2571C15.3324 11.0513 15.1816 10.2977 15.1816 10.2977L15.6338 9.92085C15.6338 9.92085 16.7643 13.2369 16.5382 15.724C16.3121 18.211 15.4077 19.5675 15.4077 19.5675L7.19298 22.2053L2.21891 19.7936C2.21891 19.7936 1.08844 19.2661 0.937707 18.211C0.786978 17.1559 0.410156 13.6138 0.410156 13.6138ZM11.1119 14.4428L11.0366 14.5181C10.9612 14.5935 10.8859 14.5935 10.8105 14.5181L10.4337 14.1413C10.3583 14.0659 10.3583 13.9152 10.4337 13.9152V13.8398C10.509 13.7645 10.6598 13.7645 10.7351 13.8398L11.1119 14.2166C11.1873 14.2919 11.1873 14.4428 11.1119 14.4428ZM5.91178 9.31792L5.83642 9.39324C5.83642 9.46861 5.68569 9.46861 5.61032 9.39324L5.2335 9.01651C5.15814 8.94114 5.15814 8.79035 5.2335 8.71498V8.63966C5.30886 8.5643 5.45959 8.5643 5.53496 8.63966L5.91178 9.01651C5.98714 9.09187 5.98714 9.24255 5.91178 9.31792ZM11.0366 8.63966L11.1119 8.71498C11.1873 8.79035 11.1873 8.86571 11.1119 8.94107L10.7351 9.31792C10.6598 9.39328 10.509 9.39328 10.4337 9.31792C10.3583 9.24255 10.3583 9.09187 10.4337 9.01651L10.8105 8.63966C10.8859 8.5643 10.9612 8.5643 11.0366 8.63966ZM5.91178 13.8398V13.9152C5.98714 13.9905 5.98714 14.0659 5.91178 14.1413L5.53496 14.5181C5.45959 14.5935 5.38423 14.5935 5.30886 14.5181H5.2335C5.15814 14.4427 5.15814 14.2919 5.2335 14.2166L5.61032 13.8398C5.68569 13.7645 5.83642 13.7645 5.91178 13.8398ZM12.3178 11.5034V11.5789C12.3178 11.6542 12.2424 11.7296 12.0917 11.7296L11.5641 11.805C11.4888 11.805 11.338 11.6542 11.338 11.5789V11.5034C11.338 11.4281 11.4134 11.3528 11.5641 11.3528H12.0917C12.1671 11.3528 12.3178 11.4281 12.3178 11.5034ZM4.93204 11.5789V11.6542C4.93204 11.8049 4.85668 11.8803 4.78131 11.8803H4.25376C4.10303 11.8803 4.02766 11.8049 4.02766 11.6542C4.02766 11.5035 4.10303 11.4281 4.25376 11.4281H4.78131C4.85668 11.4281 4.93204 11.5035 4.93204 11.5789ZM8.09736 7.50912H8.17272C8.32345 7.50912 8.39882 7.58452 8.39882 7.65988V8.18749C8.39882 8.33822 8.32345 8.41358 8.17272 8.41358H8.09736C8.022 8.41358 7.94663 8.33822 7.94663 8.18749V7.65988C7.94663 7.58452 8.022 7.50912 8.09736 7.50912ZM8.09736 14.8195H8.17272C8.32345 14.8195 8.39882 14.8949 8.39882 14.9703V15.4979C8.39882 15.6486 8.32345 15.724 8.17272 15.724H8.09736C8.022 15.724 7.94663 15.6486 7.94663 15.4979V14.9703C7.94663 14.8949 8.022 14.8195 8.09736 14.8195ZM14.0512 7.28304C14.8048 7.28304 15.4831 7.96134 15.4831 8.71498C15.4831 9.544 14.8048 10.2223 14.0512 10.2223C13.2222 10.2223 12.5439 9.544 12.5439 8.71498C12.5439 8.48889 12.6192 8.1875 12.77 7.96141C12.5439 8.11214 12.3178 8.18749 12.0163 8.18749C11.2627 8.18749 10.5844 7.50919 10.5844 6.75554C10.5844 6.60481 10.5844 6.52938 10.6598 6.45402C10.3583 6.75548 9.98148 6.9063 9.52929 6.9063C8.77564 6.9063 8.09736 6.30337 8.09736 5.47436C8.09736 4.64534 8.77564 4.04241 9.52929 4.04241C10.3583 4.04241 11.0366 4.64534 11.0366 5.47436C11.0366 5.54972 10.9612 5.62503 10.9612 5.77576C11.2627 5.4743 11.6395 5.24827 12.0163 5.24827C12.8453 5.24827 13.5236 5.92653 13.5236 6.75554C13.5236 6.98164 13.4483 7.28303 13.2975 7.50912C13.5236 7.35839 13.7497 7.28304 14.0512 7.28304ZM14.0512 7.88597C14.5034 7.88597 14.8802 8.2628 14.8802 8.71498C14.8802 9.24254 14.5034 9.61932 14.0512 9.61932C13.5236 9.61932 13.1468 9.24254 13.1468 8.71498C13.1468 8.2628 13.5236 7.88597 14.0512 7.88597ZM12.0163 5.85109C12.5439 5.85109 12.9207 6.22799 12.9207 6.75554C12.9207 7.20773 12.5439 7.58456 12.0163 7.58456C11.5641 7.58456 11.1873 7.20773 11.1873 6.75554C11.1873 6.22799 11.5641 5.85109 12.0163 5.85109ZM9.52929 4.64534C10.0568 4.64534 10.4337 5.02217 10.4337 5.47436C10.4337 6.00191 10.0568 6.3787 9.52929 6.3787C9.0771 6.3787 8.70028 6.00191 8.70028 5.47436C8.70028 5.02217 9.0771 4.64534 9.52929 4.64534ZM8.24809 10.6745C8.70028 10.6745 9.15247 11.1267 9.15247 11.5789C9.15247 11.805 9.0771 11.9556 8.92637 12.1064L9.22783 12.7847L8.32345 13.2369L8.022 12.4832C7.64517 12.4079 7.34371 12.0311 7.34371 11.5789C7.34371 11.3528 7.34371 11.202 7.49444 11.0513L6.43933 8.33814C6.43933 8.33814 6.28861 8.11214 6.5147 7.96141C6.7408 7.88604 6.89152 8.11205 6.89152 8.11205L8.17272 10.6745H8.24809ZM2.14354 7.05695L2.445 7.35847L3.34938 6.52946L3.04792 6.22793L3.57547 5.77576L2.74646 5.02219C2.74646 5.02219 2.445 4.79605 2.06818 5.09751C1.69136 5.39897 0.937707 6.22793 0.937707 6.22793C0.937707 6.22793 0.711613 6.45408 0.937707 6.75554C1.23917 7.057 1.76672 7.50912 1.76672 7.50912L2.14354 7.05695ZM5.53496 5.02219C5.53496 5.02219 6.43933 4.64527 7.04225 4.5699C7.72054 4.41917 7.7959 4.41925 7.7959 4.41925L8.24809 3.96697V1.25395C8.24809 1.25395 8.24809 0.19873 6.89152 0.19873C5.53496 0.19873 5.53496 1.40459 5.53496 1.40459V5.02219ZM1.61599 12.7847C1.61599 12.7847 3.42474 13.3123 4.02766 15.121C4.70594 16.8544 4.55522 17.0805 4.55522 17.0805C4.55522 17.0805 6.7408 18.7385 9.83075 17.9848C12.9961 17.2312 14.6541 13.9152 14.6541 12.4079C14.7295 10.8252 14.6541 10.7499 14.6541 10.7499C14.6541 10.7499 14.1265 11.0513 13.6744 10.976C13.1468 10.8252 12.6946 10.4483 12.6946 10.4483C12.6946 10.4483 13.2975 13.6137 11.338 15.3471C9.37856 17.1559 4.47985 16.6283 3.57547 13.2369C2.6711 9.8455 4.85668 7.81059 6.06251 7.28304C7.19298 6.75548 8.022 6.83087 8.022 6.83087C8.022 6.83087 7.56981 6.15263 7.56981 5.70044C7.49444 5.32362 7.56981 5.09751 7.56981 5.09751C7.56981 5.09751 1.01307 5.92655 1.61599 12.7847ZM7.49444 22.9589L15.7092 20.3212C15.7092 20.3212 16.8397 20.095 17.2919 21.3009C17.6687 22.5067 17.7441 22.8836 17.7441 22.8836C17.7441 22.8836 18.1209 24.014 16.8397 24.3909C15.6338 24.8431 9.37856 26.9532 9.37856 26.9532C9.37856 26.9532 8.09736 27.4808 7.64517 26.5011C7.26835 25.5213 6.81616 24.1648 6.81616 24.1648C6.81616 24.1648 6.5147 23.2604 7.49444 22.9589Z" fill="#FEFEFE"/>
</svg>