<svg width="132" height="147" viewBox="0 0 132 147" fill="none" xmlns="http://www.w3.org/2000/svg">
                <path fill-rule="evenodd" clip-rule="evenodd"
                    d="M9.18079 140.678L2.92539 141.884C2.92539 141.884 2.09655 138.568 6.16625 133.744C10.1606 128.921 10.3867 128.846 10.3867 128.846C10.3867 128.846 23.274 124.927 23.5755 120.405C23.8769 115.958 23.8768 115.958 23.8768 115.958L30.8859 122.666C30.8859 122.666 23.8016 140.452 9.18079 140.678Z"
                    fill="#87CBA0" />
                <path fill-rule="evenodd" clip-rule="evenodd"
                    d="M127.579 146.255H116.5C116.5 144.597 115.144 143.241 113.486 143.241H18.7523C17.0943 143.241 15.7378 144.597 15.7378 146.255H4.65913C-5.9673 131.031 37.5183 137.362 20.7873 116.184C18.0742 112.642 14.4565 107.141 11.8941 102.92C10.6129 101.111 9.48247 99.2274 8.42737 97.3433V97.2679C3.30256 87.998 0.438721 77.2964 0.438721 65.9163C0.438721 29.5905 29.8309 0.198412 66.0814 0.123047C102.407 0.198412 131.799 29.5905 131.799 65.9163C131.799 77.2964 128.936 87.998 123.811 97.2679V97.3433C122.756 99.2274 121.625 101.111 120.344 102.92C117.782 107.141 114.164 112.642 111.451 116.184C94.7201 137.362 138.205 131.031 127.579 146.255Z"
                    fill="url(#paint0_linear)" />
                <path
                    d="M66.2322 120.857C96.5753 120.857 121.173 96.2594 121.173 65.9163C121.173 35.5733 96.5753 10.9756 66.2322 10.9756C35.8892 10.9756 11.2913 35.5733 11.2913 65.9163C11.2913 96.2594 35.8892 120.857 66.2322 120.857Z"
                    fill="#FEFEFE" />
                <path
                    d="M66.232 99.6796C84.879 99.6796 99.9953 84.5634 99.9953 65.9163C99.9953 47.2693 84.879 32.1531 66.232 32.1531C47.585 32.1531 32.4685 47.2693 32.4685 65.9163C32.4685 84.5634 47.585 99.6796 66.232 99.6796Z"
                    fill="#215C3C" />
                <path
                    d="M66.2322 98.6248C84.2965 98.6248 98.9405 83.9806 98.9405 65.9163C98.9405 47.852 84.2965 33.2078 66.2322 33.2078C48.1679 33.2078 33.5237 47.852 33.5237 65.9163C33.5237 83.9806 48.1679 98.6248 66.2322 98.6248Z"
                    fill="url(#paint1_radial)" />
                <path d="M119.063 139.774H14.3057V146.255H119.063V139.774Z" fill="#215C3C" />
                <path fill-rule="evenodd" clip-rule="evenodd"
                    d="M26.8264 81.6922C24.8669 76.8688 23.7364 71.5177 23.7364 65.9407C23.7364 60.1377 24.9423 54.6362 27.0525 49.5867C23.5857 49.0592 20.2697 47.7026 17.4058 45.3663C21.0233 45.8939 24.3394 47.2502 27.1279 49.3604C31.4237 39.3369 39.4878 31.2731 49.5867 26.9773C47.3258 23.9627 45.8939 20.3449 45.5924 16.3506C48.1548 19.3652 49.7373 22.9827 50.1895 26.751C55.0882 24.7915 60.3638 23.7367 65.9407 23.7367C71.5931 23.7367 77.0194 24.867 81.9935 26.9019C82.4457 23.4351 83.8023 20.1188 86.0632 17.2549C85.611 20.8725 84.2543 24.1888 82.1441 26.9773C92.3937 31.2731 100.609 39.4875 104.904 49.7371C107.693 47.6269 111.009 46.2707 114.627 45.8185C111.763 48.0794 108.447 49.4358 104.98 49.888C107.015 54.8621 108.145 60.2884 108.145 65.9407C108.145 71.6685 107.015 77.0948 104.904 82.0689C108.371 82.5211 111.687 83.9529 114.551 86.2139C110.934 85.7617 107.617 84.3296 104.829 82.2948C100.533 92.469 92.3185 100.684 82.0689 104.904C84.1038 107.693 85.4602 111.009 85.9124 114.702C83.6514 111.762 82.295 108.446 81.8428 104.98C76.9441 107.014 71.5931 108.07 65.9407 108.07C60.1377 108.07 54.7114 106.939 49.6619 104.904C49.2097 108.296 47.7779 111.612 45.517 114.476C45.9691 110.858 47.4011 107.542 49.5113 104.754C39.2617 100.458 31.1223 92.243 26.9019 81.918C24.1134 84.0282 20.722 85.3849 17.1045 85.7617C20.0438 83.5761 23.3596 82.2197 26.8264 81.6922ZM17.4058 45.3663C16.6522 45.2909 15.8233 45.2154 14.9943 45.2154C12.4319 51.6214 11 58.6304 11 65.9407C11 72.9497 12.3566 79.7327 14.7682 85.9126C15.5219 85.9126 16.3509 85.8371 17.1045 85.7617C16.5016 86.2893 15.8985 86.817 15.2956 87.3445C20.7972 100.307 31.1224 110.632 43.9344 116.284C44.5373 115.681 45.0648 115.079 45.517 114.476C45.4416 115.305 45.3663 116.058 45.3663 116.887C51.6969 119.45 58.6304 120.881 65.9407 120.881C73.025 120.881 79.808 119.525 86.0632 117.038C86.0632 116.209 85.9877 115.455 85.9124 114.702C86.3645 115.304 86.8923 115.908 87.4952 116.435C100.383 110.934 110.783 100.609 116.36 87.7967C115.757 87.1938 115.154 86.6661 114.551 86.2139C115.305 86.2892 116.134 86.3648 116.963 86.3648C119.45 80.0341 120.882 73.1758 120.882 65.9407C120.882 58.7811 119.525 51.9229 117.038 45.6676C116.209 45.6676 115.38 45.7431 114.627 45.8185C115.229 45.2909 115.832 44.7632 116.435 44.2357C110.858 31.3483 100.533 21.0233 87.6458 15.4463C87.1183 16.0492 86.5908 16.652 86.0632 17.2549C86.1386 16.4259 86.2139 15.6722 86.2139 14.8432C79.9586 12.3562 73.1004 11 65.9407 11C58.7057 11 51.8476 12.3563 45.517 14.9187C45.517 15.3708 45.5924 15.8231 45.5924 16.3506C45.2909 15.9738 44.9894 15.5968 44.6126 15.2954C31.7252 20.7216 21.2495 30.9715 15.5971 43.7835C16.2001 44.3864 16.8029 44.9141 17.4058 45.3663Z"
                    fill="url(#paint2_linear)" />
                <defs>
                    <linearGradient id="paint0_linear" x1="0.438721" y1="73.1513" x2="131.799" y2="73.1513"
                        gradientUnits="userSpaceOnUse">
                        <stop stop-color="#0F7D4B" />
                        <stop offset="1" stop-color="#4DBB80" />
                    </linearGradient>
                    <radialGradient id="paint1_radial" cx="0" cy="0" r="1" gradientUnits="userSpaceOnUse"
                        gradientTransform="translate(66.8754 68.5764) rotate(-0.00740864) scale(454.799 454.792)">
                        <stop stop-color="#4DBB80" />
                        <stop offset="1" stop-color="#0F7D4B" />
                    </radialGradient>
                    <linearGradient id="paint2_linear" x1="69.0308" y1="11" x2="69.0308" y2="126.609"
                        gradientUnits="userSpaceOnUse">
                        <stop stop-color="#FBDE82" />
                        <stop offset="0.219608" stop-color="#FCA49A" />
                        <stop offset="0.470588" stop-color="#FBB0F1" />
                        <stop offset="0.701961" stop-color="#6EDBFC" />
                        <stop offset="1" stop-color="#BFFFB0" />
                    </linearGradient>
                </defs>
            </svg>