<svg width="26" height="25" viewBox="0 0 26 25" fill="none" xmlns="http://www.w3.org/2000/svg">
<path fill-rule="evenodd" clip-rule="evenodd" d="M12.7351 1.42387C18.9904 1.42387 24.0398 6.47324 24.0398 12.6531C24.0398 18.9084 18.9904 23.8824 12.7351 23.8824C6.55518 23.8824 1.50574 18.9084 1.50574 12.6531C1.50574 6.47324 6.55518 1.42387 12.7351 1.42387ZM12.7351 0.444092C19.5179 0.444092 25.0195 5.87032 25.0195 12.6531C25.0195 19.436 19.5179 24.9376 12.7351 24.9376C6.02763 24.9376 0.526001 19.436 0.526001 12.6531C0.526001 5.87032 6.02763 0.444092 12.7351 0.444092ZM16.9555 12.5025V12.1255L19.5179 10.8445L19.8947 10.3169L20.7238 7.82992H20.6484C20.7991 7.60383 20.9498 7.37753 21.0252 7.15144C21.1759 6.77461 20.9499 6.2471 20.6484 6.02101C20.7991 5.56882 20.9499 5.04123 20.9499 5.04123C20.9499 5.04123 20.8745 4.66457 20.6484 4.73994C20.573 4.8153 20.4223 5.26753 20.2716 5.71972L20.0455 4.89058C20.0455 4.89058 19.744 4.58905 19.6686 4.81515C19.5933 4.89051 19.744 5.56882 19.8947 6.02101C19.6686 6.32247 19.5933 6.69927 19.4426 6.69927C19.2918 6.6239 19.1411 6.6994 19.1411 7.07623C19.1411 7.15159 19.1411 7.30223 19.2165 7.45296L18.3874 9.48795C15.9758 10.6938 16.6541 10.6937 14.0917 9.6386V8.96035C15.0714 8.35743 14.8453 7.52842 15.2221 7.07623C15.3729 6.9255 15.825 4.13696 14.167 4.21233C13.7902 3.38332 10.851 3.30804 10.7002 5.71972L11.0017 7.45296L11.9061 8.96035L11.6046 10.0153C8.96685 10.6183 9.79586 10.7692 7.30883 9.48795L6.32909 7.07623C6.40445 7.00086 6.40445 6.92543 6.40445 6.7747C6.40445 6.47324 6.25372 6.32261 6.10299 6.39797C5.95226 6.47334 5.8769 6.02102 5.6508 5.79493C5.80153 5.26737 5.95226 4.66443 5.8769 4.58906C5.72617 4.36297 5.50007 4.6645 5.50007 4.6645L5.27398 5.49363C5.12325 5.04144 4.97252 4.51385 4.82179 4.51385C4.67106 4.36312 4.5957 4.73994 4.5957 4.73994C4.5957 4.73994 4.74643 5.34289 4.89716 5.71972C4.52033 6.02118 4.29424 6.54853 4.52033 6.92535C4.5957 7.22681 4.82179 7.52839 5.04789 7.75448L4.97252 7.82992L5.80153 10.3169L6.17836 10.8445L8.81612 12.201V12.2764C9.64514 11.6735 10.7002 11.2213 11.9061 11.0705L11.8307 10.9951L12.3583 10.6184L12.6597 10.9951H12.7351C12.9612 10.9951 13.1873 10.9951 13.4134 10.9951L13.6395 10.6184L14.167 10.9951L14.0917 11.146C15.2221 11.3721 16.1265 11.8242 16.9555 12.5025ZM17.1062 22.6013L16.9555 21.8477C15.9004 22.9781 14.3931 23.7318 12.7351 23.7318C9.56977 23.7318 7.00737 21.0941 7.00737 17.9288C7.00737 17.6273 7.00737 17.3259 7.08273 17.0244L7.98711 17.4012C7.98711 17.6273 7.98711 17.778 7.98711 17.9288C7.98711 20.6419 10.0973 22.752 12.7351 22.752C14.0163 22.752 15.0714 22.2998 15.9758 21.5461L15.599 21.6216C15.599 21.6216 15.0714 21.6217 14.996 21.2448C14.9207 20.868 15.1468 20.6419 15.4482 20.5666L17.7845 19.9635L18.086 22.3753C18.086 22.4506 18.0106 22.8275 17.7092 22.9029C17.4077 22.9029 17.1062 22.8274 17.1062 22.6013ZM12.7351 14.9142L13.7902 16.4968L15.6743 16.949L14.4685 18.4561L14.5438 20.3403L12.7351 19.662L11.0017 20.3403L11.0771 18.4561L9.87123 16.949L11.7553 16.4968L12.7351 14.9142ZM12.7351 12.201C15.9758 12.201 18.5382 14.7635 18.5382 17.9288C18.5382 18.3056 18.4628 18.6823 18.3874 18.9838L17.5584 18.607C17.5584 18.3809 17.5584 18.1549 17.5584 17.9288C17.5584 15.291 15.4482 13.1808 12.7351 13.1808C11.4539 13.1808 10.1727 13.7083 9.34367 14.6127L9.9466 14.4618C9.9466 14.4618 10.4741 14.462 10.5495 14.8388C10.6249 15.2156 10.3988 15.4417 10.1727 15.517L7.83638 16.0447L7.45956 13.7084C7.45956 13.633 7.53492 13.2561 7.83638 13.1808C8.2132 13.1808 8.4393 13.2562 8.51466 13.4823L8.59003 14.0097C9.64513 12.8792 11.0771 12.201 12.7351 12.201Z" fill="#1193AD"/>
</svg>