<svg width="31" height="31" viewBox="0 0 31 31" fill="none" xmlns="http://www.w3.org/2000/svg">
<path fill-rule="evenodd" clip-rule="evenodd" d="M15.6395 0.152832C23.9296 0.152832 30.6371 6.86028 30.6371 15.1504C30.6371 23.5159 23.9296 30.2234 15.6395 30.2234C7.27399 30.2234 0.566528 23.5159 0.566528 15.1504C0.566528 6.86028 7.27399 0.152832 15.6395 0.152832ZM15.6395 1.35867C23.2513 1.35867 29.4312 7.53856 29.4312 15.1504C29.4312 22.8376 23.2513 29.0175 15.6395 29.0175C7.95227 29.0175 1.77236 22.8376 1.77236 15.1504C1.77236 7.53856 7.95227 1.35867 15.6395 1.35867ZM16.8453 18.2404L16.0917 19.2955L16.6946 21.7072L17.7497 18.9186L16.8453 18.2404ZM14.4336 18.2404L15.1119 19.2955L14.5844 21.7072L13.5293 18.9186L14.4336 18.2404ZM7.0479 10.1763C6.89717 11.5329 6.97253 11.8344 7.19863 11.9851C7.34936 12.2112 7.42472 12.2112 7.42472 12.588C7.50008 13.0402 7.80155 13.8692 8.17837 14.246C8.55519 14.5475 8.70592 14.6229 8.70592 14.6229V15.6026C8.70592 15.6026 8.78129 15.9041 8.25373 16.0548C7.72618 16.2055 5.5406 16.5823 5.16378 17.0345C4.78696 17.4867 4.63623 18.165 4.41013 19.2955C4.18404 20.5013 4.03331 20.8781 4.56086 21.1796C4.86232 21.4057 5.99279 21.5564 7.12326 21.6318C7.12326 21.5564 7.19863 21.4811 7.19863 21.4057C7.34936 20.3506 7.57545 18.9186 8.3291 18.0143C8.40446 17.9389 8.55519 17.7882 8.70592 17.7128L8.63056 17.4114L9.30884 16.8084L9.6103 17.336C10.0625 17.1099 10.59 16.9592 11.1176 16.8838V16.8084V16.8838C11.7959 16.6577 12.3988 16.5823 12.851 16.4316C12.851 16.4316 12.851 16.4316 12.9263 16.4316L12.851 16.2055C12.5495 16.1302 12.3234 16.0548 12.1727 16.0548C11.6451 15.9041 11.7205 15.6026 11.7205 15.6026V14.6229C11.7205 14.6229 11.7959 14.6228 11.9466 14.4721C11.5698 13.9446 11.2683 13.1909 11.2683 12.6634C11.193 12.588 11.193 12.5127 11.193 12.4373C11.1176 12.3619 11.1176 12.2865 11.0422 12.2112C10.7408 11.9097 10.6654 11.6083 10.59 11.2315C10.59 10.5532 10.59 9.87488 10.6654 9.27196C10.6654 8.66904 10.8161 8.06613 11.0422 7.53857C9.68566 7.08639 7.19863 7.61393 7.0479 10.1763ZM24.2311 10.1763C24.3064 11.5329 24.2311 11.8344 24.0803 11.9851C23.8542 12.2112 23.7789 12.2112 23.7789 12.588C23.7035 13.0402 23.402 13.8692 23.0252 14.246C22.6484 14.5475 22.4977 14.6229 22.4977 14.6229V15.6026C22.4977 15.6026 22.4223 15.9041 22.9499 16.0548C23.4774 16.2055 25.663 16.5823 26.0398 17.0345C26.4166 17.4867 26.6427 18.165 26.7935 19.2955C27.0196 20.5013 27.1703 20.8781 26.7181 21.1796C26.4166 21.4057 25.2108 21.5564 24.0803 21.6318C24.0803 21.5564 24.0803 21.4811 24.005 21.4057C23.8542 20.3506 23.6281 18.9186 22.8745 18.0143C22.7991 17.9389 22.6484 17.7882 22.4977 17.7128L22.573 17.4114L21.8948 16.8084L21.5933 17.336C21.1411 17.1099 20.6136 16.9592 20.086 16.8838V16.8084V16.8838C19.4077 16.6577 18.8048 16.5823 18.428 16.4316C18.3526 16.4316 18.3526 16.4316 18.3526 16.4316V16.2055C18.6541 16.1302 18.8802 16.0548 19.0309 16.0548C19.5584 15.9041 19.4831 15.6026 19.4831 15.6026V14.6229C19.4831 14.6229 19.4077 14.6228 19.3324 14.4721C19.6338 13.9446 19.9353 13.1909 20.0106 12.6634C20.0106 12.588 20.0106 12.5127 20.0106 12.4373C20.086 12.3619 20.1614 12.2865 20.1614 12.2112C20.4628 11.9097 20.5382 11.6083 20.6136 11.2315C20.6889 10.5532 20.6136 9.87488 20.5382 9.27196C20.5382 8.66904 20.3875 8.06613 20.1614 7.53857C21.5179 7.08639 24.005 7.61393 24.2311 10.1763ZM11.3437 9.27196C11.193 11.1561 11.3437 11.5329 11.5698 11.759C11.7959 12.0605 11.8712 12.0604 11.9466 12.588C12.022 13.1156 12.3988 14.246 12.9263 14.6982C13.3785 15.1504 13.6046 15.3011 13.6046 15.3011V16.5824C13.6046 16.5824 13.68 16.9592 13.0017 17.1099C12.2481 17.336 9.3842 17.8636 8.85665 18.4665C8.40446 19.0694 8.103 19.9738 7.87691 21.5564C7.65081 23.0637 7.34935 23.5913 8.02764 24.0434C8.70592 24.4956 12.5495 24.7217 13.9061 24.7217C15.0366 24.7217 16.167 24.7217 17.2975 24.7217C18.6541 24.7217 22.4977 24.4956 23.176 24.0434C23.8542 23.5913 23.6281 23.0637 23.3267 21.5564C23.1006 19.9738 22.7991 19.0694 22.3469 18.4665C21.8194 17.8636 18.9555 17.336 18.2019 17.1099C17.5236 16.9592 17.599 16.5824 17.599 16.5824V15.3011C17.599 15.3011 17.8251 15.1504 18.2772 14.6982C18.8048 14.246 19.257 13.1156 19.257 12.588C19.3324 12.0604 19.4077 12.0605 19.6338 11.759C19.8599 11.5329 20.0106 11.1561 19.8599 9.27196C19.7845 8.44295 19.6338 7.68929 19.257 7.08638C18.9555 6.70955 18.428 6.55883 17.7497 6.55883C16.996 5.05153 11.6451 4.97617 11.3437 9.27196Z" fill="#1193AD"/>
</svg>