<svg width="31" height="31" viewBox="0 0 31 31" fill="none" xmlns="http://www.w3.org/2000/svg">
<path fill-rule="evenodd" clip-rule="evenodd" d="M15.6761 1.35867C23.2879 1.35867 29.4678 7.53856 29.4678 15.1504C29.4678 22.8376 23.2879 29.0175 15.6761 29.0175C7.9889 29.0175 1.80896 22.8376 1.80896 15.1504C1.80896 7.53856 7.9889 1.35867 15.6761 1.35867ZM15.6761 0.152832C23.9662 0.152832 30.6737 6.86028 30.6737 15.1504C30.6737 23.5159 23.9662 30.2234 15.6761 30.2234C7.31061 30.2234 0.603149 23.5159 0.603149 15.1504C0.603149 6.86028 7.31061 0.152832 15.6761 0.152832ZM9.19473 12.0604C10.0237 10.7039 11.0788 9.57341 12.4354 8.81976C13.7166 8.06611 15.1485 7.61394 16.6558 7.53857V5.50372H14.0181V4.75009H20.0472V5.50372H17.4095V7.53857C19.0675 7.61394 20.6501 8.1415 21.9313 9.04588L23.1372 7.84004L25.775 10.4778L24.5691 11.6836C25.5489 13.1156 26.0764 14.7736 26.0764 16.5824C26.0764 19.0694 25.0213 21.3303 23.4387 22.9883C21.7806 24.571 19.5197 25.6261 17.0327 25.6261C15.3746 25.6261 13.792 25.1739 12.4354 24.3449C11.0788 23.5913 10.0237 22.4608 9.19473 21.1042H6.10474V20.4259H9.6469C10.4005 21.7825 11.3803 22.913 12.8122 23.742C14.018 24.4957 15.45 24.8725 17.0327 24.8725C19.2936 24.8725 21.4038 23.9681 22.9111 22.4608C24.4184 20.9535 25.3228 18.8433 25.3228 16.5824C25.3228 14.3214 24.4184 12.2112 22.9111 10.7039C22.6097 10.4778 22.3836 10.1763 22.0821 9.95024V10.0256L21.4792 9.64878V9.57343C20.198 8.74441 18.6907 8.29221 17.0327 8.29221C15.45 8.29221 14.018 8.66905 12.8122 9.42269C11.3049 10.3271 10.5513 11.3068 9.6469 12.8141H6.10474V12.0604H9.19473ZM22.5343 9.42269C22.8357 9.64879 23.1372 9.95024 23.4387 10.1763C23.6648 10.4778 23.9662 10.7793 24.1923 11.0807L24.7952 10.4778L23.1372 8.89514L22.5343 9.42269ZM17.0327 8.9705C19.1429 8.9705 21.027 9.79951 22.4589 11.1561C23.8154 12.588 24.7198 14.4721 24.7198 16.5824C24.7198 18.6926 23.8154 20.652 22.4589 22.0086C21.027 23.3652 19.1429 24.2696 17.0327 24.2696C14.9225 24.2696 13.0383 23.3652 11.6064 22.0086C10.2498 20.652 9.34543 18.6926 9.34543 16.5824C9.34543 14.4721 10.2498 12.588 11.6064 11.1561C13.0383 9.79951 14.9225 8.9705 17.0327 8.9705ZM21.9313 11.6836C20.7255 10.4778 19.1428 9.72414 17.4095 9.64878V10.93H16.6558V9.64878C14.9224 9.72414 13.2644 10.4778 12.1339 11.6836C10.9281 12.8895 10.1744 14.4721 10.0991 16.2055H11.3803V16.9592H10.0991C10.1744 18.6926 10.9281 20.3506 12.1339 21.481C13.2644 22.6869 14.9224 23.4405 16.6558 23.5159V22.2347H17.4095V23.5159C19.1428 23.4405 20.7255 22.6869 21.9313 21.481C23.1372 20.3506 23.8908 18.6926 23.9662 16.9592H22.685V16.2055H23.9662C23.8908 14.4721 23.1372 12.8895 21.9313 11.6836ZM14.0934 15.9794L16.3544 18.165L21.1024 13.417L21.6299 13.9446L16.3544 19.1448L13.5659 16.507L14.0934 15.9794ZM5.2004 16.2055H8.5918V16.9592H5.2004V16.2055ZM5.65257 14.1707H8.96864V14.849H5.65257V14.1707ZM5.65257 18.3911H8.96864V19.0694H5.65257V18.3911Z" fill="#1193AD"/>
</svg>
