<svg width="31" height="31" viewBox="0 0 31 31" fill="none" xmlns="http://www.w3.org/2000/svg">
<path fill-rule="evenodd" clip-rule="evenodd" d="M15.5985 1.35867C23.2103 1.35867 29.3902 7.53856 29.3902 15.1504C29.3902 22.8376 23.2103 29.0175 15.5985 29.0175C7.91126 29.0175 1.73135 22.8376 1.73135 15.1504C1.73135 7.53856 7.91126 1.35867 15.5985 1.35867ZM15.5985 0.152832C23.8886 0.152832 30.596 6.86028 30.596 15.1504C30.596 23.5159 23.8886 30.2234 15.5985 30.2234C7.30834 30.2234 0.525513 23.5159 0.525513 15.1504C0.525513 6.86028 7.30834 0.152832 15.5985 0.152832ZM5.4242 7.68931H14.9202V10.7039L13.1868 8.9705H7.00686L12.3578 14.3214L13.3375 15.3011L12.3578 16.2809L7.00686 21.6318H13.1868L14.9202 19.8984V22.913H5.4242V21.0289L11.1519 15.3011L5.4242 9.57343V7.68931ZM16.8043 20.7274C16.8043 20.5013 16.8043 20.426 16.8043 20.3506C16.8043 19.8984 16.8043 19.4462 16.955 19.1448C17.0304 18.8433 17.2565 18.6172 17.4072 18.3157C17.5579 18.165 17.8594 17.8635 18.3116 17.4867C18.6884 17.1853 18.9899 16.8838 19.0652 16.6577C19.216 16.4316 19.2913 16.2055 19.2913 15.9794C19.2913 15.4519 19.0652 15.0751 18.7638 14.6982C18.3869 14.3968 17.9348 14.1707 17.4072 14.1707C16.8796 14.1707 16.5028 14.3214 16.126 14.6982C15.8246 14.9997 15.5985 15.4519 15.4477 16.2055L14.2419 16.0548C14.3926 15.1504 14.6941 14.3968 15.2216 13.9446C15.7492 13.4924 16.5028 13.1909 17.4072 13.1909C18.3116 13.1909 19.0652 13.4924 19.6681 14.0199C20.1957 14.4721 20.4972 15.1504 20.4972 15.8287C20.4972 16.2809 20.4218 16.6577 20.1957 17.0345C19.9696 17.4113 19.5928 17.8635 19.0652 18.3157C18.613 18.6926 18.3869 18.9186 18.3116 19.0694C18.1608 19.2955 18.0855 19.4462 18.0101 19.6723C17.9348 19.8984 17.9348 20.1999 17.9348 20.7274H16.8043ZM16.5782 23.0637V21.7072H17.9348V23.0637H16.5782ZM21.6276 19.4462C21.5523 19.1447 21.5523 18.994 21.5523 18.8433C21.5523 18.165 21.703 17.4867 21.9291 16.9592C22.0798 16.5823 22.3059 16.2055 22.6074 15.7533C22.9088 15.4519 23.361 14.9997 23.9639 14.4721C24.6422 13.8692 25.019 13.417 25.2451 13.1156C25.3959 12.7388 25.5466 12.3619 25.5466 11.9851C25.5466 11.2314 25.2451 10.6285 24.6422 10.101C24.1147 9.49806 23.4364 9.27196 22.6074 9.27196C21.7783 9.27196 21.1001 9.49804 20.5725 10.0256C20.045 10.4778 19.7435 11.3068 19.5928 12.3619L17.6333 12.1358C17.784 10.7039 18.3116 9.57341 19.216 8.81976C20.045 8.06611 21.1754 7.68931 22.532 7.68931C24.0393 7.68931 25.2451 8.1415 26.0742 8.89514C26.9785 9.72416 27.4307 10.7039 27.4307 11.8344C27.4307 12.5126 27.28 13.1156 26.9785 13.7185C26.6771 14.246 26.0741 14.9243 25.1698 15.7533C24.5668 16.2809 24.1147 16.6577 23.9639 16.9592C23.7378 17.1853 23.5871 17.4867 23.5118 17.7882C23.4364 18.165 23.361 18.6925 23.361 19.4462H21.6276ZM21.2508 23.1391V21.0289H23.361V23.1391H21.2508Z" fill="#1193AD"/>
</svg>
