<svg width="21" height="22" viewBox="0 0 21 22" fill="none" xmlns="http://www.w3.org/2000/svg">
<path fill-rule="evenodd" clip-rule="evenodd" d="M10.5641 0.905884C16.2164 0.905884 20.8137 5.50314 20.8137 11.1555C20.8137 16.8079 16.2164 21.4051 10.5641 21.4051C4.9117 21.4051 0.314453 16.8079 0.314453 11.1555C0.314453 5.50314 4.9117 0.905884 10.5641 0.905884ZM10.5641 1.7349C15.7642 1.7349 19.9847 5.95533 19.9847 11.1555C19.9847 16.3557 15.7642 20.5761 10.5641 20.5761C5.36389 20.5761 1.14346 16.3557 1.14346 11.1555C1.14346 5.95533 5.36389 1.7349 10.5641 1.7349ZM6.1929 5.6539L10.5641 10.1758L14.9352 5.6539L15.9903 6.63362L11.5438 11.1555L15.9903 15.6774L14.9352 16.6571L10.5641 12.1352L6.11754 16.6571L5.1378 15.6774L9.58432 11.1555L5.1378 6.63362L6.1929 5.6539Z" fill="#F5301E"/>
</svg>