<svg viewBox="0 0 115 115" fill="none" xmlns="http://www.w3.org/2000/svg">
<path fill-rule="evenodd" clip-rule="evenodd" d="M56.6248 30.0078C50.1755 21.2822 36.8975 17.1091 25.5164 19.3854C2.75408 24.3172 -4.07463 57.7019 2.37469 76.6705C9.58275 96.3978 35.3801 118.022 67.6267 114.608C100.253 111.193 115.807 78.9467 114.669 63.3925C113.91 47.8382 102.529 41.3889 90.0096 41.3889C72.1791 41.3889 69.1441 47.8382 56.6248 30.0078Z" fill="url(#paint0_linear)"/>
<g filter="url(#filter0_d)">
<path fill-rule="evenodd" clip-rule="evenodd" d="M58.9521 10.7605C75.265 10.7605 88.1637 24.0385 88.1637 39.9721C88.1637 52.112 80.5763 62.7344 69.9539 66.9075L72.6095 75.2537C72.9888 76.0124 72.6094 77.1505 71.8507 77.1505C71.092 77.5299 69.9539 77.1505 69.9539 76.3918L69.5744 75.633C66.1601 76.3918 62.7458 77.1505 58.9521 77.1505C58.5727 77.1505 57.8139 77.1505 57.4345 77.1505V81.3236C66.5395 81.703 74.1269 85.4967 78.2999 91.1873H33.1548C37.3279 85.4967 45.2947 81.703 54.3996 81.3236V76.7712C36.1898 74.4949 22.153 58.9407 22.153 39.9721C22.153 23.6591 32.7754 10.0017 47.1915 5.06991L46.8122 3.93179C46.8122 3.17304 47.1915 2.03494 47.9502 2.03494C48.709 1.65557 49.4677 2.03494 49.8471 2.79368L52.5027 11.5192C54.7789 11.1399 56.6758 10.7605 58.9521 10.7605ZM73.7475 37.3165C74.5063 36.9371 72.6093 35.0403 74.1268 33.5228C75.2649 32.3847 78.6794 35.0403 78.6794 35.799C79.0588 36.9371 80.5762 40.7309 81.7143 40.7309C82.0937 40.7309 85.8874 42.6277 87.0255 40.3515C88.1636 38.834 83.6112 42.2483 82.4731 38.4546C82.4731 38.4546 78.3 34.2815 81.335 35.0403C83.9906 35.4196 82.0937 32.764 80.9555 32.0053C80.1968 31.6259 78.6794 28.591 80.5762 29.7291C80.9556 28.9703 80.9555 25.556 80.1968 24.7972C78.6793 23.6591 79.0588 23.2797 76.7826 22.1416C74.5063 20.6241 75.6443 19.486 77.5412 20.6241C75.265 18.7273 76.4031 18.7273 72.9888 16.8304C71.8507 16.0717 71.0919 14.5542 68.0569 13.4161C66.5394 12.6573 65.7807 13.4161 64.2632 12.278C64.2632 12.278 61.2282 11.1399 61.2282 12.278C61.2282 14.5542 60.0901 12.278 60.0901 14.5542C60.0901 15.3129 58.952 14.1748 58.1933 16.0717C57.8139 16.0717 57.0551 14.9336 58.5726 14.5542C58.952 14.1748 60.8489 12.278 56.6758 12.278C54.7789 12.278 51.3646 12.278 49.8471 13.7955C49.4677 14.1748 46.8122 13.7955 43.3978 17.9686C43.3978 17.9686 38.0866 21.0035 40.7422 21.0035C40.7422 21.0035 41.8804 20.2448 44.1566 19.8654C44.536 19.8654 45.674 17.9685 47.1915 17.5892C48.3296 17.5892 47.9503 14.9336 49.4678 16.8304C49.8471 17.5892 51.3646 16.4511 52.8821 16.8304C53.2615 16.8304 55.5377 14.9336 55.5377 15.6923C55.5377 17.5892 56.2965 17.5892 54.3996 19.1067C53.6409 19.486 54.7789 16.8304 53.2614 17.5892C52.5027 18.3479 54.7789 18.7273 51.3646 21.0035C50.6058 21.7623 49.8471 23.2798 49.4678 21.0035C49.4678 20.2448 47.1915 21.0035 46.4327 22.1416C46.0533 22.9004 42.639 23.2797 44.5359 25.1766C45.674 26.3147 45.6741 23.6591 46.8122 24.0385C46.8122 24.0385 46.4328 27.8322 44.1566 26.6941C42.2597 25.9354 41.501 30.1084 41.501 26.6941C41.1216 25.9354 39.2247 24.7972 39.2247 29.7291C39.2247 32.764 36.9484 30.1084 36.9484 34.6609C39.9834 34.6609 39.6041 31.6259 41.8803 33.1434C44.5359 35.0403 42.2596 29.7291 43.7771 32.0053C44.9152 33.9022 44.5359 34.6609 46.0534 33.5228C47.1915 32.764 44.9153 35.0403 48.3297 35.0403C50.9853 35.0403 49.0883 37.3165 46.4327 37.6959C43.3977 38.4546 43.7772 40.3515 41.8803 37.3165C41.1216 35.799 41.1216 37.3165 38.8454 35.799C38.0867 35.4196 35.0517 36.9371 34.6723 39.2134C34.2929 41.1102 32.396 40.3515 33.9135 43.7658C36.1898 48.3183 32.7755 49.8358 38.8454 50.5945C39.9835 50.9739 41.8802 52.8707 42.2596 54.3882C42.639 56.6645 44.1565 55.5263 45.2946 58.9407C46.0534 60.0788 48.709 62.7344 49.8471 63.4931C52.1233 65.0106 52.8821 63.1138 55.5377 65.0106C56.6758 65.7694 57.0552 62.355 57.0552 61.9757C57.0552 58.5613 60.0901 61.2169 57.4345 57.4232C56.6758 56.2851 56.2965 54.3882 57.0552 53.2501C57.4346 52.4914 59.7108 48.3183 59.7108 47.9389C59.7108 45.6627 59.3314 46.4214 56.2965 46.4214C50.6059 46.4214 52.5027 43.3864 52.1234 42.2483C50.9852 40.7308 53.2615 44.5246 54.7789 44.1452C58.5727 44.1452 59.3314 43.3864 61.6076 40.3515C62.7458 38.834 56.2964 38.0752 61.2282 37.6959C62.3663 37.6959 61.6076 38.0752 63.5045 37.6959C65.022 36.9371 72.23 41.869 72.9888 40.3515C73.3681 39.9721 73.7475 38.0752 73.7475 37.3165ZM67.2983 68.0456C64.6427 68.8043 61.987 69.1837 58.9521 69.1837C43.0184 69.1837 29.7404 56.2851 29.7404 39.9721C29.7404 27.0735 38.0866 16.4511 49.4678 12.278L48.3297 7.72552C34.6723 12.278 25.188 25.1766 25.188 39.9721C25.188 58.9407 40.3628 74.1155 58.9521 74.1155C62.3664 74.1155 65.7807 73.3568 68.8157 72.5981L67.2983 68.0456ZM85.8874 32.0053C86.2668 30.8672 85.508 30.4878 85.1286 29.7291C84.7493 28.9703 83.2318 27.8322 82.4731 27.0735C82.0937 26.6941 81.335 27.4528 82.8525 28.9703C82.8525 28.9703 82.8524 29.3497 83.6111 30.1084C83.9905 30.1084 83.9905 31.2465 84.3699 31.6259C84.7493 32.0053 85.508 32.3847 85.8874 32.0053ZM85.5081 34.2815C84.7494 33.5228 84.7493 33.5228 84.3699 34.6609C84.3699 35.0403 85.1286 35.0403 84.3699 36.5578C84.3699 36.9371 83.6112 36.9371 83.9906 38.0752C83.9906 38.0752 85.1287 39.5927 85.8874 39.2134C87.0255 38.4546 86.6462 38.0752 86.6462 36.5578C86.6462 36.1784 85.5081 34.2815 85.5081 34.2815ZM61.9869 61.2169C60.0901 59.6994 61.2283 60.0788 60.8489 59.3201C60.8489 58.9407 60.0901 58.1819 60.8489 57.0438C60.8489 56.6645 61.9869 55.147 61.9869 55.147C62.3663 55.147 62.7457 56.2851 62.7457 56.6645C63.1251 57.0438 63.1252 57.8026 63.1252 57.8026C63.5045 58.9407 63.1251 59.3201 63.5045 60.0788C63.5045 60.4582 62.7457 60.4582 62.7457 61.2169C62.3663 61.5963 61.9869 61.2169 61.9869 61.2169Z" fill="#FEFEFE"/>
</g>
<defs>
<filter id="filter0_d" x="21.153" y="0.886108" width="70.0107" height="93.3011" filterUnits="userSpaceOnUse" color-interpolation-filters="sRGB">
<feFlood flood-opacity="0" result="BackgroundImageFix"/>
<feColorMatrix in="SourceAlpha" type="matrix" values="0 0 0 0 0 0 0 0 0 0 0 0 0 0 0 0 0 0 127 0"/>
<feOffset dx="1" dy="1"/>
<feGaussianBlur stdDeviation="1"/>
<feColorMatrix type="matrix" values="0 0 0 0 0 0 0 0 0 0 0 0 0 0 0 0 0 0 0.25 0"/>
<feBlend mode="normal" in2="BackgroundImageFix" result="effect1_dropShadow"/>
<feBlend mode="normal" in="SourceGraphic" in2="effect1_dropShadow" result="shape"/>
</filter>
<linearGradient id="paint0_linear" x1="39.1738" y1="52.7701" x2="144.26" y2="209.451" gradientUnits="userSpaceOnUse">
<stop stop-color="#F29E30"/>
<stop offset="1" stop-color="#935835"/>
</linearGradient>
</defs>
</svg>
