<svg viewBox="0 0 1515 398" fill="none" xmlns="http://www.w3.org/2000/svg">
<path fill-rule="evenodd" clip-rule="evenodd" d="M0 0V346.175C0 346.175 104.129 313.819 184.302 327.468C264.57 341.021 343.025 392.179 472.065 396.76C600.342 401.246 665.721 354.478 757.251 353.906C848.782 354.478 914.161 401.246 1042.44 396.76C1171.48 392.179 1249.93 341.021 1330.2 327.468C1410.37 313.819 1514.5 346.175 1514.5 346.175V0H0H0Z" fill="url(#paint0_linear)"/>
<path fill-rule="evenodd" clip-rule="evenodd" d="M1038.52 0C1184.65 84.5632 1150 137.057 1203.64 216.753C1281.43 332.526 1453.61 285.663 1514.5 269.342V0H1038.52Z" fill="#D3F5FC"/>
<path fill-rule="evenodd" clip-rule="evenodd" d="M1264.92 220.666C1271.22 229.447 1278.47 236.892 1286.11 242.236C1320.47 266.575 1387.56 272.778 1437 229.829C1456.85 212.553 1466.88 190.697 1470.5 169.222C1459.34 172.944 1445.88 176.189 1431.94 176.571C1397.3 177.525 1372.48 148.892 1372.48 148.892C1372.48 148.892 1351.48 180.293 1326.29 198.046C1300.99 215.703 1264.92 220.666 1264.92 220.666Z" fill="url(#paint1_linear)"/>
<path fill-rule="evenodd" clip-rule="evenodd" d="M1306.05 170.844C1307.29 165.309 1311.97 155.955 1328.39 148.511C1353.3 137.153 1369.62 133.812 1379.93 121.691C1387.28 113.196 1387.47 100.598 1386.89 93.9167C1367.81 81.2226 1344.99 84.7541 1344.9 84.7541L1343.37 84.9449L1323.33 56.4072L1323.9 55.071C1323.9 55.071 1324.38 54.1166 1324.47 51.3487C1324.47 51.2533 1324.38 51.2533 1324.38 51.1578L1280.47 81.8907C1280.47 81.9862 1280.57 82.0816 1280.67 82.0816C1283.24 82.9406 1284.29 82.8452 1284.29 82.8452L1285.72 82.7497L1305.77 111.287L1305 112.719C1304.91 112.815 1288.21 143.452 1306.05 170.844ZM1416.96 150.419C1418.87 135.339 1414.95 119.018 1404.46 104.129C1385.75 77.3094 1353.3 78.7411 1345.76 79.5046L1329.06 55.5482C1329.25 54.6892 1329.44 53.353 1329.53 51.635C1329.82 45.6221 1323.61 45.9084 1323.61 45.9084L1322.28 46.3856L1276.75 78.3593L1275.8 79.4092C1275.8 79.5046 1273.41 85.1358 1279.14 86.9493C1280.76 87.4265 1282.1 87.7128 1283.05 87.8083L1299.75 111.765C1296.51 118.541 1284.1 148.511 1302.81 175.235C1313.31 190.219 1327.34 199.573 1342.13 202.818C1375.06 210.167 1412.57 184.016 1416.96 150.419ZM1331.54 159.868C1334.88 157.482 1339.46 158.341 1341.84 161.586C1344.14 164.927 1343.37 169.604 1340.03 171.894C1336.69 174.28 1332.11 173.421 1329.72 170.081C1327.43 166.74 1328.2 162.159 1331.54 159.868ZM1373.34 174.471C1375.44 172.944 1378.4 173.517 1379.83 175.617C1381.26 177.716 1380.79 180.58 1378.69 182.011C1376.59 183.538 1373.72 182.966 1372.2 180.866C1370.76 178.766 1371.24 175.903 1373.34 174.471ZM1388.52 133.621C1390.62 132.19 1393.58 132.667 1395.01 134.767C1396.53 136.866 1395.96 139.73 1393.86 141.257C1391.76 142.688 1388.9 142.211 1387.37 140.111C1385.94 138.012 1386.42 135.148 1388.52 133.621Z" fill="#FEFEFE"/>
<defs>
<linearGradient id="paint0_linear" x1="781.876" y1="-218.471" x2="781.876" y2="568.845" gradientUnits="userSpaceOnUse">
<stop stop-color="#62D6ED"/>
<stop offset="1" stop-color="#FEFEFE"/>
</linearGradient>
<linearGradient id="paint1_linear" x1="1411.71" y1="255.885" x2="1344.52" y2="-17.4663" gradientUnits="userSpaceOnUse">
<stop stop-color="#5EC9E0"/>
<stop offset="1" stop-color="#0C5F69"/>
</linearGradient>
</defs>
</svg>