<svg viewBox="0 0 115 110" fill="none" xmlns="http://www.w3.org/2000/svg">
<path fill-rule="evenodd" clip-rule="evenodd" d="M56.402 24.9728C50.332 16.2473 37.054 11.6948 25.6728 14.3504C2.91052 19.2822 -4.29752 52.2876 2.53117 71.2562C9.73923 90.9835 35.1571 112.987 67.7831 109.573C100.03 106.158 115.963 73.9117 114.825 58.3575C113.687 42.4239 102.685 35.9746 90.166 35.9746C72.3355 35.9746 69.3006 42.8033 56.402 24.9728Z" fill="url(#paint0_linear)"/>
<g filter="url(#filter0_d)">
<path fill-rule="evenodd" clip-rule="evenodd" d="M31.3634 48.1144C33.2602 46.2175 37.8127 43.5619 46.5382 45.0794C60.1956 47.735 67.7831 51.1494 75.3705 48.8731C80.6817 47.735 84.4754 42.4238 85.9929 39.7682C82.1992 29.1458 71.5768 23.8346 71.5768 23.8346L70.818 23.4552V6.00415L71.5768 5.62477C71.5768 5.62477 71.9561 5.62478 72.7149 4.48666H46.1589C46.9176 5.62478 47.297 5.62477 47.297 5.62477L48.0557 6.00415V23.4552L47.297 23.8346C47.297 23.8346 31.7428 31.8014 31.3634 48.1144ZM82.1992 71.2561C87.5104 65.5655 90.5454 57.9781 90.5454 48.8731C90.5454 32.5602 76.888 23.8346 73.4736 21.9377V7.52163C73.853 7.14226 74.2324 6.76289 74.9911 6.00415C76.5086 3.72792 74.2324 1.83105 74.2324 1.83105H73.4736H45.7795H45.0208C45.0208 1.83105 42.3651 3.72792 44.262 6.00415C44.6414 6.76289 45.0208 7.14226 45.4001 7.52163V21.9377C42.3652 23.8346 28.7078 32.5602 28.7078 48.8731C28.7078 57.9781 31.7427 65.5655 36.6746 71.2561C48.0557 83.7754 70.818 83.7754 82.1992 71.2561ZM44.6414 50.77C46.9176 50.77 48.4351 52.2875 48.4351 54.5637C48.4351 56.4606 46.9176 57.9781 44.6414 57.9781C42.7445 57.9781 41.227 56.4606 41.227 54.5637C41.227 52.2875 42.7445 50.77 44.6414 50.77ZM57.54 68.6005C59.0575 68.6005 59.8163 69.7386 59.8163 70.8767C59.8163 72.3942 59.0575 73.1529 57.54 73.1529C56.4019 73.1529 55.2638 72.3942 55.2638 70.8767C55.2638 69.7386 56.4019 68.6005 57.54 68.6005ZM75.3705 56.4606C76.888 56.4606 77.6467 57.2193 77.6467 58.7368C77.6467 59.8749 76.888 61.013 75.3705 61.013C74.2324 61.013 73.0943 59.8749 73.0943 58.7368C73.0943 57.2193 74.2324 56.4606 75.3705 56.4606Z" fill="#FEFEFE"/>
</g>
<defs>
<filter id="filter0_d" x="27.7078" y="0.831055" width="65.8376" height="82.8145" filterUnits="userSpaceOnUse" color-interpolation-filters="sRGB">
<feFlood flood-opacity="0" result="BackgroundImageFix"/>
<feColorMatrix in="SourceAlpha" type="matrix" values="0 0 0 0 0 0 0 0 0 0 0 0 0 0 0 0 0 0 127 0"/>
<feOffset dx="1" dy="1"/>
<feGaussianBlur stdDeviation="1"/>
<feColorMatrix type="matrix" values="0 0 0 0 0 0 0 0 0 0 0 0 0 0 0 0 0 0 0.25 0"/>
<feBlend mode="normal" in2="BackgroundImageFix" result="effect1_dropShadow"/>
<feBlend mode="normal" in="SourceGraphic" in2="effect1_dropShadow" result="shape"/>
</filter>
<linearGradient id="paint0_linear" x1="26.8109" y1="37.4921" x2="136.829" y2="181.653" gradientUnits="userSpaceOnUse">
<stop stop-color="#5EC9E0"/>
<stop offset="1" stop-color="#0C5F69"/>
</linearGradient>
</defs>
</svg>
