<svg viewBox="0 0 115 121" fill="none" xmlns="http://www.w3.org/2000/svg">
<path fill-rule="evenodd" clip-rule="evenodd" d="M56.5134 35.8015C50.0641 27.0759 36.7861 22.9028 25.4049 25.1791C2.64261 30.1109 -4.1861 63.4956 2.64259 82.4642C9.85065 102.192 35.2686 123.816 67.8946 120.401C100.141 116.987 115.695 84.7404 114.937 69.1862C113.799 53.6319 102.417 47.1826 90.2775 47.1826C72.447 47.1826 69.412 53.6319 56.5134 35.8015Z" fill="url(#paint0_linear)"/>
<g filter="url(#filter0_d)">
<path fill-rule="evenodd" clip-rule="evenodd" d="M73.2568 41.9722C73.2568 41.9722 63.3931 37.7991 62.6343 30.2117C61.8756 22.6242 65.6693 16.5543 66.0487 10.4843C66.8074 4.41438 64.1518 1.37939 64.1518 1.37939C64.1518 1.37939 81.9823 6.6906 87.2935 21.1067C92.6047 35.9022 81.9822 41.2134 80.4648 41.5928C78.9473 41.9722 78.9473 41.9722 78.9473 41.9722C78.9473 41.9722 82.741 30.2116 78.9473 22.6242C75.533 15.0368 73.2568 13.1399 73.2568 13.1399C73.2568 13.1399 79.3266 26.0385 77.4298 34.3847C75.5329 42.7309 73.2568 41.9722 73.2568 41.9722ZM21.2828 29.4529L31.5259 40.0753C34.5608 37.4197 38.3545 35.5228 42.5276 34.3847C48.2182 32.4879 50.115 40.4547 45.9419 41.5928C42.5276 42.3515 39.4926 43.869 37.2164 45.7659L50.1151 59.0439L52.3913 56.7677L57.3231 61.6995C57.7025 60.182 58.8406 57.9058 60.7375 55.6295C63.0137 53.7327 64.9106 52.9739 66.4281 52.9739L61.4962 48.0421L63.7725 45.7659L34.9402 15.7955L32.664 18.0718L28.1115 13.8987C28.1115 15.4161 27.3528 17.313 25.0765 19.5892C22.8003 21.4861 20.5241 22.2448 19.0066 22.2448L23.559 26.7973L21.2828 29.4529ZM67.5662 54.4914C67.5662 54.4914 64.5312 52.974 61.4962 56.3883C58.0818 59.4233 58.4612 63.217 58.4612 63.217C58.4612 63.217 61.8756 63.9757 65.2899 60.9408C69.0836 57.9058 67.5662 54.4914 67.5662 54.4914ZM26.9734 12.3812C26.9734 12.3812 23.9384 10.8637 20.524 14.278C17.4891 17.6924 17.8684 21.1067 17.8684 21.1067C17.8684 21.1067 20.9034 21.8655 24.6971 18.8305C28.1115 15.7955 26.9734 12.3812 26.9734 12.3812ZM41.3895 82.1855V79.53C31.9052 76.8744 24.6971 68.1488 24.6971 57.5264C24.6971 46.5246 32.6639 37.0403 43.2864 35.1435C44.8038 34.7641 46.3213 35.5228 47.0801 37.0403C47.8388 38.5578 47.0801 40.834 45.1833 40.834C37.2164 41.9722 30.7671 49.1802 30.7671 57.5264C30.7671 65.8726 36.8371 72.7013 44.4245 74.2188C44.8039 73.8394 45.1832 73.46 45.9419 73.46C44.0451 73.0806 42.907 72.7013 42.907 72.7013C45.1832 70.0457 50.4945 70.8044 51.6326 74.2188H75.1536C76.6711 74.2188 77.8092 75.3569 77.8092 76.8744C77.8092 78.3919 76.6711 79.53 75.1536 79.53H52.0119V82.1855H91.0872C91.8459 82.1855 92.2253 82.5649 92.2253 83.3237V89.3936C92.2253 90.1524 91.8459 90.5317 91.0872 90.5317H24.6971C23.9384 90.5317 23.559 90.1524 23.559 89.3936V83.3237C23.559 82.5649 23.9384 82.1855 24.6971 82.1855H41.3895ZM44.8039 77.6331V78.0125V78.3919H45.1833V78.7712H45.5626V79.1506H45.9419H46.3213V79.53H46.7007C48.2182 79.53 48.9769 78.3919 48.9769 77.2537V76.8744V76.495V76.1156H48.5976V75.7363H48.2182V75.3569H47.8388C47.4595 74.9775 47.0801 74.9775 46.7007 74.9775C45.5626 74.9775 44.8039 76.1156 44.8039 77.2537C44.8039 77.2537 44.8039 77.2537 44.8039 77.6331ZM44.0451 35.9022C45.1832 35.9022 46.3213 36.661 46.3213 38.1785C46.3213 39.3166 45.1832 40.4547 44.0451 40.4547C42.907 40.4547 41.7689 39.3166 41.7689 38.1785C41.7689 36.661 42.907 35.9022 44.0451 35.9022ZM76.6711 41.5928C76.6711 41.5928 75.533 44.2484 73.2568 46.5246C70.9805 49.1802 69.8424 49.5596 69.8424 49.5596L73.2568 50.6977C73.2568 50.6977 76.2917 46.1453 76.6711 41.5928Z" fill="#FEFEFE"/>
</g>
<defs>
<filter id="filter0_d" x="16.8533" y="0.379395" width="78.3721" height="93.1523" filterUnits="userSpaceOnUse" color-interpolation-filters="sRGB">
<feFlood flood-opacity="0" result="BackgroundImageFix"/>
<feColorMatrix in="SourceAlpha" type="matrix" values="0 0 0 0 0 0 0 0 0 0 0 0 0 0 0 0 0 0 127 0"/>
<feOffset dx="1" dy="1"/>
<feGaussianBlur stdDeviation="1"/>
<feColorMatrix type="matrix" values="0 0 0 0 0 0 0 0 0 0 0 0 0 0 0 0 0 0 0.25 0"/>
<feBlend mode="normal" in2="BackgroundImageFix" result="effect1_dropShadow"/>
<feBlend mode="normal" in="SourceGraphic" in2="effect1_dropShadow" result="shape"/>
</filter>
<linearGradient id="paint0_linear" x1="26.543" y1="48.3207" x2="136.94" y2="192.861" gradientUnits="userSpaceOnUse">
<stop stop-color="#A9CF45"/>
<stop offset="1" stop-color="#425837"/>
</linearGradient>
</defs>
</svg>
