<svg viewBox="0 0 468 240" fill="none" xmlns="http://www.w3.org/2000/svg">
<path fill-rule="evenodd" clip-rule="evenodd" d="M457.102 184.32L452.184 195.361L453.452 197.579H25.3434V199.721H453.452L467.163 181.258V179.432L457.102 184.32Z" fill="#BDBFC1"/>
<path d="M12.6851 190.466C12.6851 189.487 12.7849 188.7 12.9846 188.105C13.1879 187.506 13.4873 187.045 13.8828 186.721C14.282 186.397 14.7829 186.235 15.3855 186.235C15.8299 186.235 16.2197 186.325 16.5549 186.506C16.8901 186.683 17.1669 186.941 17.3853 187.28C17.6038 187.615 17.7751 188.026 17.8994 188.511C18.0237 188.994 18.0858 189.645 18.0858 190.466C18.0858 191.438 17.986 192.223 17.7864 192.822C17.5868 193.417 17.2874 193.878 16.8882 194.206C16.4927 194.53 15.9918 194.692 15.3855 194.692C14.5871 194.692 13.96 194.406 13.5043 193.833C12.9582 193.144 12.6851 192.022 12.6851 190.466ZM13.7303 190.466C13.7303 191.826 13.8884 192.731 14.2048 193.183C14.5249 193.632 14.9185 193.856 15.3855 193.856C15.8525 193.856 16.2442 193.63 16.5605 193.178C16.8807 192.726 17.0407 191.822 17.0407 190.466C17.0407 189.103 16.8807 188.197 16.5605 187.749C16.2442 187.301 15.8487 187.077 15.3742 187.077C14.9072 187.077 14.5343 187.274 14.2556 187.67C13.9054 188.174 13.7303 189.107 13.7303 190.466Z" fill="#373435"/>
<path d="M11.2565 147.159V148.136H5.78238C5.77485 147.891 5.8144 147.656 5.90102 147.43C6.04037 147.057 6.26257 146.69 6.56763 146.328C6.87646 145.967 7.32086 145.549 7.90085 145.074C8.80097 144.336 9.4092 143.752 9.72556 143.323C10.0419 142.89 10.2001 142.481 10.2001 142.097C10.2001 141.694 10.0551 141.355 9.76511 141.08C9.47888 140.801 9.10415 140.662 8.64091 140.662C8.1513 140.662 7.75962 140.809 7.46586 141.103C7.1721 141.396 7.02334 141.803 7.01957 142.323L5.97446 142.216C6.04601 141.436 6.3153 140.843 6.7823 140.436C7.24931 140.026 7.87637 139.82 8.6635 139.82C9.45817 139.82 10.0871 140.041 10.5504 140.481C11.0136 140.922 11.2452 141.468 11.2452 142.12C11.2452 142.451 11.1774 142.777 11.0418 143.097C10.9063 143.417 10.6803 143.754 10.3639 144.108C10.0513 144.462 9.52972 144.948 8.79909 145.566C8.18897 146.078 7.79728 146.426 7.62404 146.611C7.4508 146.791 7.30768 146.974 7.1947 147.159H11.2565ZM12.3525 145.967L13.4202 145.876C13.4993 146.396 13.6819 146.788 13.9682 147.051C14.2581 147.311 14.6065 147.441 15.0133 147.441C15.5029 147.441 15.9171 147.257 16.2561 146.888C16.5951 146.518 16.7645 146.029 16.7645 145.419C16.7645 144.839 16.6007 144.381 16.2731 144.046C15.9492 143.711 15.5236 143.543 14.9963 143.543C14.6687 143.543 14.373 143.618 14.1094 143.769C13.8458 143.916 13.6386 144.108 13.488 144.345L12.5332 144.221L13.3354 139.967H17.4537V140.939H14.1489L13.7026 143.165C14.1998 142.818 14.7214 142.645 15.2675 142.645C15.9906 142.645 16.6007 142.895 17.0978 143.396C17.595 143.897 17.8435 144.541 17.8435 145.328C17.8435 146.078 17.6251 146.726 17.1882 147.272C16.6572 147.942 15.9322 148.277 15.0133 148.277C14.26 148.277 13.6443 148.066 13.166 147.645C12.6914 147.223 12.4203 146.663 12.3525 145.967Z" fill="#373435"/>
<path d="M5.91232 101.543L6.98002 101.453C7.05911 101.973 7.24177 102.364 7.528 102.628C7.818 102.888 8.16637 103.018 8.57312 103.018C9.06272 103.018 9.477 102.833 9.81595 102.464C10.1549 102.095 10.3244 101.605 10.3244 100.995C10.3244 100.415 10.1606 99.9578 9.8329 99.6226C9.50901 99.2874 9.08343 99.1198 8.55617 99.1198C8.22851 99.1198 7.93287 99.1951 7.66923 99.3458C7.4056 99.4927 7.19846 99.6847 7.04782 99.922L6.09309 99.7977L6.89529 95.5438H11.0136V96.5155H7.70878L7.26249 98.7413C7.75962 98.3948 8.28124 98.2216 8.82733 98.2216C9.55044 98.2216 10.1606 98.472 10.6577 98.9729C11.1548 99.4738 11.4034 100.118 11.4034 100.905C11.4034 101.654 11.185 102.302 10.7481 102.848C10.217 103.519 9.49206 103.854 8.57312 103.854C7.81988 103.854 7.20411 103.643 6.72581 103.221C6.25127 102.799 5.98011 102.24 5.91232 101.543ZM12.3525 99.6282C12.3525 98.649 12.4523 97.8619 12.6519 97.2668C12.8553 96.668 13.1547 96.2067 13.5501 95.8828C13.9493 95.5589 14.4502 95.3969 15.0528 95.3969C15.4972 95.3969 15.887 95.4873 16.2222 95.6681C16.5574 95.8451 16.8342 96.1031 17.0526 96.4421C17.2711 96.7772 17.4424 97.1878 17.5667 97.6736C17.691 98.1557 17.7532 98.8072 17.7532 99.6282C17.7532 100.6 17.6534 101.385 17.4537 101.984C17.2541 102.579 16.9547 103.04 16.5555 103.368C16.1601 103.692 15.6592 103.854 15.0528 103.854C14.2544 103.854 13.6273 103.568 13.1716 102.995C12.6255 102.306 12.3525 101.184 12.3525 99.6282ZM13.3976 99.6282C13.3976 100.988 13.5558 101.894 13.8721 102.346C14.1922 102.794 14.5858 103.018 15.0528 103.018C15.5198 103.018 15.9115 102.792 16.2279 102.34C16.548 101.888 16.708 100.984 16.708 99.6282C16.708 98.2649 16.548 97.3591 16.2279 96.9109C15.9115 96.4628 15.516 96.2387 15.0415 96.2387C14.5745 96.2387 14.2017 96.4364 13.923 96.8319C13.5727 97.3365 13.3976 98.2686 13.3976 99.6282Z" fill="#373435"/>
<path d="M5.98011 50.6442V49.6668H11.3413V50.4577C10.814 51.0189 10.2905 51.7646 9.77076 52.6948C9.25479 53.6251 8.85558 54.5817 8.57312 55.5647C8.36974 56.2576 8.23981 57.0165 8.18332 57.8413H7.1382C7.1495 57.1898 7.27755 56.4026 7.52235 55.4799C7.76715 54.5572 8.11741 53.6684 8.57312 52.8135C9.03259 51.9548 9.52031 51.2317 10.0363 50.6442H5.98011ZM12.3525 55.672L13.4202 55.5816C13.4993 56.1013 13.6819 56.493 13.9682 56.7567C14.2581 57.0165 14.6065 57.1465 15.0133 57.1465C15.5029 57.1465 15.9171 56.9619 16.2561 56.5928C16.5951 56.2237 16.7645 55.7341 16.7645 55.124C16.7645 54.544 16.6007 54.0864 16.2731 53.7512C15.9492 53.4161 15.5236 53.2485 14.9963 53.2485C14.6687 53.2485 14.373 53.3238 14.1094 53.4744C13.8458 53.6213 13.6386 53.8134 13.488 54.0507L12.5332 53.9264L13.3354 49.6725H17.4537V50.6442H14.1489L13.7026 52.87C14.1998 52.5235 14.7214 52.3502 15.2675 52.3502C15.9906 52.3502 16.6007 52.6007 17.0978 53.1016C17.595 53.6025 17.8435 54.2465 17.8435 55.0336C17.8435 55.7831 17.6251 56.4309 17.1882 56.977C16.6572 57.6474 15.9322 57.9825 15.0133 57.9825C14.26 57.9825 13.6443 57.7716 13.166 57.3498C12.6914 56.928 12.4203 56.3687 12.3525 55.672Z" fill="#373435"/>
<path fill-rule="evenodd" clip-rule="evenodd" d="M37.9539 179.432H467.163L453.452 197.579H25.3434L37.9539 179.432Z" fill="#E6E7E8"/>
<path fill-rule="evenodd" clip-rule="evenodd" d="M45.8883 26.1908V28.9663L74.0206 27.669L82.6187 21.3035V18.1357H56.3116L45.8883 26.1908Z" fill="#55BC85"/>
<path fill-rule="evenodd" clip-rule="evenodd" d="M45.8883 26.1908H74.0206V190.082H45.8883V26.1908Z" fill="#00A859"/>
<path fill-rule="evenodd" clip-rule="evenodd" d="M82.6187 18.1357L74.0206 26.1908V190.082L82.6187 182.027V18.1357Z" fill="#127E4A"/>
<path fill-rule="evenodd" clip-rule="evenodd" d="M130.662 163.654V166.43L158.779 165.132L167.377 158.782V155.599H141.085L130.662 163.654Z" fill="#49639A"/>
<path fill-rule="evenodd" clip-rule="evenodd" d="M130.662 163.654H158.779V190.082H130.662V163.654Z" fill="#567ECD"/>
<path fill-rule="evenodd" clip-rule="evenodd" d="M167.377 155.599L158.779 163.654V190.082L167.377 182.027V155.599Z" fill="#375082"/>
<path fill-rule="evenodd" clip-rule="evenodd" d="M88.1244 117.33V120.106L116.242 118.809L124.855 112.458V109.275H98.5477L88.1244 117.33Z" fill="#F55E51"/>
<path fill-rule="evenodd" clip-rule="evenodd" d="M88.1244 117.33H116.242V190.082H88.1244V117.33Z" fill="#F5301E"/>
<path fill-rule="evenodd" clip-rule="evenodd" d="M124.855 109.275L116.242 117.33V190.082L124.855 182.027V109.275Z" fill="#CF3021"/>
<path fill-rule="evenodd" clip-rule="evenodd" d="M25.3434 144.814H455.835V145.583H25.3434V144.814Z" fill="#96989A"/>
<path fill-rule="evenodd" clip-rule="evenodd" d="M25.3434 53.0862H455.835V53.8705H25.3434V53.0862Z" fill="#96989A"/>
<path fill-rule="evenodd" clip-rule="evenodd" d="M25.3434 98.9425H455.835V99.7269H25.3434V98.9425Z" fill="#96989A"/>
<path fill-rule="evenodd" clip-rule="evenodd" d="M25.3434 190.082H455.835V191.379H25.3434V190.082Z" fill="#96989A"/>
<path d="M88.429 212.496V204.69H94.0737V205.611H89.462V208.002H93.7808V208.918H89.462V211.575H94.2547V212.496H88.429ZM99.2497 211.799C98.8947 212.1 98.5521 212.314 98.222 212.438C97.8954 212.562 97.5439 212.624 97.1676 212.624C96.5463 212.624 96.0688 212.473 95.7351 212.172C95.4014 211.866 95.2345 211.477 95.2345 211.005C95.2345 210.728 95.2967 210.476 95.4209 210.249C95.5487 210.018 95.7138 209.834 95.9162 209.695C96.1221 209.557 96.3528 209.452 96.6084 209.381C96.7966 209.331 97.0806 209.283 97.4605 209.237C98.2344 209.145 98.8042 209.035 99.1698 208.907C99.1734 208.776 99.1752 208.692 99.1752 208.657C99.1752 208.266 99.0846 207.991 98.9036 207.831C98.6586 207.615 98.2947 207.507 97.8119 207.507C97.3611 207.507 97.0274 207.587 96.8108 207.746C96.5978 207.902 96.4398 208.181 96.3369 208.582L95.3996 208.455C95.4848 208.053 95.6251 207.73 95.8203 207.485C96.0156 207.237 96.2978 207.047 96.667 206.916C97.0362 206.781 97.464 206.713 97.9504 206.713C98.4332 206.713 98.8255 206.77 99.1272 206.884C99.429 206.997 99.6509 207.141 99.7929 207.315C99.9349 207.485 100.034 207.702 100.091 207.965C100.123 208.128 100.139 208.423 100.139 208.849V210.127C100.139 211.018 100.159 211.582 100.198 211.82C100.24 212.054 100.322 212.28 100.443 212.496H99.4414C99.342 212.298 99.2781 212.065 99.2497 211.799ZM99.1698 209.658C98.8219 209.8 98.3001 209.921 97.6042 210.02C97.2102 210.077 96.9315 210.141 96.7682 210.212C96.6049 210.283 96.4789 210.388 96.3901 210.526C96.3014 210.661 96.257 210.812 96.257 210.979C96.257 211.234 96.3528 211.447 96.5445 211.618C96.7398 211.788 97.0238 211.873 97.3966 211.873C97.7658 211.873 98.0942 211.793 98.3817 211.634C98.6693 211.47 98.8805 211.248 99.0154 210.968C99.1184 210.751 99.1698 210.432 99.1698 210.009V209.658ZM101.247 210.808L102.195 210.659C102.248 211.039 102.395 211.33 102.637 211.532C102.881 211.735 103.222 211.836 103.659 211.836C104.099 211.836 104.426 211.747 104.639 211.57C104.852 211.389 104.958 211.177 104.958 210.936C104.958 210.72 104.864 210.549 104.676 210.425C104.545 210.34 104.218 210.231 103.696 210.1C102.993 209.923 102.505 209.77 102.232 209.642C101.962 209.511 101.756 209.331 101.614 209.104C101.476 208.873 101.406 208.62 101.406 208.343C101.406 208.091 101.463 207.858 101.577 207.645C101.694 207.429 101.852 207.249 102.051 207.107C102.2 206.997 102.402 206.905 102.658 206.83C102.917 206.752 103.194 206.713 103.489 206.713C103.932 206.713 104.321 206.777 104.655 206.905C104.992 207.033 105.241 207.207 105.4 207.427C105.56 207.643 105.67 207.934 105.73 208.3L104.793 208.428C104.751 208.137 104.626 207.91 104.42 207.746C104.218 207.583 103.931 207.501 103.558 207.501C103.118 207.501 102.803 207.574 102.615 207.72C102.427 207.865 102.333 208.036 102.333 208.231C102.333 208.355 102.372 208.467 102.45 208.566C102.528 208.669 102.651 208.755 102.818 208.822C102.913 208.857 103.196 208.939 103.664 209.067C104.342 209.248 104.815 209.397 105.081 209.514C105.351 209.628 105.562 209.795 105.714 210.015C105.867 210.235 105.943 210.508 105.943 210.835C105.943 211.154 105.849 211.456 105.661 211.74C105.477 212.021 105.209 212.239 104.857 212.395C104.506 212.548 104.108 212.624 103.664 212.624C102.929 212.624 102.369 212.471 101.982 212.166C101.598 211.861 101.353 211.408 101.247 210.808ZM107.04 214.674L106.934 213.774C107.143 213.831 107.326 213.86 107.482 213.86C107.695 213.86 107.866 213.824 107.994 213.753C108.121 213.682 108.226 213.583 108.308 213.455C108.368 213.359 108.466 213.121 108.601 212.741C108.618 212.688 108.647 212.61 108.686 212.507L106.54 206.841H107.573L108.75 210.116C108.902 210.531 109.039 210.968 109.16 211.426C109.27 210.986 109.401 210.556 109.554 210.137L110.763 206.841H111.721L109.57 212.592C109.339 213.213 109.16 213.641 109.032 213.876C108.862 214.192 108.666 214.422 108.446 214.568C108.226 214.717 107.963 214.791 107.658 214.791C107.474 214.791 107.268 214.752 107.04 214.674Z" fill="#373435"/>
<path d="M220.952 213.371V205.565H222.507L224.355 211.092C224.525 211.607 224.649 211.992 224.727 212.248C224.816 211.964 224.955 211.546 225.143 210.996L227.012 205.565H228.402V213.371H227.406V206.837L225.137 213.371H224.206L221.948 206.725V213.371H220.952ZM233.818 211.55L234.808 211.672C234.652 212.251 234.362 212.7 233.94 213.02C233.518 213.339 232.978 213.499 232.321 213.499C231.494 213.499 230.837 213.245 230.351 212.738C229.868 212.226 229.627 211.511 229.627 210.591C229.627 209.64 229.872 208.902 230.361 208.376C230.851 207.851 231.487 207.588 232.268 207.588C233.024 207.588 233.642 207.845 234.121 208.36C234.6 208.875 234.84 209.599 234.84 210.533C234.84 210.59 234.838 210.675 234.835 210.789H230.617C230.653 211.41 230.828 211.885 231.144 212.216C231.46 212.546 231.854 212.711 232.326 212.711C232.678 212.711 232.978 212.619 233.226 212.434C233.475 212.249 233.672 211.955 233.818 211.55ZM230.67 210H233.828C233.786 209.525 233.665 209.168 233.466 208.93C233.161 208.561 232.765 208.376 232.279 208.376C231.838 208.376 231.467 208.524 231.166 208.818C230.867 209.113 230.702 209.507 230.67 210ZM239.686 213.371V212.658C239.327 213.219 238.8 213.499 238.104 213.499C237.653 213.499 237.238 213.375 236.858 213.126C236.482 212.878 236.189 212.532 235.98 212.088C235.774 211.641 235.671 211.128 235.671 210.549C235.671 209.984 235.765 209.473 235.953 209.015C236.141 208.554 236.423 208.2 236.8 207.956C237.176 207.711 237.597 207.588 238.062 207.588C238.402 207.588 238.706 207.661 238.972 207.806C239.239 207.948 239.455 208.135 239.622 208.366V205.565H240.575V213.371H239.686ZM236.656 210.549C236.656 211.273 236.808 211.814 237.114 212.173C237.419 212.532 237.779 212.711 238.195 212.711C238.614 212.711 238.969 212.54 239.26 212.2C239.555 211.855 239.702 211.332 239.702 210.629C239.702 209.855 239.553 209.287 239.255 208.925C238.956 208.563 238.589 208.382 238.152 208.382C237.726 208.382 237.369 208.555 237.082 208.903C236.798 209.251 236.656 209.8 236.656 210.549ZM242.093 206.667V205.565H243.051V206.667H242.093ZM242.093 213.371V207.716H243.051V213.371H242.093ZM248.222 213.371V212.54C247.782 213.18 247.184 213.499 246.428 213.499C246.094 213.499 245.781 213.435 245.49 213.307C245.203 213.18 244.988 213.02 244.846 212.828C244.708 212.633 244.61 212.395 244.553 212.114C244.514 211.926 244.494 211.628 244.494 211.22V207.716H245.453V210.852C245.453 211.353 245.473 211.69 245.512 211.864C245.572 212.116 245.7 212.315 245.895 212.461C246.09 212.603 246.332 212.674 246.619 212.674C246.907 212.674 247.177 212.601 247.429 212.455C247.681 212.306 247.858 212.106 247.961 211.854C248.068 211.598 248.121 211.229 248.121 210.746V207.716H249.079V213.371H248.222ZM250.587 213.371V207.716H251.444V208.509C251.621 208.232 251.857 208.011 252.152 207.844C252.447 207.673 252.782 207.588 253.159 207.588C253.577 207.588 253.92 207.675 254.186 207.849C254.456 208.023 254.646 208.266 254.756 208.579C255.203 207.918 255.786 207.588 256.503 207.588C257.064 207.588 257.495 207.744 257.797 208.057C258.099 208.366 258.249 208.843 258.249 209.489V213.371H257.296V209.809C257.296 209.425 257.264 209.15 257.2 208.983C257.14 208.813 257.028 208.676 256.865 208.573C256.702 208.47 256.51 208.419 256.29 208.419C255.892 208.419 255.562 208.552 255.299 208.818C255.037 209.081 254.905 209.503 254.905 210.086V213.371H253.947V209.697C253.947 209.271 253.869 208.951 253.712 208.738C253.556 208.525 253.301 208.419 252.946 208.419C252.676 208.419 252.425 208.49 252.195 208.632C251.967 208.774 251.802 208.981 251.699 209.255C251.597 209.528 251.545 209.922 251.545 210.437V213.371H250.587Z" fill="#373435"/>
<path d="M371.24 213.371V205.565H372.273V208.77H376.331V205.565H377.364V213.371H376.331V209.692H372.273V213.371H371.24ZM382.658 212.674C382.303 212.975 381.96 213.188 381.63 213.313C381.303 213.437 380.952 213.499 380.575 213.499C379.954 213.499 379.477 213.348 379.143 213.046C378.809 212.741 378.642 212.352 378.642 211.88C378.642 211.603 378.705 211.351 378.829 211.124C378.957 210.893 379.122 210.709 379.324 210.57C379.53 210.432 379.761 210.327 380.016 210.256C380.204 210.206 380.488 210.158 380.868 210.112C381.642 210.02 382.212 209.91 382.578 209.782C382.581 209.651 382.583 209.567 382.583 209.532C382.583 209.141 382.492 208.866 382.311 208.706C382.066 208.49 381.703 208.382 381.22 208.382C380.769 208.382 380.435 208.461 380.219 208.621C380.006 208.777 379.848 209.056 379.745 209.457L378.807 209.329C378.893 208.928 379.033 208.605 379.228 208.36C379.423 208.112 379.706 207.922 380.075 207.79C380.444 207.656 380.872 207.588 381.358 207.588C381.841 207.588 382.233 207.645 382.535 207.758C382.837 207.872 383.059 208.016 383.201 208.19C383.343 208.36 383.442 208.577 383.499 208.839C383.531 209.003 383.547 209.297 383.547 209.723V211.002C383.547 211.893 383.566 212.457 383.605 212.695C383.648 212.929 383.73 213.155 383.85 213.371H382.849C382.75 213.172 382.686 212.94 382.658 212.674ZM382.578 210.533C382.23 210.675 381.708 210.796 381.012 210.895C380.618 210.952 380.339 211.016 380.176 211.087C380.013 211.158 379.887 211.262 379.798 211.401C379.709 211.536 379.665 211.687 379.665 211.854C379.665 212.109 379.761 212.322 379.952 212.493C380.148 212.663 380.432 212.748 380.804 212.748C381.174 212.748 381.502 212.668 381.79 212.509C382.077 212.345 382.288 212.123 382.423 211.843C382.526 211.626 382.578 211.307 382.578 210.884V210.533ZM385.027 213.371V207.716H385.89V208.573C386.11 208.172 386.312 207.908 386.497 207.78C386.685 207.652 386.891 207.588 387.115 207.588C387.438 207.588 387.766 207.691 388.1 207.897L387.77 208.786C387.535 208.648 387.301 208.579 387.067 208.579C386.857 208.579 386.669 208.642 386.502 208.77C386.336 208.895 386.217 209.068 386.146 209.292C386.039 209.633 385.986 210.006 385.986 210.41V213.371H385.027ZM392.339 213.371V212.658C391.98 213.219 391.453 213.499 390.757 213.499C390.306 213.499 389.891 213.375 389.511 213.126C389.135 212.878 388.842 212.532 388.632 212.088C388.427 211.641 388.324 211.128 388.324 210.549C388.324 209.984 388.418 209.473 388.606 209.015C388.794 208.554 389.076 208.2 389.453 207.956C389.829 207.711 390.25 207.588 390.715 207.588C391.055 207.588 391.359 207.661 391.625 207.806C391.891 207.948 392.108 208.135 392.275 208.366V205.565H393.228V213.371H392.339ZM389.309 210.549C389.309 211.273 389.461 211.814 389.767 212.173C390.072 212.532 390.432 212.711 390.848 212.711C391.267 212.711 391.622 212.54 391.913 212.2C392.207 211.855 392.355 211.332 392.355 210.629C392.355 209.855 392.206 209.287 391.907 208.925C391.609 208.563 391.242 208.382 390.805 208.382C390.379 208.382 390.022 208.555 389.735 208.903C389.451 209.251 389.309 209.8 389.309 210.549Z" fill="#373435"/>
<path fill-rule="evenodd" clip-rule="evenodd" d="M25.3434 7.22974H455.835V8.01415H25.3434V7.22974Z" fill="#96989A"/>
<path d="M4.53841 11.9094H3.52154V5.42973C3.27674 5.66323 2.95473 5.89673 2.55552 6.13024C2.16007 6.36374 1.80417 6.53886 1.48781 6.65562V5.67265C2.0565 5.40525 2.55364 5.08136 2.97921 4.70097C3.40479 4.32059 3.70609 3.95151 3.8831 3.59372H4.53841V11.9094ZM7.14837 7.82501C7.14837 6.84581 7.24817 6.05868 7.44778 5.46362C7.65115 4.8648 7.95056 4.40345 8.34601 4.07956C8.74522 3.75566 9.24612 3.59372 9.84871 3.59372C10.2931 3.59372 10.6829 3.68411 11.0181 3.86488C11.3533 4.04189 11.6301 4.29988 11.8485 4.63883C12.067 4.97402 12.2383 5.38453 12.3626 5.87037C12.4869 6.35244 12.5491 7.00399 12.5491 7.82501C12.5491 8.79668 12.4493 9.58193 12.2496 10.1808C12.05 10.7758 11.7506 11.2372 11.3514 11.5648C10.956 11.8887 10.4551 12.0507 9.84871 12.0507C9.05028 12.0507 8.42321 11.7644 7.96751 11.192C7.42141 10.5028 7.14837 9.38044 7.14837 7.82501ZM8.19348 7.82501C8.19348 9.1846 8.35166 10.0904 8.66802 10.5423C8.98814 10.9905 9.3817 11.2146 9.84871 11.2146C10.3157 11.2146 10.7074 10.9886 11.0238 10.5367C11.3439 10.0847 11.5039 9.18083 11.5039 7.82501C11.5039 6.46166 11.3439 5.55589 11.0238 5.10772C10.7074 4.65955 10.3119 4.43546 9.83741 4.43546C9.37041 4.43546 8.99755 4.63318 8.71886 5.02863C8.3686 5.5333 8.19348 6.46542 8.19348 7.82501ZM13.5885 7.82501C13.5885 6.84581 13.6883 6.05868 13.8879 5.46362C14.0913 4.8648 14.3907 4.40345 14.7862 4.07956C15.1854 3.75566 15.6863 3.59372 16.2889 3.59372C16.7333 3.59372 17.1231 3.68411 17.4583 3.86488C17.7934 4.04189 18.0703 4.29988 18.2887 4.63883C18.5071 4.97402 18.6785 5.38453 18.8028 5.87037C18.9271 6.35244 18.9892 7.00399 18.9892 7.82501C18.9892 8.79668 18.8894 9.58193 18.6898 10.1808C18.4902 10.7758 18.1908 11.2372 17.7916 11.5648C17.3961 11.8887 16.8952 12.0507 16.2889 12.0507C15.4904 12.0507 14.8634 11.7644 14.4077 11.192C13.8616 10.5028 13.5885 9.38044 13.5885 7.82501ZM14.6336 7.82501C14.6336 9.1846 14.7918 10.0904 15.1082 10.5423C15.4283 10.9905 15.8219 11.2146 16.2889 11.2146C16.7559 11.2146 17.1475 10.9886 17.4639 10.5367C17.784 10.0847 17.9441 9.18083 17.9441 7.82501C17.9441 6.46166 17.784 5.55589 17.4639 5.10772C17.1475 4.65955 16.7521 4.43546 16.2776 4.43546C15.8106 4.43546 15.4377 4.63318 15.159 5.02863C14.8088 5.5333 14.6336 6.46542 14.6336 7.82501Z" fill="#373435"/>
<path d="M120.461 233.791L121.99 234.276C121.755 235.128 121.365 235.761 120.818 236.177C120.275 236.589 119.584 236.795 118.746 236.795C117.71 236.795 116.858 236.441 116.19 235.735C115.523 235.025 115.189 234.056 115.189 232.827C115.189 231.528 115.525 230.52 116.196 229.803C116.867 229.082 117.749 228.722 118.842 228.722C119.797 228.722 120.573 229.004 121.169 229.568C121.524 229.902 121.791 230.381 121.968 231.006L120.408 231.379C120.316 230.974 120.122 230.655 119.828 230.42C119.536 230.186 119.181 230.069 118.762 230.069C118.184 230.069 117.713 230.276 117.351 230.692C116.993 231.107 116.813 231.78 116.813 232.71C116.813 233.697 116.991 234.4 117.346 234.819C117.701 235.238 118.162 235.447 118.731 235.447C119.149 235.447 119.51 235.314 119.812 235.048C120.113 234.782 120.33 234.363 120.461 233.791ZM123.028 232.806C123.028 232.011 123.147 231.343 123.385 230.804C123.562 230.406 123.804 230.049 124.109 229.733C124.418 229.417 124.755 229.183 125.121 229.03C125.607 228.824 126.168 228.722 126.803 228.722C127.954 228.722 128.873 229.078 129.562 229.792C130.254 230.505 130.6 231.498 130.6 232.769C130.6 234.029 130.258 235.016 129.573 235.729C128.887 236.439 127.971 236.795 126.825 236.795C125.664 236.795 124.741 236.441 124.056 235.735C123.371 235.025 123.028 234.048 123.028 232.806ZM124.652 232.753C124.652 233.637 124.856 234.308 125.265 234.766C125.673 235.22 126.191 235.447 126.819 235.447C127.448 235.447 127.963 235.222 128.364 234.771C128.768 234.317 128.971 233.637 128.971 232.731C128.971 231.837 128.774 231.169 128.38 230.729C127.989 230.289 127.469 230.069 126.819 230.069C126.17 230.069 125.646 230.292 125.249 230.74C124.851 231.184 124.652 231.855 124.652 232.753ZM131.841 236.661V228.855H135.159C135.993 228.855 136.598 228.926 136.975 229.068C137.354 229.206 137.658 229.455 137.885 229.813C138.112 230.172 138.226 230.582 138.226 231.043C138.226 231.629 138.054 232.114 137.709 232.497C137.365 232.877 136.85 233.117 136.165 233.216C136.506 233.415 136.786 233.633 137.007 233.871C137.23 234.109 137.53 234.531 137.906 235.138L138.86 236.661H136.975L135.835 234.963C135.43 234.356 135.153 233.974 135.004 233.818C134.855 233.658 134.697 233.55 134.53 233.493C134.363 233.433 134.099 233.402 133.737 233.402H133.417V236.661H131.841ZM133.417 232.156H134.584C135.34 232.156 135.812 232.124 136 232.06C136.188 231.997 136.336 231.886 136.442 231.73C136.549 231.574 136.602 231.379 136.602 231.144C136.602 230.882 136.531 230.671 136.389 230.511C136.25 230.347 136.053 230.245 135.798 230.202C135.67 230.184 135.286 230.175 134.647 230.175H133.417V232.156ZM139.722 236.661V228.855H143.04C143.874 228.855 144.48 228.926 144.856 229.068C145.236 229.206 145.539 229.455 145.766 229.813C145.994 230.172 146.107 230.582 146.107 231.043C146.107 231.629 145.935 232.114 145.591 232.497C145.246 232.877 144.732 233.117 144.046 233.216C144.387 233.415 144.668 233.633 144.888 233.871C145.111 234.109 145.411 234.531 145.788 235.138L146.741 236.661H144.856L143.716 234.963C143.312 234.356 143.035 233.974 142.886 233.818C142.736 233.658 142.578 233.55 142.412 233.493C142.245 233.433 141.98 233.402 141.618 233.402H141.299V236.661H139.722ZM141.299 232.156H142.465C143.221 232.156 143.693 232.124 143.881 232.06C144.069 231.997 144.217 231.886 144.323 231.73C144.43 231.574 144.483 231.379 144.483 231.144C144.483 230.882 144.412 230.671 144.27 230.511C144.132 230.347 143.935 230.245 143.679 230.202C143.551 230.184 143.168 230.175 142.529 230.175H141.299V232.156ZM147.598 236.661V228.855H153.387V230.175H149.175V231.906H153.094V233.221H149.175V235.346H153.536V236.661H147.598ZM159.868 233.791L161.396 234.276C161.162 235.128 160.771 235.761 160.224 236.177C159.681 236.589 158.991 236.795 158.153 236.795C157.116 236.795 156.264 236.441 155.597 235.735C154.929 235.025 154.596 234.056 154.596 232.827C154.596 231.528 154.931 230.52 155.602 229.803C156.273 229.082 157.155 228.722 158.249 228.722C159.204 228.722 159.979 229.004 160.576 229.568C160.931 229.902 161.197 230.381 161.375 231.006L159.814 231.379C159.722 230.974 159.528 230.655 159.234 230.42C158.943 230.186 158.588 230.069 158.169 230.069C157.59 230.069 157.12 230.276 156.758 230.692C156.399 231.107 156.22 231.78 156.22 232.71C156.22 233.697 156.397 234.4 156.752 234.819C157.107 235.238 157.569 235.447 158.137 235.447C158.556 235.447 158.916 235.314 159.218 235.048C159.52 234.782 159.736 234.363 159.868 233.791ZM164.511 236.661V230.175H162.195V228.855H168.398V230.175H166.087V236.661H164.511Z" fill="#00A859"/>
<path d="M196.798 236.661V228.855H198.375V236.661H196.798ZM199.898 236.661V228.855H201.431L204.626 234.068V228.855H206.091V236.661H204.509L201.362 231.571V236.661H199.898ZM212.758 233.791L214.286 234.276C214.052 235.128 213.661 235.761 213.115 236.177C212.571 236.589 211.881 236.795 211.043 236.795C210.006 236.795 209.154 236.441 208.487 235.735C207.82 235.025 207.486 234.056 207.486 232.827C207.486 231.528 207.821 230.52 208.492 229.803C209.163 229.082 210.046 228.722 211.139 228.722C212.094 228.722 212.87 229.004 213.466 229.568C213.821 229.902 214.087 230.381 214.265 231.006L212.705 231.379C212.612 230.974 212.419 230.655 212.124 230.42C211.833 230.186 211.478 230.069 211.059 230.069C210.48 230.069 210.01 230.276 209.648 230.692C209.289 231.107 209.11 231.78 209.11 232.71C209.11 233.697 209.288 234.4 209.643 234.819C209.998 235.238 210.459 235.447 211.027 235.447C211.446 235.447 211.806 235.314 212.108 235.048C212.41 234.782 212.626 234.363 212.758 233.791ZM215.325 232.806C215.325 232.011 215.443 231.343 215.681 230.804C215.859 230.406 216.1 230.049 216.406 229.733C216.714 229.417 217.052 229.183 217.417 229.03C217.904 228.824 218.465 228.722 219.1 228.722C220.25 228.722 221.17 229.078 221.859 229.792C222.551 230.505 222.897 231.498 222.897 232.769C222.897 234.029 222.554 235.016 221.869 235.729C221.184 236.439 220.268 236.795 219.121 236.795C217.961 236.795 217.037 236.441 216.352 235.735C215.667 235.025 215.325 234.048 215.325 232.806ZM216.949 232.753C216.949 233.637 217.153 234.308 217.561 234.766C217.969 235.22 218.488 235.447 219.116 235.447C219.744 235.447 220.259 235.222 220.66 234.771C221.065 234.317 221.267 233.637 221.267 232.731C221.267 231.837 221.07 231.169 220.676 230.729C220.286 230.289 219.766 230.069 219.116 230.069C218.466 230.069 217.943 230.292 217.545 230.74C217.148 231.184 216.949 231.855 216.949 232.753ZM224.138 236.661V228.855H227.455C228.29 228.855 228.895 228.926 229.271 229.068C229.651 229.206 229.955 229.455 230.182 229.813C230.409 230.172 230.523 230.582 230.523 231.043C230.523 231.629 230.35 232.114 230.006 232.497C229.662 232.877 229.147 233.117 228.462 233.216C228.803 233.415 229.083 233.633 229.303 233.871C229.527 234.109 229.827 234.531 230.203 235.138L231.156 236.661H229.271L228.132 234.963C227.727 234.356 227.45 233.974 227.301 233.818C227.152 233.658 226.994 233.55 226.827 233.493C226.66 233.433 226.396 233.402 226.033 233.402H225.714V236.661H224.138ZM225.714 232.156H226.88C227.636 232.156 228.109 232.124 228.297 232.06C228.485 231.997 228.632 231.886 228.739 231.73C228.845 231.574 228.898 231.379 228.898 231.144C228.898 230.882 228.827 230.671 228.685 230.511C228.547 230.347 228.35 230.245 228.094 230.202C227.967 230.184 227.583 230.175 226.944 230.175H225.714V232.156ZM232.019 236.661V228.855H235.337C236.171 228.855 236.776 228.926 237.152 229.068C237.532 229.206 237.836 229.455 238.063 229.813C238.29 230.172 238.404 230.582 238.404 231.043C238.404 231.629 238.232 232.114 237.887 232.497C237.543 232.877 237.028 233.117 236.343 233.216C236.684 233.415 236.964 233.633 237.184 233.871C237.408 234.109 237.708 234.531 238.084 235.138L239.038 236.661H237.152L236.013 234.963C235.608 234.356 235.331 233.974 235.182 233.818C235.033 233.658 234.875 233.55 234.708 233.493C234.541 233.433 234.277 233.402 233.915 233.402H233.595V236.661H232.019ZM233.595 232.156H234.761C235.518 232.156 235.99 232.124 236.178 232.06C236.366 231.997 236.513 231.886 236.62 231.73C236.726 231.574 236.78 231.379 236.78 231.144C236.78 230.882 236.709 230.671 236.567 230.511C236.428 230.347 236.231 230.245 235.976 230.202C235.848 230.184 235.464 230.175 234.825 230.175H233.595V232.156ZM239.895 236.661V228.855H245.683V230.175H241.471V231.906H245.391V233.221H241.471V235.346H245.833V236.661H239.895ZM252.164 233.791L253.692 234.276C253.458 235.128 253.068 235.761 252.521 236.177C251.978 236.589 251.287 236.795 250.449 236.795C249.413 236.795 248.561 236.441 247.893 235.735C247.226 235.025 246.892 234.056 246.892 232.827C246.892 231.528 247.228 230.52 247.899 229.803C248.57 229.082 249.452 228.722 250.545 228.722C251.5 228.722 252.276 229.004 252.872 229.568C253.227 229.902 253.494 230.381 253.671 231.006L252.111 231.379C252.019 230.974 251.825 230.655 251.53 230.42C251.239 230.186 250.884 230.069 250.465 230.069C249.887 230.069 249.416 230.276 249.054 230.692C248.696 231.107 248.516 231.78 248.516 232.71C248.516 233.697 248.694 234.4 249.049 234.819C249.404 235.238 249.865 235.447 250.433 235.447C250.852 235.447 251.213 235.314 251.514 235.048C251.816 234.782 252.033 234.363 252.164 233.791ZM256.808 236.661V230.175H254.491V228.855H260.695V230.175H258.384V236.661H256.808Z" fill="#F5301E"/>
<path d="M290.087 228.855H291.663V233.083C291.663 233.754 291.683 234.189 291.722 234.388C291.789 234.707 291.949 234.964 292.201 235.16C292.456 235.351 292.804 235.447 293.245 235.447C293.692 235.447 294.029 235.357 294.256 235.176C294.484 234.991 294.62 234.766 294.666 234.499C294.713 234.233 294.736 233.791 294.736 233.173V228.855H296.312V232.955C296.312 233.892 296.269 234.554 296.184 234.941C296.099 235.328 295.941 235.655 295.71 235.921C295.483 236.187 295.178 236.4 294.794 236.56C294.411 236.716 293.91 236.795 293.293 236.795C292.547 236.795 291.981 236.709 291.594 236.539C291.21 236.365 290.907 236.141 290.683 235.868C290.46 235.591 290.312 235.302 290.241 235C290.138 234.553 290.087 233.892 290.087 233.019V228.855ZM297.995 236.661V228.855H299.528L302.723 234.068V228.855H304.188V236.661H302.606L299.459 231.571V236.661H297.995ZM312.9 236.661H311.185L310.503 234.888H307.383L306.739 236.661H305.066L308.107 228.855H309.774L312.9 236.661ZM309.998 233.573L308.922 230.676L307.868 233.573H309.998ZM313.757 236.661V228.855H315.291L318.486 234.068V228.855H319.95V236.661H318.369L315.222 231.571V236.661H313.757ZM321.223 234.121L322.757 233.972C322.849 234.487 323.035 234.865 323.316 235.106C323.6 235.348 323.982 235.469 324.461 235.469C324.968 235.469 325.35 235.362 325.606 235.149C325.865 234.932 325.994 234.68 325.994 234.393C325.994 234.208 325.939 234.052 325.829 233.924C325.723 233.793 325.535 233.679 325.265 233.583C325.08 233.52 324.66 233.406 324.003 233.243C323.158 233.033 322.565 232.776 322.224 232.47C321.745 232.041 321.505 231.517 321.505 230.9C321.505 230.502 321.617 230.131 321.841 229.787C322.068 229.439 322.393 229.174 322.815 228.993C323.241 228.812 323.754 228.722 324.354 228.722C325.334 228.722 326.071 228.936 326.564 229.366C327.061 229.795 327.322 230.369 327.347 231.086L325.771 231.155C325.703 230.754 325.558 230.466 325.334 230.292C325.114 230.115 324.782 230.026 324.338 230.026C323.88 230.026 323.522 230.12 323.263 230.308C323.096 230.429 323.012 230.591 323.012 230.793C323.012 230.978 323.09 231.136 323.247 231.267C323.445 231.434 323.928 231.608 324.695 231.789C325.462 231.97 326.028 232.158 326.394 232.353C326.763 232.545 327.051 232.809 327.257 233.147C327.466 233.48 327.571 233.894 327.571 234.388C327.571 234.835 327.446 235.254 327.198 235.644C326.949 236.035 326.598 236.326 326.144 236.518C325.689 236.706 325.123 236.8 324.445 236.8C323.458 236.8 322.7 236.573 322.171 236.118C321.642 235.66 321.326 234.995 321.223 234.121ZM330.004 236.661L328.14 228.855H329.754L330.931 234.217L332.358 228.855H334.232L335.601 234.308L336.799 228.855H338.386L336.49 236.661H334.818L333.263 230.825L331.714 236.661H330.004ZM339.196 236.661V228.855H344.984V230.175H340.772V231.906H344.691V233.221H340.772V235.346H345.133V236.661H339.196ZM346.475 236.661V228.855H349.793C350.627 228.855 351.232 228.926 351.609 229.068C351.988 229.206 352.292 229.455 352.519 229.813C352.746 230.172 352.86 230.582 352.86 231.043C352.86 231.629 352.688 232.114 352.343 232.497C351.999 232.877 351.484 233.117 350.799 233.216C351.14 233.415 351.42 233.633 351.64 233.871C351.864 234.109 352.164 234.531 352.54 235.138L353.494 236.661H351.609L350.469 234.963C350.064 234.356 349.787 233.974 349.638 233.818C349.489 233.658 349.331 233.55 349.164 233.493C348.997 233.433 348.733 233.402 348.371 233.402H348.051V236.661H346.475ZM348.051 232.156H349.218C349.974 232.156 350.446 232.124 350.634 232.06C350.822 231.997 350.97 231.886 351.076 231.73C351.183 231.574 351.236 231.379 351.236 231.144C351.236 230.882 351.165 230.671 351.023 230.511C350.884 230.347 350.687 230.245 350.432 230.202C350.304 230.184 349.92 230.175 349.281 230.175H348.051V232.156ZM354.351 236.661V228.855H360.139V230.175H355.927V231.906H359.847V233.221H355.927V235.346H360.289V236.661H354.351ZM361.62 228.855H364.501C365.15 228.855 365.646 228.904 365.987 229.004C366.444 229.139 366.837 229.378 367.163 229.723C367.49 230.067 367.739 230.489 367.909 230.99C368.079 231.487 368.165 232.101 368.165 232.833C368.165 233.475 368.085 234.029 367.925 234.494C367.73 235.062 367.451 235.522 367.089 235.873C366.815 236.14 366.446 236.347 365.981 236.496C365.633 236.606 365.168 236.661 364.586 236.661H361.62V228.855ZM363.196 230.175V235.346H364.373C364.813 235.346 365.131 235.321 365.326 235.272C365.582 235.208 365.793 235.099 365.96 234.947C366.13 234.794 366.269 234.544 366.375 234.196C366.482 233.844 366.535 233.367 366.535 232.763C366.535 232.16 366.482 231.697 366.375 231.373C366.269 231.05 366.12 230.798 365.928 230.617C365.736 230.436 365.493 230.314 365.198 230.25C364.978 230.2 364.547 230.175 363.904 230.175H363.196Z" fill="#567ECD"/>
<path d="M104.747 237.567C107.263 237.567 109.303 235.528 109.303 233.012C109.303 230.496 107.263 228.457 104.747 228.457C102.231 228.457 100.192 230.496 100.192 233.012C100.192 235.528 102.231 237.567 104.747 237.567Z" fill="#00A859"/>
<path d="M186.565 237.567C189.081 237.567 191.12 235.528 191.12 233.012C191.12 230.496 189.081 228.457 186.565 228.457C184.049 228.457 182.009 230.496 182.009 233.012C182.009 235.528 184.049 237.567 186.565 237.567Z" fill="#F5301E"/>
<path d="M279.816 237.567C282.332 237.567 284.371 235.528 284.371 233.012C284.371 230.496 282.332 228.457 279.816 228.457C277.3 228.457 275.261 230.496 275.261 233.012C275.261 235.528 277.3 237.567 279.816 237.567Z" fill="#567ECD"/>
<path fill-rule="evenodd" clip-rule="evenodd" d="M184.272 26.1908V28.9663L212.404 27.669L221.002 21.3035V18.1357H194.695L184.272 26.1908Z" fill="#55BC85"/>
<path fill-rule="evenodd" clip-rule="evenodd" d="M184.272 26.1908H212.404V190.082H184.272V26.1908Z" fill="#00A859"/>
<path fill-rule="evenodd" clip-rule="evenodd" d="M221.002 18.1357L212.404 26.1908V190.082L221.002 182.027V18.1357Z" fill="#127E4A"/>
<path fill-rule="evenodd" clip-rule="evenodd" d="M269.031 163.654V166.43L297.163 165.132L305.761 158.782V155.599H279.454L269.031 163.654Z" fill="#49639A"/>
<path fill-rule="evenodd" clip-rule="evenodd" d="M269.031 163.654H297.163V190.082H269.031V163.654Z" fill="#567ECD"/>
<path fill-rule="evenodd" clip-rule="evenodd" d="M305.761 155.599L297.163 163.654V190.082L305.761 182.027V155.599Z" fill="#375082"/>
<path fill-rule="evenodd" clip-rule="evenodd" d="M226.508 117.33V120.106L254.625 118.809L263.223 112.458V109.275H236.931L226.508 117.33Z" fill="#F55E51"/>
<path fill-rule="evenodd" clip-rule="evenodd" d="M226.508 117.33H254.625V190.082H226.508V117.33Z" fill="#F5301E"/>
<path fill-rule="evenodd" clip-rule="evenodd" d="M263.223 109.275L254.625 117.33V190.082L263.223 182.027V109.275Z" fill="#CF3021"/>
<path fill-rule="evenodd" clip-rule="evenodd" d="M322.655 26.1908V28.9663L350.773 27.669L359.371 21.3035V18.1357H333.079L322.655 26.1908Z" fill="#55BC85"/>
<path fill-rule="evenodd" clip-rule="evenodd" d="M322.655 26.1908H350.773V190.082H322.655V26.1908Z" fill="#00A859"/>
<path fill-rule="evenodd" clip-rule="evenodd" d="M359.371 18.1357L350.773 26.1908V190.082L359.371 182.027V18.1357Z" fill="#127E4A"/>
<path fill-rule="evenodd" clip-rule="evenodd" d="M407.414 163.654V166.43L435.547 165.132L444.145 158.782V155.599H417.837L407.414 163.654Z" fill="#49639A"/>
<path fill-rule="evenodd" clip-rule="evenodd" d="M407.414 163.654H435.547V190.082H407.414V163.654Z" fill="#567ECD"/>
<path fill-rule="evenodd" clip-rule="evenodd" d="M444.145 155.599L435.547 163.654V190.082L444.145 182.027V155.599Z" fill="#375082"/>
<path fill-rule="evenodd" clip-rule="evenodd" d="M364.876 117.33V120.106L393.009 118.809L401.607 112.458V109.275H375.3L364.876 117.33Z" fill="#F55E51"/>
<path fill-rule="evenodd" clip-rule="evenodd" d="M364.876 117.33H393.009V190.082H364.876V117.33Z" fill="#F5301E"/>
<path fill-rule="evenodd" clip-rule="evenodd" d="M401.607 109.275L393.009 117.33V190.082L401.607 182.027V109.275Z" fill="#CF3021"/>
</svg>
