<svg width="91" height="94" viewBox="0 0 91 94" fill="none" xmlns="http://www.w3.org/2000/svg">
<path fill-rule="evenodd" clip-rule="evenodd" d="M69.1301 34.3049H73.7007L74.304 39.4788C76.1744 39.8559 77.9244 40.5951 79.4479 41.6208L83.5508 38.3776L86.7787 41.6057L83.5508 45.7086C84.5615 47.2472 85.3005 48.9819 85.6776 50.8524L90.8665 51.4709V56.0264L85.6776 56.6447C85.3005 58.5152 84.5615 60.2499 83.5508 61.7885L86.7787 65.8914L83.5508 69.1044L79.4479 65.8763C77.9093 66.9021 76.1744 67.6261 74.304 68.0033L73.7007 73.1924H69.1301L68.5269 68.0033C66.6565 67.6261 64.9064 66.9021 63.3829 65.8763L59.28 69.1044L56.0521 65.8914L59.28 61.7885C58.2694 60.2499 57.5304 58.5152 57.1533 56.6447L51.9644 56.0264V51.4709L57.1533 50.8524C57.5304 48.9819 58.2694 47.2472 59.28 45.7086L56.0521 41.6057L59.28 38.3776L63.3829 41.6208C64.9064 40.5951 66.6565 39.8559 68.5269 39.4788L69.1301 34.3049ZM71.4079 44.683C76.4159 44.683 80.4887 48.7407 80.4887 53.7486C80.4887 58.7566 76.4159 62.8143 71.4079 62.8143C66.3999 62.8143 62.3422 58.7566 62.3422 53.7486C62.3422 48.7407 66.3999 44.683 71.4079 44.683ZM71.4079 46.3271C75.5108 46.3271 78.8444 49.6457 78.8444 53.7486C78.8444 57.8516 75.5108 61.17 71.4079 61.17C67.32 61.17 63.9865 57.8516 63.9865 53.7486C63.9865 49.6457 67.32 46.3271 71.4079 46.3271ZM71.4079 47.3529C74.9527 47.3529 77.8187 50.2038 77.8187 53.7486C77.8187 57.2784 74.9527 60.1444 71.4079 60.1444C67.8782 60.1444 65.0121 57.2784 65.0121 53.7486C65.0121 50.2038 67.8782 47.3529 71.4079 47.3529Z" fill="#1EA5AB"/>
<path fill-rule="evenodd" clip-rule="evenodd" d="M39.2632 54.9402H43.8187L44.4374 60.1142C46.3078 60.4913 48.0424 61.2305 49.581 62.2562L53.6839 59.0282L56.8967 62.2411L53.6688 66.344C54.6945 67.8826 55.4184 69.6174 55.7956 71.4878L60.9848 72.1062V76.6616L55.7956 77.2802C55.4184 79.1506 54.6945 80.8854 53.6688 82.424L56.8967 86.5269L53.6688 89.7398L49.581 86.5118C48.0424 87.5375 46.3078 88.2616 44.4374 88.6387L43.8187 93.8276H39.2632L38.6449 88.6387C36.7744 88.2616 35.0398 87.5375 33.5012 86.5118L29.398 89.7398L26.1701 86.5269L29.4131 82.424C28.3874 80.8854 27.6483 79.1506 27.2712 77.2802L22.0974 76.6616V72.1062L27.2712 71.4878C27.6483 69.6174 28.3874 67.8826 29.4131 66.344L26.1701 62.2411L29.398 59.0282L33.5012 62.2562C35.0398 61.2305 36.7744 60.4913 38.6449 60.1142L39.2632 54.9402ZM41.5409 65.3182C46.5489 65.3182 50.6066 69.3759 50.6066 74.3839C50.6066 79.3919 46.5489 83.4496 41.5409 83.4496C36.5329 83.4496 32.4752 79.3919 32.4752 74.3839C32.4752 69.3759 36.5329 65.3182 41.5409 65.3182ZM41.5409 66.9625C45.6439 66.9625 48.9627 70.281 48.9627 74.3839C48.9627 78.4868 45.6439 81.8055 41.5409 81.8055C37.438 81.8055 34.1196 78.4868 34.1196 74.3839C34.1196 70.281 37.438 66.9625 41.5409 66.9625ZM41.5409 67.9882C45.0707 67.9882 47.9367 70.8542 47.9367 74.3839C47.9367 77.9136 45.0707 80.7796 41.5409 80.7796C37.9961 80.7796 35.1301 77.9136 35.1301 74.3839C35.1301 70.8542 37.9961 67.9882 41.5409 67.9882Z" fill="#1EA5AB"/>
<path d="M42.6571 11.1052H72.8711V29.84H69.5828V14.3935H42.6571V11.1052ZM11.2666 49.2535V72.7095H18.2508V75.998H7.97827V49.2535H11.2666Z" fill="#0E75B5"/>
<path d="M25.7927 5.52422C25.0838 5.56947 24.4956 5.73537 23.9978 6.06723C23.3944 6.44434 22.8361 7.07775 22.2629 8.01298C18.7482 13.8054 7.41988 32.3741 6.42432 34.0032C6.13771 34.6368 5.14213 37.171 6.03211 38.6191C6.96734 40.1276 8.76246 39.9617 8.76246 39.9617L8.97385 39.9466H42.6116L42.823 39.9617C42.823 39.9617 44.6181 40.1276 45.5533 38.6191C46.4433 37.171 45.4477 34.6368 45.1611 34.0032C44.1656 32.3741 32.8372 13.8054 29.3226 8.01298C28.7494 7.07775 28.191 6.44434 27.5877 6.06723C27.0899 5.73537 26.5017 5.56947 25.7927 5.52422ZM25.7172 12.5232C27.3011 12.5232 28.5986 13.8205 28.5986 15.4043V23.9572C28.5986 25.5411 27.3011 26.8382 25.7172 26.8382C24.1334 26.8382 22.8363 25.5411 22.8363 23.9572V15.4043C22.8363 13.8205 24.1334 12.5232 25.7172 12.5232ZM25.7172 29.6591C27.2709 29.6591 28.5231 30.9111 28.5231 32.4648C28.5231 34.0185 27.2709 35.2705 25.7172 35.2705C24.1635 35.2705 22.9117 34.0185 22.9117 32.4648C22.9117 30.9111 24.1635 29.6591 25.7172 29.6591ZM21.0564 1.48154C22.4291 0.606646 23.9221 0.184204 25.6417 0.0786133H25.9437C27.6633 0.184204 29.1563 0.606646 30.5139 1.48154C31.8263 2.32626 32.9275 3.51788 33.9532 5.20732C34.1946 5.59951 49.822 31.2128 49.8672 31.2882L50.0031 31.5596C50.0182 31.5747 52.7634 37.3068 50.1688 41.4852C47.7855 45.3166 43.577 45.4221 42.6116 45.392H8.97385C8.00845 45.4221 3.79991 45.3166 1.41659 41.4852C-1.17792 37.3068 1.56721 31.5747 1.56721 31.5596L1.7182 31.2882C1.76345 31.2128 17.3909 5.59951 17.6322 5.20732C18.658 3.51788 19.7592 2.32626 21.0564 1.48154Z" fill="#FF9700"/>
</svg>