<svg viewBox="0 0 508 158" fill="none" xmlns="http://www.w3.org/2000/svg">
<path d="M416.686 0.524658H91.5436C41.3836 0.524658 0.720947 35.69 0.720947 79.0687C0.720947 122.447 41.3836 157.613 91.5436 157.613H416.686C466.846 157.613 507.509 122.447 507.509 79.0687C507.509 35.69 466.846 0.524658 416.686 0.524658Z" fill="#FEFEFE"/>
<path fill-rule="evenodd" clip-rule="evenodd" d="M94.6964 13.2559C101.364 13.2559 106.764 18.656 106.764 25.3233C106.764 31.5833 102.012 36.7271 95.9181 37.3304H95.8879H95.903C75.0867 39.8194 58.9313 57.5434 58.9313 79.0386C58.9313 102.223 77.7415 121.033 100.941 121.033C124.141 121.033 142.936 102.223 142.936 79.0386C142.936 68.2231 145.893 58.1015 151.021 49.4281C161.158 32.3224 179.802 20.8584 201.116 20.8584C222.43 20.8584 241.075 32.3224 251.196 49.4281C256.34 58.1015 259.281 68.2231 259.281 79.0386C259.281 102.223 278.092 121.033 301.291 121.033C324.491 121.033 343.286 102.223 343.286 79.0386C343.286 68.2231 346.242 58.1015 351.371 49.4281C361.508 32.3224 380.152 20.8584 401.466 20.8584C433.596 20.8584 459.631 46.909 459.631 79.0386C459.631 97.4566 451.078 113.883 437.699 124.548L442.013 129.722L442.616 130.808L414.273 129.164L413.669 128.078L422.464 105.104L427.728 111.817C437.322 104.124 443.461 92.2977 443.461 79.0386C443.461 55.8389 424.666 37.0287 401.466 37.0287C378.267 37.0287 359.456 55.8389 359.456 79.0386C359.456 89.839 356.515 99.9605 351.371 108.634V108.649C341.25 125.74 322.605 137.204 301.291 137.204C279.977 137.204 261.333 125.74 251.196 108.649C246.068 99.9756 243.111 89.839 243.111 79.0386C243.111 55.8389 224.316 37.0287 201.116 37.0287C177.916 37.0287 159.106 55.8389 159.106 79.0386C159.106 89.839 156.165 99.9605 151.021 108.634V108.649C140.9 125.74 122.255 137.204 100.941 137.204C68.8115 137.204 42.761 111.168 42.761 79.0386C42.761 53.2595 59.5197 31.4023 82.7344 23.7696C83.5037 17.8415 88.5571 13.2559 94.6964 13.2559Z" fill="#373435"/>
<path d="M200.513 119.947C223.706 119.947 242.508 101.146 242.508 77.9525C242.508 54.7595 223.706 35.9578 200.513 35.9578C177.32 35.9578 158.518 54.7595 158.518 77.9525C158.518 101.146 177.32 119.947 200.513 119.947Z" fill="url(#paint0_linear)"/>
<path fill-rule="evenodd" clip-rule="evenodd" d="M94.093 12.1697C100.76 12.1697 106.16 17.5699 106.16 24.2371C106.16 30.4971 101.409 35.6409 95.3147 36.2443H95.2845H95.2996C74.4833 38.7332 58.3279 56.4572 58.3279 77.9524C58.3279 101.152 77.1382 119.947 100.338 119.947C123.538 119.947 142.333 101.152 142.333 77.9524C142.333 67.137 145.289 57.0154 150.418 48.3419C160.554 31.2363 179.184 19.7722 200.513 19.7722C221.827 19.7722 240.471 31.2363 250.593 48.3419C255.737 57.0154 258.678 67.137 258.678 77.9524C258.678 101.152 277.488 119.947 300.688 119.947C323.888 119.947 342.683 101.152 342.683 77.9524C342.683 67.137 345.639 57.0154 350.768 48.3419C360.904 31.2363 379.549 19.7722 400.863 19.7722C432.992 19.7722 459.028 45.8228 459.028 77.9524C459.028 96.3704 450.475 112.797 437.095 123.462L442.013 129.722L413.669 128.078L421.86 104.018L427.125 110.731C436.718 103.038 442.858 91.2115 442.858 77.9524C442.858 54.7527 424.063 35.9426 400.863 35.9426C377.663 35.9426 358.853 54.7527 358.853 77.9524C358.853 88.7679 355.911 98.8895 350.768 107.563C340.646 124.653 322.002 136.118 300.688 136.118C279.359 136.118 260.73 124.653 250.593 107.563C245.464 98.8895 242.508 88.7679 242.508 77.9524C242.508 54.7527 223.712 35.9426 200.513 35.9426C177.313 35.9426 158.503 54.7527 158.503 77.9524C158.503 88.7679 155.562 98.8895 150.418 107.563C140.296 124.653 121.652 136.118 100.338 136.118C68.2083 136.118 42.1576 110.082 42.1576 77.9524C42.1576 52.1733 58.9163 30.3161 82.131 22.6835C82.9003 16.7553 87.9537 12.1697 94.093 12.1697Z" fill="url(#paint1_linear)"/>
<path d="M100.338 132.15C102.87 132.15 104.923 130.097 104.923 127.565C104.923 125.032 102.87 122.979 100.338 122.979C97.8053 122.979 95.7522 125.032 95.7522 127.565C95.7522 130.097 97.8053 132.15 100.338 132.15Z" fill="#FEFEFE"/>
<path d="M200.256 32.6845C202.789 32.6845 204.842 30.6314 204.842 28.0988C204.842 25.5662 202.789 23.5132 200.256 23.5132C197.724 23.5132 195.671 25.5662 195.671 28.0988C195.671 30.6314 197.724 32.6845 200.256 32.6845Z" fill="#FEFEFE"/>
<path d="M400.863 33.4083C403.395 33.4083 405.448 31.3553 405.448 28.8227C405.448 26.2901 403.395 24.2371 400.863 24.2371C398.33 24.2371 396.277 26.2901 396.277 28.8227C396.277 31.3553 398.33 33.4083 400.863 33.4083Z" fill="#FEFEFE"/>
<path d="M300.688 133.101C303.22 133.101 305.273 131.048 305.273 128.515C305.273 125.983 303.22 123.929 300.688 123.929C298.155 123.929 296.102 125.983 296.102 128.515C296.102 131.048 298.155 133.101 300.688 133.101Z" fill="#FEFEFE"/>
<path d="M83.3257 65.137V53.7562H84.8318V63.7939H90.4367V65.137H83.3257ZM97.703 62.482L99.147 62.6605C98.9192 63.5041 98.4975 64.1588 97.8816 64.6246C97.2657 65.0904 96.479 65.3233 95.5216 65.3233C94.3157 65.3233 93.3583 64.9532 92.6492 64.2132C91.9454 63.4679 91.5934 62.425 91.5934 61.0846C91.5934 59.6976 91.9506 58.6211 92.6648 57.8552C93.379 57.0892 94.3054 56.7062 95.444 56.7062C96.5463 56.7062 97.4468 57.0814 98.1455 57.8319C98.8442 58.5823 99.1935 59.6381 99.1935 60.9992C99.1935 61.082 99.191 61.2062 99.1858 61.3718H93.0374C93.0891 62.2775 93.3453 62.9711 93.8059 63.4524C94.2666 63.9337 94.841 64.1743 95.5294 64.1743C96.0417 64.1743 96.479 64.0398 96.8413 63.7707C97.2036 63.5015 97.4908 63.072 97.703 62.482ZM93.115 60.2229H97.7186C97.6564 59.5294 97.4805 59.0093 97.1907 58.6625C96.7456 58.1243 96.1685 57.8552 95.4595 57.8552C94.8177 57.8552 94.2769 58.0699 93.837 58.4995C93.4023 58.9291 93.1616 59.5035 93.115 60.2229ZM103.199 65.137L100.063 56.8925H101.538L103.308 61.8299C103.499 62.3629 103.675 62.9167 103.836 63.4912C103.96 63.0564 104.133 62.5337 104.356 61.923L106.188 56.8925H107.624L104.504 65.137H103.199ZM114.502 62.482L115.946 62.6605C115.719 63.5041 115.297 64.1588 114.681 64.6246C114.065 65.0904 113.278 65.3233 112.321 65.3233C111.115 65.3233 110.158 64.9532 109.449 64.2132C108.745 63.4679 108.393 62.425 108.393 61.0846C108.393 59.6976 108.75 58.6211 109.464 57.8552C110.178 57.0892 111.105 56.7062 112.243 56.7062C113.346 56.7062 114.246 57.0814 114.945 57.8319C115.644 58.5823 115.993 59.6381 115.993 60.9992C115.993 61.082 115.99 61.2062 115.985 61.3718H109.837C109.889 62.2775 110.145 62.9711 110.605 63.4524C111.066 63.9337 111.64 64.1743 112.329 64.1743C112.841 64.1743 113.278 64.0398 113.641 63.7707C114.003 63.5015 114.29 63.072 114.502 62.482ZM109.914 60.2229H114.518C114.456 59.5294 114.28 59.0093 113.99 58.6625C113.545 58.1243 112.968 57.8552 112.259 57.8552C111.617 57.8552 111.076 58.0699 110.636 58.4995C110.202 58.9291 109.961 59.5035 109.914 60.2229ZM117.678 65.137V53.7562H119.075V65.137H117.678Z" fill="#EE3F4B"/>
<path d="M105.42 101.188H99.0884V77.3275C96.7752 79.4904 94.049 81.0901 90.9097 82.1265V76.3812C92.562 75.8404 94.3569 74.819 96.2946 73.317C98.2322 71.7999 99.5615 70.035 100.283 68.0223H105.42V101.188Z" fill="#EE3F4B"/>
<path d="M183.576 65.137V53.7562H185.082V63.7939H190.687V65.137H183.576ZM197.953 62.482L199.397 62.6605C199.17 63.5041 198.748 64.1588 198.132 64.6246C197.516 65.0904 196.729 65.3233 195.772 65.3233C194.566 65.3233 193.609 64.9532 192.9 64.2132C192.196 63.4679 191.844 62.425 191.844 61.0846C191.844 59.6976 192.201 58.6211 192.915 57.8552C193.629 57.0892 194.556 56.7062 195.694 56.7062C196.797 56.7062 197.697 57.0814 198.396 57.8319C199.095 58.5823 199.444 59.6381 199.444 60.9992C199.444 61.082 199.441 61.2062 199.436 61.3718H193.288C193.34 62.2775 193.596 62.9711 194.056 63.4524C194.517 63.9337 195.091 64.1743 195.78 64.1743C196.292 64.1743 196.729 64.0398 197.092 63.7707C197.454 63.5015 197.741 63.072 197.953 62.482ZM193.365 60.2229H197.969C197.907 59.5294 197.731 59.0093 197.441 58.6625C196.996 58.1243 196.419 57.8552 195.71 57.8552C195.068 57.8552 194.527 58.0699 194.087 58.4995C193.653 58.9291 193.412 59.5035 193.365 60.2229ZM203.45 65.137L200.313 56.8925H201.788L203.558 61.8299C203.75 62.3629 203.926 62.9167 204.086 63.4912C204.21 63.0564 204.384 62.5337 204.606 61.923L206.438 56.8925H207.875L204.754 65.137H203.45ZM214.753 62.482L216.197 62.6605C215.969 63.5041 215.547 64.1588 214.931 64.6246C214.315 65.0904 213.529 65.3233 212.571 65.3233C211.365 65.3233 210.408 64.9532 209.699 64.2132C208.995 63.4679 208.643 62.425 208.643 61.0846C208.643 59.6976 209 58.6211 209.715 57.8552C210.429 57.0892 211.355 56.7062 212.494 56.7062C213.596 56.7062 214.497 57.0814 215.195 57.8319C215.894 58.5823 216.243 59.6381 216.243 60.9992C216.243 61.082 216.241 61.2062 216.236 61.3718H210.087C210.139 62.2775 210.395 62.9711 210.856 63.4524C211.316 63.9337 211.891 64.1743 212.579 64.1743C213.091 64.1743 213.529 64.0398 213.891 63.7707C214.253 63.5015 214.541 63.072 214.753 62.482ZM210.165 60.2229H214.768C214.706 59.5294 214.53 59.0093 214.24 58.6625C213.795 58.1243 213.218 57.8552 212.509 57.8552C211.867 57.8552 211.327 58.0699 210.887 58.4995C210.452 58.9291 210.211 59.5035 210.165 60.2229ZM217.928 65.137V53.7562H219.325V65.137H217.928Z" fill="#F9AB08"/>
<path d="M209.962 95.307V101.188H187.769C188.01 98.9645 188.73 96.8616 189.932 94.8789C191.134 92.8812 193.507 90.2376 197.052 86.9481C199.906 84.2894 201.656 82.487 202.302 81.5407C203.173 80.2339 203.608 78.9422 203.608 77.6654C203.608 76.2535 203.225 75.172 202.459 74.421C201.708 73.6549 200.664 73.2719 199.327 73.2719C198.006 73.2719 196.954 73.67 196.173 74.466C195.392 75.2621 194.941 76.5839 194.821 78.4315L188.513 77.8006C188.888 74.3158 190.067 71.8149 192.05 70.2979C194.033 68.7808 196.511 68.0223 199.485 68.0223C202.745 68.0223 205.306 68.901 207.168 70.6584C209.031 72.4158 209.962 74.6012 209.962 77.2148C209.962 78.7018 209.692 80.1213 209.151 81.4731C208.625 82.8099 207.784 84.2143 206.627 85.6864C205.861 86.6627 204.479 88.0671 202.482 89.8996C200.484 91.7321 199.215 92.9488 198.674 93.5496C198.148 94.1504 197.72 94.7362 197.39 95.307H209.962Z" fill="#F9AB08"/>
<path d="M284.852 65.137V53.7562H286.358V63.7939H291.963V65.137H284.852ZM299.23 62.482L300.673 62.6605C300.446 63.5041 300.024 64.1588 299.408 64.6246C298.792 65.0904 298.006 65.3233 297.048 65.3233C295.842 65.3233 294.885 64.9532 294.176 64.2132C293.472 63.4679 293.12 62.425 293.12 61.0846C293.12 59.6976 293.477 58.6211 294.191 57.8552C294.905 57.0892 295.832 56.7062 296.97 56.7062C298.073 56.7062 298.973 57.0814 299.672 57.8319C300.371 58.5823 300.72 59.6381 300.72 60.9992C300.72 61.082 300.717 61.2062 300.712 61.3718H294.564C294.616 62.2775 294.872 62.9711 295.332 63.4524C295.793 63.9337 296.368 64.1743 297.056 64.1743C297.568 64.1743 298.006 64.0398 298.368 63.7707C298.73 63.5015 299.017 63.072 299.23 62.482ZM294.642 60.2229H299.245C299.183 59.5294 299.007 59.0093 298.717 58.6625C298.272 58.1243 297.695 57.8552 296.986 57.8552C296.344 57.8552 295.803 58.0699 295.363 58.4995C294.929 58.9291 294.688 59.5035 294.642 60.2229ZM304.726 65.137L301.59 56.8925H303.064L304.834 61.8299C305.026 62.3629 305.202 62.9167 305.362 63.4912C305.487 63.0564 305.66 62.5337 305.883 61.923L307.715 56.8925H309.151L306.03 65.137H304.726ZM316.029 62.482L317.473 62.6605C317.245 63.5041 316.823 64.1588 316.207 64.6246C315.592 65.0904 314.805 65.3233 313.847 65.3233C312.642 65.3233 311.684 64.9532 310.975 64.2132C310.271 63.4679 309.919 62.425 309.919 61.0846C309.919 59.6976 310.276 58.6211 310.991 57.8552C311.705 57.0892 312.631 56.7062 313.77 56.7062C314.872 56.7062 315.773 57.0814 316.471 57.8319C317.17 58.5823 317.519 59.6381 317.519 60.9992C317.519 61.082 317.517 61.2062 317.512 61.3718H311.363C311.415 62.2775 311.671 62.9711 312.132 63.4524C312.592 63.9337 313.167 64.1743 313.855 64.1743C314.368 64.1743 314.805 64.0398 315.167 63.7707C315.529 63.5015 315.817 63.072 316.029 62.482ZM311.441 60.2229H316.044C315.982 59.5294 315.806 59.0093 315.517 58.6625C315.071 58.1243 314.494 57.8552 313.785 57.8552C313.144 57.8552 312.603 58.0699 312.163 58.4995C311.728 58.9291 311.487 59.5035 311.441 60.2229ZM319.204 65.137V53.7562H320.601V65.137H319.204Z" fill="#5AAF42"/>
<path d="M289.495 92.423L295.624 91.6795C295.819 93.2417 296.345 94.4358 297.201 95.2619C298.057 96.088 299.094 96.5011 300.31 96.5011C301.617 96.5011 302.714 96.0054 303.6 95.0141C304.501 94.0227 304.952 92.6859 304.952 91.0036C304.952 89.4114 304.523 88.1497 303.667 87.2184C302.811 86.2872 301.767 85.8215 300.536 85.8215C299.724 85.8215 298.756 85.9793 297.629 86.2947L298.328 81.1351C300.04 81.1802 301.347 80.8122 302.248 80.0311C303.149 79.2351 303.6 78.1836 303.6 76.8768C303.6 75.7653 303.269 74.8791 302.608 74.2182C301.947 73.5573 301.069 73.2269 299.972 73.2269C298.891 73.2269 297.967 73.6024 297.201 74.3534C296.435 75.1044 295.969 76.2009 295.804 77.6429L289.969 76.6515C290.374 74.6538 290.983 73.0616 291.794 71.875C292.62 70.6734 293.761 69.7346 295.218 69.0587C296.69 68.3677 298.335 68.0223 300.153 68.0223C303.262 68.0223 305.755 69.0136 307.633 70.9963C309.18 72.6185 309.953 74.451 309.953 76.4938C309.953 79.3928 308.369 81.7059 305.199 83.4333C307.092 83.8388 308.602 84.7476 309.728 86.1595C310.87 87.5714 311.44 89.2763 311.44 91.274C311.44 94.1729 310.381 96.6438 308.264 98.6866C306.146 100.729 303.51 101.751 300.355 101.751C297.366 101.751 294.888 100.895 292.92 99.1823C290.952 97.4549 289.811 95.2018 289.495 92.423Z" fill="#5AAF42"/>
<path d="M384.349 65.137V53.7562H385.855V63.7939H391.46V65.137H384.349ZM398.726 62.482L400.17 62.6605C399.942 63.5041 399.52 64.1588 398.904 64.6246C398.289 65.0904 397.502 65.3233 396.544 65.3233C395.339 65.3233 394.381 64.9532 393.672 64.2132C392.968 63.4679 392.616 62.425 392.616 61.0846C392.616 59.6976 392.973 58.6211 393.688 57.8552C394.402 57.0892 395.328 56.7062 396.467 56.7062C397.569 56.7062 398.47 57.0814 399.168 57.8319C399.867 58.5823 400.216 59.6381 400.216 60.9992C400.216 61.082 400.214 61.2062 400.209 61.3718H394.06C394.112 62.2775 394.368 62.9711 394.829 63.4524C395.289 63.9337 395.864 64.1743 396.552 64.1743C397.065 64.1743 397.502 64.0398 397.864 63.7707C398.226 63.5015 398.514 63.072 398.726 62.482ZM394.138 60.2229H398.741C398.679 59.5294 398.503 59.0093 398.213 58.6625C397.768 58.1243 397.191 57.8552 396.482 57.8552C395.841 57.8552 395.3 58.0699 394.86 58.4995C394.425 58.9291 394.184 59.5035 394.138 60.2229ZM404.222 65.137L401.086 56.8925H402.561L404.331 61.8299C404.522 62.3629 404.698 62.9167 404.859 63.4912C404.983 63.0564 405.156 62.5337 405.379 61.923L407.211 56.8925H408.647L405.526 65.137H404.222ZM415.525 62.482L416.969 62.6605C416.741 63.5041 416.32 64.1588 415.704 64.6246C415.088 65.0904 414.301 65.3233 413.344 65.3233C412.138 65.3233 411.18 64.9532 410.471 64.2132C409.768 63.4679 409.416 62.425 409.416 61.0846C409.416 59.6976 409.773 58.6211 410.487 57.8552C411.201 57.0892 412.128 56.7062 413.266 56.7062C414.369 56.7062 415.269 57.0814 415.968 57.8319C416.666 58.5823 417.016 59.6381 417.016 60.9992C417.016 61.082 417.013 61.2062 417.008 61.3718H410.86C410.911 62.2775 411.168 62.9711 411.628 63.4524C412.089 63.9337 412.663 64.1743 413.352 64.1743C413.864 64.1743 414.301 64.0398 414.664 63.7707C415.026 63.5015 415.313 63.072 415.525 62.482ZM410.937 60.2229H415.541C415.479 59.5294 415.303 59.0093 415.013 58.6625C414.568 58.1243 413.991 57.8552 413.282 57.8552C412.64 57.8552 412.099 58.0699 411.659 58.4995C411.224 58.9291 410.984 59.5035 410.937 60.2229ZM418.7 65.137V53.7562H420.098V65.137H418.7Z" fill="#417DBB"/>
<path d="M401.616 101.188V94.5409H388.098V88.9984L402.427 68.0223H407.745V88.9758H411.845V94.5409H407.745V101.188H401.616ZM401.616 88.9758V77.6879L394.023 88.9758H401.616Z" fill="#417DBB"/>
<defs>
<linearGradient id="paint0_linear" x1="158.503" y1="77.9525" x2="242.508" y2="77.9525" gradientUnits="userSpaceOnUse">
<stop stop-color="#D2D3D5"/>
<stop offset="1" stop-color="#FEFEFE"/>
</linearGradient>
<linearGradient id="paint1_linear" x1="42.1576" y1="74.1512" x2="459.028" y2="74.1512" gradientUnits="userSpaceOnUse">
<stop stop-color="#F0335D"/>
<stop offset="0.258824" stop-color="#E7601C"/>
<stop offset="0.501961" stop-color="#FEC202"/>
<stop offset="0.741176" stop-color="#0CA660"/>
<stop offset="1" stop-color="#4877C7"/>
</linearGradient>
</defs>
</svg>