<svg width="133" height="154" viewBox="0 0 133 154" fill="none" xmlns="http://www.w3.org/2000/svg">
<path fill-rule="evenodd" clip-rule="evenodd" d="M66.3745 65.7643V54.1492C62.4525 56.0348 56.1021 53.3648 55.544 46.9993C55.0764 41.7047 61.2307 36.6364 66.3745 39.1102V22.0195C45.4374 22.0195 27.5023 36.7268 23.5049 56.7437C20.9406 69.6257 23.9122 80.3506 28.9201 88.5263C31.575 92.8555 34.1242 95.8572 37.9103 99.04C38.921 99.8847 39.4489 100.353 40.5501 101.182L46.433 104.863C47.7001 105.481 48.8465 105.858 49.9778 106.447V110.896H54.0807C54.0807 100.82 53.6131 104.289 46.9609 100.232C34.3052 92.5387 27.0648 81.2257 27.0648 65.7643H39.3735C36.7941 76.8814 49.4348 79.5363 53.7942 73.6986C55.3177 71.6622 55.8306 68.932 55.1065 65.7643H66.3745Z" fill="#22B6D4"/>
<path fill-rule="evenodd" clip-rule="evenodd" d="M66.3745 65.7644V77.3943C68.8785 76.1876 72.0613 76.9266 73.962 78.3596C78.5325 81.7837 78.261 88.2401 73.962 91.4681C72.1368 92.8408 68.7126 93.5496 66.3745 92.4334V110.897H82.7863V106.447C87.8093 103.792 87.4775 104.833 93.3906 100.307C97.7952 96.9284 102.637 91.3171 105.126 86.3996C106.077 84.5292 107.042 82.4024 107.751 80.4716C109.32 76.1726 110.134 71.7076 110.134 65.7644H93.3906C95.8342 55.2204 84.174 51.3436 78.9699 57.8449C77.2804 59.9567 76.8883 62.4458 77.6576 65.7644H66.3745Z" fill="#22B6D4"/>
<path fill-rule="evenodd" clip-rule="evenodd" d="M88.2618 16.8912C81.7152 15.3677 77.3257 19.576 77.3257 24.0712C77.3257 27.7668 78.3816 30.4973 82.0471 32.3375C83.8723 33.2426 86.3009 33.0766 88.2618 32.609V43.892H99.8769C98.655 41.3277 99.5751 38.2052 100.887 36.3649C106.65 28.3099 118.581 36.2593 114.916 43.892H132.006C132.006 36.6666 130.679 30.7234 127.919 25.0819C123.393 15.8805 116.469 8.91151 107.283 4.35605C101.415 1.42969 95.6682 0.147461 88.2618 0.147461V16.8912Z" fill="#22B6D4"/>
<path fill-rule="evenodd" clip-rule="evenodd" d="M39.0416 120.113C39.0416 125.121 38.3176 127.369 40.6406 129.797C41.6361 130.838 42.2394 131.396 44.1552 131.396H88.9406C91.0826 131.396 93.7222 128.756 93.7222 126.614C93.7222 121.893 94.4313 118.891 92.2893 116.764C91.5049 115.98 90.4038 115 88.9406 115H43.8233C42.0736 115 39.0416 117.036 39.0416 120.113Z" fill="#0E75B5"/>
<path fill-rule="evenodd" clip-rule="evenodd" d="M49.9778 143.026C49.9778 146.978 52.6477 150.523 55.6646 152.031C56.8713 152.65 57.9121 153.283 59.5412 153.283H72.529C77.8386 153.283 82.7862 148.351 82.7862 143.026V135.499H73.9015C73.9015 141.834 74.6708 142.89 71.8501 144.384C69.0293 142.89 69.7986 141.834 69.7986 135.499H62.9654C62.9654 141.834 63.7347 142.89 60.9139 144.384C58.0931 142.89 58.8625 141.834 58.8625 135.499H49.9778V143.026Z" fill="#0E75B5"/>
<path fill-rule="evenodd" clip-rule="evenodd" d="M9.29541 33.6347C9.29541 35.1281 9.62735 35.656 11.4525 36.6063C12.7347 37.2851 13.3229 37.5868 14.5296 38.3108C15.842 39.1103 22.9617 44.239 22.9617 39.4572C22.9617 37.3153 16.4605 34.4945 14.6504 33.4084C13.2777 32.5788 12.7497 31.9302 10.9999 31.9302C10.2005 31.9302 9.29541 32.8352 9.29541 33.6347Z" fill="#22B6D4"/>
<path fill-rule="evenodd" clip-rule="evenodd" d="M109.787 91.7545C109.787 93.4741 110.692 93.8966 111.839 94.4849L119.411 98.8743C121.477 100.126 123.469 99.9602 123.469 97.2149C123.469 96.1891 122.096 95.45 121.266 94.9673C119.924 94.1678 109.787 86.9728 109.787 91.7545Z" fill="#22B6D4"/>
<path fill-rule="evenodd" clip-rule="evenodd" d="M32.5405 10.3898C32.5405 12.3659 36.3266 18.0677 37.5182 20.1192C39.8563 24.1768 42.1039 21.9745 42.1039 20.3153C42.1039 18.7465 38.4686 13.3161 37.3372 11.0686C35.2103 6.84495 32.5405 9.15292 32.5405 10.3898Z" fill="#22B6D4"/>
<path fill-rule="evenodd" clip-rule="evenodd" d="M9.29541 97.2148C9.29541 102.69 16.4453 97.1243 20.7293 94.6354C25.0585 92.1314 22.8411 88.2247 17.7728 91.3471L11.6938 94.8317C10.9546 95.2541 9.29541 96.1438 9.29541 97.2148Z" fill="#22B6D4"/>
<path fill-rule="evenodd" clip-rule="evenodd" d="M117.314 64.0596C116.168 68.9921 117.978 67.8156 130.302 67.8156C132.58 67.8156 132.58 63.7127 130.302 63.7127C127.964 63.7127 118.989 63.4109 117.314 64.0596Z" fill="#22B6D4"/>
<path fill-rule="evenodd" clip-rule="evenodd" d="M0.742432 65.4323C0.742432 66.4882 1.10448 67.8156 2.46207 67.8156H14.0771C16.2794 67.8156 15.7212 65.2663 15.4496 64.0596C12.297 63.3355 5.9918 63.7127 2.46207 63.7127C1.6626 63.7127 0.742432 64.6328 0.742432 65.4323Z" fill="#22B6D4"/>
<path fill-rule="evenodd" clip-rule="evenodd" d="M64.323 1.85194V13.467C64.323 15.7598 68.4259 15.7598 68.4259 13.467V1.85194C68.4259 -0.44088 64.323 -0.44088 64.323 1.85194Z" fill="#22B6D4"/>
</svg>
