<svg width="246" height="99" viewBox="0 0 246 99" fill="none" xmlns="http://www.w3.org/2000/svg">
<path fill-rule="evenodd" clip-rule="evenodd" d="M123.071 0H0.857422C48.2222 29.3239 48.9312 98.6213 123.071 98.6213C197.21 98.6213 197.919 29.3239 245.284 0H123.071Z" fill="#DCF1F6"/>
<path fill-rule="evenodd" clip-rule="evenodd" d="M91.182 17.4375H136.933V38.6913H139.618V14.6619H87.064V77.4881H139.618V58.0444H136.933V74.4108H91.182V17.4375Z" fill="#0E75B5"/>
<path fill-rule="evenodd" clip-rule="evenodd" d="M120.642 43.458H144.581V33.8191L159.077 48.3L144.581 62.9017V53.0818H120.642V43.458Z" fill="#FF9700"/>
<path fill-rule="evenodd" clip-rule="evenodd" d="M87.064 14.6619H91.4084L118.726 27.8908L118.681 91.4411H115.513L87.064 77.4881V14.6619Z" fill="#148187"/>
<path fill-rule="evenodd" clip-rule="evenodd" d="M87.064 14.6619L115.513 28.5998V91.4411L87.064 77.4881V14.6619Z" fill="#1EA5AB"/>
</svg>