<svg  viewBox="0 0 1919 191" fill="none" xmlns="http://www.w3.org/2000/svg">
<path fill-rule="evenodd" clip-rule="evenodd" d="M1918.72 172.274V28.7695C1903.09 17.2486 1865.21 -0.416311 1782.57 0.390198C1712.9 1.06962 1665.77 38.4525 1593.17 39.6696C1499.71 41.2338 1388.17 18.6857 1335.64 18.9692C1261.89 19.3652 1099.77 70.2535 959.545 70.2535C819.33 70.2535 657.201 19.3652 583.457 18.9692C530.929 18.6857 419.382 41.2338 325.924 39.6696C253.325 38.4525 206.196 1.06962 136.526 0.390198C53.8866 -0.416311 16.0001 17.2486 0.370117 28.7695L0.375008 172.274C320.726 172.406 640.133 170.71 959.545 170.075C1278.96 170.71 1598.37 172.406 1918.72 172.274Z" fill="#236073"/>
<path fill-rule="evenodd" clip-rule="evenodd" d="M1918.72 123.683V191H0.375V83.0792C0.375 83.0792 119.223 128.586 236.336 127.481C325.607 126.636 410.168 72.9612 498.739 73.8557C629.56 75.1755 657.142 106.473 804.189 108.037C875.487 108.795 1057.29 69.481 1144.06 71.7441C1255.98 74.672 1410.84 133.635 1471.85 134.72C1566.12 136.397 1646.95 74.4129 1747.27 68.1515C1813.05 64.0505 1885.34 88.0063 1918.72 123.683Z" fill="#49AEB8"/>
</svg>