<svg width="248" height="156" viewBox="0 0 248 156" fill="none" xmlns="http://www.w3.org/2000/svg">
<path fill-rule="evenodd" clip-rule="evenodd" d="M0.532593 0C0.532593 0 83.9055 4.156 106.381 49.1078C128.857 94.0597 149.383 107.121 188.737 115.603C228.091 123.999 240.134 142.743 247.259 155.805V22.2216C247.259 10.0082 237.251 0 225.037 0H0.532593Z" fill="#28D3E1"/>
<path d="M103.752 86.3414C120.568 86.3414 134.201 72.7092 134.201 55.893C134.201 39.0767 120.568 25.4443 103.752 25.4443C86.936 25.4443 73.3037 39.0767 73.3037 55.893C73.3037 72.7092 86.936 86.3414 103.752 86.3414Z" fill="#1A86BE"/>
<path fill-rule="evenodd" clip-rule="evenodd" d="M247.259 118.91V30.8726C227.921 36.2159 213.757 53.8574 213.757 74.8915C213.757 95.9255 227.921 113.567 247.259 118.91Z" fill="#1A86BE"/>
</svg>
