<svg viewBox="0 0 295 121" fill="none" xmlns="http://www.w3.org/2000/svg">
<path fill-rule="evenodd" clip-rule="evenodd" d="M69.6652 87.4731H69.9635L69.7141 87.8202L69.6652 87.4731ZM69.6652 87.4731C66.0707 86.6373 59.3218 81.2214 57.2043 78.494C56.7348 77.8977 56.143 77.4137 55.5757 76.8467C53.5902 74.8427 51.766 72.3938 50.1669 70.0525C47.5456 66.2204 45.8779 61.8164 44.2103 57.559C42.6747 53.634 41.5401 49.7823 40.6353 45.6617C40.1707 43.5306 40.3077 42.7779 38.5471 41.5021L31.5635 35.9787C30.825 35.4264 30.3947 35.0354 29.7247 34.5417C28.5167 33.6521 27.5288 32.5914 26.1497 31.8631C26.1497 42.8316 25.2303 49.4792 31.7542 59.8758L34.2484 63.6298C34.7668 64.3141 35.0602 64.842 35.603 65.5507L38.371 69.0358C38.909 69.7837 39.2073 69.9206 39.7844 70.6L44.5722 75.3364C48.1226 78.1127 51.7563 80.7278 55.6491 83.0202L67.577 89.8535C59.8109 89.8535 52.5241 86.3831 46.2936 82.243C45.1981 81.5098 43.643 80.6251 42.7627 79.8235L36.8012 74.173C36.2143 73.523 36.2534 73.3323 35.6177 72.6725C32.2384 69.1434 29.529 64.9984 26.761 60.9952C25.9932 59.8856 24.2131 59.6363 22.9611 59.1329L11.9624 55.2372C11.0626 54.8853 10.7398 54.6946 9.75684 54.4649C11.0479 59.9883 14.75 67.7308 18.1489 72.257C25.4064 81.9106 40.7136 87.698 52.3138 90.5134C58.5345 92.0189 66.3445 92.8156 72.9516 92.8205C74.5214 92.8205 74.6095 93.0942 75.925 93.1236C75.925 91.3395 73.289 81.9889 72.9516 74.0802L72.9418 69.334C72.9174 66.587 73.3428 64.4754 73.9542 62.0168C76.238 52.8763 83.0798 42.9783 89.7064 36.3991L94.9979 30.6753V3.01941C92.6504 4.58843 84.4198 12.4776 82.5565 14.6918L71.8659 28.7104C63.019 43.1445 63.8847 59.9296 68.8143 75.5368C69.0783 76.3824 69.3473 77.4626 69.6261 78.2936C69.9782 79.3347 70.2472 80.151 70.5944 81.1921L72.6435 86.8768C71.1519 86.3391 68.7947 82.4581 67.934 81.1726C67.3765 80.3416 67.1124 79.8675 66.5646 78.9681C59.9282 68.1365 59.1213 56.6351 62.2708 44.1171C62.7305 42.2988 63.1315 40.2752 63.7379 38.4423C64.3052 36.7168 64.8872 34.7128 65.4545 33.0167C65.7675 32.0733 66.0658 31.1886 66.3494 30.3381C66.6918 29.2969 66.9754 28.7153 67.3227 27.7426C68.5257 24.3455 68.1932 25.5137 67.3373 22.2925L62.3246 5.88374C61.7426 4.15341 60.877 2.16891 60.7254 0.34082C58.3828 2.05648 51.8149 13.8853 50.1864 17.1895C44.9389 27.811 43.3642 48.1888 49.1937 60.3158C51.7661 65.6729 54.6759 70.2187 58.2801 74.7401L61.0188 77.9563C62.7403 80.3172 68.5648 85.8357 69.6652 87.4731Z" fill="#0B5F73"/>
<path fill-rule="evenodd" clip-rule="evenodd" d="M4.98843 98.1777C3.30611 105.382 1.90254 112.68 0.220215 119.885C1.67269 119.856 11.258 116.757 13.5125 116.199C17.8259 115.134 23.3179 113.873 27.6656 113.369C29.3968 113.174 31.265 113.052 32.7712 112.812C34.4487 112.548 36.6592 112.934 38.3464 112.729C42.0925 112.279 39.6668 112.778 43.4374 112.749C45.0561 112.739 47.1542 112.876 48.7387 113.11C51.7708 113.56 55.4337 114.107 58.3387 114.831C61.2974 115.569 64.4273 116.297 67.2442 117.25C69.8558 118.13 73.641 118.981 75.9248 120.183C78.2723 116.683 84.1946 111.747 89.4079 112.675C94.5087 113.584 99.448 116.806 103.341 120.183C104.803 119.416 106.627 118.995 108.315 118.311C115.049 115.564 128.747 112.128 136.058 110.896C139.716 110.28 145.037 109.18 148.646 109.18L148.338 108.892C146.69 108.022 134.126 107.993 131.955 107.993C123.744 107.993 110.672 111.028 103.341 114.533C102.774 113.682 102.822 113.848 101.972 113.228C100.147 111.893 97.7804 108.892 93.8485 107.357C90.4887 106.042 88.1119 105.808 84.6544 107.186C81.9499 108.261 77.5632 111.228 75.6999 113.12L74.1349 114.533C71.6995 113.369 59.6249 110.002 57.3752 109.547C39.6619 105.94 29.2746 106.497 12.2606 110.789C11.1358 111.072 9.94248 111.473 8.86168 111.561L9.81533 107.162C9.97672 106.531 10.187 105.725 10.3239 104.991C10.6907 103.036 10.632 103.462 13.4539 102.758C34.5563 97.508 46.9977 97.1072 68.2859 103.418L76.5166 105.91C72.2619 102.215 69.3912 99.2188 63.3123 96.7846C56.3091 93.974 45.1148 92.1948 37.7106 93.3582L32.7126 93.7248C27.8954 93.9105 14.9699 96.2763 9.52681 97.3565C8.26018 97.6107 6.48492 98.1777 4.98843 98.1777Z" fill="#0B5F73"/>
<path fill-rule="evenodd" clip-rule="evenodd" d="M141.492 71.4163C141.492 74.9502 141.051 75.5808 137.917 75.5808C136.361 75.5808 128.674 75.8741 127.784 74.9844C126.859 74.0655 127.187 67.7259 127.187 66.064C127.187 64.0453 128.757 63.6835 130.762 63.6835H139.11V58.3313C133.892 58.3313 127.123 57.4514 124.272 60.1838C123.186 61.22 121.822 63.0139 121.822 64.5732C121.822 70.815 120.829 75.6443 123.979 78.7775C125.206 79.9995 126.488 80.9331 128.678 80.9331H139.702C141.619 80.9331 143.668 79.7697 144.705 78.7824C146.02 77.5359 146.856 75.9474 146.856 73.4985V48.8145H141.492V71.4163ZM222.263 58.3313V50.8967H216.599V58.3313H209.45V63.6835H216.599V80.9331H222.263V63.6835H231.799V58.3313H222.263ZM235.379 53.8686H240.739V48.8145H235.379V53.8686ZM97.976 68.7377H115.264V63.9817C115.264 63.2974 115.058 63.0872 114.369 63.0872H97.976V68.7377ZM235.379 80.9331H240.739V58.3313H235.379V80.9331ZM245.512 66.3621C245.512 70.8248 244.891 75.5466 247.37 78.4793C248.334 79.6182 250.667 80.9331 252.662 80.9331H268.165V75.5808H254.154C252.872 75.5808 252.54 75.2337 251.469 74.9844C250.945 72.7213 250.945 66.5381 251.469 64.2799C256.33 63.1508 262.986 63.6835 268.165 63.6835V58.3313H252.96C248.451 58.3313 245.512 61.8946 245.512 66.3621ZM151.625 70.5218C151.625 74.9453 153.635 78.1469 157.126 79.9017C160.564 81.632 169.235 80.9331 174.277 80.9331C176.17 80.9331 176.962 79.2321 176.962 77.3649V58.3313H171.299V75.5808C155.067 75.5808 157.288 76.881 157.288 58.3313H151.625V70.5218ZM271.74 64.2799C271.74 68.1902 274.102 70.903 277.393 71.123C280.963 71.3625 285.814 70.4631 288.431 71.7144C289.032 72.9657 289.076 73.6354 288.431 74.9844C287.414 75.9963 274.302 75.5808 272.038 75.5808V80.9331H287.238C289.052 80.9331 291.067 79.8479 292.084 78.929C296.173 75.2582 294.622 67.9409 289.595 66.0884C287.414 65.2868 280.689 65.7658 277.701 65.7658C277.095 64.6269 276.752 63.6835 279.486 63.6835H291.708V58.3313H277.999C274.806 58.3313 271.74 61.0636 271.74 64.2799ZM197.527 75.5808C192.284 75.5808 191.741 75.9963 187.394 74.9844C186.865 72.7213 186.865 66.5381 187.394 64.2799C190.166 63.6347 196.94 63.9817 200.207 63.9817C201.713 66.2253 201.102 68.6497 201.102 73.2003C201.102 75.2191 199.532 75.5808 197.527 75.5808ZM181.432 65.4676C181.432 70.3409 180.669 75.6345 183.432 78.6357C184.405 79.6964 186.67 80.9331 188.582 80.9331H199.61C201.649 80.9331 204.227 79.3934 205.107 78.0834C207.312 74.7987 207.635 64.4949 205.038 61.2445C203.923 59.8563 202.006 58.3313 199.61 58.3313C193.952 58.3313 186.934 57.3977 183.731 60.3304C182.669 61.2982 181.432 63.5565 181.432 65.4676ZM90.2295 53.8686V73.2003C90.2295 77.6288 93.5452 80.9331 97.3794 80.9331H117.65V75.5808H98.871C97.5897 75.5808 97.2571 75.2337 96.191 74.9844C95.5014 72.0419 95.8927 60.3891 95.8927 56.5472H117.65V50.8967H93.2078C91.5353 50.8967 90.2295 52.2018 90.2295 53.8686Z" fill="#0B5F73"/>
<path d="M91.961 95.3518V89.2331H89.7757V87.9873H95.6282V89.2331H93.448V95.3518H91.961Z" fill="#0B5F73"/>
<path d="M100.908 95.3518V94.5531C100.714 94.8377 100.458 95.0621 100.14 95.2262C99.8247 95.3903 99.4915 95.4724 99.1398 95.4724C98.7815 95.4724 98.46 95.3937 98.1753 95.2363C97.8907 95.0789 97.6847 94.8578 97.5574 94.5732C97.4302 94.2885 97.3665 93.895 97.3665 93.3926V90.0168H98.7781V92.4683C98.7781 93.2185 98.8033 93.679 98.8535 93.8498C98.9071 94.0172 99.0025 94.1512 99.1398 94.2516C99.2772 94.3488 99.4513 94.3973 99.6623 94.3973C99.9034 94.3973 100.119 94.332 100.31 94.2014C100.501 94.0674 100.632 93.9033 100.702 93.7091C100.773 93.5115 100.808 93.0309 100.808 92.2673V90.0168H102.219V95.3518H100.908Z" fill="#0B5F73"/>
<path d="M106.616 95.3518H105.204V90.0168H106.515V90.7753C106.74 90.417 106.941 90.1809 107.118 90.067C107.299 89.9531 107.503 89.8962 107.731 89.8962C108.052 89.8962 108.362 89.985 108.66 90.1625L108.223 91.3932C107.985 91.2392 107.764 91.1622 107.56 91.1622C107.363 91.1622 107.195 91.2174 107.058 91.3279C106.92 91.4351 106.812 91.631 106.731 91.9157C106.654 92.2004 106.616 92.7965 106.616 93.7041V95.3518Z" fill="#0B5F73"/>
<path d="M115.702 95.3518H114.29V92.629C114.29 92.053 114.26 91.6813 114.2 91.5138C114.14 91.343 114.041 91.2107 113.904 91.1169C113.77 91.0232 113.607 90.9763 113.416 90.9763C113.172 90.9763 112.953 91.0433 112.758 91.1772C112.564 91.3112 112.43 91.4887 112.356 91.7097C112.286 91.9308 112.251 92.3393 112.251 92.9355V95.3518H110.839V90.0168H112.15V90.8005C112.616 90.1976 113.202 89.8962 113.909 89.8962C114.22 89.8962 114.505 89.9531 114.763 90.067C115.021 90.1775 115.215 90.3199 115.345 90.494C115.479 90.6682 115.571 90.8658 115.622 91.0868C115.675 91.3078 115.702 91.6243 115.702 92.0363V95.3518Z" fill="#0B5F73"/>
<path d="M118.717 89.2934V87.9873H120.129V89.2934H118.717ZM118.717 95.3518V90.0168H120.129V95.3518H118.717Z" fill="#0B5F73"/>
<path d="M128.008 95.3518H126.597V92.629C126.597 92.053 126.566 91.6813 126.506 91.5138C126.446 91.343 126.347 91.2107 126.21 91.1169C126.076 91.0232 125.913 90.9763 125.722 90.9763C125.478 90.9763 125.259 91.0433 125.064 91.1772C124.87 91.3112 124.736 91.4887 124.663 91.7097C124.592 91.9308 124.557 92.3393 124.557 92.9355V95.3518H123.145V90.0168H124.457V90.8005C124.922 90.1976 125.508 89.8962 126.215 89.8962C126.526 89.8962 126.811 89.9531 127.069 90.067C127.327 90.1775 127.521 90.3199 127.652 90.494C127.786 90.6682 127.878 90.8658 127.928 91.0868C127.981 91.3078 128.008 91.6243 128.008 92.0363V95.3518Z" fill="#0B5F73"/>
<path d="M130.893 95.7035L132.505 95.8994C132.532 96.0869 132.594 96.2159 132.691 96.2862C132.825 96.3867 133.036 96.4369 133.324 96.4369C133.692 96.4369 133.969 96.3816 134.153 96.2711C134.277 96.1974 134.371 96.0785 134.434 95.9144C134.478 95.7972 134.499 95.5812 134.499 95.2664V94.4878C134.077 95.0638 133.545 95.3518 132.902 95.3518C132.185 95.3518 131.618 95.0487 131.199 94.4425C130.871 93.9636 130.707 93.3675 130.707 92.6542C130.707 91.76 130.921 91.0768 131.35 90.6045C131.782 90.1323 132.318 89.8962 132.957 89.8962C133.617 89.8962 134.161 90.1859 134.59 90.7653V90.0168H135.911V94.8042C135.911 95.4339 135.859 95.9044 135.755 96.2159C135.652 96.5273 135.506 96.7718 135.318 96.9493C135.131 97.1268 134.88 97.2658 134.565 97.3663C134.253 97.4667 133.858 97.517 133.379 97.517C132.475 97.517 131.834 97.3612 131.455 97.0498C131.077 96.7417 130.887 96.3498 130.887 95.8743C130.887 95.8274 130.889 95.7704 130.893 95.7035ZM132.153 92.5738C132.153 93.1398 132.262 93.555 132.48 93.8196C132.701 94.0808 132.972 94.2115 133.294 94.2115C133.639 94.2115 133.93 94.0775 134.168 93.8096C134.406 93.5383 134.525 93.1381 134.525 92.6089C134.525 92.0563 134.411 91.6461 134.183 91.3782C133.955 91.1102 133.667 90.9763 133.319 90.9763C132.981 90.9763 132.701 91.1086 132.48 91.3731C132.262 91.6344 132.153 92.0346 132.153 92.5738ZM143.05 95.3518V87.9873H145.436C146.34 87.9873 146.929 88.0241 147.204 88.0978C147.626 88.2083 147.979 88.4494 148.264 88.8212C148.549 89.1896 148.691 89.6668 148.691 90.2529C148.691 90.705 148.609 91.0851 148.445 91.3932C148.281 91.7013 148.071 91.9442 147.817 92.1217C147.566 92.2958 147.31 92.4113 147.048 92.4683C146.693 92.5386 146.179 92.5738 145.506 92.5738H144.537V95.3518H143.05ZM144.537 89.2331V91.3229H145.35C145.936 91.3229 146.328 91.2844 146.526 91.2074C146.723 91.1303 146.878 91.0098 146.988 90.8457C147.102 90.6816 147.159 90.4907 147.159 90.273C147.159 90.0051 147.08 89.784 146.923 89.6099C146.765 89.4357 146.566 89.3269 146.325 89.2833C146.147 89.2498 145.791 89.2331 145.255 89.2331H144.537Z" fill="#0B5F73"/>
<path d="M155.003 95.3518V94.5531C154.809 94.8377 154.552 95.0621 154.234 95.2262C153.919 95.3903 153.586 95.4724 153.235 95.4724C152.876 95.4724 152.555 95.3937 152.27 95.2363C151.985 95.0789 151.779 94.8578 151.652 94.5732C151.525 94.2885 151.461 93.895 151.461 93.3926V90.0168H152.873V92.4683C152.873 93.2185 152.898 93.679 152.948 93.8498C153.002 94.0172 153.097 94.1512 153.235 94.2516C153.372 94.3488 153.546 94.3973 153.757 94.3973C153.998 94.3973 154.214 94.332 154.405 94.2014C154.596 94.0674 154.727 93.9033 154.797 93.7091C154.867 93.5115 154.902 93.0309 154.902 92.2673V90.0168H156.314V95.3518H155.003Z" fill="#0B5F73"/>
<path d="M160.715 95.3518H159.304V90.0168H160.615V90.7753C160.839 90.417 161.04 90.1809 161.218 90.067C161.398 89.9531 161.603 89.8962 161.831 89.8962C162.152 89.8962 162.462 89.985 162.76 90.1625L162.323 91.3932C162.085 91.2392 161.864 91.1622 161.66 91.1622C161.462 91.1622 161.295 91.2174 161.157 91.3279C161.02 91.4351 160.911 91.631 160.831 91.9157C160.754 92.2004 160.715 92.7965 160.715 93.7041V95.3518Z" fill="#0B5F73"/>
<path d="M164.909 90.0168H166.225V90.8005C166.396 90.5325 166.627 90.3148 166.918 90.1474C167.21 89.9799 167.533 89.8962 167.888 89.8962C168.507 89.8962 169.033 90.139 169.465 90.6246C169.897 91.1102 170.113 91.7867 170.113 92.6542C170.113 93.545 169.895 94.2382 169.46 94.7339C169.025 95.2262 168.497 95.4724 167.878 95.4724C167.583 95.4724 167.315 95.4138 167.074 95.2965C166.836 95.1793 166.585 94.9784 166.32 94.6937V97.3813H164.909V90.0168ZM166.305 92.5939C166.305 93.1933 166.424 93.6371 166.662 93.9251C166.9 94.2098 167.189 94.3521 167.531 94.3521C167.859 94.3521 168.132 94.2215 168.35 93.9603C168.568 93.6957 168.676 93.2637 168.676 92.6642C168.676 92.1049 168.564 91.6896 168.34 91.4184C168.115 91.1471 167.837 91.0114 167.506 91.0114C167.161 91.0114 166.875 91.1454 166.647 91.4133C166.419 91.6779 166.305 92.0714 166.305 92.5939Z" fill="#0B5F73"/>
<path d="M172.49 92.6089C172.49 92.1401 172.606 91.6863 172.837 91.2476C173.068 90.8088 173.394 90.4739 173.816 90.2428C174.242 90.0118 174.715 89.8962 175.238 89.8962C176.045 89.8962 176.707 90.1591 177.222 90.6849C177.738 91.2074 177.996 91.8688 177.996 92.6692C177.996 93.4763 177.735 94.1462 177.212 94.6786C176.693 95.2078 176.038 95.4724 175.248 95.4724C174.759 95.4724 174.292 95.3619 173.846 95.1408C173.404 94.9198 173.068 94.5966 172.837 94.1713C172.606 93.7426 172.49 93.2218 172.49 92.6089ZM173.937 92.6843C173.937 93.2134 174.062 93.6187 174.314 93.9C174.565 94.1813 174.875 94.322 175.243 94.322C175.611 94.322 175.919 94.1813 176.167 93.9C176.418 93.6187 176.544 93.2101 176.544 92.6742C176.544 92.1518 176.418 91.7499 176.167 91.4686C175.919 91.1873 175.611 91.0466 175.243 91.0466C174.875 91.0466 174.565 91.1873 174.314 91.4686C174.062 91.7499 173.937 92.1551 173.937 92.6843Z" fill="#0B5F73"/>
<path d="M180.187 93.8297L181.604 93.6137C181.664 93.8883 181.786 94.0976 181.97 94.2416C182.154 94.3823 182.412 94.4526 182.744 94.4526C183.109 94.4526 183.384 94.3856 183.568 94.2516C183.692 94.1579 183.754 94.0323 183.754 93.8749C183.754 93.7677 183.72 93.679 183.653 93.6086C183.583 93.5416 183.425 93.4797 183.181 93.4228C182.042 93.1716 181.321 92.9422 181.016 92.7345C180.594 92.4465 180.383 92.0463 180.383 91.5339C180.383 91.0717 180.565 90.6832 180.93 90.3684C181.295 90.0536 181.861 89.8962 182.628 89.8962C183.358 89.8962 183.901 90.0151 184.256 90.2529C184.611 90.4907 184.855 90.8423 184.989 91.3078L183.658 91.554C183.601 91.3464 183.492 91.1873 183.332 91.0768C183.174 90.9662 182.948 90.911 182.654 90.911C182.282 90.911 182.016 90.9629 181.855 91.0667C181.748 91.1404 181.694 91.2358 181.694 91.353C181.694 91.4535 181.741 91.5389 181.835 91.6093C181.962 91.703 182.401 91.8353 183.151 92.0061C183.904 92.1769 184.43 92.3862 184.728 92.6341C185.023 92.8852 185.17 93.2352 185.17 93.684C185.17 94.1729 184.966 94.5932 184.557 94.9449C184.149 95.2965 183.544 95.4724 182.744 95.4724C182.017 95.4724 181.441 95.325 181.016 95.0303C180.594 94.7356 180.318 94.3354 180.187 93.8297Z" fill="#0B5F73"/>
<path d="M191.078 93.6538L192.485 93.8899C192.304 94.4057 192.018 94.7992 191.626 95.0705C191.238 95.3384 190.75 95.4724 190.164 95.4724C189.236 95.4724 188.55 95.1693 188.104 94.5631C187.753 94.0775 187.577 93.4646 187.577 92.7245C187.577 91.8403 187.808 91.1488 188.27 90.6497C188.732 90.1474 189.317 89.8962 190.023 89.8962C190.817 89.8962 191.443 90.1591 191.902 90.6849C192.361 91.2074 192.58 92.0095 192.56 93.0912H189.024C189.034 93.5098 189.148 93.8364 189.365 94.0708C189.583 94.3019 189.854 94.4174 190.179 94.4174C190.4 94.4174 190.586 94.3571 190.737 94.2366C190.888 94.116 191.001 93.9218 191.078 93.6538ZM191.159 92.2271C191.149 91.8186 191.043 91.5088 190.842 91.2978C190.641 91.0835 190.397 90.9763 190.109 90.9763C189.801 90.9763 189.546 91.0885 189.345 91.3129C189.144 91.5372 189.046 91.842 189.049 92.2271H191.159ZM199.408 95.3518V87.9873H200.894V95.3518H199.408Z" fill="#0B5F73"/>
<path d="M208.739 95.3518H207.327V92.629C207.327 92.053 207.297 91.6813 207.237 91.5138C207.176 91.343 207.078 91.2107 206.94 91.1169C206.806 91.0232 206.644 90.9763 206.453 90.9763C206.208 90.9763 205.989 91.0433 205.795 91.1772C205.601 91.3112 205.467 91.4887 205.393 91.7097C205.323 91.9308 205.287 92.3393 205.287 92.9355V95.3518H203.876V90.0168H205.187V90.8005C205.653 90.1976 206.239 89.8962 206.945 89.8962C207.257 89.8962 207.541 89.9531 207.799 90.067C208.057 90.1775 208.251 90.3199 208.382 90.494C208.516 90.6682 208.608 90.8658 208.658 91.0868C208.712 91.3078 208.739 91.6243 208.739 92.0363V95.3518Z" fill="#0B5F73"/>
<path d="M214.201 90.0168V91.1421H213.236V93.2921C213.236 93.7275 213.244 93.982 213.261 94.0557C213.281 94.1261 213.323 94.1847 213.387 94.2316C213.454 94.2784 213.534 94.3019 213.628 94.3019C213.758 94.3019 213.948 94.2567 214.196 94.1662L214.316 95.2614C213.988 95.402 213.616 95.4724 213.201 95.4724C212.946 95.4724 212.717 95.4305 212.513 95.3468C212.308 95.2597 212.158 95.1492 212.061 95.0152C211.967 94.8779 211.901 94.6937 211.865 94.4626C211.834 94.2985 211.819 93.967 211.819 93.468V91.1421H211.171V90.0168H211.819V88.9568L213.236 88.1329V90.0168H214.201Z" fill="#0B5F73"/>
<path d="M216.434 92.6089C216.434 92.1401 216.549 91.6863 216.781 91.2476C217.012 90.8088 217.338 90.4739 217.76 90.2428C218.185 90.0118 218.659 89.8962 219.182 89.8962C219.989 89.8962 220.65 90.1591 221.166 90.6849C221.682 91.2074 221.94 91.8688 221.94 92.6692C221.94 93.4763 221.679 94.1462 221.156 94.6786C220.637 95.2078 219.982 95.4724 219.192 95.4724C218.703 95.4724 218.236 95.3619 217.79 95.1408C217.348 94.9198 217.012 94.5966 216.781 94.1713C216.549 93.7426 216.434 93.2218 216.434 92.6089ZM217.881 92.6843C217.881 93.2134 218.006 93.6187 218.257 93.9C218.509 94.1813 218.818 94.322 219.187 94.322C219.555 94.322 219.863 94.1813 220.111 93.9C220.362 93.6187 220.488 93.2101 220.488 92.6742C220.488 92.1518 220.362 91.7499 220.111 91.4686C219.863 91.1873 219.555 91.0466 219.187 91.0466C218.818 91.0466 218.509 91.1873 218.257 91.4686C218.006 91.7499 217.881 92.1551 217.881 92.6843ZM228.787 95.3518V87.9873H231.173C232.077 87.9873 232.667 88.0241 232.941 88.0978C233.363 88.2083 233.717 88.4494 234.001 88.8212C234.286 89.1896 234.428 89.6668 234.428 90.2529C234.428 90.705 234.346 91.0851 234.182 91.3932C234.018 91.7013 233.809 91.9442 233.554 92.1217C233.303 92.2958 233.047 92.4113 232.786 92.4683C232.431 92.5386 231.917 92.5738 231.243 92.5738H230.274V95.3518H228.787ZM230.274 89.2331V91.3229H231.088C231.674 91.3229 232.066 91.2844 232.263 91.2074C232.461 91.1303 232.615 91.0098 232.725 90.8457C232.839 90.6816 232.896 90.4907 232.896 90.273C232.896 90.0051 232.817 89.784 232.66 89.6099C232.503 89.4357 232.303 89.3269 232.062 89.2833C231.885 89.2498 231.528 89.2331 230.992 89.2331H230.274Z" fill="#0B5F73"/>
<path d="M238.58 95.3518H237.168V90.0168H238.48V90.7753C238.704 90.417 238.905 90.1809 239.082 90.067C239.263 89.9531 239.468 89.8962 239.695 89.8962C240.017 89.8962 240.327 89.985 240.625 90.1625L240.188 91.3932C239.95 91.2392 239.729 91.1622 239.524 91.1622C239.327 91.1622 239.159 91.2174 239.022 91.3279C238.885 91.4351 238.776 91.631 238.696 91.9157C238.619 92.2004 238.58 92.7965 238.58 93.7041V95.3518Z" fill="#0B5F73"/>
<path d="M242.482 92.6089C242.482 92.1401 242.598 91.6863 242.829 91.2476C243.06 90.8088 243.386 90.4739 243.808 90.2428C244.234 90.0118 244.708 89.8962 245.23 89.8962C246.037 89.8962 246.699 90.1591 247.214 90.6849C247.73 91.2074 247.988 91.8688 247.988 92.6692C247.988 93.4763 247.727 94.1462 247.204 94.6786C246.685 95.2078 246.031 95.4724 245.24 95.4724C244.751 95.4724 244.284 95.3619 243.839 95.1408C243.397 94.9198 243.06 94.5966 242.829 94.1713C242.598 93.7426 242.482 93.2218 242.482 92.6089ZM243.929 92.6843C243.929 93.2134 244.055 93.6187 244.306 93.9C244.557 94.1813 244.867 94.322 245.235 94.322C245.604 94.322 245.912 94.1813 246.159 93.9C246.411 93.6187 246.536 93.2101 246.536 92.6742C246.536 92.1518 246.411 91.7499 246.159 91.4686C245.912 91.1873 245.604 91.0466 245.235 91.0466C244.867 91.0466 244.557 91.1873 244.306 91.4686C244.055 91.7499 243.929 92.1551 243.929 92.6843Z" fill="#0B5F73"/>
<path d="M257.945 90.0168H259.262V90.8005C259.432 90.5325 259.663 90.3148 259.955 90.1474C260.246 89.9799 260.569 89.8962 260.924 89.8962C261.544 89.8962 262.07 90.139 262.502 90.6246C262.934 91.1102 263.15 91.7867 263.15 92.6542C263.15 93.545 262.932 94.2382 262.497 94.7339C262.061 95.2262 261.534 95.4724 260.914 95.4724C260.62 95.4724 260.352 95.4138 260.111 95.2965C259.873 95.1793 259.622 94.9784 259.357 94.6937V97.3813H257.945V90.0168ZM259.342 92.5939C259.342 93.1933 259.461 93.6371 259.699 93.9251C259.936 94.2098 260.226 94.3521 260.568 94.3521C260.896 94.3521 261.169 94.2215 261.386 93.9603C261.604 93.6957 261.713 93.2637 261.713 92.6642C261.713 92.1049 261.601 91.6896 261.376 91.4184C261.152 91.1471 260.874 91.0114 260.543 91.0114C260.198 91.0114 259.911 91.1454 259.683 91.4133C259.456 91.6779 259.342 92.0714 259.342 92.5939Z" fill="#0B5F73"/>
<path d="M268.943 93.6538L270.349 93.8899C270.168 94.4057 269.882 94.7992 269.49 95.0705C269.102 95.3384 268.614 95.4724 268.028 95.4724C267.101 95.4724 266.414 95.1693 265.969 94.5631C265.617 94.0775 265.441 93.4646 265.441 92.7245C265.441 91.8403 265.672 91.1488 266.135 90.6497C266.597 90.1474 267.181 89.8962 267.888 89.8962C268.681 89.8962 269.308 90.1591 269.767 90.6849C270.225 91.2074 270.445 92.0095 270.425 93.0912H266.888C266.898 93.5098 267.012 93.8364 267.23 94.0708C267.447 94.3019 267.719 94.4174 268.043 94.4174C268.265 94.4174 268.45 94.3571 268.601 94.2366C268.752 94.116 268.866 93.9218 268.943 93.6538ZM269.023 92.2271C269.013 91.8186 268.908 91.5088 268.707 91.2978C268.506 91.0835 268.261 90.9763 267.973 90.9763C267.665 90.9763 267.411 91.0885 267.21 91.3129C267.009 91.5372 266.91 91.842 266.913 92.2271H269.023Z" fill="#0B5F73"/>
<path d="M274.509 95.3518H273.097V90.0168H274.408V90.7753C274.633 90.417 274.834 90.1809 275.011 90.067C275.192 89.9531 275.396 89.8962 275.624 89.8962C275.945 89.8962 276.255 89.985 276.553 90.1625L276.116 91.3932C275.879 91.2392 275.657 91.1622 275.453 91.1622C275.256 91.1622 275.088 91.2174 274.951 91.3279C274.814 91.4351 274.705 91.631 274.624 91.9157C274.547 92.2004 274.509 92.7965 274.509 93.7041V95.3518Z" fill="#0B5F73"/>
<path d="M278.742 89.2934V87.9873H280.154V89.2934H278.742ZM278.742 95.3518V90.0168H280.154V95.3518H278.742Z" fill="#0B5F73"/>
<path d="M285.627 90.0168V91.1421H284.663V93.2921C284.663 93.7275 284.671 93.982 284.688 94.0557C284.708 94.1261 284.75 94.1847 284.814 94.2316C284.88 94.2784 284.961 94.3019 285.055 94.3019C285.185 94.3019 285.374 94.2567 285.622 94.1662L285.743 95.2614C285.415 95.402 285.043 95.4724 284.628 95.4724C284.373 95.4724 284.144 95.4305 283.939 95.3468C283.735 95.2597 283.584 95.1492 283.487 95.0152C283.394 94.8779 283.328 94.6937 283.291 94.4626C283.261 94.2985 283.246 93.967 283.246 93.468V91.1421H282.598V90.0168H283.246V88.9568L284.663 88.1329V90.0168H285.627Z" fill="#0B5F73"/>
<path d="M287.52 90.0168H289.022L290.298 93.8045L291.543 90.0168H293.005L291.121 95.1509L290.785 96.0802C290.661 96.3917 290.542 96.6295 290.428 96.7936C290.318 96.9577 290.189 97.09 290.041 97.1904C289.897 97.2943 289.718 97.3746 289.504 97.4316C289.293 97.4885 289.053 97.517 288.785 97.517C288.514 97.517 288.248 97.4885 287.987 97.4316L287.861 96.3264C288.082 96.3699 288.281 96.3917 288.459 96.3917C288.787 96.3917 289.03 96.2946 289.187 96.1003C289.345 95.9094 289.465 95.6649 289.549 95.3669L287.52 90.0168Z" fill="#0B5F73"/>
</svg>
