<!-- <svg viewBox="0 0 1919 245" fill="none" xmlns="http://www.w3.org/2000/svg">
<path fill-rule="evenodd" clip-rule="evenodd" d="M1635.26 29.4449L1919.63 17.2886L1918.72 122.501C1918.72 122.501 1577.62 161.952 1498.04 141.281C1418.45 120.605 1333.35 94.1611 1268.76 101.351C1204.17 108.541 1138.42 186.743 998.865 185.844C859.305 184.945 678.22 95.0605 678.22 95.0605L672.454 0L1635.26 29.4449Z" fill="#236073"/>
<path fill-rule="evenodd" clip-rule="evenodd" d="M1918.72 104.807L1919.63 0H268.476H0.370117V191.856C91.3428 222.689 188.986 237.402 278.36 242.422C392.846 248.854 493.776 239.391 549.727 227.572C686.509 198.675 668.146 201.705 897.925 86.5555C958.498 56.2015 1021.64 121.128 1090.85 104.949C1160.05 88.7698 1166.97 43.8252 1244.25 33.0375C1321.53 22.2548 1450.71 114.837 1533.76 124.725C1616.8 134.614 1918.72 104.807 1918.72 104.807Z" fill="#49AEB8"/>
</svg> -->
<svg viewBox="0 0 1920 245" fill="none" xmlns="http://www.w3.org/2000/svg">
<path fill-rule="evenodd" clip-rule="evenodd" d="M1635.26 29.4449L1919.63 17.2886L1918.72 122.501C1918.72 122.501 1577.62 161.952 1498.04 141.281C1418.45 120.605 1333.35 94.1611 1268.76 101.351C1204.17 108.541 1138.42 186.743 998.865 185.844C859.305 184.945 678.22 95.0605 678.22 95.0605L672.455 0L1635.26 29.4449Z" fill="#236073"/>
<path fill-rule="evenodd" clip-rule="evenodd" d="M1918.72 104.807L1919.63 0H268.476H0.370117V191.856C91.3428 222.689 188.986 237.402 278.36 242.422C392.846 248.854 493.776 239.391 549.727 227.572C686.509 198.675 668.146 201.705 897.925 86.5555C958.498 56.2015 1021.64 121.128 1090.85 104.949C1160.05 88.7698 1166.97 43.8252 1244.25 33.0375C1321.53 22.2548 1450.71 114.837 1533.76 124.725C1616.8 134.614 1918.72 104.807 1918.72 104.807Z" fill="#49AEB8"/>
<path fill-rule="evenodd" clip-rule="evenodd" d="M0.370117 0L1.27975 151.731C107.105 222.264 558.574 217.337 709.416 147.405C768.537 119.994 841.137 68.2551 891.479 53.8259C925.277 44.138 964.773 43.4488 999.862 50.1062C1096.1 68.3675 1123.77 5.64556 1182.6 0H672.454H0.370117Z" fill="url(#paint0_linear)"/>
<defs>
<linearGradient id="paint0_linear" x1="-226.118" y1="28" x2="1194.61" y2="138.114" gradientUnits="userSpaceOnUse">
<stop stop-color="#FEFEFE"/>
<stop offset="1" stop-color="#FEFEFE" stop-opacity="0"/>
</linearGradient>
</defs>
</svg>
